G04 #@! TF.FileFunction,Legend,Top*
%FSLAX46Y46*%
G04 Gerber Fmt 4.6, Leading zero omitted, Abs format (unit mm)*
G04 Created by KiCad (PCBNEW (2015-06-09 BZR 5726)-product) date Mon 15 Jun 2015 11:57:40 AM PDT*
%MOMM*%
G01*
G04 APERTURE LIST*
%ADD10C,0.100000*%
%ADD11C,0.200000*%
%ADD12C,0.150000*%
%ADD13C,0.203200*%
%ADD14C,0.125000*%
%ADD15C,0.062500*%
%ADD16C,0.152400*%
G04 APERTURE END LIST*
D10*
D11*
X143500000Y-87500000D02*
X143500000Y-84500000D01*
X142000000Y-89000000D02*
X143500000Y-87500000D01*
X142000000Y-83000000D02*
X143500000Y-84500000D01*
D10*
X139473810Y-150880952D02*
X139973810Y-150880952D01*
X139973810Y-150761905D01*
X139950000Y-150690476D01*
X139902381Y-150642857D01*
X139854762Y-150619048D01*
X139759524Y-150595238D01*
X139688095Y-150595238D01*
X139592857Y-150619048D01*
X139545238Y-150642857D01*
X139497619Y-150690476D01*
X139473810Y-150761905D01*
X139473810Y-150880952D01*
X139497619Y-150190476D02*
X139473810Y-150238095D01*
X139473810Y-150333333D01*
X139497619Y-150380952D01*
X139545238Y-150404762D01*
X139735714Y-150404762D01*
X139783333Y-150380952D01*
X139807143Y-150333333D01*
X139807143Y-150238095D01*
X139783333Y-150190476D01*
X139735714Y-150166667D01*
X139688095Y-150166667D01*
X139640476Y-150404762D01*
X139497619Y-149976191D02*
X139473810Y-149928572D01*
X139473810Y-149833334D01*
X139497619Y-149785715D01*
X139545238Y-149761905D01*
X139569048Y-149761905D01*
X139616667Y-149785715D01*
X139640476Y-149833334D01*
X139640476Y-149904762D01*
X139664286Y-149952381D01*
X139711905Y-149976191D01*
X139735714Y-149976191D01*
X139783333Y-149952381D01*
X139807143Y-149904762D01*
X139807143Y-149833334D01*
X139783333Y-149785715D01*
X139497619Y-149357143D02*
X139473810Y-149404762D01*
X139473810Y-149500000D01*
X139497619Y-149547619D01*
X139545238Y-149571429D01*
X139735714Y-149571429D01*
X139783333Y-149547619D01*
X139807143Y-149500000D01*
X139807143Y-149404762D01*
X139783333Y-149357143D01*
X139735714Y-149333334D01*
X139688095Y-149333334D01*
X139640476Y-149571429D01*
X139473810Y-149119048D02*
X139807143Y-149119048D01*
X139711905Y-149119048D02*
X139759524Y-149095239D01*
X139783333Y-149071429D01*
X139807143Y-149023810D01*
X139807143Y-148976191D01*
X139807143Y-148880953D02*
X139807143Y-148690477D01*
X139973810Y-148809524D02*
X139545238Y-148809524D01*
X139497619Y-148785715D01*
X139473810Y-148738096D01*
X139473810Y-148690477D01*
X139473810Y-147904763D02*
X139473810Y-148142858D01*
X139973810Y-148142858D01*
X139473810Y-147738096D02*
X139807143Y-147738096D01*
X139973810Y-147738096D02*
X139950000Y-147761906D01*
X139926190Y-147738096D01*
X139950000Y-147714287D01*
X139973810Y-147738096D01*
X139926190Y-147738096D01*
X139807143Y-147547620D02*
X139807143Y-147285716D01*
X139473810Y-147547620D01*
X139473810Y-147285716D01*
X139473810Y-146880954D02*
X139735714Y-146880954D01*
X139783333Y-146904763D01*
X139807143Y-146952382D01*
X139807143Y-147047620D01*
X139783333Y-147095239D01*
X139497619Y-146880954D02*
X139473810Y-146928573D01*
X139473810Y-147047620D01*
X139497619Y-147095239D01*
X139545238Y-147119049D01*
X139592857Y-147119049D01*
X139640476Y-147095239D01*
X139664286Y-147047620D01*
X139664286Y-146928573D01*
X139688095Y-146880954D01*
X139473810Y-146642858D02*
X139807143Y-146642858D01*
X139711905Y-146642858D02*
X139759524Y-146619049D01*
X139783333Y-146595239D01*
X139807143Y-146547620D01*
X139807143Y-146500001D01*
X139473810Y-146119049D02*
X139973810Y-146119049D01*
X139497619Y-146119049D02*
X139473810Y-146166668D01*
X139473810Y-146261906D01*
X139497619Y-146309525D01*
X139521429Y-146333334D01*
X139569048Y-146357144D01*
X139711905Y-146357144D01*
X139759524Y-146333334D01*
X139783333Y-146309525D01*
X139807143Y-146261906D01*
X139807143Y-146166668D01*
X139783333Y-146119049D01*
X139735714Y-145333335D02*
X139711905Y-145261906D01*
X139688095Y-145238097D01*
X139640476Y-145214287D01*
X139569048Y-145214287D01*
X139521429Y-145238097D01*
X139497619Y-145261906D01*
X139473810Y-145309525D01*
X139473810Y-145500001D01*
X139973810Y-145500001D01*
X139973810Y-145333335D01*
X139950000Y-145285716D01*
X139926190Y-145261906D01*
X139878571Y-145238097D01*
X139830952Y-145238097D01*
X139783333Y-145261906D01*
X139759524Y-145285716D01*
X139735714Y-145333335D01*
X139735714Y-145500001D01*
X139473810Y-144928573D02*
X139497619Y-144976192D01*
X139521429Y-145000001D01*
X139569048Y-145023811D01*
X139711905Y-145023811D01*
X139759524Y-145000001D01*
X139783333Y-144976192D01*
X139807143Y-144928573D01*
X139807143Y-144857144D01*
X139783333Y-144809525D01*
X139759524Y-144785716D01*
X139711905Y-144761906D01*
X139569048Y-144761906D01*
X139521429Y-144785716D01*
X139497619Y-144809525D01*
X139473810Y-144857144D01*
X139473810Y-144928573D01*
X139473810Y-144333335D02*
X139735714Y-144333335D01*
X139783333Y-144357144D01*
X139807143Y-144404763D01*
X139807143Y-144500001D01*
X139783333Y-144547620D01*
X139497619Y-144333335D02*
X139473810Y-144380954D01*
X139473810Y-144500001D01*
X139497619Y-144547620D01*
X139545238Y-144571430D01*
X139592857Y-144571430D01*
X139640476Y-144547620D01*
X139664286Y-144500001D01*
X139664286Y-144380954D01*
X139688095Y-144333335D01*
X139473810Y-144095239D02*
X139807143Y-144095239D01*
X139711905Y-144095239D02*
X139759524Y-144071430D01*
X139783333Y-144047620D01*
X139807143Y-144000001D01*
X139807143Y-143952382D01*
X139473810Y-143571430D02*
X139973810Y-143571430D01*
X139497619Y-143571430D02*
X139473810Y-143619049D01*
X139473810Y-143714287D01*
X139497619Y-143761906D01*
X139521429Y-143785715D01*
X139569048Y-143809525D01*
X139711905Y-143809525D01*
X139759524Y-143785715D01*
X139783333Y-143761906D01*
X139807143Y-143714287D01*
X139807143Y-143619049D01*
X139783333Y-143571430D01*
X138721429Y-150595238D02*
X138697619Y-150619048D01*
X138673810Y-150690476D01*
X138673810Y-150738095D01*
X138697619Y-150809524D01*
X138745238Y-150857143D01*
X138792857Y-150880952D01*
X138888095Y-150904762D01*
X138959524Y-150904762D01*
X139054762Y-150880952D01*
X139102381Y-150857143D01*
X139150000Y-150809524D01*
X139173810Y-150738095D01*
X139173810Y-150690476D01*
X139150000Y-150619048D01*
X139126190Y-150595238D01*
X138673810Y-150309524D02*
X138697619Y-150357143D01*
X138721429Y-150380952D01*
X138769048Y-150404762D01*
X138911905Y-150404762D01*
X138959524Y-150380952D01*
X138983333Y-150357143D01*
X139007143Y-150309524D01*
X139007143Y-150238095D01*
X138983333Y-150190476D01*
X138959524Y-150166667D01*
X138911905Y-150142857D01*
X138769048Y-150142857D01*
X138721429Y-150166667D01*
X138697619Y-150190476D01*
X138673810Y-150238095D01*
X138673810Y-150309524D01*
X139007143Y-149928571D02*
X138507143Y-149928571D01*
X138983333Y-149928571D02*
X139007143Y-149880952D01*
X139007143Y-149785714D01*
X138983333Y-149738095D01*
X138959524Y-149714286D01*
X138911905Y-149690476D01*
X138769048Y-149690476D01*
X138721429Y-149714286D01*
X138697619Y-149738095D01*
X138673810Y-149785714D01*
X138673810Y-149880952D01*
X138697619Y-149928571D01*
X139007143Y-149523809D02*
X138673810Y-149404762D01*
X139007143Y-149285714D02*
X138673810Y-149404762D01*
X138554762Y-149452381D01*
X138530952Y-149476190D01*
X138507143Y-149523809D01*
X138673810Y-149095238D02*
X139007143Y-149095238D01*
X138911905Y-149095238D02*
X138959524Y-149071429D01*
X138983333Y-149047619D01*
X139007143Y-149000000D01*
X139007143Y-148952381D01*
X138673810Y-148785714D02*
X139007143Y-148785714D01*
X139173810Y-148785714D02*
X139150000Y-148809524D01*
X139126190Y-148785714D01*
X139150000Y-148761905D01*
X139173810Y-148785714D01*
X139126190Y-148785714D01*
X139007143Y-148333334D02*
X138602381Y-148333334D01*
X138554762Y-148357143D01*
X138530952Y-148380953D01*
X138507143Y-148428572D01*
X138507143Y-148500000D01*
X138530952Y-148547619D01*
X138697619Y-148333334D02*
X138673810Y-148380953D01*
X138673810Y-148476191D01*
X138697619Y-148523810D01*
X138721429Y-148547619D01*
X138769048Y-148571429D01*
X138911905Y-148571429D01*
X138959524Y-148547619D01*
X138983333Y-148523810D01*
X139007143Y-148476191D01*
X139007143Y-148380953D01*
X138983333Y-148333334D01*
X138673810Y-148095238D02*
X139173810Y-148095238D01*
X138673810Y-147880953D02*
X138935714Y-147880953D01*
X138983333Y-147904762D01*
X139007143Y-147952381D01*
X139007143Y-148023810D01*
X138983333Y-148071429D01*
X138959524Y-148095238D01*
X139007143Y-147714286D02*
X139007143Y-147523810D01*
X139173810Y-147642857D02*
X138745238Y-147642857D01*
X138697619Y-147619048D01*
X138673810Y-147571429D01*
X138673810Y-147523810D01*
X139054762Y-146571429D02*
X139078571Y-146619049D01*
X139078571Y-146714287D01*
X139054762Y-146761906D01*
X139007143Y-146809525D01*
X138959524Y-146833334D01*
X138864286Y-146833334D01*
X138816667Y-146809525D01*
X138769048Y-146761906D01*
X138745238Y-146714287D01*
X138745238Y-146619049D01*
X138769048Y-146571429D01*
X139245238Y-146666668D02*
X139221429Y-146785715D01*
X139150000Y-146904763D01*
X139030952Y-146976191D01*
X138911905Y-147000001D01*
X138792857Y-146976191D01*
X138673810Y-146904763D01*
X138602381Y-146785715D01*
X138578571Y-146666668D01*
X138602381Y-146547620D01*
X138673810Y-146428572D01*
X138792857Y-146357144D01*
X138911905Y-146333334D01*
X139030952Y-146357144D01*
X139150000Y-146428572D01*
X139221429Y-146547620D01*
X139245238Y-146666668D01*
X139126190Y-145761906D02*
X139150000Y-145738096D01*
X139173810Y-145690477D01*
X139173810Y-145571430D01*
X139150000Y-145523811D01*
X139126190Y-145500001D01*
X139078571Y-145476192D01*
X139030952Y-145476192D01*
X138959524Y-145500001D01*
X138673810Y-145785715D01*
X138673810Y-145476192D01*
X139173810Y-145166668D02*
X139173810Y-145119049D01*
X139150000Y-145071430D01*
X139126190Y-145047621D01*
X139078571Y-145023811D01*
X138983333Y-145000002D01*
X138864286Y-145000002D01*
X138769048Y-145023811D01*
X138721429Y-145047621D01*
X138697619Y-145071430D01*
X138673810Y-145119049D01*
X138673810Y-145166668D01*
X138697619Y-145214287D01*
X138721429Y-145238097D01*
X138769048Y-145261906D01*
X138864286Y-145285716D01*
X138983333Y-145285716D01*
X139078571Y-145261906D01*
X139126190Y-145238097D01*
X139150000Y-145214287D01*
X139173810Y-145166668D01*
X138673810Y-144523812D02*
X138673810Y-144809526D01*
X138673810Y-144666669D02*
X139173810Y-144666669D01*
X139102381Y-144714288D01*
X139054762Y-144761907D01*
X139030952Y-144809526D01*
X139173810Y-144071431D02*
X139173810Y-144309526D01*
X138935714Y-144333336D01*
X138959524Y-144309526D01*
X138983333Y-144261907D01*
X138983333Y-144142860D01*
X138959524Y-144095241D01*
X138935714Y-144071431D01*
X138888095Y-144047622D01*
X138769048Y-144047622D01*
X138721429Y-144071431D01*
X138697619Y-144095241D01*
X138673810Y-144142860D01*
X138673810Y-144261907D01*
X138697619Y-144309526D01*
X138721429Y-144333336D01*
X138935714Y-143285718D02*
X138911905Y-143214289D01*
X138888095Y-143190480D01*
X138840476Y-143166670D01*
X138769048Y-143166670D01*
X138721429Y-143190480D01*
X138697619Y-143214289D01*
X138673810Y-143261908D01*
X138673810Y-143452384D01*
X139173810Y-143452384D01*
X139173810Y-143285718D01*
X139150000Y-143238099D01*
X139126190Y-143214289D01*
X139078571Y-143190480D01*
X139030952Y-143190480D01*
X138983333Y-143214289D01*
X138959524Y-143238099D01*
X138935714Y-143285718D01*
X138935714Y-143452384D01*
X138673810Y-142738099D02*
X138935714Y-142738099D01*
X138983333Y-142761908D01*
X139007143Y-142809527D01*
X139007143Y-142904765D01*
X138983333Y-142952384D01*
X138697619Y-142738099D02*
X138673810Y-142785718D01*
X138673810Y-142904765D01*
X138697619Y-142952384D01*
X138745238Y-142976194D01*
X138792857Y-142976194D01*
X138840476Y-142952384D01*
X138864286Y-142904765D01*
X138864286Y-142785718D01*
X138888095Y-142738099D01*
X138673810Y-142500003D02*
X139007143Y-142500003D01*
X138911905Y-142500003D02*
X138959524Y-142476194D01*
X138983333Y-142452384D01*
X139007143Y-142404765D01*
X139007143Y-142357146D01*
X139007143Y-142261908D02*
X139007143Y-142071432D01*
X139173810Y-142190479D02*
X138745238Y-142190479D01*
X138697619Y-142166670D01*
X138673810Y-142119051D01*
X138673810Y-142071432D01*
X138673810Y-141523813D02*
X139173810Y-141523813D01*
X138816667Y-141357147D01*
X139173810Y-141190480D01*
X138673810Y-141190480D01*
X138673810Y-140738099D02*
X138935714Y-140738099D01*
X138983333Y-140761908D01*
X139007143Y-140809527D01*
X139007143Y-140904765D01*
X138983333Y-140952384D01*
X138697619Y-140738099D02*
X138673810Y-140785718D01*
X138673810Y-140904765D01*
X138697619Y-140952384D01*
X138745238Y-140976194D01*
X138792857Y-140976194D01*
X138840476Y-140952384D01*
X138864286Y-140904765D01*
X138864286Y-140785718D01*
X138888095Y-140738099D01*
X138697619Y-140523813D02*
X138673810Y-140476194D01*
X138673810Y-140380956D01*
X138697619Y-140333337D01*
X138745238Y-140309527D01*
X138769048Y-140309527D01*
X138816667Y-140333337D01*
X138840476Y-140380956D01*
X138840476Y-140452384D01*
X138864286Y-140500003D01*
X138911905Y-140523813D01*
X138935714Y-140523813D01*
X138983333Y-140500003D01*
X139007143Y-140452384D01*
X139007143Y-140380956D01*
X138983333Y-140333337D01*
X138697619Y-140119051D02*
X138673810Y-140071432D01*
X138673810Y-139976194D01*
X138697619Y-139928575D01*
X138745238Y-139904765D01*
X138769048Y-139904765D01*
X138816667Y-139928575D01*
X138840476Y-139976194D01*
X138840476Y-140047622D01*
X138864286Y-140095241D01*
X138911905Y-140119051D01*
X138935714Y-140119051D01*
X138983333Y-140095241D01*
X139007143Y-140047622D01*
X139007143Y-139976194D01*
X138983333Y-139928575D01*
X138697619Y-139500003D02*
X138673810Y-139547622D01*
X138673810Y-139642860D01*
X138697619Y-139690479D01*
X138745238Y-139714289D01*
X138935714Y-139714289D01*
X138983333Y-139690479D01*
X139007143Y-139642860D01*
X139007143Y-139547622D01*
X138983333Y-139500003D01*
X138935714Y-139476194D01*
X138888095Y-139476194D01*
X138840476Y-139714289D01*
X139007143Y-139309527D02*
X138673810Y-139190480D01*
X139007143Y-139071432D02*
X138673810Y-139190480D01*
X138554762Y-139238099D01*
X138530952Y-139261908D01*
X138507143Y-139309527D01*
X137873810Y-150880952D02*
X138373810Y-150880952D01*
X137873810Y-150666667D02*
X138135714Y-150666667D01*
X138183333Y-150690476D01*
X138207143Y-150738095D01*
X138207143Y-150809524D01*
X138183333Y-150857143D01*
X138159524Y-150880952D01*
X138207143Y-150500000D02*
X138207143Y-150309524D01*
X138373810Y-150428571D02*
X137945238Y-150428571D01*
X137897619Y-150404762D01*
X137873810Y-150357143D01*
X137873810Y-150309524D01*
X138207143Y-150214286D02*
X138207143Y-150023810D01*
X138373810Y-150142857D02*
X137945238Y-150142857D01*
X137897619Y-150119048D01*
X137873810Y-150071429D01*
X137873810Y-150023810D01*
X138207143Y-149857143D02*
X137707143Y-149857143D01*
X138183333Y-149857143D02*
X138207143Y-149809524D01*
X138207143Y-149714286D01*
X138183333Y-149666667D01*
X138159524Y-149642858D01*
X138111905Y-149619048D01*
X137969048Y-149619048D01*
X137921429Y-149642858D01*
X137897619Y-149666667D01*
X137873810Y-149714286D01*
X137873810Y-149809524D01*
X137897619Y-149857143D01*
X137921429Y-149404762D02*
X137897619Y-149380953D01*
X137873810Y-149404762D01*
X137897619Y-149428572D01*
X137921429Y-149404762D01*
X137873810Y-149404762D01*
X138183333Y-149404762D02*
X138159524Y-149380953D01*
X138135714Y-149404762D01*
X138159524Y-149428572D01*
X138183333Y-149404762D01*
X138135714Y-149404762D01*
X138397619Y-148809525D02*
X137754762Y-149238096D01*
X138397619Y-148285715D02*
X137754762Y-148714286D01*
X138207143Y-147904762D02*
X137802381Y-147904762D01*
X137754762Y-147928571D01*
X137730952Y-147952381D01*
X137707143Y-148000000D01*
X137707143Y-148071428D01*
X137730952Y-148119047D01*
X137897619Y-147904762D02*
X137873810Y-147952381D01*
X137873810Y-148047619D01*
X137897619Y-148095238D01*
X137921429Y-148119047D01*
X137969048Y-148142857D01*
X138111905Y-148142857D01*
X138159524Y-148119047D01*
X138183333Y-148095238D01*
X138207143Y-148047619D01*
X138207143Y-147952381D01*
X138183333Y-147904762D01*
X137873810Y-147666666D02*
X138207143Y-147666666D01*
X138373810Y-147666666D02*
X138350000Y-147690476D01*
X138326190Y-147666666D01*
X138350000Y-147642857D01*
X138373810Y-147666666D01*
X138326190Y-147666666D01*
X138207143Y-147500000D02*
X138207143Y-147309524D01*
X138373810Y-147428571D02*
X137945238Y-147428571D01*
X137897619Y-147404762D01*
X137873810Y-147357143D01*
X137873810Y-147309524D01*
X137873810Y-147142857D02*
X138373810Y-147142857D01*
X137873810Y-146928572D02*
X138135714Y-146928572D01*
X138183333Y-146952381D01*
X138207143Y-147000000D01*
X138207143Y-147071429D01*
X138183333Y-147119048D01*
X138159524Y-147142857D01*
X138207143Y-146476191D02*
X137873810Y-146476191D01*
X138207143Y-146690476D02*
X137945238Y-146690476D01*
X137897619Y-146666667D01*
X137873810Y-146619048D01*
X137873810Y-146547619D01*
X137897619Y-146500000D01*
X137921429Y-146476191D01*
X137873810Y-146238095D02*
X138373810Y-146238095D01*
X138183333Y-146238095D02*
X138207143Y-146190476D01*
X138207143Y-146095238D01*
X138183333Y-146047619D01*
X138159524Y-146023810D01*
X138111905Y-146000000D01*
X137969048Y-146000000D01*
X137921429Y-146023810D01*
X137897619Y-146047619D01*
X137873810Y-146095238D01*
X137873810Y-146190476D01*
X137897619Y-146238095D01*
X137921429Y-145785714D02*
X137897619Y-145761905D01*
X137873810Y-145785714D01*
X137897619Y-145809524D01*
X137921429Y-145785714D01*
X137873810Y-145785714D01*
X137897619Y-145333334D02*
X137873810Y-145380953D01*
X137873810Y-145476191D01*
X137897619Y-145523810D01*
X137921429Y-145547619D01*
X137969048Y-145571429D01*
X138111905Y-145571429D01*
X138159524Y-145547619D01*
X138183333Y-145523810D01*
X138207143Y-145476191D01*
X138207143Y-145380953D01*
X138183333Y-145333334D01*
X137873810Y-145047620D02*
X137897619Y-145095239D01*
X137921429Y-145119048D01*
X137969048Y-145142858D01*
X138111905Y-145142858D01*
X138159524Y-145119048D01*
X138183333Y-145095239D01*
X138207143Y-145047620D01*
X138207143Y-144976191D01*
X138183333Y-144928572D01*
X138159524Y-144904763D01*
X138111905Y-144880953D01*
X137969048Y-144880953D01*
X137921429Y-144904763D01*
X137897619Y-144928572D01*
X137873810Y-144976191D01*
X137873810Y-145047620D01*
X137873810Y-144666667D02*
X138207143Y-144666667D01*
X138159524Y-144666667D02*
X138183333Y-144642858D01*
X138207143Y-144595239D01*
X138207143Y-144523810D01*
X138183333Y-144476191D01*
X138135714Y-144452382D01*
X137873810Y-144452382D01*
X138135714Y-144452382D02*
X138183333Y-144428572D01*
X138207143Y-144380953D01*
X138207143Y-144309525D01*
X138183333Y-144261905D01*
X138135714Y-144238096D01*
X137873810Y-144238096D01*
X138397619Y-143642858D02*
X137754762Y-144071429D01*
X138135714Y-143309524D02*
X138111905Y-143238095D01*
X138088095Y-143214286D01*
X138040476Y-143190476D01*
X137969048Y-143190476D01*
X137921429Y-143214286D01*
X137897619Y-143238095D01*
X137873810Y-143285714D01*
X137873810Y-143476190D01*
X138373810Y-143476190D01*
X138373810Y-143309524D01*
X138350000Y-143261905D01*
X138326190Y-143238095D01*
X138278571Y-143214286D01*
X138230952Y-143214286D01*
X138183333Y-143238095D01*
X138159524Y-143261905D01*
X138135714Y-143309524D01*
X138135714Y-143476190D01*
X137873810Y-142761905D02*
X138135714Y-142761905D01*
X138183333Y-142785714D01*
X138207143Y-142833333D01*
X138207143Y-142928571D01*
X138183333Y-142976190D01*
X137897619Y-142761905D02*
X137873810Y-142809524D01*
X137873810Y-142928571D01*
X137897619Y-142976190D01*
X137945238Y-143000000D01*
X137992857Y-143000000D01*
X138040476Y-142976190D01*
X138064286Y-142928571D01*
X138064286Y-142809524D01*
X138088095Y-142761905D01*
X137873810Y-142523809D02*
X138207143Y-142523809D01*
X138111905Y-142523809D02*
X138159524Y-142500000D01*
X138183333Y-142476190D01*
X138207143Y-142428571D01*
X138207143Y-142380952D01*
X138207143Y-142285714D02*
X138207143Y-142095238D01*
X138373810Y-142214285D02*
X137945238Y-142214285D01*
X137897619Y-142190476D01*
X137873810Y-142142857D01*
X137873810Y-142095238D01*
X137873810Y-141928571D02*
X138373810Y-141928571D01*
X138016667Y-141761905D01*
X138373810Y-141595238D01*
X137873810Y-141595238D01*
X137873810Y-141142857D02*
X138135714Y-141142857D01*
X138183333Y-141166666D01*
X138207143Y-141214285D01*
X138207143Y-141309523D01*
X138183333Y-141357142D01*
X137897619Y-141142857D02*
X137873810Y-141190476D01*
X137873810Y-141309523D01*
X137897619Y-141357142D01*
X137945238Y-141380952D01*
X137992857Y-141380952D01*
X138040476Y-141357142D01*
X138064286Y-141309523D01*
X138064286Y-141190476D01*
X138088095Y-141142857D01*
X137897619Y-140928571D02*
X137873810Y-140880952D01*
X137873810Y-140785714D01*
X137897619Y-140738095D01*
X137945238Y-140714285D01*
X137969048Y-140714285D01*
X138016667Y-140738095D01*
X138040476Y-140785714D01*
X138040476Y-140857142D01*
X138064286Y-140904761D01*
X138111905Y-140928571D01*
X138135714Y-140928571D01*
X138183333Y-140904761D01*
X138207143Y-140857142D01*
X138207143Y-140785714D01*
X138183333Y-140738095D01*
X137897619Y-140523809D02*
X137873810Y-140476190D01*
X137873810Y-140380952D01*
X137897619Y-140333333D01*
X137945238Y-140309523D01*
X137969048Y-140309523D01*
X138016667Y-140333333D01*
X138040476Y-140380952D01*
X138040476Y-140452380D01*
X138064286Y-140499999D01*
X138111905Y-140523809D01*
X138135714Y-140523809D01*
X138183333Y-140499999D01*
X138207143Y-140452380D01*
X138207143Y-140380952D01*
X138183333Y-140333333D01*
X137897619Y-139904761D02*
X137873810Y-139952380D01*
X137873810Y-140047618D01*
X137897619Y-140095237D01*
X137945238Y-140119047D01*
X138135714Y-140119047D01*
X138183333Y-140095237D01*
X138207143Y-140047618D01*
X138207143Y-139952380D01*
X138183333Y-139904761D01*
X138135714Y-139880952D01*
X138088095Y-139880952D01*
X138040476Y-140119047D01*
X138207143Y-139714285D02*
X137873810Y-139595238D01*
X138207143Y-139476190D02*
X137873810Y-139595238D01*
X137754762Y-139642857D01*
X137730952Y-139666666D01*
X137707143Y-139714285D01*
X138397619Y-138928572D02*
X137754762Y-139357143D01*
X137873810Y-138690476D02*
X137897619Y-138738095D01*
X137945238Y-138761904D01*
X138373810Y-138761904D01*
X137873810Y-138499999D02*
X138207143Y-138499999D01*
X138373810Y-138499999D02*
X138350000Y-138523809D01*
X138326190Y-138499999D01*
X138350000Y-138476190D01*
X138373810Y-138499999D01*
X138326190Y-138499999D01*
X138207143Y-138309523D02*
X138207143Y-138047619D01*
X137873810Y-138309523D01*
X137873810Y-138047619D01*
X137873810Y-137642857D02*
X138135714Y-137642857D01*
X138183333Y-137666666D01*
X138207143Y-137714285D01*
X138207143Y-137809523D01*
X138183333Y-137857142D01*
X137897619Y-137642857D02*
X137873810Y-137690476D01*
X137873810Y-137809523D01*
X137897619Y-137857142D01*
X137945238Y-137880952D01*
X137992857Y-137880952D01*
X138040476Y-137857142D01*
X138064286Y-137809523D01*
X138064286Y-137690476D01*
X138088095Y-137642857D01*
X137873810Y-137404761D02*
X138207143Y-137404761D01*
X138111905Y-137404761D02*
X138159524Y-137380952D01*
X138183333Y-137357142D01*
X138207143Y-137309523D01*
X138207143Y-137261904D01*
X137873810Y-136880952D02*
X138373810Y-136880952D01*
X137897619Y-136880952D02*
X137873810Y-136928571D01*
X137873810Y-137023809D01*
X137897619Y-137071428D01*
X137921429Y-137095237D01*
X137969048Y-137119047D01*
X138111905Y-137119047D01*
X138159524Y-137095237D01*
X138183333Y-137071428D01*
X138207143Y-137023809D01*
X138207143Y-136928571D01*
X138183333Y-136880952D01*
X137573810Y-150785714D02*
X137573810Y-150690476D01*
X137550000Y-150642857D01*
X137502381Y-150595238D01*
X137407143Y-150571429D01*
X137240476Y-150571429D01*
X137145238Y-150595238D01*
X137097619Y-150642857D01*
X137073810Y-150690476D01*
X137073810Y-150785714D01*
X137097619Y-150833333D01*
X137145238Y-150880952D01*
X137240476Y-150904762D01*
X137407143Y-150904762D01*
X137502381Y-150880952D01*
X137550000Y-150833333D01*
X137573810Y-150785714D01*
X137407143Y-150357142D02*
X136907143Y-150357142D01*
X137383333Y-150357142D02*
X137407143Y-150309523D01*
X137407143Y-150214285D01*
X137383333Y-150166666D01*
X137359524Y-150142857D01*
X137311905Y-150119047D01*
X137169048Y-150119047D01*
X137121429Y-150142857D01*
X137097619Y-150166666D01*
X137073810Y-150214285D01*
X137073810Y-150309523D01*
X137097619Y-150357142D01*
X137097619Y-149714285D02*
X137073810Y-149761904D01*
X137073810Y-149857142D01*
X137097619Y-149904761D01*
X137145238Y-149928571D01*
X137335714Y-149928571D01*
X137383333Y-149904761D01*
X137407143Y-149857142D01*
X137407143Y-149761904D01*
X137383333Y-149714285D01*
X137335714Y-149690476D01*
X137288095Y-149690476D01*
X137240476Y-149928571D01*
X137407143Y-149476190D02*
X137073810Y-149476190D01*
X137359524Y-149476190D02*
X137383333Y-149452381D01*
X137407143Y-149404762D01*
X137407143Y-149333333D01*
X137383333Y-149285714D01*
X137335714Y-149261905D01*
X137073810Y-149261905D01*
X137073810Y-148642857D02*
X137573810Y-148642857D01*
X137335714Y-148642857D02*
X137335714Y-148357143D01*
X137073810Y-148357143D02*
X137573810Y-148357143D01*
X137073810Y-147904762D02*
X137335714Y-147904762D01*
X137383333Y-147928571D01*
X137407143Y-147976190D01*
X137407143Y-148071428D01*
X137383333Y-148119047D01*
X137097619Y-147904762D02*
X137073810Y-147952381D01*
X137073810Y-148071428D01*
X137097619Y-148119047D01*
X137145238Y-148142857D01*
X137192857Y-148142857D01*
X137240476Y-148119047D01*
X137264286Y-148071428D01*
X137264286Y-147952381D01*
X137288095Y-147904762D01*
X137073810Y-147666666D02*
X137407143Y-147666666D01*
X137311905Y-147666666D02*
X137359524Y-147642857D01*
X137383333Y-147619047D01*
X137407143Y-147571428D01*
X137407143Y-147523809D01*
X137073810Y-147142857D02*
X137573810Y-147142857D01*
X137097619Y-147142857D02*
X137073810Y-147190476D01*
X137073810Y-147285714D01*
X137097619Y-147333333D01*
X137121429Y-147357142D01*
X137169048Y-147380952D01*
X137311905Y-147380952D01*
X137359524Y-147357142D01*
X137383333Y-147333333D01*
X137407143Y-147285714D01*
X137407143Y-147190476D01*
X137383333Y-147142857D01*
X137407143Y-146952380D02*
X137073810Y-146857142D01*
X137311905Y-146761904D01*
X137073810Y-146666666D01*
X137407143Y-146571428D01*
X137073810Y-146166666D02*
X137335714Y-146166666D01*
X137383333Y-146190475D01*
X137407143Y-146238094D01*
X137407143Y-146333332D01*
X137383333Y-146380951D01*
X137097619Y-146166666D02*
X137073810Y-146214285D01*
X137073810Y-146333332D01*
X137097619Y-146380951D01*
X137145238Y-146404761D01*
X137192857Y-146404761D01*
X137240476Y-146380951D01*
X137264286Y-146333332D01*
X137264286Y-146214285D01*
X137288095Y-146166666D01*
X137073810Y-145928570D02*
X137407143Y-145928570D01*
X137311905Y-145928570D02*
X137359524Y-145904761D01*
X137383333Y-145880951D01*
X137407143Y-145833332D01*
X137407143Y-145785713D01*
X137097619Y-145428570D02*
X137073810Y-145476189D01*
X137073810Y-145571427D01*
X137097619Y-145619046D01*
X137145238Y-145642856D01*
X137335714Y-145642856D01*
X137383333Y-145619046D01*
X137407143Y-145571427D01*
X137407143Y-145476189D01*
X137383333Y-145428570D01*
X137335714Y-145404761D01*
X137288095Y-145404761D01*
X137240476Y-145642856D01*
X137121429Y-145190475D02*
X137097619Y-145166666D01*
X137073810Y-145190475D01*
X137097619Y-145214285D01*
X137121429Y-145190475D01*
X137073810Y-145190475D01*
X137383333Y-145190475D02*
X137359524Y-145166666D01*
X137335714Y-145190475D01*
X137359524Y-145214285D01*
X137383333Y-145190475D01*
X137335714Y-145190475D01*
X137097619Y-144595238D02*
X137073810Y-144547619D01*
X137073810Y-144452381D01*
X137097619Y-144404762D01*
X137145238Y-144380952D01*
X137169048Y-144380952D01*
X137216667Y-144404762D01*
X137240476Y-144452381D01*
X137240476Y-144523809D01*
X137264286Y-144571428D01*
X137311905Y-144595238D01*
X137335714Y-144595238D01*
X137383333Y-144571428D01*
X137407143Y-144523809D01*
X137407143Y-144452381D01*
X137383333Y-144404762D01*
X137097619Y-143976190D02*
X137073810Y-144023809D01*
X137073810Y-144119047D01*
X137097619Y-144166666D01*
X137145238Y-144190476D01*
X137335714Y-144190476D01*
X137383333Y-144166666D01*
X137407143Y-144119047D01*
X137407143Y-144023809D01*
X137383333Y-143976190D01*
X137335714Y-143952381D01*
X137288095Y-143952381D01*
X137240476Y-144190476D01*
X137097619Y-143547619D02*
X137073810Y-143595238D01*
X137073810Y-143690476D01*
X137097619Y-143738095D01*
X137145238Y-143761905D01*
X137335714Y-143761905D01*
X137383333Y-143738095D01*
X137407143Y-143690476D01*
X137407143Y-143595238D01*
X137383333Y-143547619D01*
X137335714Y-143523810D01*
X137288095Y-143523810D01*
X137240476Y-143761905D01*
X137073810Y-142928572D02*
X137407143Y-142928572D01*
X137311905Y-142928572D02*
X137359524Y-142904763D01*
X137383333Y-142880953D01*
X137407143Y-142833334D01*
X137407143Y-142785715D01*
X137097619Y-142428572D02*
X137073810Y-142476191D01*
X137073810Y-142571429D01*
X137097619Y-142619048D01*
X137145238Y-142642858D01*
X137335714Y-142642858D01*
X137383333Y-142619048D01*
X137407143Y-142571429D01*
X137407143Y-142476191D01*
X137383333Y-142428572D01*
X137335714Y-142404763D01*
X137288095Y-142404763D01*
X137240476Y-142642858D01*
X137407143Y-142190477D02*
X136907143Y-142190477D01*
X137383333Y-142190477D02*
X137407143Y-142142858D01*
X137407143Y-142047620D01*
X137383333Y-142000001D01*
X137359524Y-141976192D01*
X137311905Y-141952382D01*
X137169048Y-141952382D01*
X137121429Y-141976192D01*
X137097619Y-142000001D01*
X137073810Y-142047620D01*
X137073810Y-142142858D01*
X137097619Y-142190477D01*
X137073810Y-141666668D02*
X137097619Y-141714287D01*
X137121429Y-141738096D01*
X137169048Y-141761906D01*
X137311905Y-141761906D01*
X137359524Y-141738096D01*
X137383333Y-141714287D01*
X137407143Y-141666668D01*
X137407143Y-141595239D01*
X137383333Y-141547620D01*
X137359524Y-141523811D01*
X137311905Y-141500001D01*
X137169048Y-141500001D01*
X137121429Y-141523811D01*
X137097619Y-141547620D01*
X137073810Y-141595239D01*
X137073810Y-141666668D01*
X137407143Y-140976192D02*
X137407143Y-140785716D01*
X137073810Y-140904763D02*
X137502381Y-140904763D01*
X137550000Y-140880954D01*
X137573810Y-140833335D01*
X137573810Y-140785716D01*
X137073810Y-140547621D02*
X137097619Y-140595240D01*
X137121429Y-140619049D01*
X137169048Y-140642859D01*
X137311905Y-140642859D01*
X137359524Y-140619049D01*
X137383333Y-140595240D01*
X137407143Y-140547621D01*
X137407143Y-140476192D01*
X137383333Y-140428573D01*
X137359524Y-140404764D01*
X137311905Y-140380954D01*
X137169048Y-140380954D01*
X137121429Y-140404764D01*
X137097619Y-140428573D01*
X137073810Y-140476192D01*
X137073810Y-140547621D01*
X137073810Y-140166668D02*
X137407143Y-140166668D01*
X137311905Y-140166668D02*
X137359524Y-140142859D01*
X137383333Y-140119049D01*
X137407143Y-140071430D01*
X137407143Y-140023811D01*
X137073810Y-139404764D02*
X137097619Y-139452383D01*
X137145238Y-139476192D01*
X137573810Y-139476192D01*
X137073810Y-139214287D02*
X137407143Y-139214287D01*
X137573810Y-139214287D02*
X137550000Y-139238097D01*
X137526190Y-139214287D01*
X137550000Y-139190478D01*
X137573810Y-139214287D01*
X137526190Y-139214287D01*
X137097619Y-138761907D02*
X137073810Y-138809526D01*
X137073810Y-138904764D01*
X137097619Y-138952383D01*
X137121429Y-138976192D01*
X137169048Y-139000002D01*
X137311905Y-139000002D01*
X137359524Y-138976192D01*
X137383333Y-138952383D01*
X137407143Y-138904764D01*
X137407143Y-138809526D01*
X137383333Y-138761907D01*
X137097619Y-138357145D02*
X137073810Y-138404764D01*
X137073810Y-138500002D01*
X137097619Y-138547621D01*
X137145238Y-138571431D01*
X137335714Y-138571431D01*
X137383333Y-138547621D01*
X137407143Y-138500002D01*
X137407143Y-138404764D01*
X137383333Y-138357145D01*
X137335714Y-138333336D01*
X137288095Y-138333336D01*
X137240476Y-138571431D01*
X137407143Y-138119050D02*
X137073810Y-138119050D01*
X137359524Y-138119050D02*
X137383333Y-138095241D01*
X137407143Y-138047622D01*
X137407143Y-137976193D01*
X137383333Y-137928574D01*
X137335714Y-137904765D01*
X137073810Y-137904765D01*
X137097619Y-137690479D02*
X137073810Y-137642860D01*
X137073810Y-137547622D01*
X137097619Y-137500003D01*
X137145238Y-137476193D01*
X137169048Y-137476193D01*
X137216667Y-137500003D01*
X137240476Y-137547622D01*
X137240476Y-137619050D01*
X137264286Y-137666669D01*
X137311905Y-137690479D01*
X137335714Y-137690479D01*
X137383333Y-137666669D01*
X137407143Y-137619050D01*
X137407143Y-137547622D01*
X137383333Y-137500003D01*
X137097619Y-137071431D02*
X137073810Y-137119050D01*
X137073810Y-137214288D01*
X137097619Y-137261907D01*
X137145238Y-137285717D01*
X137335714Y-137285717D01*
X137383333Y-137261907D01*
X137407143Y-137214288D01*
X137407143Y-137119050D01*
X137383333Y-137071431D01*
X137335714Y-137047622D01*
X137288095Y-137047622D01*
X137240476Y-137285717D01*
X137407143Y-136523813D02*
X137407143Y-136333337D01*
X137573810Y-136452384D02*
X137145238Y-136452384D01*
X137097619Y-136428575D01*
X137073810Y-136380956D01*
X137073810Y-136333337D01*
X137097619Y-135976194D02*
X137073810Y-136023813D01*
X137073810Y-136119051D01*
X137097619Y-136166670D01*
X137145238Y-136190480D01*
X137335714Y-136190480D01*
X137383333Y-136166670D01*
X137407143Y-136119051D01*
X137407143Y-136023813D01*
X137383333Y-135976194D01*
X137335714Y-135952385D01*
X137288095Y-135952385D01*
X137240476Y-136190480D01*
X137073810Y-135738099D02*
X137407143Y-135738099D01*
X137311905Y-135738099D02*
X137359524Y-135714290D01*
X137383333Y-135690480D01*
X137407143Y-135642861D01*
X137407143Y-135595242D01*
X137073810Y-135428575D02*
X137407143Y-135428575D01*
X137359524Y-135428575D02*
X137383333Y-135404766D01*
X137407143Y-135357147D01*
X137407143Y-135285718D01*
X137383333Y-135238099D01*
X137335714Y-135214290D01*
X137073810Y-135214290D01*
X137335714Y-135214290D02*
X137383333Y-135190480D01*
X137407143Y-135142861D01*
X137407143Y-135071433D01*
X137383333Y-135023813D01*
X137335714Y-135000004D01*
X137073810Y-135000004D01*
X137097619Y-134785718D02*
X137073810Y-134738099D01*
X137073810Y-134642861D01*
X137097619Y-134595242D01*
X137145238Y-134571432D01*
X137169048Y-134571432D01*
X137216667Y-134595242D01*
X137240476Y-134642861D01*
X137240476Y-134714289D01*
X137264286Y-134761908D01*
X137311905Y-134785718D01*
X137335714Y-134785718D01*
X137383333Y-134761908D01*
X137407143Y-134714289D01*
X137407143Y-134642861D01*
X137383333Y-134595242D01*
D12*
X144600000Y-150000000D02*
X145000000Y-150400000D01*
X143700000Y-152100000D02*
X143700000Y-150000000D01*
X143700000Y-150000000D02*
X145000000Y-150000000D01*
X145000000Y-150000000D02*
X145000000Y-152100000D01*
X145000000Y-152100000D02*
X143700000Y-152100000D01*
X150300000Y-149900000D02*
X150700000Y-150300000D01*
X149400000Y-152000000D02*
X149400000Y-149900000D01*
X149400000Y-149900000D02*
X150700000Y-149900000D01*
X150700000Y-149900000D02*
X150700000Y-152000000D01*
X150700000Y-152000000D02*
X149400000Y-152000000D01*
X153000000Y-110000000D02*
G75*
G03X153000000Y-110000000I-6000000J0D01*
G01*
D13*
X146500000Y-128000000D02*
X146500000Y-138000000D01*
X145353553Y-127500000D02*
G75*
G03X145353553Y-127500000I-353553J0D01*
G01*
X149500000Y-128000000D02*
X145500000Y-128000000D01*
X145500000Y-128000000D02*
X145500000Y-138000000D01*
X145500000Y-138000000D02*
X149500000Y-138000000D01*
X149500000Y-138000000D02*
X149500000Y-128000000D01*
D12*
X139500000Y-119525000D02*
X141500000Y-119525000D01*
X141500000Y-117475000D02*
X139500000Y-117475000D01*
X139500000Y-124025000D02*
X141500000Y-124025000D01*
X141500000Y-121975000D02*
X139500000Y-121975000D01*
X148500000Y-121875000D02*
X146500000Y-121875000D01*
X146500000Y-123925000D02*
X148500000Y-123925000D01*
X153575000Y-141500000D02*
X153575000Y-143500000D01*
X151425000Y-143500000D02*
X151425000Y-141500000D01*
X141575000Y-141500000D02*
X141575000Y-143500000D01*
X139425000Y-143500000D02*
X139425000Y-141500000D01*
X147425000Y-143500000D02*
X147425000Y-141500000D01*
X149575000Y-141500000D02*
X149575000Y-143500000D01*
X145575000Y-141500000D02*
X145575000Y-143500000D01*
X143425000Y-143500000D02*
X143425000Y-141500000D01*
X154975000Y-118600000D02*
X154975000Y-120600000D01*
X152825000Y-120600000D02*
X152825000Y-118600000D01*
X141770000Y-135230000D02*
X141770000Y-127610000D01*
X139230000Y-135230000D02*
X139230000Y-127610000D01*
X138950000Y-138050000D02*
X138950000Y-136500000D01*
X141770000Y-127610000D02*
X139230000Y-127610000D01*
X139230000Y-135230000D02*
X141770000Y-135230000D01*
X142050000Y-136500000D02*
X142050000Y-138050000D01*
X142050000Y-138050000D02*
X138950000Y-138050000D01*
X146500000Y-117425000D02*
X148500000Y-117425000D01*
X148500000Y-119575000D02*
X146500000Y-119575000D01*
X155075000Y-125200000D02*
X155075000Y-127200000D01*
X152925000Y-127200000D02*
X152925000Y-125200000D01*
X139100000Y-81000000D02*
X142100000Y-84000000D01*
X142100000Y-84000000D02*
X142100000Y-88000000D01*
X142100000Y-88000000D02*
X139100000Y-91000000D01*
X143600000Y-75250000D02*
X143600000Y-70000000D01*
X150600000Y-75250000D02*
X150600000Y-70000000D01*
X150600000Y-70000000D02*
X143600000Y-70000000D01*
X150600000Y-102000000D02*
X143600000Y-102000000D01*
X143600000Y-102000000D02*
X143600000Y-96750000D01*
X150600000Y-96750000D02*
X150600000Y-102000000D01*
X139100000Y-94000000D02*
X139100000Y-78000000D01*
X155100000Y-78000000D02*
X155100000Y-93750000D01*
X158350000Y-86000000D02*
G75*
G03X158350000Y-86000000I-11250000J0D01*
G01*
D14*
X143226190Y-151469047D02*
X142726190Y-151469047D01*
X142726190Y-151350000D01*
X142750000Y-151278571D01*
X142797619Y-151230952D01*
X142845238Y-151207143D01*
X142940476Y-151183333D01*
X143011905Y-151183333D01*
X143107143Y-151207143D01*
X143154762Y-151230952D01*
X143202381Y-151278571D01*
X143226190Y-151350000D01*
X143226190Y-151469047D01*
X143226190Y-150707143D02*
X143226190Y-150992857D01*
X143226190Y-150850000D02*
X142726190Y-150850000D01*
X142797619Y-150897619D01*
X142845238Y-150945238D01*
X142869048Y-150992857D01*
X145976190Y-152188095D02*
X145976190Y-152426190D01*
X145476190Y-152426190D01*
X145714286Y-152021428D02*
X145714286Y-151854762D01*
X145976190Y-151783333D02*
X145976190Y-152021428D01*
X145476190Y-152021428D01*
X145476190Y-151783333D01*
X145976190Y-151569047D02*
X145476190Y-151569047D01*
X145476190Y-151450000D01*
X145500000Y-151378571D01*
X145547619Y-151330952D01*
X145595238Y-151307143D01*
X145690476Y-151283333D01*
X145761905Y-151283333D01*
X145857143Y-151307143D01*
X145904762Y-151330952D01*
X145952381Y-151378571D01*
X145976190Y-151450000D01*
X145976190Y-151569047D01*
X145976190Y-150402381D02*
X145738095Y-150569048D01*
X145976190Y-150688095D02*
X145476190Y-150688095D01*
X145476190Y-150497619D01*
X145500000Y-150450000D01*
X145523810Y-150426191D01*
X145571429Y-150402381D01*
X145642857Y-150402381D01*
X145690476Y-150426191D01*
X145714286Y-150450000D01*
X145738095Y-150497619D01*
X145738095Y-150688095D01*
X145714286Y-150188095D02*
X145714286Y-150021429D01*
X145976190Y-149950000D02*
X145976190Y-150188095D01*
X145476190Y-150188095D01*
X145476190Y-149950000D01*
X145976190Y-149735714D02*
X145476190Y-149735714D01*
X145476190Y-149616667D01*
X145500000Y-149545238D01*
X145547619Y-149497619D01*
X145595238Y-149473810D01*
X145690476Y-149450000D01*
X145761905Y-149450000D01*
X145857143Y-149473810D01*
X145904762Y-149497619D01*
X145952381Y-149545238D01*
X145976190Y-149616667D01*
X145976190Y-149735714D01*
D15*
X145289286Y-149672619D02*
X145301190Y-149684524D01*
X145313095Y-149720238D01*
X145313095Y-149744048D01*
X145301190Y-149779762D01*
X145277381Y-149803571D01*
X145253571Y-149815476D01*
X145205952Y-149827381D01*
X145170238Y-149827381D01*
X145122619Y-149815476D01*
X145098810Y-149803571D01*
X145075000Y-149779762D01*
X145063095Y-149744048D01*
X145063095Y-149720238D01*
X145075000Y-149684524D01*
X145086905Y-149672619D01*
D14*
X149026190Y-151369047D02*
X148526190Y-151369047D01*
X148526190Y-151250000D01*
X148550000Y-151178571D01*
X148597619Y-151130952D01*
X148645238Y-151107143D01*
X148740476Y-151083333D01*
X148811905Y-151083333D01*
X148907143Y-151107143D01*
X148954762Y-151130952D01*
X149002381Y-151178571D01*
X149026190Y-151250000D01*
X149026190Y-151369047D01*
X148573810Y-150892857D02*
X148550000Y-150869047D01*
X148526190Y-150821428D01*
X148526190Y-150702381D01*
X148550000Y-150654762D01*
X148573810Y-150630952D01*
X148621429Y-150607143D01*
X148669048Y-150607143D01*
X148740476Y-150630952D01*
X149026190Y-150916666D01*
X149026190Y-150607143D01*
X151676190Y-152123809D02*
X151676190Y-152361904D01*
X151176190Y-152361904D01*
X151414286Y-151957142D02*
X151414286Y-151790476D01*
X151676190Y-151719047D02*
X151676190Y-151957142D01*
X151176190Y-151957142D01*
X151176190Y-151719047D01*
X151676190Y-151504761D02*
X151176190Y-151504761D01*
X151176190Y-151385714D01*
X151200000Y-151314285D01*
X151247619Y-151266666D01*
X151295238Y-151242857D01*
X151390476Y-151219047D01*
X151461905Y-151219047D01*
X151557143Y-151242857D01*
X151604762Y-151266666D01*
X151652381Y-151314285D01*
X151676190Y-151385714D01*
X151676190Y-151504761D01*
X151200000Y-150361905D02*
X151176190Y-150409524D01*
X151176190Y-150480952D01*
X151200000Y-150552381D01*
X151247619Y-150600000D01*
X151295238Y-150623809D01*
X151390476Y-150647619D01*
X151461905Y-150647619D01*
X151557143Y-150623809D01*
X151604762Y-150600000D01*
X151652381Y-150552381D01*
X151676190Y-150480952D01*
X151676190Y-150433333D01*
X151652381Y-150361905D01*
X151628571Y-150338095D01*
X151461905Y-150338095D01*
X151461905Y-150433333D01*
X151676190Y-149838095D02*
X151438095Y-150004762D01*
X151676190Y-150123809D02*
X151176190Y-150123809D01*
X151176190Y-149933333D01*
X151200000Y-149885714D01*
X151223810Y-149861905D01*
X151271429Y-149838095D01*
X151342857Y-149838095D01*
X151390476Y-149861905D01*
X151414286Y-149885714D01*
X151438095Y-149933333D01*
X151438095Y-150123809D01*
X151676190Y-149623809D02*
X151176190Y-149623809D01*
X151676190Y-149338095D01*
X151176190Y-149338095D01*
D15*
X150989286Y-149572619D02*
X151001190Y-149584524D01*
X151013095Y-149620238D01*
X151013095Y-149644048D01*
X151001190Y-149679762D01*
X150977381Y-149703571D01*
X150953571Y-149715476D01*
X150905952Y-149727381D01*
X150870238Y-149727381D01*
X150822619Y-149715476D01*
X150798810Y-149703571D01*
X150775000Y-149679762D01*
X150763095Y-149644048D01*
X150763095Y-149620238D01*
X150775000Y-149584524D01*
X150786905Y-149572619D01*
D14*
X148702381Y-110630952D02*
X148726190Y-110559523D01*
X148726190Y-110440476D01*
X148702381Y-110392857D01*
X148678571Y-110369047D01*
X148630952Y-110345238D01*
X148583333Y-110345238D01*
X148535714Y-110369047D01*
X148511905Y-110392857D01*
X148488095Y-110440476D01*
X148464286Y-110535714D01*
X148440476Y-110583333D01*
X148416667Y-110607142D01*
X148369048Y-110630952D01*
X148321429Y-110630952D01*
X148273810Y-110607142D01*
X148250000Y-110583333D01*
X148226190Y-110535714D01*
X148226190Y-110416666D01*
X148250000Y-110345238D01*
X148726190Y-110130952D02*
X148226190Y-110130952D01*
X148226190Y-109940476D01*
X148250000Y-109892857D01*
X148273810Y-109869048D01*
X148321429Y-109845238D01*
X148392857Y-109845238D01*
X148440476Y-109869048D01*
X148464286Y-109892857D01*
X148488095Y-109940476D01*
X148488095Y-110130952D01*
X148726190Y-109369048D02*
X148726190Y-109654762D01*
X148726190Y-109511905D02*
X148226190Y-109511905D01*
X148297619Y-109559524D01*
X148345238Y-109607143D01*
X148369048Y-109654762D01*
D16*
X147019429Y-126882714D02*
X147019429Y-127499571D01*
X147055714Y-127572143D01*
X147092000Y-127608429D01*
X147164571Y-127644714D01*
X147309714Y-127644714D01*
X147382286Y-127608429D01*
X147418571Y-127572143D01*
X147454857Y-127499571D01*
X147454857Y-126882714D01*
X148216857Y-127644714D02*
X147781429Y-127644714D01*
X147999143Y-127644714D02*
X147999143Y-126882714D01*
X147926572Y-126991571D01*
X147854000Y-127064143D01*
X147781429Y-127100429D01*
D12*
X138633334Y-116657143D02*
X138585715Y-116704762D01*
X138442858Y-116752381D01*
X138347620Y-116752381D01*
X138204762Y-116704762D01*
X138109524Y-116609524D01*
X138061905Y-116514286D01*
X138014286Y-116323810D01*
X138014286Y-116180952D01*
X138061905Y-115990476D01*
X138109524Y-115895238D01*
X138204762Y-115800000D01*
X138347620Y-115752381D01*
X138442858Y-115752381D01*
X138585715Y-115800000D01*
X138633334Y-115847619D01*
X139585715Y-116752381D02*
X139014286Y-116752381D01*
X139300000Y-116752381D02*
X139300000Y-115752381D01*
X139204762Y-115895238D01*
X139109524Y-115990476D01*
X139014286Y-116038095D01*
X138633334Y-121357143D02*
X138585715Y-121404762D01*
X138442858Y-121452381D01*
X138347620Y-121452381D01*
X138204762Y-121404762D01*
X138109524Y-121309524D01*
X138061905Y-121214286D01*
X138014286Y-121023810D01*
X138014286Y-120880952D01*
X138061905Y-120690476D01*
X138109524Y-120595238D01*
X138204762Y-120500000D01*
X138347620Y-120452381D01*
X138442858Y-120452381D01*
X138585715Y-120500000D01*
X138633334Y-120547619D01*
X139014286Y-120547619D02*
X139061905Y-120500000D01*
X139157143Y-120452381D01*
X139395239Y-120452381D01*
X139490477Y-120500000D01*
X139538096Y-120547619D01*
X139585715Y-120642857D01*
X139585715Y-120738095D01*
X139538096Y-120880952D01*
X138966667Y-121452381D01*
X139585715Y-121452381D01*
X145833334Y-125357143D02*
X145785715Y-125404762D01*
X145642858Y-125452381D01*
X145547620Y-125452381D01*
X145404762Y-125404762D01*
X145309524Y-125309524D01*
X145261905Y-125214286D01*
X145214286Y-125023810D01*
X145214286Y-124880952D01*
X145261905Y-124690476D01*
X145309524Y-124595238D01*
X145404762Y-124500000D01*
X145547620Y-124452381D01*
X145642858Y-124452381D01*
X145785715Y-124500000D01*
X145833334Y-124547619D01*
X146166667Y-124452381D02*
X146785715Y-124452381D01*
X146452381Y-124833333D01*
X146595239Y-124833333D01*
X146690477Y-124880952D01*
X146738096Y-124928571D01*
X146785715Y-125023810D01*
X146785715Y-125261905D01*
X146738096Y-125357143D01*
X146690477Y-125404762D01*
X146595239Y-125452381D01*
X146309524Y-125452381D01*
X146214286Y-125404762D01*
X146166667Y-125357143D01*
X151052381Y-144766666D02*
X150576190Y-145100000D01*
X151052381Y-145338095D02*
X150052381Y-145338095D01*
X150052381Y-144957142D01*
X150100000Y-144861904D01*
X150147619Y-144814285D01*
X150242857Y-144766666D01*
X150385714Y-144766666D01*
X150480952Y-144814285D01*
X150528571Y-144861904D01*
X150576190Y-144957142D01*
X150576190Y-145338095D01*
X151052381Y-143814285D02*
X151052381Y-144385714D01*
X151052381Y-144100000D02*
X150052381Y-144100000D01*
X150195238Y-144195238D01*
X150290476Y-144290476D01*
X150338095Y-144385714D01*
X138952381Y-144766666D02*
X138476190Y-145100000D01*
X138952381Y-145338095D02*
X137952381Y-145338095D01*
X137952381Y-144957142D01*
X138000000Y-144861904D01*
X138047619Y-144814285D01*
X138142857Y-144766666D01*
X138285714Y-144766666D01*
X138380952Y-144814285D01*
X138428571Y-144861904D01*
X138476190Y-144957142D01*
X138476190Y-145338095D01*
X138047619Y-144385714D02*
X138000000Y-144338095D01*
X137952381Y-144242857D01*
X137952381Y-144004761D01*
X138000000Y-143909523D01*
X138047619Y-143861904D01*
X138142857Y-143814285D01*
X138238095Y-143814285D01*
X138380952Y-143861904D01*
X138952381Y-144433333D01*
X138952381Y-143814285D01*
X147052381Y-144566666D02*
X146576190Y-144900000D01*
X147052381Y-145138095D02*
X146052381Y-145138095D01*
X146052381Y-144757142D01*
X146100000Y-144661904D01*
X146147619Y-144614285D01*
X146242857Y-144566666D01*
X146385714Y-144566666D01*
X146480952Y-144614285D01*
X146528571Y-144661904D01*
X146576190Y-144757142D01*
X146576190Y-145138095D01*
X146052381Y-144233333D02*
X146052381Y-143614285D01*
X146433333Y-143947619D01*
X146433333Y-143804761D01*
X146480952Y-143709523D01*
X146528571Y-143661904D01*
X146623810Y-143614285D01*
X146861905Y-143614285D01*
X146957143Y-143661904D01*
X147004762Y-143709523D01*
X147052381Y-143804761D01*
X147052381Y-144090476D01*
X147004762Y-144185714D01*
X146957143Y-144233333D01*
X143052381Y-144666666D02*
X142576190Y-145000000D01*
X143052381Y-145238095D02*
X142052381Y-145238095D01*
X142052381Y-144857142D01*
X142100000Y-144761904D01*
X142147619Y-144714285D01*
X142242857Y-144666666D01*
X142385714Y-144666666D01*
X142480952Y-144714285D01*
X142528571Y-144761904D01*
X142576190Y-144857142D01*
X142576190Y-145238095D01*
X142385714Y-143809523D02*
X143052381Y-143809523D01*
X142004762Y-144047619D02*
X142719048Y-144285714D01*
X142719048Y-143666666D01*
X156652381Y-121666666D02*
X156176190Y-122000000D01*
X156652381Y-122238095D02*
X155652381Y-122238095D01*
X155652381Y-121857142D01*
X155700000Y-121761904D01*
X155747619Y-121714285D01*
X155842857Y-121666666D01*
X155985714Y-121666666D01*
X156080952Y-121714285D01*
X156128571Y-121761904D01*
X156176190Y-121857142D01*
X156176190Y-122238095D01*
X155652381Y-120761904D02*
X155652381Y-121238095D01*
X156128571Y-121285714D01*
X156080952Y-121238095D01*
X156033333Y-121142857D01*
X156033333Y-120904761D01*
X156080952Y-120809523D01*
X156128571Y-120761904D01*
X156223810Y-120714285D01*
X156461905Y-120714285D01*
X156557143Y-120761904D01*
X156604762Y-120809523D01*
X156652381Y-120904761D01*
X156652381Y-121142857D01*
X156604762Y-121238095D01*
X156557143Y-121285714D01*
X139861905Y-139752381D02*
X139861905Y-138752381D01*
X140242858Y-138752381D01*
X140338096Y-138800000D01*
X140385715Y-138847619D01*
X140433334Y-138942857D01*
X140433334Y-139085714D01*
X140385715Y-139180952D01*
X140338096Y-139228571D01*
X140242858Y-139276190D01*
X139861905Y-139276190D01*
X141385715Y-139752381D02*
X140814286Y-139752381D01*
X141100000Y-139752381D02*
X141100000Y-138752381D01*
X141004762Y-138895238D01*
X140909524Y-138990476D01*
X140814286Y-139038095D01*
X145052381Y-118466666D02*
X144576190Y-118800000D01*
X145052381Y-119038095D02*
X144052381Y-119038095D01*
X144052381Y-118657142D01*
X144100000Y-118561904D01*
X144147619Y-118514285D01*
X144242857Y-118466666D01*
X144385714Y-118466666D01*
X144480952Y-118514285D01*
X144528571Y-118561904D01*
X144576190Y-118657142D01*
X144576190Y-119038095D01*
X144052381Y-117609523D02*
X144052381Y-117800000D01*
X144100000Y-117895238D01*
X144147619Y-117942857D01*
X144290476Y-118038095D01*
X144480952Y-118085714D01*
X144861905Y-118085714D01*
X144957143Y-118038095D01*
X145004762Y-117990476D01*
X145052381Y-117895238D01*
X145052381Y-117704761D01*
X145004762Y-117609523D01*
X144957143Y-117561904D01*
X144861905Y-117514285D01*
X144623810Y-117514285D01*
X144528571Y-117561904D01*
X144480952Y-117609523D01*
X144433333Y-117704761D01*
X144433333Y-117895238D01*
X144480952Y-117990476D01*
X144528571Y-118038095D01*
X144623810Y-118085714D01*
X156852381Y-128666666D02*
X156376190Y-129000000D01*
X156852381Y-129238095D02*
X155852381Y-129238095D01*
X155852381Y-128857142D01*
X155900000Y-128761904D01*
X155947619Y-128714285D01*
X156042857Y-128666666D01*
X156185714Y-128666666D01*
X156280952Y-128714285D01*
X156328571Y-128761904D01*
X156376190Y-128857142D01*
X156376190Y-129238095D01*
X155852381Y-128333333D02*
X155852381Y-127666666D01*
X156852381Y-128095238D01*
D14*
X148528571Y-87035714D02*
X148576190Y-86892857D01*
X148623810Y-86845238D01*
X148719048Y-86797619D01*
X148861905Y-86797619D01*
X148957143Y-86845238D01*
X149004762Y-86892857D01*
X149052381Y-86988095D01*
X149052381Y-87369048D01*
X148052381Y-87369048D01*
X148052381Y-87035714D01*
X148100000Y-86940476D01*
X148147619Y-86892857D01*
X148242857Y-86845238D01*
X148338095Y-86845238D01*
X148433333Y-86892857D01*
X148480952Y-86940476D01*
X148528571Y-87035714D01*
X148528571Y-87369048D01*
X148052381Y-86511905D02*
X148052381Y-85940476D01*
X149052381Y-86226191D02*
X148052381Y-86226191D01*
X149052381Y-85083333D02*
X149052381Y-85654762D01*
X149052381Y-85369048D02*
X148052381Y-85369048D01*
X148195238Y-85464286D01*
X148290476Y-85559524D01*
X148338095Y-85654762D01*
D12*
X144528571Y-88500000D02*
X144576190Y-88357143D01*
X144623810Y-88309524D01*
X144719048Y-88261905D01*
X144861905Y-88261905D01*
X144957143Y-88309524D01*
X145004762Y-88357143D01*
X145052381Y-88452381D01*
X145052381Y-88833334D01*
X144052381Y-88833334D01*
X144052381Y-88500000D01*
X144100000Y-88404762D01*
X144147619Y-88357143D01*
X144242857Y-88309524D01*
X144338095Y-88309524D01*
X144433333Y-88357143D01*
X144480952Y-88404762D01*
X144528571Y-88500000D01*
X144528571Y-88833334D01*
X144766667Y-87880953D02*
X144766667Y-87404762D01*
X145052381Y-87976191D02*
X144052381Y-87642858D01*
X145052381Y-87309524D01*
X144052381Y-87119048D02*
X144052381Y-86547619D01*
X145052381Y-86833334D02*
X144052381Y-86833334D01*
X144052381Y-86357143D02*
X144052381Y-85785714D01*
X145052381Y-86071429D02*
X144052381Y-86071429D01*
X144528571Y-85452381D02*
X144528571Y-85119047D01*
X145052381Y-84976190D02*
X145052381Y-85452381D01*
X144052381Y-85452381D01*
X144052381Y-84976190D01*
X145052381Y-83976190D02*
X144576190Y-84309524D01*
X145052381Y-84547619D02*
X144052381Y-84547619D01*
X144052381Y-84166666D01*
X144100000Y-84071428D01*
X144147619Y-84023809D01*
X144242857Y-83976190D01*
X144385714Y-83976190D01*
X144480952Y-84023809D01*
X144528571Y-84071428D01*
X144576190Y-84166666D01*
X144576190Y-84547619D01*
X144576190Y-83357143D02*
X145052381Y-83357143D01*
X144052381Y-83690476D02*
X144576190Y-83357143D01*
X144052381Y-83023809D01*
X147314286Y-77642857D02*
X147314286Y-75357143D01*
X148457143Y-76500000D02*
X146171429Y-76500000D01*
M02*
