G04 #@! TF.FileFunction,Soldermask,Top*
%FSLAX46Y46*%
G04 Gerber Fmt 4.6, Leading zero omitted, Abs format (unit mm)*
G04 Created by KiCad (PCBNEW (2015-06-09 BZR 5726)-product) date Thu 11 Jun 2015 11:31:05 PM PDT*
%MOMM*%
G01*
G04 APERTURE LIST*
%ADD10C,0.100000*%
%ADD11C,2.499360*%
%ADD12R,1.000000X0.800000*%
%ADD13R,1.550000X0.600000*%
%ADD14R,4.200000X3.200000*%
%ADD15R,1.000000X1.600000*%
%ADD16R,1.700000X0.900000*%
%ADD17R,2.032000X1.727200*%
%ADD18O,2.032000X1.727200*%
%ADD19R,0.900000X1.700000*%
G04 APERTURE END LIST*
D10*
D11*
X153500000Y-124500000D03*
D12*
X144350000Y-144050000D03*
X144350000Y-142050000D03*
X150050000Y-143950000D03*
X150050000Y-141950000D03*
D13*
X144800000Y-120555000D03*
X144800000Y-121825000D03*
X144800000Y-123095000D03*
X144800000Y-124365000D03*
X144800000Y-125635000D03*
X144800000Y-126905000D03*
X144800000Y-128175000D03*
X144800000Y-129445000D03*
X150200000Y-129445000D03*
X150200000Y-128175000D03*
X150200000Y-126905000D03*
X150200000Y-125635000D03*
X150200000Y-124365000D03*
X150200000Y-123095000D03*
X150200000Y-121825000D03*
X150200000Y-120555000D03*
D14*
X147100000Y-63350000D03*
X147100000Y-92650000D03*
D15*
X142000000Y-110500000D03*
X139000000Y-110500000D03*
X142000000Y-115000000D03*
X139000000Y-115000000D03*
X146000000Y-114900000D03*
X149000000Y-114900000D03*
D16*
X152500000Y-135950000D03*
X152500000Y-133050000D03*
X140500000Y-135950000D03*
X140500000Y-133050000D03*
X148500000Y-133050000D03*
X148500000Y-135950000D03*
X144500000Y-135950000D03*
X144500000Y-133050000D03*
X153900000Y-113050000D03*
X153900000Y-110150000D03*
D11*
X153500000Y-129000000D03*
D17*
X140500000Y-128500000D03*
D18*
X140500000Y-125960000D03*
X140500000Y-123420000D03*
X140500000Y-120880000D03*
D19*
X148950000Y-110500000D03*
X146050000Y-110500000D03*
D16*
X154000000Y-119650000D03*
X154000000Y-116750000D03*
M02*
