G04 #@! TF.FileFunction,Legend,Bot*
%FSLAX46Y46*%
G04 Gerber Fmt 4.6, Leading zero omitted, Abs format (unit mm)*
G04 Created by KiCad (PCBNEW (2015-08-06 BZR 6058)-product) date Wed 12 Aug 2015 10:19:41 AM PDT*
%MOMM*%
G01*
G04 APERTURE LIST*
%ADD10C,0.100000*%
G04 APERTURE END LIST*
D10*
X125833333Y-104776667D02*
X125833333Y-104076667D01*
X125666667Y-104076667D01*
X125566667Y-104110000D01*
X125500000Y-104176667D01*
X125466667Y-104243333D01*
X125433333Y-104376667D01*
X125433333Y-104476667D01*
X125466667Y-104610000D01*
X125500000Y-104676667D01*
X125566667Y-104743333D01*
X125666667Y-104776667D01*
X125833333Y-104776667D01*
X124866667Y-104743333D02*
X124933333Y-104776667D01*
X125066667Y-104776667D01*
X125133333Y-104743333D01*
X125166667Y-104676667D01*
X125166667Y-104410000D01*
X125133333Y-104343333D01*
X125066667Y-104310000D01*
X124933333Y-104310000D01*
X124866667Y-104343333D01*
X124833333Y-104410000D01*
X124833333Y-104476667D01*
X125166667Y-104543333D01*
X124566667Y-104743333D02*
X124500000Y-104776667D01*
X124366667Y-104776667D01*
X124300000Y-104743333D01*
X124266667Y-104676667D01*
X124266667Y-104643333D01*
X124300000Y-104576667D01*
X124366667Y-104543333D01*
X124466667Y-104543333D01*
X124533333Y-104510000D01*
X124566667Y-104443333D01*
X124566667Y-104410000D01*
X124533333Y-104343333D01*
X124466667Y-104310000D01*
X124366667Y-104310000D01*
X124300000Y-104343333D01*
X123700000Y-104743333D02*
X123766666Y-104776667D01*
X123900000Y-104776667D01*
X123966666Y-104743333D01*
X124000000Y-104676667D01*
X124000000Y-104410000D01*
X123966666Y-104343333D01*
X123900000Y-104310000D01*
X123766666Y-104310000D01*
X123700000Y-104343333D01*
X123666666Y-104410000D01*
X123666666Y-104476667D01*
X124000000Y-104543333D01*
X123366666Y-104776667D02*
X123366666Y-104310000D01*
X123366666Y-104443333D02*
X123333333Y-104376667D01*
X123300000Y-104343333D01*
X123233333Y-104310000D01*
X123166666Y-104310000D01*
X123033333Y-104310000D02*
X122766667Y-104310000D01*
X122933333Y-104076667D02*
X122933333Y-104676667D01*
X122900000Y-104743333D01*
X122833333Y-104776667D01*
X122766667Y-104776667D01*
X121666667Y-104776667D02*
X122000000Y-104776667D01*
X122000000Y-104076667D01*
X121433333Y-104776667D02*
X121433333Y-104310000D01*
X121433333Y-104076667D02*
X121466667Y-104110000D01*
X121433333Y-104143333D01*
X121400000Y-104110000D01*
X121433333Y-104076667D01*
X121433333Y-104143333D01*
X121166667Y-104310000D02*
X120800000Y-104310000D01*
X121166667Y-104776667D01*
X120800000Y-104776667D01*
X120233333Y-104776667D02*
X120233333Y-104410000D01*
X120266667Y-104343333D01*
X120333333Y-104310000D01*
X120466667Y-104310000D01*
X120533333Y-104343333D01*
X120233333Y-104743333D02*
X120300000Y-104776667D01*
X120466667Y-104776667D01*
X120533333Y-104743333D01*
X120566667Y-104676667D01*
X120566667Y-104610000D01*
X120533333Y-104543333D01*
X120466667Y-104510000D01*
X120300000Y-104510000D01*
X120233333Y-104476667D01*
X119900000Y-104776667D02*
X119900000Y-104310000D01*
X119900000Y-104443333D02*
X119866667Y-104376667D01*
X119833334Y-104343333D01*
X119766667Y-104310000D01*
X119700000Y-104310000D01*
X119166667Y-104776667D02*
X119166667Y-104076667D01*
X119166667Y-104743333D02*
X119233334Y-104776667D01*
X119366667Y-104776667D01*
X119433334Y-104743333D01*
X119466667Y-104710000D01*
X119500001Y-104643333D01*
X119500001Y-104443333D01*
X119466667Y-104376667D01*
X119433334Y-104343333D01*
X119366667Y-104310000D01*
X119233334Y-104310000D01*
X119166667Y-104343333D01*
X118366668Y-104310000D02*
X118200001Y-104776667D01*
X118033335Y-104310000D01*
X117400002Y-104776667D02*
X117800002Y-104776667D01*
X117600002Y-104776667D02*
X117600002Y-104076667D01*
X117666668Y-104176667D01*
X117733335Y-104243333D01*
X117800002Y-104276667D01*
X117100001Y-104710000D02*
X117066668Y-104743333D01*
X117100001Y-104776667D01*
X117133335Y-104743333D01*
X117100001Y-104710000D01*
X117100001Y-104776667D01*
X116633335Y-104076667D02*
X116566668Y-104076667D01*
X116500002Y-104110000D01*
X116466668Y-104143333D01*
X116433335Y-104210000D01*
X116400002Y-104343333D01*
X116400002Y-104510000D01*
X116433335Y-104643333D01*
X116466668Y-104710000D01*
X116500002Y-104743333D01*
X116566668Y-104776667D01*
X116633335Y-104776667D01*
X116700002Y-104743333D01*
X116733335Y-104710000D01*
X116766668Y-104643333D01*
X116800002Y-104510000D01*
X116800002Y-104343333D01*
X116766668Y-104210000D01*
X116733335Y-104143333D01*
X116700002Y-104110000D01*
X116633335Y-104076667D01*
X115800001Y-104743333D02*
X115866668Y-104776667D01*
X116000001Y-104776667D01*
X116066668Y-104743333D01*
X116100001Y-104710000D01*
X116133335Y-104643333D01*
X116133335Y-104443333D01*
X116100001Y-104376667D01*
X116066668Y-104343333D01*
X116000001Y-104310000D01*
X115866668Y-104310000D01*
X115800001Y-104343333D01*
X125833333Y-105856667D02*
X125833333Y-105156667D01*
X125533333Y-105856667D02*
X125533333Y-105490000D01*
X125566667Y-105423333D01*
X125633333Y-105390000D01*
X125733333Y-105390000D01*
X125800000Y-105423333D01*
X125833333Y-105456667D01*
X125300000Y-105390000D02*
X125033334Y-105390000D01*
X125200000Y-105156667D02*
X125200000Y-105756667D01*
X125166667Y-105823333D01*
X125100000Y-105856667D01*
X125033334Y-105856667D01*
X124900000Y-105390000D02*
X124633334Y-105390000D01*
X124800000Y-105156667D02*
X124800000Y-105756667D01*
X124766667Y-105823333D01*
X124700000Y-105856667D01*
X124633334Y-105856667D01*
X124400000Y-105390000D02*
X124400000Y-106090000D01*
X124400000Y-105423333D02*
X124333334Y-105390000D01*
X124200000Y-105390000D01*
X124133334Y-105423333D01*
X124100000Y-105456667D01*
X124066667Y-105523333D01*
X124066667Y-105723333D01*
X124100000Y-105790000D01*
X124133334Y-105823333D01*
X124200000Y-105856667D01*
X124333334Y-105856667D01*
X124400000Y-105823333D01*
X123766667Y-105790000D02*
X123733334Y-105823333D01*
X123766667Y-105856667D01*
X123800001Y-105823333D01*
X123766667Y-105790000D01*
X123766667Y-105856667D01*
X123766667Y-105423333D02*
X123733334Y-105456667D01*
X123766667Y-105490000D01*
X123800001Y-105456667D01*
X123766667Y-105423333D01*
X123766667Y-105490000D01*
X122933334Y-105123333D02*
X123533334Y-106023333D01*
X122200001Y-105123333D02*
X122800001Y-106023333D01*
X121666668Y-105390000D02*
X121666668Y-105956667D01*
X121700002Y-106023333D01*
X121733335Y-106056667D01*
X121800002Y-106090000D01*
X121900002Y-106090000D01*
X121966668Y-106056667D01*
X121666668Y-105823333D02*
X121733335Y-105856667D01*
X121866668Y-105856667D01*
X121933335Y-105823333D01*
X121966668Y-105790000D01*
X122000002Y-105723333D01*
X122000002Y-105523333D01*
X121966668Y-105456667D01*
X121933335Y-105423333D01*
X121866668Y-105390000D01*
X121733335Y-105390000D01*
X121666668Y-105423333D01*
X121333335Y-105856667D02*
X121333335Y-105390000D01*
X121333335Y-105156667D02*
X121366669Y-105190000D01*
X121333335Y-105223333D01*
X121300002Y-105190000D01*
X121333335Y-105156667D01*
X121333335Y-105223333D01*
X121100002Y-105390000D02*
X120833336Y-105390000D01*
X121000002Y-105156667D02*
X121000002Y-105756667D01*
X120966669Y-105823333D01*
X120900002Y-105856667D01*
X120833336Y-105856667D01*
X120600002Y-105856667D02*
X120600002Y-105156667D01*
X120300002Y-105856667D02*
X120300002Y-105490000D01*
X120333336Y-105423333D01*
X120400002Y-105390000D01*
X120500002Y-105390000D01*
X120566669Y-105423333D01*
X120600002Y-105456667D01*
X119666669Y-105390000D02*
X119666669Y-105856667D01*
X119966669Y-105390000D02*
X119966669Y-105756667D01*
X119933336Y-105823333D01*
X119866669Y-105856667D01*
X119766669Y-105856667D01*
X119700003Y-105823333D01*
X119666669Y-105790000D01*
X119333336Y-105856667D02*
X119333336Y-105156667D01*
X119333336Y-105423333D02*
X119266670Y-105390000D01*
X119133336Y-105390000D01*
X119066670Y-105423333D01*
X119033336Y-105456667D01*
X119000003Y-105523333D01*
X119000003Y-105723333D01*
X119033336Y-105790000D01*
X119066670Y-105823333D01*
X119133336Y-105856667D01*
X119266670Y-105856667D01*
X119333336Y-105823333D01*
X118700003Y-105790000D02*
X118666670Y-105823333D01*
X118700003Y-105856667D01*
X118733337Y-105823333D01*
X118700003Y-105790000D01*
X118700003Y-105856667D01*
X118066670Y-105823333D02*
X118133337Y-105856667D01*
X118266670Y-105856667D01*
X118333337Y-105823333D01*
X118366670Y-105790000D01*
X118400004Y-105723333D01*
X118400004Y-105523333D01*
X118366670Y-105456667D01*
X118333337Y-105423333D01*
X118266670Y-105390000D01*
X118133337Y-105390000D01*
X118066670Y-105423333D01*
X117666670Y-105856667D02*
X117733337Y-105823333D01*
X117766670Y-105790000D01*
X117800004Y-105723333D01*
X117800004Y-105523333D01*
X117766670Y-105456667D01*
X117733337Y-105423333D01*
X117666670Y-105390000D01*
X117566670Y-105390000D01*
X117500004Y-105423333D01*
X117466670Y-105456667D01*
X117433337Y-105523333D01*
X117433337Y-105723333D01*
X117466670Y-105790000D01*
X117500004Y-105823333D01*
X117566670Y-105856667D01*
X117666670Y-105856667D01*
X117133337Y-105856667D02*
X117133337Y-105390000D01*
X117133337Y-105456667D02*
X117100004Y-105423333D01*
X117033337Y-105390000D01*
X116933337Y-105390000D01*
X116866671Y-105423333D01*
X116833337Y-105490000D01*
X116833337Y-105856667D01*
X116833337Y-105490000D02*
X116800004Y-105423333D01*
X116733337Y-105390000D01*
X116633337Y-105390000D01*
X116566671Y-105423333D01*
X116533337Y-105490000D01*
X116533337Y-105856667D01*
M02*
