G04 #@! TF.FileFunction,Copper,L1,Top,Signal*
%FSLAX46Y46*%
G04 Gerber Fmt 4.6, Leading zero omitted, Abs format (unit mm)*
G04 Created by KiCad (PCBNEW (2015-08-06 BZR 6058)-product) date Wed 12 Aug 2015 10:19:41 AM PDT*
%MOMM*%
G01*
G04 APERTURE LIST*
%ADD10C,0.100000*%
%ADD11R,1.700000X0.900000*%
%ADD12C,2.500000*%
%ADD13R,1.800860X1.597660*%
%ADD14C,2.499360*%
%ADD15R,1.727200X1.727200*%
%ADD16O,1.727200X1.727200*%
%ADD17R,0.900000X1.700000*%
%ADD18R,1.550000X0.600000*%
%ADD19C,0.600000*%
%ADD20C,0.250000*%
G04 APERTURE END LIST*
D10*
D11*
X123150000Y-115725000D03*
X123150000Y-118625000D03*
D12*
X124150000Y-101650000D03*
X117650000Y-101650000D03*
D13*
X118850000Y-112769860D03*
X118850000Y-109930140D03*
X123150000Y-112769860D03*
X123150000Y-109930140D03*
D11*
X118900000Y-115700000D03*
X118900000Y-118600000D03*
D14*
X123250000Y-136500000D03*
X119500000Y-136500000D03*
D15*
X126275000Y-140525000D03*
D16*
X126275000Y-143065000D03*
X123735000Y-140525000D03*
X123735000Y-143065000D03*
X121195000Y-140525000D03*
X121195000Y-143065000D03*
X118655000Y-140525000D03*
X118655000Y-143065000D03*
X116115000Y-140525000D03*
X116115000Y-143065000D03*
D17*
X122950000Y-133500000D03*
X120050000Y-133500000D03*
D18*
X118450000Y-121755000D03*
X118450000Y-123025000D03*
X118450000Y-124295000D03*
X118450000Y-125565000D03*
X118450000Y-126835000D03*
X118450000Y-128105000D03*
X118450000Y-129375000D03*
X118450000Y-130645000D03*
X123850000Y-130645000D03*
X123850000Y-129375000D03*
X123850000Y-128105000D03*
X123850000Y-126835000D03*
X123850000Y-125565000D03*
X123850000Y-124295000D03*
X123850000Y-123025000D03*
X123850000Y-121755000D03*
D19*
X116500000Y-112750000D03*
X118450000Y-125565000D03*
X121250000Y-123000000D03*
D20*
X118450000Y-126835000D02*
X118925000Y-126835000D01*
X117335000Y-126835000D02*
X116500000Y-126000000D01*
X116500000Y-126000000D02*
X116500000Y-112750000D01*
X118450000Y-126835000D02*
X117335000Y-126835000D01*
X121000000Y-109930140D02*
X118850000Y-109930140D01*
X123150000Y-109930140D02*
X121000000Y-109930140D01*
X121250000Y-110180140D02*
X121250000Y-123000000D01*
X121000000Y-109930140D02*
X121250000Y-110180140D01*
X123850000Y-128105000D02*
X124355000Y-128105000D01*
X124355000Y-128105000D02*
X126000000Y-129750000D01*
X124500000Y-133500000D02*
X122950000Y-133500000D01*
X126000000Y-132000000D02*
X124500000Y-133500000D01*
X126000000Y-129750000D02*
X126000000Y-132000000D01*
X123850000Y-128105000D02*
X124605000Y-128105000D01*
X122950000Y-136200000D02*
X123000000Y-136250000D01*
X122950000Y-136200000D02*
X123250000Y-136500000D01*
X122950000Y-133500000D02*
X122950000Y-136200000D01*
X118900000Y-115700000D02*
X118900000Y-112819860D01*
X118900000Y-112819860D02*
X118850000Y-112769860D01*
X123150000Y-115725000D02*
X123150000Y-112769860D01*
X117250000Y-103500000D02*
X117250000Y-102050000D01*
X117250000Y-120555000D02*
X117250000Y-103500000D01*
X118450000Y-121755000D02*
X117250000Y-120555000D01*
X117250000Y-102050000D02*
X117250000Y-103500000D01*
X117650000Y-101650000D02*
X117250000Y-102050000D01*
X123150000Y-118650000D02*
X123150000Y-118625000D01*
X122500000Y-119275000D02*
X123150000Y-118625000D01*
X122500000Y-129750000D02*
X122500000Y-119275000D01*
X123395000Y-130645000D02*
X122500000Y-129750000D01*
X123850000Y-130645000D02*
X123395000Y-130645000D01*
X119750000Y-130000000D02*
X119750000Y-119450000D01*
X119750000Y-119450000D02*
X118900000Y-118600000D01*
X119105000Y-130645000D02*
X119750000Y-130000000D01*
X118450000Y-130645000D02*
X119105000Y-130645000D01*
X125250000Y-131750000D02*
X122000000Y-131750000D01*
X124875000Y-129375000D02*
X125250000Y-129750000D01*
X125250000Y-129750000D02*
X125250000Y-131750000D01*
X123850000Y-129375000D02*
X124875000Y-129375000D01*
X122000000Y-131750000D02*
X120250000Y-133500000D01*
X120250000Y-133500000D02*
X120050000Y-133500000D01*
X120050000Y-135950000D02*
X119750000Y-136250000D01*
X120050000Y-135950000D02*
X119500000Y-136500000D01*
X120050000Y-133500000D02*
X120050000Y-135950000D01*
X127750000Y-145000000D02*
X124750000Y-145000000D01*
X118450000Y-129375000D02*
X117375000Y-129375000D01*
X118750000Y-138750000D02*
X127750000Y-138750000D01*
X117250000Y-137250000D02*
X118750000Y-138750000D01*
X117250000Y-132750000D02*
X117250000Y-137250000D01*
X117000000Y-132500000D02*
X117250000Y-132750000D01*
X117000000Y-129750000D02*
X117000000Y-132500000D01*
X117375000Y-129375000D02*
X117000000Y-129750000D01*
X127750000Y-145000000D02*
X127750000Y-138750000D01*
X123735000Y-143985000D02*
X123735000Y-143065000D01*
X124750000Y-145000000D02*
X123735000Y-143985000D01*
X123735000Y-143735000D02*
X123735000Y-143065000D01*
X118450000Y-128105000D02*
X117645000Y-128105000D01*
X116250000Y-138120000D02*
X118655000Y-140525000D01*
X116250000Y-129500000D02*
X116250000Y-138120000D01*
X117645000Y-128105000D02*
X116250000Y-129500000D01*
X124750000Y-102250000D02*
X124150000Y-101650000D01*
X125000000Y-102500000D02*
X124150000Y-101650000D01*
X125000000Y-120605000D02*
X125000000Y-102500000D01*
X123850000Y-121755000D02*
X125000000Y-120605000D01*
M02*
