G04 #@! TF.FileFunction,Legend,Bot*
%FSLAX46Y46*%
G04 Gerber Fmt 4.6, Leading zero omitted, Abs format (unit mm)*
G04 Created by KiCad (PCBNEW (2015-08-06 BZR 6058)-product) date Sun 16 Aug 2015 06:31:51 PM PDT*
%MOMM*%
G01*
G04 APERTURE LIST*
%ADD10C,0.100000*%
G04 APERTURE END LIST*
D10*
X125833333Y-104236667D02*
X125833333Y-103536667D01*
X125666667Y-103536667D01*
X125566667Y-103570000D01*
X125500000Y-103636667D01*
X125466667Y-103703333D01*
X125433333Y-103836667D01*
X125433333Y-103936667D01*
X125466667Y-104070000D01*
X125500000Y-104136667D01*
X125566667Y-104203333D01*
X125666667Y-104236667D01*
X125833333Y-104236667D01*
X124866667Y-104203333D02*
X124933333Y-104236667D01*
X125066667Y-104236667D01*
X125133333Y-104203333D01*
X125166667Y-104136667D01*
X125166667Y-103870000D01*
X125133333Y-103803333D01*
X125066667Y-103770000D01*
X124933333Y-103770000D01*
X124866667Y-103803333D01*
X124833333Y-103870000D01*
X124833333Y-103936667D01*
X125166667Y-104003333D01*
X124566667Y-104203333D02*
X124500000Y-104236667D01*
X124366667Y-104236667D01*
X124300000Y-104203333D01*
X124266667Y-104136667D01*
X124266667Y-104103333D01*
X124300000Y-104036667D01*
X124366667Y-104003333D01*
X124466667Y-104003333D01*
X124533333Y-103970000D01*
X124566667Y-103903333D01*
X124566667Y-103870000D01*
X124533333Y-103803333D01*
X124466667Y-103770000D01*
X124366667Y-103770000D01*
X124300000Y-103803333D01*
X123700000Y-104203333D02*
X123766666Y-104236667D01*
X123900000Y-104236667D01*
X123966666Y-104203333D01*
X124000000Y-104136667D01*
X124000000Y-103870000D01*
X123966666Y-103803333D01*
X123900000Y-103770000D01*
X123766666Y-103770000D01*
X123700000Y-103803333D01*
X123666666Y-103870000D01*
X123666666Y-103936667D01*
X124000000Y-104003333D01*
X123366666Y-104236667D02*
X123366666Y-103770000D01*
X123366666Y-103903333D02*
X123333333Y-103836667D01*
X123300000Y-103803333D01*
X123233333Y-103770000D01*
X123166666Y-103770000D01*
X123033333Y-103770000D02*
X122766667Y-103770000D01*
X122933333Y-103536667D02*
X122933333Y-104136667D01*
X122900000Y-104203333D01*
X122833333Y-104236667D01*
X122766667Y-104236667D01*
X121666667Y-104236667D02*
X122000000Y-104236667D01*
X122000000Y-103536667D01*
X121433333Y-104236667D02*
X121433333Y-103770000D01*
X121433333Y-103536667D02*
X121466667Y-103570000D01*
X121433333Y-103603333D01*
X121400000Y-103570000D01*
X121433333Y-103536667D01*
X121433333Y-103603333D01*
X121166667Y-103770000D02*
X120800000Y-103770000D01*
X121166667Y-104236667D01*
X120800000Y-104236667D01*
X120233333Y-104236667D02*
X120233333Y-103870000D01*
X120266667Y-103803333D01*
X120333333Y-103770000D01*
X120466667Y-103770000D01*
X120533333Y-103803333D01*
X120233333Y-104203333D02*
X120300000Y-104236667D01*
X120466667Y-104236667D01*
X120533333Y-104203333D01*
X120566667Y-104136667D01*
X120566667Y-104070000D01*
X120533333Y-104003333D01*
X120466667Y-103970000D01*
X120300000Y-103970000D01*
X120233333Y-103936667D01*
X119900000Y-104236667D02*
X119900000Y-103770000D01*
X119900000Y-103903333D02*
X119866667Y-103836667D01*
X119833334Y-103803333D01*
X119766667Y-103770000D01*
X119700000Y-103770000D01*
X119166667Y-104236667D02*
X119166667Y-103536667D01*
X119166667Y-104203333D02*
X119233334Y-104236667D01*
X119366667Y-104236667D01*
X119433334Y-104203333D01*
X119466667Y-104170000D01*
X119500001Y-104103333D01*
X119500001Y-103903333D01*
X119466667Y-103836667D01*
X119433334Y-103803333D01*
X119366667Y-103770000D01*
X119233334Y-103770000D01*
X119166667Y-103803333D01*
X118366668Y-103770000D02*
X118200001Y-104236667D01*
X118033335Y-103770000D01*
X117400002Y-104236667D02*
X117800002Y-104236667D01*
X117600002Y-104236667D02*
X117600002Y-103536667D01*
X117666668Y-103636667D01*
X117733335Y-103703333D01*
X117800002Y-103736667D01*
X117100001Y-104170000D02*
X117066668Y-104203333D01*
X117100001Y-104236667D01*
X117133335Y-104203333D01*
X117100001Y-104170000D01*
X117100001Y-104236667D01*
X116400002Y-104236667D02*
X116800002Y-104236667D01*
X116600002Y-104236667D02*
X116600002Y-103536667D01*
X116666668Y-103636667D01*
X116733335Y-103703333D01*
X116800002Y-103736667D01*
X125833333Y-105316667D02*
X125833333Y-104616667D01*
X125533333Y-105316667D02*
X125533333Y-104950000D01*
X125566667Y-104883333D01*
X125633333Y-104850000D01*
X125733333Y-104850000D01*
X125800000Y-104883333D01*
X125833333Y-104916667D01*
X125300000Y-104850000D02*
X125033334Y-104850000D01*
X125200000Y-104616667D02*
X125200000Y-105216667D01*
X125166667Y-105283333D01*
X125100000Y-105316667D01*
X125033334Y-105316667D01*
X124900000Y-104850000D02*
X124633334Y-104850000D01*
X124800000Y-104616667D02*
X124800000Y-105216667D01*
X124766667Y-105283333D01*
X124700000Y-105316667D01*
X124633334Y-105316667D01*
X124400000Y-104850000D02*
X124400000Y-105550000D01*
X124400000Y-104883333D02*
X124333334Y-104850000D01*
X124200000Y-104850000D01*
X124133334Y-104883333D01*
X124100000Y-104916667D01*
X124066667Y-104983333D01*
X124066667Y-105183333D01*
X124100000Y-105250000D01*
X124133334Y-105283333D01*
X124200000Y-105316667D01*
X124333334Y-105316667D01*
X124400000Y-105283333D01*
X123766667Y-105250000D02*
X123733334Y-105283333D01*
X123766667Y-105316667D01*
X123800001Y-105283333D01*
X123766667Y-105250000D01*
X123766667Y-105316667D01*
X123766667Y-104883333D02*
X123733334Y-104916667D01*
X123766667Y-104950000D01*
X123800001Y-104916667D01*
X123766667Y-104883333D01*
X123766667Y-104950000D01*
X122933334Y-104583333D02*
X123533334Y-105483333D01*
X122200001Y-104583333D02*
X122800001Y-105483333D01*
X121666668Y-104850000D02*
X121666668Y-105416667D01*
X121700002Y-105483333D01*
X121733335Y-105516667D01*
X121800002Y-105550000D01*
X121900002Y-105550000D01*
X121966668Y-105516667D01*
X121666668Y-105283333D02*
X121733335Y-105316667D01*
X121866668Y-105316667D01*
X121933335Y-105283333D01*
X121966668Y-105250000D01*
X122000002Y-105183333D01*
X122000002Y-104983333D01*
X121966668Y-104916667D01*
X121933335Y-104883333D01*
X121866668Y-104850000D01*
X121733335Y-104850000D01*
X121666668Y-104883333D01*
X121333335Y-105316667D02*
X121333335Y-104850000D01*
X121333335Y-104616667D02*
X121366669Y-104650000D01*
X121333335Y-104683333D01*
X121300002Y-104650000D01*
X121333335Y-104616667D01*
X121333335Y-104683333D01*
X121100002Y-104850000D02*
X120833336Y-104850000D01*
X121000002Y-104616667D02*
X121000002Y-105216667D01*
X120966669Y-105283333D01*
X120900002Y-105316667D01*
X120833336Y-105316667D01*
X120600002Y-105316667D02*
X120600002Y-104616667D01*
X120300002Y-105316667D02*
X120300002Y-104950000D01*
X120333336Y-104883333D01*
X120400002Y-104850000D01*
X120500002Y-104850000D01*
X120566669Y-104883333D01*
X120600002Y-104916667D01*
X119666669Y-104850000D02*
X119666669Y-105316667D01*
X119966669Y-104850000D02*
X119966669Y-105216667D01*
X119933336Y-105283333D01*
X119866669Y-105316667D01*
X119766669Y-105316667D01*
X119700003Y-105283333D01*
X119666669Y-105250000D01*
X119333336Y-105316667D02*
X119333336Y-104616667D01*
X119333336Y-104883333D02*
X119266670Y-104850000D01*
X119133336Y-104850000D01*
X119066670Y-104883333D01*
X119033336Y-104916667D01*
X119000003Y-104983333D01*
X119000003Y-105183333D01*
X119033336Y-105250000D01*
X119066670Y-105283333D01*
X119133336Y-105316667D01*
X119266670Y-105316667D01*
X119333336Y-105283333D01*
X118700003Y-105250000D02*
X118666670Y-105283333D01*
X118700003Y-105316667D01*
X118733337Y-105283333D01*
X118700003Y-105250000D01*
X118700003Y-105316667D01*
X118066670Y-105283333D02*
X118133337Y-105316667D01*
X118266670Y-105316667D01*
X118333337Y-105283333D01*
X118366670Y-105250000D01*
X118400004Y-105183333D01*
X118400004Y-104983333D01*
X118366670Y-104916667D01*
X118333337Y-104883333D01*
X118266670Y-104850000D01*
X118133337Y-104850000D01*
X118066670Y-104883333D01*
X117666670Y-105316667D02*
X117733337Y-105283333D01*
X117766670Y-105250000D01*
X117800004Y-105183333D01*
X117800004Y-104983333D01*
X117766670Y-104916667D01*
X117733337Y-104883333D01*
X117666670Y-104850000D01*
X117566670Y-104850000D01*
X117500004Y-104883333D01*
X117466670Y-104916667D01*
X117433337Y-104983333D01*
X117433337Y-105183333D01*
X117466670Y-105250000D01*
X117500004Y-105283333D01*
X117566670Y-105316667D01*
X117666670Y-105316667D01*
X117133337Y-105316667D02*
X117133337Y-104850000D01*
X117133337Y-104916667D02*
X117100004Y-104883333D01*
X117033337Y-104850000D01*
X116933337Y-104850000D01*
X116866671Y-104883333D01*
X116833337Y-104950000D01*
X116833337Y-105316667D01*
X116833337Y-104950000D02*
X116800004Y-104883333D01*
X116733337Y-104850000D01*
X116633337Y-104850000D01*
X116566671Y-104883333D01*
X116533337Y-104950000D01*
X116533337Y-105316667D01*
X125866667Y-105763333D02*
X125833333Y-105730000D01*
X125766667Y-105696667D01*
X125600000Y-105696667D01*
X125533333Y-105730000D01*
X125500000Y-105763333D01*
X125466667Y-105830000D01*
X125466667Y-105896667D01*
X125500000Y-105996667D01*
X125900000Y-106396667D01*
X125466667Y-106396667D01*
X125033333Y-105696667D02*
X124966666Y-105696667D01*
X124900000Y-105730000D01*
X124866666Y-105763333D01*
X124833333Y-105830000D01*
X124800000Y-105963333D01*
X124800000Y-106130000D01*
X124833333Y-106263333D01*
X124866666Y-106330000D01*
X124900000Y-106363333D01*
X124966666Y-106396667D01*
X125033333Y-106396667D01*
X125100000Y-106363333D01*
X125133333Y-106330000D01*
X125166666Y-106263333D01*
X125200000Y-106130000D01*
X125200000Y-105963333D01*
X125166666Y-105830000D01*
X125133333Y-105763333D01*
X125100000Y-105730000D01*
X125033333Y-105696667D01*
X124133333Y-106396667D02*
X124533333Y-106396667D01*
X124333333Y-106396667D02*
X124333333Y-105696667D01*
X124399999Y-105796667D01*
X124466666Y-105863333D01*
X124533333Y-105896667D01*
X123499999Y-105696667D02*
X123833332Y-105696667D01*
X123866666Y-106030000D01*
X123833332Y-105996667D01*
X123766666Y-105963333D01*
X123599999Y-105963333D01*
X123533332Y-105996667D01*
X123499999Y-106030000D01*
X123466666Y-106096667D01*
X123466666Y-106263333D01*
X123499999Y-106330000D01*
X123533332Y-106363333D01*
X123599999Y-106396667D01*
X123766666Y-106396667D01*
X123833332Y-106363333D01*
X123866666Y-106330000D01*
X123166665Y-106130000D02*
X122633332Y-106130000D01*
X122166665Y-105696667D02*
X122099998Y-105696667D01*
X122033332Y-105730000D01*
X121999998Y-105763333D01*
X121966665Y-105830000D01*
X121933332Y-105963333D01*
X121933332Y-106130000D01*
X121966665Y-106263333D01*
X121999998Y-106330000D01*
X122033332Y-106363333D01*
X122099998Y-106396667D01*
X122166665Y-106396667D01*
X122233332Y-106363333D01*
X122266665Y-106330000D01*
X122299998Y-106263333D01*
X122333332Y-106130000D01*
X122333332Y-105963333D01*
X122299998Y-105830000D01*
X122266665Y-105763333D01*
X122233332Y-105730000D01*
X122166665Y-105696667D01*
X121533331Y-105996667D02*
X121599998Y-105963333D01*
X121633331Y-105930000D01*
X121666665Y-105863333D01*
X121666665Y-105830000D01*
X121633331Y-105763333D01*
X121599998Y-105730000D01*
X121533331Y-105696667D01*
X121399998Y-105696667D01*
X121333331Y-105730000D01*
X121299998Y-105763333D01*
X121266665Y-105830000D01*
X121266665Y-105863333D01*
X121299998Y-105930000D01*
X121333331Y-105963333D01*
X121399998Y-105996667D01*
X121533331Y-105996667D01*
X121599998Y-106030000D01*
X121633331Y-106063333D01*
X121666665Y-106130000D01*
X121666665Y-106263333D01*
X121633331Y-106330000D01*
X121599998Y-106363333D01*
X121533331Y-106396667D01*
X121399998Y-106396667D01*
X121333331Y-106363333D01*
X121299998Y-106330000D01*
X121266665Y-106263333D01*
X121266665Y-106130000D01*
X121299998Y-106063333D01*
X121333331Y-106030000D01*
X121399998Y-105996667D01*
X120966664Y-106130000D02*
X120433331Y-106130000D01*
X119733331Y-106396667D02*
X120133331Y-106396667D01*
X119933331Y-106396667D02*
X119933331Y-105696667D01*
X119999997Y-105796667D01*
X120066664Y-105863333D01*
X120133331Y-105896667D01*
X119133330Y-105696667D02*
X119266664Y-105696667D01*
X119333330Y-105730000D01*
X119366664Y-105763333D01*
X119433330Y-105863333D01*
X119466664Y-105996667D01*
X119466664Y-106263333D01*
X119433330Y-106330000D01*
X119399997Y-106363333D01*
X119333330Y-106396667D01*
X119199997Y-106396667D01*
X119133330Y-106363333D01*
X119099997Y-106330000D01*
X119066664Y-106263333D01*
X119066664Y-106096667D01*
X119099997Y-106030000D01*
X119133330Y-105996667D01*
X119199997Y-105963333D01*
X119333330Y-105963333D01*
X119399997Y-105996667D01*
X119433330Y-106030000D01*
X119466664Y-106096667D01*
M02*
