G04 #@! TF.FileFunction,Copper,L1,Top,Signal*
%FSLAX46Y46*%
G04 Gerber Fmt 4.6, Leading zero omitted, Abs format (unit mm)*
G04 Created by KiCad (PCBNEW (2015-06-09 BZR 5726)-product) date Thu 11 Jun 2015 11:31:05 PM PDT*
%MOMM*%
G01*
G04 APERTURE LIST*
%ADD10C,0.100000*%
%ADD11C,2.499360*%
%ADD12R,1.000000X0.800000*%
%ADD13C,1.250000*%
%ADD14R,1.550000X0.600000*%
%ADD15R,4.200000X3.200000*%
%ADD16R,1.000000X1.600000*%
%ADD17R,1.700000X0.900000*%
%ADD18R,2.032000X1.727200*%
%ADD19O,2.032000X1.727200*%
%ADD20R,0.900000X1.700000*%
%ADD21C,0.600000*%
%ADD22C,0.250000*%
%ADD23C,0.254000*%
G04 APERTURE END LIST*
D10*
D11*
X153500000Y-124500000D03*
D12*
X144350000Y-144050000D03*
X144350000Y-142050000D03*
X150050000Y-143950000D03*
X150050000Y-141950000D03*
D13*
X147000000Y-98750000D03*
X147000000Y-105250000D03*
D14*
X144800000Y-120555000D03*
X144800000Y-121825000D03*
X144800000Y-123095000D03*
X144800000Y-124365000D03*
X144800000Y-125635000D03*
X144800000Y-126905000D03*
X144800000Y-128175000D03*
X144800000Y-129445000D03*
X150200000Y-129445000D03*
X150200000Y-128175000D03*
X150200000Y-126905000D03*
X150200000Y-125635000D03*
X150200000Y-124365000D03*
X150200000Y-123095000D03*
X150200000Y-121825000D03*
X150200000Y-120555000D03*
D15*
X147100000Y-63350000D03*
X147100000Y-92650000D03*
D16*
X142000000Y-110500000D03*
X139000000Y-110500000D03*
X142000000Y-115000000D03*
X139000000Y-115000000D03*
X146000000Y-114900000D03*
X149000000Y-114900000D03*
D17*
X152500000Y-135950000D03*
X152500000Y-133050000D03*
X140500000Y-135950000D03*
X140500000Y-133050000D03*
X148500000Y-133050000D03*
X148500000Y-135950000D03*
X144500000Y-135950000D03*
X144500000Y-133050000D03*
X153900000Y-113050000D03*
X153900000Y-110150000D03*
D11*
X153500000Y-129000000D03*
D18*
X140500000Y-128500000D03*
D19*
X140500000Y-125960000D03*
X140500000Y-123420000D03*
X140500000Y-120880000D03*
D20*
X148950000Y-110500000D03*
X146050000Y-110500000D03*
D17*
X154000000Y-119650000D03*
X154000000Y-116750000D03*
D21*
X148500000Y-131600000D03*
X146200000Y-125600000D03*
X147100000Y-88200000D03*
X140500000Y-113000000D03*
X150100000Y-145100000D03*
X144300000Y-145100000D03*
X144500000Y-131800000D03*
X143100000Y-124400000D03*
X154000000Y-115600000D03*
X153900000Y-109000000D03*
X144800000Y-108500000D03*
X144800000Y-119600000D03*
D22*
X144886400Y-118761398D02*
X141038602Y-118761398D01*
X146235000Y-120109998D02*
X144886400Y-118761398D01*
X146235000Y-125635000D02*
X146235000Y-120109998D01*
X141038602Y-118761398D02*
X140500000Y-119300000D01*
X140500000Y-118700000D02*
X142000000Y-117200000D01*
X142000000Y-117200000D02*
X142000000Y-115000000D01*
X140500000Y-119300000D02*
X140500000Y-118700000D01*
X140500000Y-120880000D02*
X140500000Y-119300000D01*
X142000000Y-115000000D02*
X142000000Y-110500000D01*
X142000000Y-110500000D02*
X146050000Y-110500000D01*
X142000000Y-108900000D02*
X143000000Y-107900000D01*
X143000000Y-107900000D02*
X143000000Y-67450000D01*
X143000000Y-67450000D02*
X147100000Y-63350000D01*
X142000000Y-110500000D02*
X142000000Y-108900000D01*
X144800000Y-125635000D02*
X146235000Y-125635000D01*
X146200000Y-125600000D02*
X146200000Y-125635000D01*
X146200000Y-125635000D02*
X146235000Y-125635000D01*
X148500000Y-133050000D02*
X148500000Y-131600000D01*
X147100000Y-92650000D02*
X147100000Y-88200000D01*
X139000000Y-114500000D02*
X139000000Y-115000000D01*
X140500000Y-113000000D02*
X139000000Y-114500000D01*
X139000000Y-111500000D02*
X140500000Y-113000000D01*
X139000000Y-110500000D02*
X139000000Y-111500000D01*
X140450000Y-112950000D02*
X140500000Y-113000000D01*
X140500000Y-113000000D02*
X140450000Y-112950000D01*
X150100000Y-144000000D02*
X150050000Y-143950000D01*
X150100000Y-145100000D02*
X150100000Y-144000000D01*
X144300000Y-144100000D02*
X144300000Y-145100000D01*
X144350000Y-144050000D02*
X144300000Y-144100000D01*
X144500000Y-133050000D02*
X144500000Y-131800000D01*
X144765000Y-124400000D02*
X144800000Y-124365000D01*
X143100000Y-124400000D02*
X144765000Y-124400000D01*
X142120000Y-123420000D02*
X140500000Y-123420000D01*
X143100000Y-124400000D02*
X142120000Y-123420000D01*
X154000000Y-116750000D02*
X154000000Y-115600000D01*
X153900000Y-110150000D02*
X153900000Y-109000000D01*
X150200000Y-119800000D02*
X149200000Y-118800000D01*
X149200000Y-118800000D02*
X147400000Y-118800000D01*
X147400000Y-118800000D02*
X146000000Y-117400000D01*
X146000000Y-117400000D02*
X146000000Y-114900000D01*
X150200000Y-120555000D02*
X150200000Y-119800000D01*
X149700000Y-114900000D02*
X150400000Y-114200000D01*
X150400000Y-114200000D02*
X150400000Y-102150000D01*
X150400000Y-102150000D02*
X147000000Y-98750000D01*
X149000000Y-114900000D02*
X149700000Y-114900000D01*
X151595000Y-126905000D02*
X150200000Y-126905000D01*
X153500000Y-125000000D02*
X151595000Y-126905000D01*
X153500000Y-124500000D02*
X153500000Y-125000000D01*
X152100000Y-123100000D02*
X152100000Y-115400000D01*
X152100000Y-115400000D02*
X152100000Y-114850000D01*
X152100000Y-114850000D02*
X153900000Y-113050000D01*
X153500000Y-124500000D02*
X152100000Y-123100000D01*
X140500000Y-138200000D02*
X140500000Y-135950000D01*
X144350000Y-142050000D02*
X140500000Y-138200000D01*
X152500000Y-139500000D02*
X150050000Y-141950000D01*
X152500000Y-135950000D02*
X152500000Y-139500000D01*
X148500000Y-135950000D02*
X144500000Y-135950000D01*
X149435000Y-124365000D02*
X150200000Y-124365000D01*
X150050000Y-135950000D02*
X150400000Y-135600000D01*
X150400000Y-135600000D02*
X150400000Y-131900000D01*
X150400000Y-131900000D02*
X148800000Y-130300000D01*
X148800000Y-130300000D02*
X148800000Y-125000000D01*
X148800000Y-125000000D02*
X149435000Y-124365000D01*
X148500000Y-135950000D02*
X150050000Y-135950000D01*
X145146796Y-119658204D02*
X144700000Y-119211408D01*
X144800000Y-120555000D02*
X144800000Y-120005000D01*
X144800000Y-120005000D02*
X145146796Y-119658204D01*
X144800000Y-108500000D02*
X144800000Y-107450000D01*
X144800000Y-107450000D02*
X147000000Y-105250000D01*
X144800000Y-120555000D02*
X144800000Y-119600000D01*
X152500000Y-131745000D02*
X150200000Y-129445000D01*
X152500000Y-133050000D02*
X152500000Y-131745000D01*
X144105000Y-129445000D02*
X144800000Y-129445000D01*
X140500000Y-133050000D02*
X144105000Y-129445000D01*
X152675000Y-128175000D02*
X150200000Y-128175000D01*
X153500000Y-129000000D02*
X152675000Y-128175000D01*
X155800000Y-126700000D02*
X155800000Y-122200000D01*
X155800000Y-122200000D02*
X155800000Y-121450000D01*
X155800000Y-121450000D02*
X154000000Y-119650000D01*
X153500000Y-129000000D02*
X155800000Y-126700000D01*
X140825000Y-128175000D02*
X144800000Y-128175000D01*
X140500000Y-128500000D02*
X140825000Y-128175000D01*
X142060000Y-125960000D02*
X143005000Y-126905000D01*
X143005000Y-126905000D02*
X144800000Y-126905000D01*
X140500000Y-125960000D02*
X142060000Y-125960000D01*
X146395000Y-126905000D02*
X147500000Y-125800000D01*
X147500000Y-125800000D02*
X147500000Y-120100000D01*
X147500000Y-120100000D02*
X144500000Y-117100000D01*
X144500000Y-117100000D02*
X144500000Y-113500000D01*
X144500000Y-113500000D02*
X145800000Y-112200000D01*
X145800000Y-112200000D02*
X148700000Y-112200000D01*
X148700000Y-112200000D02*
X148950000Y-111950000D01*
X148950000Y-111950000D02*
X148950000Y-110500000D01*
X144800000Y-126905000D02*
X146395000Y-126905000D01*
D23*
G36*
X146223000Y-147423000D02*
X145485000Y-147423000D01*
X145485000Y-144576309D01*
X145485000Y-144335750D01*
X145326250Y-144177000D01*
X144477000Y-144177000D01*
X144477000Y-144926250D01*
X144635750Y-145085000D01*
X144723691Y-145085000D01*
X144976310Y-145085000D01*
X145209699Y-144988327D01*
X145388327Y-144809698D01*
X145485000Y-144576309D01*
X145485000Y-147423000D01*
X144223000Y-147423000D01*
X144223000Y-144926250D01*
X144223000Y-144177000D01*
X143373750Y-144177000D01*
X143215000Y-144335750D01*
X143215000Y-144576309D01*
X143311673Y-144809698D01*
X143490301Y-144988327D01*
X143723690Y-145085000D01*
X143976309Y-145085000D01*
X144064250Y-145085000D01*
X144223000Y-144926250D01*
X144223000Y-147423000D01*
X142477000Y-147423000D01*
X142477000Y-143677000D01*
X143215000Y-143677000D01*
X143215000Y-143764250D01*
X143373750Y-143923000D01*
X144223000Y-143923000D01*
X144223000Y-143903000D01*
X144477000Y-143903000D01*
X144477000Y-143923000D01*
X145326250Y-143923000D01*
X145485000Y-143764250D01*
X145485000Y-143677000D01*
X146223000Y-143677000D01*
X146223000Y-147423000D01*
X146223000Y-147423000D01*
G37*
X146223000Y-147423000D02*
X145485000Y-147423000D01*
X145485000Y-144576309D01*
X145485000Y-144335750D01*
X145326250Y-144177000D01*
X144477000Y-144177000D01*
X144477000Y-144926250D01*
X144635750Y-145085000D01*
X144723691Y-145085000D01*
X144976310Y-145085000D01*
X145209699Y-144988327D01*
X145388327Y-144809698D01*
X145485000Y-144576309D01*
X145485000Y-147423000D01*
X144223000Y-147423000D01*
X144223000Y-144926250D01*
X144223000Y-144177000D01*
X143373750Y-144177000D01*
X143215000Y-144335750D01*
X143215000Y-144576309D01*
X143311673Y-144809698D01*
X143490301Y-144988327D01*
X143723690Y-145085000D01*
X143976309Y-145085000D01*
X144064250Y-145085000D01*
X144223000Y-144926250D01*
X144223000Y-147423000D01*
X142477000Y-147423000D01*
X142477000Y-143677000D01*
X143215000Y-143677000D01*
X143215000Y-143764250D01*
X143373750Y-143923000D01*
X144223000Y-143923000D01*
X144223000Y-143903000D01*
X144477000Y-143903000D01*
X144477000Y-143923000D01*
X145326250Y-143923000D01*
X145485000Y-143764250D01*
X145485000Y-143677000D01*
X146223000Y-143677000D01*
X146223000Y-147423000D01*
G36*
X146223000Y-142323000D02*
X145485000Y-142323000D01*
X145485000Y-141764250D01*
X145485000Y-141523691D01*
X145388327Y-141290302D01*
X145209699Y-141111673D01*
X144976310Y-141015000D01*
X144723691Y-141015000D01*
X144635750Y-141015000D01*
X144477000Y-141173750D01*
X144477000Y-141923000D01*
X145326250Y-141923000D01*
X145485000Y-141764250D01*
X145485000Y-142323000D01*
X145472250Y-142323000D01*
X145326250Y-142177000D01*
X144477000Y-142177000D01*
X144477000Y-142197000D01*
X144223000Y-142197000D01*
X144223000Y-142177000D01*
X144223000Y-141923000D01*
X144223000Y-141173750D01*
X144064250Y-141015000D01*
X143976309Y-141015000D01*
X143723690Y-141015000D01*
X143490301Y-141111673D01*
X143311673Y-141290302D01*
X143215000Y-141523691D01*
X143215000Y-141764250D01*
X143373750Y-141923000D01*
X144223000Y-141923000D01*
X144223000Y-142177000D01*
X143373750Y-142177000D01*
X143227750Y-142323000D01*
X142477000Y-142323000D01*
X142477000Y-138577000D01*
X146223000Y-138577000D01*
X146223000Y-142323000D01*
X146223000Y-142323000D01*
G37*
X146223000Y-142323000D02*
X145485000Y-142323000D01*
X145485000Y-141764250D01*
X145485000Y-141523691D01*
X145388327Y-141290302D01*
X145209699Y-141111673D01*
X144976310Y-141015000D01*
X144723691Y-141015000D01*
X144635750Y-141015000D01*
X144477000Y-141173750D01*
X144477000Y-141923000D01*
X145326250Y-141923000D01*
X145485000Y-141764250D01*
X145485000Y-142323000D01*
X145472250Y-142323000D01*
X145326250Y-142177000D01*
X144477000Y-142177000D01*
X144477000Y-142197000D01*
X144223000Y-142197000D01*
X144223000Y-142177000D01*
X144223000Y-141923000D01*
X144223000Y-141173750D01*
X144064250Y-141015000D01*
X143976309Y-141015000D01*
X143723690Y-141015000D01*
X143490301Y-141111673D01*
X143311673Y-141290302D01*
X143215000Y-141523691D01*
X143215000Y-141764250D01*
X143373750Y-141923000D01*
X144223000Y-141923000D01*
X144223000Y-142177000D01*
X143373750Y-142177000D01*
X143227750Y-142323000D01*
X142477000Y-142323000D01*
X142477000Y-138577000D01*
X146223000Y-138577000D01*
X146223000Y-142323000D01*
G36*
X151923000Y-147323000D02*
X151185000Y-147323000D01*
X151185000Y-144476309D01*
X151185000Y-144235750D01*
X151026250Y-144077000D01*
X150177000Y-144077000D01*
X150177000Y-144826250D01*
X150335750Y-144985000D01*
X150423691Y-144985000D01*
X150676310Y-144985000D01*
X150909699Y-144888327D01*
X151088327Y-144709698D01*
X151185000Y-144476309D01*
X151185000Y-147323000D01*
X149923000Y-147323000D01*
X149923000Y-144826250D01*
X149923000Y-144077000D01*
X149073750Y-144077000D01*
X148915000Y-144235750D01*
X148915000Y-144476309D01*
X149011673Y-144709698D01*
X149190301Y-144888327D01*
X149423690Y-144985000D01*
X149676309Y-144985000D01*
X149764250Y-144985000D01*
X149923000Y-144826250D01*
X149923000Y-147323000D01*
X148177000Y-147323000D01*
X148177000Y-143577000D01*
X148915000Y-143577000D01*
X148915000Y-143664250D01*
X149073750Y-143823000D01*
X149923000Y-143823000D01*
X149923000Y-143803000D01*
X150177000Y-143803000D01*
X150177000Y-143823000D01*
X151026250Y-143823000D01*
X151185000Y-143664250D01*
X151185000Y-143577000D01*
X151923000Y-143577000D01*
X151923000Y-147323000D01*
X151923000Y-147323000D01*
G37*
X151923000Y-147323000D02*
X151185000Y-147323000D01*
X151185000Y-144476309D01*
X151185000Y-144235750D01*
X151026250Y-144077000D01*
X150177000Y-144077000D01*
X150177000Y-144826250D01*
X150335750Y-144985000D01*
X150423691Y-144985000D01*
X150676310Y-144985000D01*
X150909699Y-144888327D01*
X151088327Y-144709698D01*
X151185000Y-144476309D01*
X151185000Y-147323000D01*
X149923000Y-147323000D01*
X149923000Y-144826250D01*
X149923000Y-144077000D01*
X149073750Y-144077000D01*
X148915000Y-144235750D01*
X148915000Y-144476309D01*
X149011673Y-144709698D01*
X149190301Y-144888327D01*
X149423690Y-144985000D01*
X149676309Y-144985000D01*
X149764250Y-144985000D01*
X149923000Y-144826250D01*
X149923000Y-147323000D01*
X148177000Y-147323000D01*
X148177000Y-143577000D01*
X148915000Y-143577000D01*
X148915000Y-143664250D01*
X149073750Y-143823000D01*
X149923000Y-143823000D01*
X149923000Y-143803000D01*
X150177000Y-143803000D01*
X150177000Y-143823000D01*
X151026250Y-143823000D01*
X151185000Y-143664250D01*
X151185000Y-143577000D01*
X151923000Y-143577000D01*
X151923000Y-147323000D01*
G36*
X151923000Y-142323000D02*
X151185000Y-142323000D01*
X151185000Y-142235750D01*
X151185000Y-141664250D01*
X151185000Y-141423691D01*
X151088327Y-141190302D01*
X150909699Y-141011673D01*
X150676310Y-140915000D01*
X150423691Y-140915000D01*
X150335750Y-140915000D01*
X150177000Y-141073750D01*
X150177000Y-141823000D01*
X151026250Y-141823000D01*
X151185000Y-141664250D01*
X151185000Y-142235750D01*
X151026250Y-142077000D01*
X150177000Y-142077000D01*
X150177000Y-142097000D01*
X149923000Y-142097000D01*
X149923000Y-142077000D01*
X149923000Y-141823000D01*
X149923000Y-141073750D01*
X149764250Y-140915000D01*
X149676309Y-140915000D01*
X149423690Y-140915000D01*
X149190301Y-141011673D01*
X149011673Y-141190302D01*
X148915000Y-141423691D01*
X148915000Y-141664250D01*
X149073750Y-141823000D01*
X149923000Y-141823000D01*
X149923000Y-142077000D01*
X149073750Y-142077000D01*
X148915000Y-142235750D01*
X148915000Y-142323000D01*
X148177000Y-142323000D01*
X148177000Y-138577000D01*
X151923000Y-138577000D01*
X151923000Y-142323000D01*
X151923000Y-142323000D01*
G37*
X151923000Y-142323000D02*
X151185000Y-142323000D01*
X151185000Y-142235750D01*
X151185000Y-141664250D01*
X151185000Y-141423691D01*
X151088327Y-141190302D01*
X150909699Y-141011673D01*
X150676310Y-140915000D01*
X150423691Y-140915000D01*
X150335750Y-140915000D01*
X150177000Y-141073750D01*
X150177000Y-141823000D01*
X151026250Y-141823000D01*
X151185000Y-141664250D01*
X151185000Y-142235750D01*
X151026250Y-142077000D01*
X150177000Y-142077000D01*
X150177000Y-142097000D01*
X149923000Y-142097000D01*
X149923000Y-142077000D01*
X149923000Y-141823000D01*
X149923000Y-141073750D01*
X149764250Y-140915000D01*
X149676309Y-140915000D01*
X149423690Y-140915000D01*
X149190301Y-141011673D01*
X149011673Y-141190302D01*
X148915000Y-141423691D01*
X148915000Y-141664250D01*
X149073750Y-141823000D01*
X149923000Y-141823000D01*
X149923000Y-142077000D01*
X149073750Y-142077000D01*
X148915000Y-142235750D01*
X148915000Y-142323000D01*
X148177000Y-142323000D01*
X148177000Y-138577000D01*
X151923000Y-138577000D01*
X151923000Y-142323000D01*
M02*
