G04 #@! TF.FileFunction,Soldermask,Top*
%FSLAX46Y46*%
G04 Gerber Fmt 4.6, Leading zero omitted, Abs format (unit mm)*
G04 Created by KiCad (PCBNEW (2015-08-06 BZR 6058)-product) date Mon 10 Aug 2015 01:03:25 PM PDT*
%MOMM*%
G01*
G04 APERTURE LIST*
%ADD10C,0.100000*%
%ADD11C,2.499360*%
%ADD12R,1.800860X1.597660*%
%ADD13R,1.727200X1.727200*%
%ADD14O,1.727200X1.727200*%
%ADD15R,1.700000X0.900000*%
%ADD16R,0.900000X1.700000*%
%ADD17C,2.500000*%
%ADD18R,1.550000X0.600000*%
G04 APERTURE END LIST*
D10*
D11*
X119350000Y-138050000D03*
X123150000Y-138200000D03*
D12*
X119350000Y-105269860D03*
X119350000Y-102430140D03*
X123650000Y-105269860D03*
X123650000Y-102430140D03*
D13*
X126275000Y-142775000D03*
D14*
X126275000Y-145315000D03*
X123735000Y-142775000D03*
X123735000Y-145315000D03*
X121195000Y-142775000D03*
X121195000Y-145315000D03*
X118655000Y-142775000D03*
X118655000Y-145315000D03*
X116115000Y-142775000D03*
X116115000Y-145315000D03*
D15*
X123650000Y-108225000D03*
X123650000Y-111125000D03*
X119400000Y-108200000D03*
X119400000Y-111100000D03*
D16*
X119700000Y-133750000D03*
X122600000Y-133750000D03*
D17*
X124650000Y-94150000D03*
X118150000Y-94150000D03*
D18*
X118450000Y-121755000D03*
X118450000Y-123025000D03*
X118450000Y-124295000D03*
X118450000Y-125565000D03*
X118450000Y-126835000D03*
X118450000Y-128105000D03*
X118450000Y-129375000D03*
X118450000Y-130645000D03*
X123850000Y-130645000D03*
X123850000Y-129375000D03*
X123850000Y-128105000D03*
X123850000Y-126835000D03*
X123850000Y-125565000D03*
X123850000Y-124295000D03*
X123850000Y-123025000D03*
X123850000Y-121755000D03*
M02*
