G04 #@! TF.FileFunction,Legend,Top*
%FSLAX46Y46*%
G04 Gerber Fmt 4.6, Leading zero omitted, Abs format (unit mm)*
G04 Created by KiCad (PCBNEW (2015-06-09 BZR 5726)-product) date Sun 21 Jun 2015 02:21:38 AM PDT*
%MOMM*%
G01*
G04 APERTURE LIST*
%ADD10C,0.100000*%
%ADD11C,0.150000*%
%ADD12C,0.203200*%
%ADD13C,0.125000*%
%ADD14C,0.062500*%
%ADD15C,0.152400*%
G04 APERTURE END LIST*
D10*
D11*
X144600000Y-150000000D02*
X145000000Y-150400000D01*
X143700000Y-152100000D02*
X143700000Y-150000000D01*
X143700000Y-150000000D02*
X145000000Y-150000000D01*
X145000000Y-150000000D02*
X145000000Y-152100000D01*
X145000000Y-152100000D02*
X143700000Y-152100000D01*
X150300000Y-149900000D02*
X150700000Y-150300000D01*
X149400000Y-152000000D02*
X149400000Y-149900000D01*
X149400000Y-149900000D02*
X150700000Y-149900000D01*
X150700000Y-149900000D02*
X150700000Y-152000000D01*
X150700000Y-152000000D02*
X149400000Y-152000000D01*
X153000000Y-110000000D02*
G75*
G03X153000000Y-110000000I-6000000J0D01*
G01*
D12*
X146500000Y-128000000D02*
X146500000Y-138000000D01*
X145353553Y-127500000D02*
G75*
G03X145353553Y-127500000I-353553J0D01*
G01*
X149500000Y-128000000D02*
X145500000Y-128000000D01*
X145500000Y-128000000D02*
X145500000Y-138000000D01*
X145500000Y-138000000D02*
X149500000Y-138000000D01*
X149500000Y-138000000D02*
X149500000Y-128000000D01*
D11*
X139500000Y-119525000D02*
X141500000Y-119525000D01*
X141500000Y-117475000D02*
X139500000Y-117475000D01*
X139500000Y-124025000D02*
X141500000Y-124025000D01*
X141500000Y-121975000D02*
X139500000Y-121975000D01*
X148500000Y-121875000D02*
X146500000Y-121875000D01*
X146500000Y-123925000D02*
X148500000Y-123925000D01*
X153575000Y-141500000D02*
X153575000Y-143500000D01*
X151425000Y-143500000D02*
X151425000Y-141500000D01*
X141575000Y-141500000D02*
X141575000Y-143500000D01*
X139425000Y-143500000D02*
X139425000Y-141500000D01*
X147425000Y-143500000D02*
X147425000Y-141500000D01*
X149575000Y-141500000D02*
X149575000Y-143500000D01*
X145575000Y-141500000D02*
X145575000Y-143500000D01*
X143425000Y-143500000D02*
X143425000Y-141500000D01*
X154975000Y-118600000D02*
X154975000Y-120600000D01*
X152825000Y-120600000D02*
X152825000Y-118600000D01*
X141770000Y-135230000D02*
X141770000Y-127610000D01*
X139230000Y-135230000D02*
X139230000Y-127610000D01*
X138950000Y-138050000D02*
X138950000Y-136500000D01*
X141770000Y-127610000D02*
X139230000Y-127610000D01*
X139230000Y-135230000D02*
X141770000Y-135230000D01*
X142050000Y-136500000D02*
X142050000Y-138050000D01*
X142050000Y-138050000D02*
X138950000Y-138050000D01*
X146500000Y-117425000D02*
X148500000Y-117425000D01*
X148500000Y-119575000D02*
X146500000Y-119575000D01*
X155075000Y-125200000D02*
X155075000Y-127200000D01*
X152925000Y-127200000D02*
X152925000Y-125200000D01*
X139100000Y-81000000D02*
X142100000Y-84000000D01*
X142100000Y-84000000D02*
X142100000Y-88000000D01*
X142100000Y-88000000D02*
X139100000Y-91000000D01*
X143600000Y-75250000D02*
X143600000Y-70000000D01*
X150600000Y-75250000D02*
X150600000Y-70000000D01*
X150600000Y-70000000D02*
X143600000Y-70000000D01*
X150600000Y-102000000D02*
X143600000Y-102000000D01*
X143600000Y-102000000D02*
X143600000Y-96750000D01*
X150600000Y-96750000D02*
X150600000Y-102000000D01*
X139100000Y-94000000D02*
X139100000Y-78000000D01*
X155100000Y-78000000D02*
X155100000Y-93750000D01*
X158350000Y-86000000D02*
G75*
G03X158350000Y-86000000I-11250000J0D01*
G01*
X153938095Y-134152381D02*
X154509524Y-134152381D01*
X154223809Y-135152381D02*
X154223809Y-134152381D01*
X155414286Y-135057143D02*
X155366667Y-135104762D01*
X155223810Y-135152381D01*
X155128572Y-135152381D01*
X154985714Y-135104762D01*
X154890476Y-135009524D01*
X154842857Y-134914286D01*
X154795238Y-134723810D01*
X154795238Y-134580952D01*
X154842857Y-134390476D01*
X154890476Y-134295238D01*
X154985714Y-134200000D01*
X155128572Y-134152381D01*
X155223810Y-134152381D01*
X155366667Y-134200000D01*
X155414286Y-134247619D01*
X156366667Y-135152381D02*
X155795238Y-135152381D01*
X156080952Y-135152381D02*
X156080952Y-134152381D01*
X155985714Y-134295238D01*
X155890476Y-134390476D01*
X155795238Y-134438095D01*
D13*
X143226190Y-151469047D02*
X142726190Y-151469047D01*
X142726190Y-151350000D01*
X142750000Y-151278571D01*
X142797619Y-151230952D01*
X142845238Y-151207143D01*
X142940476Y-151183333D01*
X143011905Y-151183333D01*
X143107143Y-151207143D01*
X143154762Y-151230952D01*
X143202381Y-151278571D01*
X143226190Y-151350000D01*
X143226190Y-151469047D01*
X143226190Y-150707143D02*
X143226190Y-150992857D01*
X143226190Y-150850000D02*
X142726190Y-150850000D01*
X142797619Y-150897619D01*
X142845238Y-150945238D01*
X142869048Y-150992857D01*
X145976190Y-152188095D02*
X145976190Y-152426190D01*
X145476190Y-152426190D01*
X145714286Y-152021428D02*
X145714286Y-151854762D01*
X145976190Y-151783333D02*
X145976190Y-152021428D01*
X145476190Y-152021428D01*
X145476190Y-151783333D01*
X145976190Y-151569047D02*
X145476190Y-151569047D01*
X145476190Y-151450000D01*
X145500000Y-151378571D01*
X145547619Y-151330952D01*
X145595238Y-151307143D01*
X145690476Y-151283333D01*
X145761905Y-151283333D01*
X145857143Y-151307143D01*
X145904762Y-151330952D01*
X145952381Y-151378571D01*
X145976190Y-151450000D01*
X145976190Y-151569047D01*
X145976190Y-150402381D02*
X145738095Y-150569048D01*
X145976190Y-150688095D02*
X145476190Y-150688095D01*
X145476190Y-150497619D01*
X145500000Y-150450000D01*
X145523810Y-150426191D01*
X145571429Y-150402381D01*
X145642857Y-150402381D01*
X145690476Y-150426191D01*
X145714286Y-150450000D01*
X145738095Y-150497619D01*
X145738095Y-150688095D01*
X145714286Y-150188095D02*
X145714286Y-150021429D01*
X145976190Y-149950000D02*
X145976190Y-150188095D01*
X145476190Y-150188095D01*
X145476190Y-149950000D01*
X145976190Y-149735714D02*
X145476190Y-149735714D01*
X145476190Y-149616667D01*
X145500000Y-149545238D01*
X145547619Y-149497619D01*
X145595238Y-149473810D01*
X145690476Y-149450000D01*
X145761905Y-149450000D01*
X145857143Y-149473810D01*
X145904762Y-149497619D01*
X145952381Y-149545238D01*
X145976190Y-149616667D01*
X145976190Y-149735714D01*
D14*
X145289286Y-149672619D02*
X145301190Y-149684524D01*
X145313095Y-149720238D01*
X145313095Y-149744048D01*
X145301190Y-149779762D01*
X145277381Y-149803571D01*
X145253571Y-149815476D01*
X145205952Y-149827381D01*
X145170238Y-149827381D01*
X145122619Y-149815476D01*
X145098810Y-149803571D01*
X145075000Y-149779762D01*
X145063095Y-149744048D01*
X145063095Y-149720238D01*
X145075000Y-149684524D01*
X145086905Y-149672619D01*
D13*
X149026190Y-151369047D02*
X148526190Y-151369047D01*
X148526190Y-151250000D01*
X148550000Y-151178571D01*
X148597619Y-151130952D01*
X148645238Y-151107143D01*
X148740476Y-151083333D01*
X148811905Y-151083333D01*
X148907143Y-151107143D01*
X148954762Y-151130952D01*
X149002381Y-151178571D01*
X149026190Y-151250000D01*
X149026190Y-151369047D01*
X148573810Y-150892857D02*
X148550000Y-150869047D01*
X148526190Y-150821428D01*
X148526190Y-150702381D01*
X148550000Y-150654762D01*
X148573810Y-150630952D01*
X148621429Y-150607143D01*
X148669048Y-150607143D01*
X148740476Y-150630952D01*
X149026190Y-150916666D01*
X149026190Y-150607143D01*
X151676190Y-152123809D02*
X151676190Y-152361904D01*
X151176190Y-152361904D01*
X151414286Y-151957142D02*
X151414286Y-151790476D01*
X151676190Y-151719047D02*
X151676190Y-151957142D01*
X151176190Y-151957142D01*
X151176190Y-151719047D01*
X151676190Y-151504761D02*
X151176190Y-151504761D01*
X151176190Y-151385714D01*
X151200000Y-151314285D01*
X151247619Y-151266666D01*
X151295238Y-151242857D01*
X151390476Y-151219047D01*
X151461905Y-151219047D01*
X151557143Y-151242857D01*
X151604762Y-151266666D01*
X151652381Y-151314285D01*
X151676190Y-151385714D01*
X151676190Y-151504761D01*
X151200000Y-150361905D02*
X151176190Y-150409524D01*
X151176190Y-150480952D01*
X151200000Y-150552381D01*
X151247619Y-150600000D01*
X151295238Y-150623809D01*
X151390476Y-150647619D01*
X151461905Y-150647619D01*
X151557143Y-150623809D01*
X151604762Y-150600000D01*
X151652381Y-150552381D01*
X151676190Y-150480952D01*
X151676190Y-150433333D01*
X151652381Y-150361905D01*
X151628571Y-150338095D01*
X151461905Y-150338095D01*
X151461905Y-150433333D01*
X151676190Y-149838095D02*
X151438095Y-150004762D01*
X151676190Y-150123809D02*
X151176190Y-150123809D01*
X151176190Y-149933333D01*
X151200000Y-149885714D01*
X151223810Y-149861905D01*
X151271429Y-149838095D01*
X151342857Y-149838095D01*
X151390476Y-149861905D01*
X151414286Y-149885714D01*
X151438095Y-149933333D01*
X151438095Y-150123809D01*
X151676190Y-149623809D02*
X151176190Y-149623809D01*
X151676190Y-149338095D01*
X151176190Y-149338095D01*
D14*
X150989286Y-149572619D02*
X151001190Y-149584524D01*
X151013095Y-149620238D01*
X151013095Y-149644048D01*
X151001190Y-149679762D01*
X150977381Y-149703571D01*
X150953571Y-149715476D01*
X150905952Y-149727381D01*
X150870238Y-149727381D01*
X150822619Y-149715476D01*
X150798810Y-149703571D01*
X150775000Y-149679762D01*
X150763095Y-149644048D01*
X150763095Y-149620238D01*
X150775000Y-149584524D01*
X150786905Y-149572619D01*
D13*
X154602381Y-110630952D02*
X154626190Y-110559523D01*
X154626190Y-110440476D01*
X154602381Y-110392857D01*
X154578571Y-110369047D01*
X154530952Y-110345238D01*
X154483333Y-110345238D01*
X154435714Y-110369047D01*
X154411905Y-110392857D01*
X154388095Y-110440476D01*
X154364286Y-110535714D01*
X154340476Y-110583333D01*
X154316667Y-110607142D01*
X154269048Y-110630952D01*
X154221429Y-110630952D01*
X154173810Y-110607142D01*
X154150000Y-110583333D01*
X154126190Y-110535714D01*
X154126190Y-110416666D01*
X154150000Y-110345238D01*
X154626190Y-110130952D02*
X154126190Y-110130952D01*
X154126190Y-109940476D01*
X154150000Y-109892857D01*
X154173810Y-109869048D01*
X154221429Y-109845238D01*
X154292857Y-109845238D01*
X154340476Y-109869048D01*
X154364286Y-109892857D01*
X154388095Y-109940476D01*
X154388095Y-110130952D01*
X154626190Y-109369048D02*
X154626190Y-109654762D01*
X154626190Y-109511905D02*
X154126190Y-109511905D01*
X154197619Y-109559524D01*
X154245238Y-109607143D01*
X154269048Y-109654762D01*
D15*
X146919429Y-126582714D02*
X146919429Y-127199571D01*
X146955714Y-127272143D01*
X146992000Y-127308429D01*
X147064571Y-127344714D01*
X147209714Y-127344714D01*
X147282286Y-127308429D01*
X147318571Y-127272143D01*
X147354857Y-127199571D01*
X147354857Y-126582714D01*
X148116857Y-127344714D02*
X147681429Y-127344714D01*
X147899143Y-127344714D02*
X147899143Y-126582714D01*
X147826572Y-126691571D01*
X147754000Y-126764143D01*
X147681429Y-126800429D01*
D11*
X138633334Y-116657143D02*
X138585715Y-116704762D01*
X138442858Y-116752381D01*
X138347620Y-116752381D01*
X138204762Y-116704762D01*
X138109524Y-116609524D01*
X138061905Y-116514286D01*
X138014286Y-116323810D01*
X138014286Y-116180952D01*
X138061905Y-115990476D01*
X138109524Y-115895238D01*
X138204762Y-115800000D01*
X138347620Y-115752381D01*
X138442858Y-115752381D01*
X138585715Y-115800000D01*
X138633334Y-115847619D01*
X139585715Y-116752381D02*
X139014286Y-116752381D01*
X139300000Y-116752381D02*
X139300000Y-115752381D01*
X139204762Y-115895238D01*
X139109524Y-115990476D01*
X139014286Y-116038095D01*
X141933334Y-116752381D02*
X141361905Y-116752381D01*
X141647619Y-116752381D02*
X141647619Y-115752381D01*
X141552381Y-115895238D01*
X141457143Y-115990476D01*
X141361905Y-116038095D01*
X142790477Y-116085714D02*
X142790477Y-116752381D01*
X142361905Y-116085714D02*
X142361905Y-116609524D01*
X142409524Y-116704762D01*
X142504762Y-116752381D01*
X142647620Y-116752381D01*
X142742858Y-116704762D01*
X142790477Y-116657143D01*
X138633334Y-121357143D02*
X138585715Y-121404762D01*
X138442858Y-121452381D01*
X138347620Y-121452381D01*
X138204762Y-121404762D01*
X138109524Y-121309524D01*
X138061905Y-121214286D01*
X138014286Y-121023810D01*
X138014286Y-120880952D01*
X138061905Y-120690476D01*
X138109524Y-120595238D01*
X138204762Y-120500000D01*
X138347620Y-120452381D01*
X138442858Y-120452381D01*
X138585715Y-120500000D01*
X138633334Y-120547619D01*
X139014286Y-120547619D02*
X139061905Y-120500000D01*
X139157143Y-120452381D01*
X139395239Y-120452381D01*
X139490477Y-120500000D01*
X139538096Y-120547619D01*
X139585715Y-120642857D01*
X139585715Y-120738095D01*
X139538096Y-120880952D01*
X138966667Y-121452381D01*
X139585715Y-121452381D01*
X141280953Y-121452381D02*
X140709524Y-121452381D01*
X140995238Y-121452381D02*
X140995238Y-120452381D01*
X140900000Y-120595238D01*
X140804762Y-120690476D01*
X140709524Y-120738095D01*
X141900000Y-120452381D02*
X141995239Y-120452381D01*
X142090477Y-120500000D01*
X142138096Y-120547619D01*
X142185715Y-120642857D01*
X142233334Y-120833333D01*
X142233334Y-121071429D01*
X142185715Y-121261905D01*
X142138096Y-121357143D01*
X142090477Y-121404762D01*
X141995239Y-121452381D01*
X141900000Y-121452381D01*
X141804762Y-121404762D01*
X141757143Y-121357143D01*
X141709524Y-121261905D01*
X141661905Y-121071429D01*
X141661905Y-120833333D01*
X141709524Y-120642857D01*
X141757143Y-120547619D01*
X141804762Y-120500000D01*
X141900000Y-120452381D01*
X142852381Y-120452381D02*
X142947620Y-120452381D01*
X143042858Y-120500000D01*
X143090477Y-120547619D01*
X143138096Y-120642857D01*
X143185715Y-120833333D01*
X143185715Y-121071429D01*
X143138096Y-121261905D01*
X143090477Y-121357143D01*
X143042858Y-121404762D01*
X142947620Y-121452381D01*
X142852381Y-121452381D01*
X142757143Y-121404762D01*
X142709524Y-121357143D01*
X142661905Y-121261905D01*
X142614286Y-121071429D01*
X142614286Y-120833333D01*
X142661905Y-120642857D01*
X142709524Y-120547619D01*
X142757143Y-120500000D01*
X142852381Y-120452381D01*
X143614286Y-120785714D02*
X143614286Y-121452381D01*
X143614286Y-120880952D02*
X143661905Y-120833333D01*
X143757143Y-120785714D01*
X143900001Y-120785714D01*
X143995239Y-120833333D01*
X144042858Y-120928571D01*
X144042858Y-121452381D01*
X145833334Y-125357143D02*
X145785715Y-125404762D01*
X145642858Y-125452381D01*
X145547620Y-125452381D01*
X145404762Y-125404762D01*
X145309524Y-125309524D01*
X145261905Y-125214286D01*
X145214286Y-125023810D01*
X145214286Y-124880952D01*
X145261905Y-124690476D01*
X145309524Y-124595238D01*
X145404762Y-124500000D01*
X145547620Y-124452381D01*
X145642858Y-124452381D01*
X145785715Y-124500000D01*
X145833334Y-124547619D01*
X146166667Y-124452381D02*
X146785715Y-124452381D01*
X146452381Y-124833333D01*
X146595239Y-124833333D01*
X146690477Y-124880952D01*
X146738096Y-124928571D01*
X146785715Y-125023810D01*
X146785715Y-125261905D01*
X146738096Y-125357143D01*
X146690477Y-125404762D01*
X146595239Y-125452381D01*
X146309524Y-125452381D01*
X146214286Y-125404762D01*
X146166667Y-125357143D01*
X147785714Y-124547619D02*
X147833333Y-124500000D01*
X147928571Y-124452381D01*
X148166667Y-124452381D01*
X148261905Y-124500000D01*
X148309524Y-124547619D01*
X148357143Y-124642857D01*
X148357143Y-124738095D01*
X148309524Y-124880952D01*
X147738095Y-125452381D01*
X148357143Y-125452381D01*
X148738095Y-124547619D02*
X148785714Y-124500000D01*
X148880952Y-124452381D01*
X149119048Y-124452381D01*
X149214286Y-124500000D01*
X149261905Y-124547619D01*
X149309524Y-124642857D01*
X149309524Y-124738095D01*
X149261905Y-124880952D01*
X148690476Y-125452381D01*
X149309524Y-125452381D01*
X150166667Y-124785714D02*
X150166667Y-125452381D01*
X149738095Y-124785714D02*
X149738095Y-125309524D01*
X149785714Y-125404762D01*
X149880952Y-125452381D01*
X150023810Y-125452381D01*
X150119048Y-125404762D01*
X150166667Y-125357143D01*
X151052381Y-144766666D02*
X150576190Y-145100000D01*
X151052381Y-145338095D02*
X150052381Y-145338095D01*
X150052381Y-144957142D01*
X150100000Y-144861904D01*
X150147619Y-144814285D01*
X150242857Y-144766666D01*
X150385714Y-144766666D01*
X150480952Y-144814285D01*
X150528571Y-144861904D01*
X150576190Y-144957142D01*
X150576190Y-145338095D01*
X151052381Y-143814285D02*
X151052381Y-144385714D01*
X151052381Y-144100000D02*
X150052381Y-144100000D01*
X150195238Y-144195238D01*
X150290476Y-144290476D01*
X150338095Y-144385714D01*
X150147619Y-142061905D02*
X150100000Y-142014286D01*
X150052381Y-141919048D01*
X150052381Y-141680952D01*
X150100000Y-141585714D01*
X150147619Y-141538095D01*
X150242857Y-141490476D01*
X150338095Y-141490476D01*
X150480952Y-141538095D01*
X151052381Y-142109524D01*
X151052381Y-141490476D01*
X150052381Y-140871429D02*
X150052381Y-140776190D01*
X150100000Y-140680952D01*
X150147619Y-140633333D01*
X150242857Y-140585714D01*
X150433333Y-140538095D01*
X150671429Y-140538095D01*
X150861905Y-140585714D01*
X150957143Y-140633333D01*
X151004762Y-140680952D01*
X151052381Y-140776190D01*
X151052381Y-140871429D01*
X151004762Y-140966667D01*
X150957143Y-141014286D01*
X150861905Y-141061905D01*
X150671429Y-141109524D01*
X150433333Y-141109524D01*
X150242857Y-141061905D01*
X150147619Y-141014286D01*
X150100000Y-140966667D01*
X150052381Y-140871429D01*
X138952381Y-144766666D02*
X138476190Y-145100000D01*
X138952381Y-145338095D02*
X137952381Y-145338095D01*
X137952381Y-144957142D01*
X138000000Y-144861904D01*
X138047619Y-144814285D01*
X138142857Y-144766666D01*
X138285714Y-144766666D01*
X138380952Y-144814285D01*
X138428571Y-144861904D01*
X138476190Y-144957142D01*
X138476190Y-145338095D01*
X138047619Y-144385714D02*
X138000000Y-144338095D01*
X137952381Y-144242857D01*
X137952381Y-144004761D01*
X138000000Y-143909523D01*
X138047619Y-143861904D01*
X138142857Y-143814285D01*
X138238095Y-143814285D01*
X138380952Y-143861904D01*
X138952381Y-144433333D01*
X138952381Y-143814285D01*
X138047619Y-142161905D02*
X138000000Y-142114286D01*
X137952381Y-142019048D01*
X137952381Y-141780952D01*
X138000000Y-141685714D01*
X138047619Y-141638095D01*
X138142857Y-141590476D01*
X138238095Y-141590476D01*
X138380952Y-141638095D01*
X138952381Y-142209524D01*
X138952381Y-141590476D01*
X137952381Y-140971429D02*
X137952381Y-140876190D01*
X138000000Y-140780952D01*
X138047619Y-140733333D01*
X138142857Y-140685714D01*
X138333333Y-140638095D01*
X138571429Y-140638095D01*
X138761905Y-140685714D01*
X138857143Y-140733333D01*
X138904762Y-140780952D01*
X138952381Y-140876190D01*
X138952381Y-140971429D01*
X138904762Y-141066667D01*
X138857143Y-141114286D01*
X138761905Y-141161905D01*
X138571429Y-141209524D01*
X138333333Y-141209524D01*
X138142857Y-141161905D01*
X138047619Y-141114286D01*
X138000000Y-141066667D01*
X137952381Y-140971429D01*
X147052381Y-144566666D02*
X146576190Y-144900000D01*
X147052381Y-145138095D02*
X146052381Y-145138095D01*
X146052381Y-144757142D01*
X146100000Y-144661904D01*
X146147619Y-144614285D01*
X146242857Y-144566666D01*
X146385714Y-144566666D01*
X146480952Y-144614285D01*
X146528571Y-144661904D01*
X146576190Y-144757142D01*
X146576190Y-145138095D01*
X146052381Y-144233333D02*
X146052381Y-143614285D01*
X146433333Y-143947619D01*
X146433333Y-143804761D01*
X146480952Y-143709523D01*
X146528571Y-143661904D01*
X146623810Y-143614285D01*
X146861905Y-143614285D01*
X146957143Y-143661904D01*
X147004762Y-143709523D01*
X147052381Y-143804761D01*
X147052381Y-144090476D01*
X147004762Y-144185714D01*
X146957143Y-144233333D01*
X146385714Y-141995237D02*
X147052381Y-141995237D01*
X146004762Y-142233333D02*
X146719048Y-142471428D01*
X146719048Y-141852380D01*
X146957143Y-141471428D02*
X147004762Y-141423809D01*
X147052381Y-141471428D01*
X147004762Y-141519047D01*
X146957143Y-141471428D01*
X147052381Y-141471428D01*
X146052381Y-141090476D02*
X146052381Y-140423809D01*
X147052381Y-140852381D01*
X147052381Y-140042857D02*
X146052381Y-140042857D01*
X146766667Y-139709523D01*
X146052381Y-139376190D01*
X147052381Y-139376190D01*
X143052381Y-144666666D02*
X142576190Y-145000000D01*
X143052381Y-145238095D02*
X142052381Y-145238095D01*
X142052381Y-144857142D01*
X142100000Y-144761904D01*
X142147619Y-144714285D01*
X142242857Y-144666666D01*
X142385714Y-144666666D01*
X142480952Y-144714285D01*
X142528571Y-144761904D01*
X142576190Y-144857142D01*
X142576190Y-145238095D01*
X142385714Y-143809523D02*
X143052381Y-143809523D01*
X142004762Y-144047619D02*
X142719048Y-144285714D01*
X142719048Y-143666666D01*
X143052381Y-141585714D02*
X143052381Y-142157143D01*
X143052381Y-141871429D02*
X142052381Y-141871429D01*
X142195238Y-141966667D01*
X142290476Y-142061905D01*
X142338095Y-142157143D01*
X143052381Y-141157143D02*
X142052381Y-141157143D01*
X142766667Y-140823809D01*
X142052381Y-140490476D01*
X143052381Y-140490476D01*
X156652381Y-121666666D02*
X156176190Y-122000000D01*
X156652381Y-122238095D02*
X155652381Y-122238095D01*
X155652381Y-121857142D01*
X155700000Y-121761904D01*
X155747619Y-121714285D01*
X155842857Y-121666666D01*
X155985714Y-121666666D01*
X156080952Y-121714285D01*
X156128571Y-121761904D01*
X156176190Y-121857142D01*
X156176190Y-122238095D01*
X155652381Y-120761904D02*
X155652381Y-121238095D01*
X156128571Y-121285714D01*
X156080952Y-121238095D01*
X156033333Y-121142857D01*
X156033333Y-120904761D01*
X156080952Y-120809523D01*
X156128571Y-120761904D01*
X156223810Y-120714285D01*
X156461905Y-120714285D01*
X156557143Y-120761904D01*
X156604762Y-120809523D01*
X156652381Y-120904761D01*
X156652381Y-121142857D01*
X156604762Y-121238095D01*
X156557143Y-121285714D01*
X156085714Y-119395237D02*
X156752381Y-119395237D01*
X155704762Y-119633333D02*
X156419048Y-119871428D01*
X156419048Y-119252380D01*
X156657143Y-118871428D02*
X156704762Y-118823809D01*
X156752381Y-118871428D01*
X156704762Y-118919047D01*
X156657143Y-118871428D01*
X156752381Y-118871428D01*
X155752381Y-118490476D02*
X155752381Y-117823809D01*
X156752381Y-118252381D01*
X156752381Y-117442857D02*
X155752381Y-117442857D01*
X156466667Y-117109523D01*
X155752381Y-116776190D01*
X156752381Y-116776190D01*
X153838095Y-138952381D02*
X154409524Y-138952381D01*
X154123809Y-139952381D02*
X154123809Y-138952381D01*
X155314286Y-139857143D02*
X155266667Y-139904762D01*
X155123810Y-139952381D01*
X155028572Y-139952381D01*
X154885714Y-139904762D01*
X154790476Y-139809524D01*
X154742857Y-139714286D01*
X154695238Y-139523810D01*
X154695238Y-139380952D01*
X154742857Y-139190476D01*
X154790476Y-139095238D01*
X154885714Y-139000000D01*
X155028572Y-138952381D01*
X155123810Y-138952381D01*
X155266667Y-139000000D01*
X155314286Y-139047619D01*
X155695238Y-139047619D02*
X155742857Y-139000000D01*
X155838095Y-138952381D01*
X156076191Y-138952381D01*
X156171429Y-139000000D01*
X156219048Y-139047619D01*
X156266667Y-139142857D01*
X156266667Y-139238095D01*
X156219048Y-139380952D01*
X155647619Y-139952381D01*
X156266667Y-139952381D01*
X139761905Y-138952381D02*
X139761905Y-137952381D01*
X140142858Y-137952381D01*
X140238096Y-138000000D01*
X140285715Y-138047619D01*
X140333334Y-138142857D01*
X140333334Y-138285714D01*
X140285715Y-138380952D01*
X140238096Y-138428571D01*
X140142858Y-138476190D01*
X139761905Y-138476190D01*
X141285715Y-138952381D02*
X140714286Y-138952381D01*
X141000000Y-138952381D02*
X141000000Y-137952381D01*
X140904762Y-138095238D01*
X140809524Y-138190476D01*
X140714286Y-138238095D01*
X139142857Y-127404762D02*
X139285714Y-127452381D01*
X139523810Y-127452381D01*
X139619048Y-127404762D01*
X139666667Y-127357143D01*
X139714286Y-127261905D01*
X139714286Y-127166667D01*
X139666667Y-127071429D01*
X139619048Y-127023810D01*
X139523810Y-126976190D01*
X139333333Y-126928571D01*
X139238095Y-126880952D01*
X139190476Y-126833333D01*
X139142857Y-126738095D01*
X139142857Y-126642857D01*
X139190476Y-126547619D01*
X139238095Y-126500000D01*
X139333333Y-126452381D01*
X139571429Y-126452381D01*
X139714286Y-126500000D01*
X140047619Y-126452381D02*
X140285714Y-127452381D01*
X140476191Y-126738095D01*
X140666667Y-127452381D01*
X140904762Y-126452381D01*
X141285714Y-127452381D02*
X141285714Y-126452381D01*
X141523809Y-126452381D01*
X141666667Y-126500000D01*
X141761905Y-126595238D01*
X141809524Y-126690476D01*
X141857143Y-126880952D01*
X141857143Y-127023810D01*
X141809524Y-127214286D01*
X141761905Y-127309524D01*
X141666667Y-127404762D01*
X141523809Y-127452381D01*
X141285714Y-127452381D01*
X145833334Y-116752381D02*
X145500000Y-116276190D01*
X145261905Y-116752381D02*
X145261905Y-115752381D01*
X145642858Y-115752381D01*
X145738096Y-115800000D01*
X145785715Y-115847619D01*
X145833334Y-115942857D01*
X145833334Y-116085714D01*
X145785715Y-116180952D01*
X145738096Y-116228571D01*
X145642858Y-116276190D01*
X145261905Y-116276190D01*
X146690477Y-115752381D02*
X146500000Y-115752381D01*
X146404762Y-115800000D01*
X146357143Y-115847619D01*
X146261905Y-115990476D01*
X146214286Y-116180952D01*
X146214286Y-116561905D01*
X146261905Y-116657143D01*
X146309524Y-116704762D01*
X146404762Y-116752381D01*
X146595239Y-116752381D01*
X146690477Y-116704762D01*
X146738096Y-116657143D01*
X146785715Y-116561905D01*
X146785715Y-116323810D01*
X146738096Y-116228571D01*
X146690477Y-116180952D01*
X146595239Y-116133333D01*
X146404762Y-116133333D01*
X146309524Y-116180952D01*
X146261905Y-116228571D01*
X146214286Y-116323810D01*
X148609524Y-116752381D02*
X148038095Y-116752381D01*
X148323809Y-116752381D02*
X148323809Y-115752381D01*
X148228571Y-115895238D01*
X148133333Y-115990476D01*
X148038095Y-116038095D01*
X149228571Y-115752381D02*
X149323810Y-115752381D01*
X149419048Y-115800000D01*
X149466667Y-115847619D01*
X149514286Y-115942857D01*
X149561905Y-116133333D01*
X149561905Y-116371429D01*
X149514286Y-116561905D01*
X149466667Y-116657143D01*
X149419048Y-116704762D01*
X149323810Y-116752381D01*
X149228571Y-116752381D01*
X149133333Y-116704762D01*
X149085714Y-116657143D01*
X149038095Y-116561905D01*
X148990476Y-116371429D01*
X148990476Y-116133333D01*
X149038095Y-115942857D01*
X149085714Y-115847619D01*
X149133333Y-115800000D01*
X149228571Y-115752381D01*
X149990476Y-116752381D02*
X149990476Y-115752381D01*
X150561905Y-116752381D02*
X150133333Y-116180952D01*
X150561905Y-115752381D02*
X149990476Y-116323810D01*
X156852381Y-128666666D02*
X156376190Y-129000000D01*
X156852381Y-129238095D02*
X155852381Y-129238095D01*
X155852381Y-128857142D01*
X155900000Y-128761904D01*
X155947619Y-128714285D01*
X156042857Y-128666666D01*
X156185714Y-128666666D01*
X156280952Y-128714285D01*
X156328571Y-128761904D01*
X156376190Y-128857142D01*
X156376190Y-129238095D01*
X155852381Y-128333333D02*
X155852381Y-127666666D01*
X156852381Y-128095238D01*
X156185714Y-126395237D02*
X156852381Y-126395237D01*
X155804762Y-126633333D02*
X156519048Y-126871428D01*
X156519048Y-126252380D01*
X156757143Y-125871428D02*
X156804762Y-125823809D01*
X156852381Y-125871428D01*
X156804762Y-125919047D01*
X156757143Y-125871428D01*
X156852381Y-125871428D01*
X155852381Y-125490476D02*
X155852381Y-124823809D01*
X156852381Y-125252381D01*
X156852381Y-124442857D02*
X155852381Y-124442857D01*
X156566667Y-124109523D01*
X155852381Y-123776190D01*
X156852381Y-123776190D01*
D13*
X148528571Y-87035714D02*
X148576190Y-86892857D01*
X148623810Y-86845238D01*
X148719048Y-86797619D01*
X148861905Y-86797619D01*
X148957143Y-86845238D01*
X149004762Y-86892857D01*
X149052381Y-86988095D01*
X149052381Y-87369048D01*
X148052381Y-87369048D01*
X148052381Y-87035714D01*
X148100000Y-86940476D01*
X148147619Y-86892857D01*
X148242857Y-86845238D01*
X148338095Y-86845238D01*
X148433333Y-86892857D01*
X148480952Y-86940476D01*
X148528571Y-87035714D01*
X148528571Y-87369048D01*
X148052381Y-86511905D02*
X148052381Y-85940476D01*
X149052381Y-86226191D02*
X148052381Y-86226191D01*
X149052381Y-85083333D02*
X149052381Y-85654762D01*
X149052381Y-85369048D02*
X148052381Y-85369048D01*
X148195238Y-85464286D01*
X148290476Y-85559524D01*
X148338095Y-85654762D01*
D11*
X144528571Y-88500000D02*
X144576190Y-88357143D01*
X144623810Y-88309524D01*
X144719048Y-88261905D01*
X144861905Y-88261905D01*
X144957143Y-88309524D01*
X145004762Y-88357143D01*
X145052381Y-88452381D01*
X145052381Y-88833334D01*
X144052381Y-88833334D01*
X144052381Y-88500000D01*
X144100000Y-88404762D01*
X144147619Y-88357143D01*
X144242857Y-88309524D01*
X144338095Y-88309524D01*
X144433333Y-88357143D01*
X144480952Y-88404762D01*
X144528571Y-88500000D01*
X144528571Y-88833334D01*
X144766667Y-87880953D02*
X144766667Y-87404762D01*
X145052381Y-87976191D02*
X144052381Y-87642858D01*
X145052381Y-87309524D01*
X144052381Y-87119048D02*
X144052381Y-86547619D01*
X145052381Y-86833334D02*
X144052381Y-86833334D01*
X144052381Y-86357143D02*
X144052381Y-85785714D01*
X145052381Y-86071429D02*
X144052381Y-86071429D01*
X144528571Y-85452381D02*
X144528571Y-85119047D01*
X145052381Y-84976190D02*
X145052381Y-85452381D01*
X144052381Y-85452381D01*
X144052381Y-84976190D01*
X145052381Y-83976190D02*
X144576190Y-84309524D01*
X145052381Y-84547619D02*
X144052381Y-84547619D01*
X144052381Y-84166666D01*
X144100000Y-84071428D01*
X144147619Y-84023809D01*
X144242857Y-83976190D01*
X144385714Y-83976190D01*
X144480952Y-84023809D01*
X144528571Y-84071428D01*
X144576190Y-84166666D01*
X144576190Y-84547619D01*
X144576190Y-83357143D02*
X145052381Y-83357143D01*
X144052381Y-83690476D02*
X144576190Y-83357143D01*
X144052381Y-83023809D01*
X147314286Y-77642857D02*
X147314286Y-75357143D01*
X148457143Y-76500000D02*
X146171429Y-76500000D01*
M02*
