G04 #@! TF.FileFunction,Legend,Top*
%FSLAX46Y46*%
G04 Gerber Fmt 4.6, Leading zero omitted, Abs format (unit mm)*
G04 Created by KiCad (PCBNEW (2015-06-09 BZR 5726)-product) date Wed 12 Aug 2015 03:02:50 AM PDT*
%MOMM*%
G01*
G04 APERTURE LIST*
%ADD10C,0.100000*%
%ADD11C,0.300000*%
%ADD12C,0.150000*%
%ADD13C,0.203200*%
%ADD14C,0.125000*%
%ADD15C,0.152400*%
G04 APERTURE END LIST*
D10*
D11*
X121464286Y-110535714D02*
X121392857Y-110607143D01*
X121178571Y-110678571D01*
X121035714Y-110678571D01*
X120821429Y-110607143D01*
X120678571Y-110464286D01*
X120607143Y-110321429D01*
X120535714Y-110035714D01*
X120535714Y-109821429D01*
X120607143Y-109535714D01*
X120678571Y-109392857D01*
X120821429Y-109250000D01*
X121035714Y-109178571D01*
X121178571Y-109178571D01*
X121392857Y-109250000D01*
X121464286Y-109321429D01*
X120428572Y-113107143D02*
X121571429Y-113107143D01*
X121000000Y-113678571D02*
X121000000Y-112535714D01*
D12*
X122075000Y-118175000D02*
X122075000Y-116175000D01*
X124225000Y-116175000D02*
X124225000Y-118175000D01*
X126900000Y-101650000D02*
G75*
G03X126900000Y-101650000I-6000000J0D01*
G01*
X117800000Y-109200000D02*
X117800000Y-112800000D01*
X119900000Y-109200000D02*
X119900000Y-112800000D01*
X119150000Y-111250000D02*
X118550000Y-111250000D01*
X118550000Y-111250000D02*
X118850000Y-110950000D01*
X118850000Y-110950000D02*
X119050000Y-111150000D01*
X119050000Y-111150000D02*
X118800000Y-111150000D01*
X118800000Y-111150000D02*
X118850000Y-111100000D01*
X119350000Y-110850000D02*
X118350000Y-110850000D01*
X118850000Y-111350000D02*
X118850000Y-111850000D01*
X118850000Y-110850000D02*
X119350000Y-111350000D01*
X119350000Y-111350000D02*
X118350000Y-111350000D01*
X118350000Y-111350000D02*
X118850000Y-110850000D01*
X122100000Y-109200000D02*
X122100000Y-112800000D01*
X124200000Y-109200000D02*
X124200000Y-112800000D01*
X123450000Y-111250000D02*
X122850000Y-111250000D01*
X122850000Y-111250000D02*
X123150000Y-110950000D01*
X123150000Y-110950000D02*
X123350000Y-111150000D01*
X123350000Y-111150000D02*
X123100000Y-111150000D01*
X123100000Y-111150000D02*
X123150000Y-111100000D01*
X123650000Y-110850000D02*
X122650000Y-110850000D01*
X123150000Y-111350000D02*
X123150000Y-111850000D01*
X123150000Y-110850000D02*
X123650000Y-111350000D01*
X123650000Y-111350000D02*
X122650000Y-111350000D01*
X122650000Y-111350000D02*
X123150000Y-110850000D01*
X117825000Y-118150000D02*
X117825000Y-116150000D01*
X119975000Y-116150000D02*
X119975000Y-118150000D01*
X127545000Y-144335000D02*
X114845000Y-144335000D01*
X114845000Y-144335000D02*
X114845000Y-139255000D01*
X114845000Y-139255000D02*
X125005000Y-139255000D01*
X127545000Y-144335000D02*
X127545000Y-141795000D01*
X127825000Y-140525000D02*
X127825000Y-138975000D01*
X127545000Y-141795000D02*
X125005000Y-141795000D01*
X125005000Y-141795000D02*
X125005000Y-139255000D01*
X127825000Y-138975000D02*
X126275000Y-138975000D01*
X120500000Y-132425000D02*
X122500000Y-132425000D01*
X122500000Y-134575000D02*
X120500000Y-134575000D01*
D13*
X120150000Y-121200000D02*
X120150000Y-131200000D01*
X119003553Y-120700000D02*
G75*
G03X119003553Y-120700000I-353553J0D01*
G01*
X123150000Y-121200000D02*
X119150000Y-121200000D01*
X119150000Y-121200000D02*
X119150000Y-131200000D01*
X119150000Y-131200000D02*
X123150000Y-131200000D01*
X123150000Y-131200000D02*
X123150000Y-121200000D01*
D12*
X123083334Y-120452381D02*
X122750000Y-119976190D01*
X122511905Y-120452381D02*
X122511905Y-119452381D01*
X122892858Y-119452381D01*
X122988096Y-119500000D01*
X123035715Y-119547619D01*
X123083334Y-119642857D01*
X123083334Y-119785714D01*
X123035715Y-119880952D01*
X122988096Y-119928571D01*
X122892858Y-119976190D01*
X122511905Y-119976190D01*
X124035715Y-120452381D02*
X123464286Y-120452381D01*
X123750000Y-120452381D02*
X123750000Y-119452381D01*
X123654762Y-119595238D01*
X123559524Y-119690476D01*
X123464286Y-119738095D01*
X124702381Y-117238095D02*
X124702381Y-117714286D01*
X125178571Y-117761905D01*
X125130952Y-117714286D01*
X125083333Y-117619048D01*
X125083333Y-117380952D01*
X125130952Y-117285714D01*
X125178571Y-117238095D01*
X125273810Y-117190476D01*
X125511905Y-117190476D01*
X125607143Y-117238095D01*
X125654762Y-117285714D01*
X125702381Y-117380952D01*
X125702381Y-117619048D01*
X125654762Y-117714286D01*
X125607143Y-117761905D01*
X125702381Y-116238095D02*
X125702381Y-116809524D01*
X125702381Y-116523810D02*
X124702381Y-116523810D01*
X124845238Y-116619048D01*
X124940476Y-116714286D01*
X124988095Y-116809524D01*
D14*
X120269048Y-103552381D02*
X120340477Y-103576190D01*
X120459524Y-103576190D01*
X120507143Y-103552381D01*
X120530953Y-103528571D01*
X120554762Y-103480952D01*
X120554762Y-103433333D01*
X120530953Y-103385714D01*
X120507143Y-103361905D01*
X120459524Y-103338095D01*
X120364286Y-103314286D01*
X120316667Y-103290476D01*
X120292858Y-103266667D01*
X120269048Y-103219048D01*
X120269048Y-103171429D01*
X120292858Y-103123810D01*
X120316667Y-103100000D01*
X120364286Y-103076190D01*
X120483334Y-103076190D01*
X120554762Y-103100000D01*
X120769048Y-103576190D02*
X120769048Y-103076190D01*
X120959524Y-103076190D01*
X121007143Y-103100000D01*
X121030952Y-103123810D01*
X121054762Y-103171429D01*
X121054762Y-103242857D01*
X121030952Y-103290476D01*
X121007143Y-103314286D01*
X120959524Y-103338095D01*
X120769048Y-103338095D01*
X121530952Y-103576190D02*
X121245238Y-103576190D01*
X121388095Y-103576190D02*
X121388095Y-103076190D01*
X121340476Y-103147619D01*
X121292857Y-103195238D01*
X121245238Y-103219048D01*
D12*
X118011905Y-108652381D02*
X118011905Y-107652381D01*
X118250000Y-107652381D01*
X118392858Y-107700000D01*
X118488096Y-107795238D01*
X118535715Y-107890476D01*
X118583334Y-108080952D01*
X118583334Y-108223810D01*
X118535715Y-108414286D01*
X118488096Y-108509524D01*
X118392858Y-108604762D01*
X118250000Y-108652381D01*
X118011905Y-108652381D01*
X119535715Y-108652381D02*
X118964286Y-108652381D01*
X119250000Y-108652381D02*
X119250000Y-107652381D01*
X119154762Y-107795238D01*
X119059524Y-107890476D01*
X118964286Y-107938095D01*
X117102381Y-113201190D02*
X117102381Y-113677381D01*
X116102381Y-113677381D01*
X116578571Y-112867857D02*
X116578571Y-112534523D01*
X117102381Y-112391666D02*
X117102381Y-112867857D01*
X116102381Y-112867857D01*
X116102381Y-112391666D01*
X117102381Y-111963095D02*
X116102381Y-111963095D01*
X116102381Y-111725000D01*
X116150000Y-111582142D01*
X116245238Y-111486904D01*
X116340476Y-111439285D01*
X116530952Y-111391666D01*
X116673810Y-111391666D01*
X116864286Y-111439285D01*
X116959524Y-111486904D01*
X117054762Y-111582142D01*
X117102381Y-111725000D01*
X117102381Y-111963095D01*
X117102381Y-109629761D02*
X116626190Y-109963095D01*
X117102381Y-110201190D02*
X116102381Y-110201190D01*
X116102381Y-109820237D01*
X116150000Y-109724999D01*
X116197619Y-109677380D01*
X116292857Y-109629761D01*
X116435714Y-109629761D01*
X116530952Y-109677380D01*
X116578571Y-109724999D01*
X116626190Y-109820237D01*
X116626190Y-110201190D01*
X116578571Y-109201190D02*
X116578571Y-108867856D01*
X117102381Y-108724999D02*
X117102381Y-109201190D01*
X116102381Y-109201190D01*
X116102381Y-108724999D01*
X117102381Y-108296428D02*
X116102381Y-108296428D01*
X116102381Y-108058333D01*
X116150000Y-107915475D01*
X116245238Y-107820237D01*
X116340476Y-107772618D01*
X116530952Y-107724999D01*
X116673810Y-107724999D01*
X116864286Y-107772618D01*
X116959524Y-107820237D01*
X117054762Y-107915475D01*
X117102381Y-108058333D01*
X117102381Y-108296428D01*
X122486905Y-108677381D02*
X122486905Y-107677381D01*
X122725000Y-107677381D01*
X122867858Y-107725000D01*
X122963096Y-107820238D01*
X123010715Y-107915476D01*
X123058334Y-108105952D01*
X123058334Y-108248810D01*
X123010715Y-108439286D01*
X122963096Y-108534524D01*
X122867858Y-108629762D01*
X122725000Y-108677381D01*
X122486905Y-108677381D01*
X123439286Y-107772619D02*
X123486905Y-107725000D01*
X123582143Y-107677381D01*
X123820239Y-107677381D01*
X123915477Y-107725000D01*
X123963096Y-107772619D01*
X124010715Y-107867857D01*
X124010715Y-107963095D01*
X123963096Y-108105952D01*
X123391667Y-108677381D01*
X124010715Y-108677381D01*
X125727381Y-112997619D02*
X125727381Y-113473810D01*
X124727381Y-113473810D01*
X125203571Y-112664286D02*
X125203571Y-112330952D01*
X125727381Y-112188095D02*
X125727381Y-112664286D01*
X124727381Y-112664286D01*
X124727381Y-112188095D01*
X125727381Y-111759524D02*
X124727381Y-111759524D01*
X124727381Y-111521429D01*
X124775000Y-111378571D01*
X124870238Y-111283333D01*
X124965476Y-111235714D01*
X125155952Y-111188095D01*
X125298810Y-111188095D01*
X125489286Y-111235714D01*
X125584524Y-111283333D01*
X125679762Y-111378571D01*
X125727381Y-111521429D01*
X125727381Y-111759524D01*
X124775000Y-109473809D02*
X124727381Y-109569047D01*
X124727381Y-109711904D01*
X124775000Y-109854762D01*
X124870238Y-109950000D01*
X124965476Y-109997619D01*
X125155952Y-110045238D01*
X125298810Y-110045238D01*
X125489286Y-109997619D01*
X125584524Y-109950000D01*
X125679762Y-109854762D01*
X125727381Y-109711904D01*
X125727381Y-109616666D01*
X125679762Y-109473809D01*
X125632143Y-109426190D01*
X125298810Y-109426190D01*
X125298810Y-109616666D01*
X125727381Y-108426190D02*
X125251190Y-108759524D01*
X125727381Y-108997619D02*
X124727381Y-108997619D01*
X124727381Y-108616666D01*
X124775000Y-108521428D01*
X124822619Y-108473809D01*
X124917857Y-108426190D01*
X125060714Y-108426190D01*
X125155952Y-108473809D01*
X125203571Y-108521428D01*
X125251190Y-108616666D01*
X125251190Y-108997619D01*
X125727381Y-107997619D02*
X124727381Y-107997619D01*
X125727381Y-107426190D01*
X124727381Y-107426190D01*
X118833334Y-120452381D02*
X118500000Y-119976190D01*
X118261905Y-120452381D02*
X118261905Y-119452381D01*
X118642858Y-119452381D01*
X118738096Y-119500000D01*
X118785715Y-119547619D01*
X118833334Y-119642857D01*
X118833334Y-119785714D01*
X118785715Y-119880952D01*
X118738096Y-119928571D01*
X118642858Y-119976190D01*
X118261905Y-119976190D01*
X119214286Y-119547619D02*
X119261905Y-119500000D01*
X119357143Y-119452381D01*
X119595239Y-119452381D01*
X119690477Y-119500000D01*
X119738096Y-119547619D01*
X119785715Y-119642857D01*
X119785715Y-119738095D01*
X119738096Y-119880952D01*
X119166667Y-120452381D01*
X119785715Y-120452381D01*
X116452381Y-117488095D02*
X116452381Y-117964286D01*
X116928571Y-118011905D01*
X116880952Y-117964286D01*
X116833333Y-117869048D01*
X116833333Y-117630952D01*
X116880952Y-117535714D01*
X116928571Y-117488095D01*
X117023810Y-117440476D01*
X117261905Y-117440476D01*
X117357143Y-117488095D01*
X117404762Y-117535714D01*
X117452381Y-117630952D01*
X117452381Y-117869048D01*
X117404762Y-117964286D01*
X117357143Y-118011905D01*
X117452381Y-116488095D02*
X117452381Y-117059524D01*
X117452381Y-116773810D02*
X116452381Y-116773810D01*
X116595238Y-116869048D01*
X116690476Y-116964286D01*
X116738095Y-117059524D01*
X123083334Y-133047143D02*
X123035715Y-133094762D01*
X122892858Y-133142381D01*
X122797620Y-133142381D01*
X122654762Y-133094762D01*
X122559524Y-132999524D01*
X122511905Y-132904286D01*
X122464286Y-132713810D01*
X122464286Y-132570952D01*
X122511905Y-132380476D01*
X122559524Y-132285238D01*
X122654762Y-132190000D01*
X122797620Y-132142381D01*
X122892858Y-132142381D01*
X123035715Y-132190000D01*
X123083334Y-132237619D01*
X123940477Y-132475714D02*
X123940477Y-133142381D01*
X123702381Y-132094762D02*
X123464286Y-132809048D01*
X124083334Y-132809048D01*
X122138095Y-138402381D02*
X122709524Y-138402381D01*
X122423809Y-139402381D02*
X122423809Y-138402381D01*
X123614286Y-139307143D02*
X123566667Y-139354762D01*
X123423810Y-139402381D01*
X123328572Y-139402381D01*
X123185714Y-139354762D01*
X123090476Y-139259524D01*
X123042857Y-139164286D01*
X122995238Y-138973810D01*
X122995238Y-138830952D01*
X123042857Y-138640476D01*
X123090476Y-138545238D01*
X123185714Y-138450000D01*
X123328572Y-138402381D01*
X123423810Y-138402381D01*
X123566667Y-138450000D01*
X123614286Y-138497619D01*
X124566667Y-139402381D02*
X123995238Y-139402381D01*
X124280952Y-139402381D02*
X124280952Y-138402381D01*
X124185714Y-138545238D01*
X124090476Y-138640476D01*
X123995238Y-138688095D01*
X119333334Y-133047143D02*
X119285715Y-133094762D01*
X119142858Y-133142381D01*
X119047620Y-133142381D01*
X118904762Y-133094762D01*
X118809524Y-132999524D01*
X118761905Y-132904286D01*
X118714286Y-132713810D01*
X118714286Y-132570952D01*
X118761905Y-132380476D01*
X118809524Y-132285238D01*
X118904762Y-132190000D01*
X119047620Y-132142381D01*
X119142858Y-132142381D01*
X119285715Y-132190000D01*
X119333334Y-132237619D01*
X120238096Y-132142381D02*
X119761905Y-132142381D01*
X119714286Y-132618571D01*
X119761905Y-132570952D01*
X119857143Y-132523333D01*
X120095239Y-132523333D01*
X120190477Y-132570952D01*
X120238096Y-132618571D01*
X120285715Y-132713810D01*
X120285715Y-132951905D01*
X120238096Y-133047143D01*
X120190477Y-133094762D01*
X120095239Y-133142381D01*
X119857143Y-133142381D01*
X119761905Y-133094762D01*
X119714286Y-133047143D01*
X118588095Y-138252381D02*
X119159524Y-138252381D01*
X118873809Y-139252381D02*
X118873809Y-138252381D01*
X120064286Y-139157143D02*
X120016667Y-139204762D01*
X119873810Y-139252381D01*
X119778572Y-139252381D01*
X119635714Y-139204762D01*
X119540476Y-139109524D01*
X119492857Y-139014286D01*
X119445238Y-138823810D01*
X119445238Y-138680952D01*
X119492857Y-138490476D01*
X119540476Y-138395238D01*
X119635714Y-138300000D01*
X119778572Y-138252381D01*
X119873810Y-138252381D01*
X120016667Y-138300000D01*
X120064286Y-138347619D01*
X120445238Y-138347619D02*
X120492857Y-138300000D01*
X120588095Y-138252381D01*
X120826191Y-138252381D01*
X120921429Y-138300000D01*
X120969048Y-138347619D01*
X121016667Y-138442857D01*
X121016667Y-138538095D01*
X120969048Y-138680952D01*
X120397619Y-139252381D01*
X121016667Y-139252381D01*
X119483334Y-131702381D02*
X119150000Y-131226190D01*
X118911905Y-131702381D02*
X118911905Y-130702381D01*
X119292858Y-130702381D01*
X119388096Y-130750000D01*
X119435715Y-130797619D01*
X119483334Y-130892857D01*
X119483334Y-131035714D01*
X119435715Y-131130952D01*
X119388096Y-131178571D01*
X119292858Y-131226190D01*
X118911905Y-131226190D01*
X119816667Y-130702381D02*
X120483334Y-130702381D01*
X120054762Y-131702381D01*
X121554763Y-131035714D02*
X121554763Y-131702381D01*
X121316667Y-130654762D02*
X121078572Y-131369048D01*
X121697620Y-131369048D01*
X122078572Y-131607143D02*
X122126191Y-131654762D01*
X122078572Y-131702381D01*
X122030953Y-131654762D01*
X122078572Y-131607143D01*
X122078572Y-131702381D01*
X122459524Y-130702381D02*
X123126191Y-130702381D01*
X122697619Y-131702381D01*
X123507143Y-131702381D02*
X123507143Y-130702381D01*
X123840477Y-131416667D01*
X124173810Y-130702381D01*
X124173810Y-131702381D01*
D15*
X120419429Y-120082714D02*
X120419429Y-120699571D01*
X120455714Y-120772143D01*
X120492000Y-120808429D01*
X120564571Y-120844714D01*
X120709714Y-120844714D01*
X120782286Y-120808429D01*
X120818571Y-120772143D01*
X120854857Y-120699571D01*
X120854857Y-120082714D01*
X121616857Y-120844714D02*
X121181429Y-120844714D01*
X121399143Y-120844714D02*
X121399143Y-120082714D01*
X121326572Y-120191571D01*
X121254000Y-120264143D01*
X121181429Y-120300429D01*
M02*
