G04 #@! TF.FileFunction,Legend,Top*
%FSLAX46Y46*%
G04 Gerber Fmt 4.6, Leading zero omitted, Abs format (unit mm)*
G04 Created by KiCad (PCBNEW (2015-06-09 BZR 5726)-product) date Sat 08 Aug 2015 02:02:39 AM PDT*
%MOMM*%
G01*
G04 APERTURE LIST*
%ADD10C,0.100000*%
%ADD11C,0.150000*%
%ADD12C,0.203200*%
%ADD13C,0.125000*%
%ADD14C,0.152400*%
G04 APERTURE END LIST*
D10*
D11*
X118300000Y-101700000D02*
X118300000Y-105300000D01*
X120400000Y-101700000D02*
X120400000Y-105300000D01*
X119650000Y-103750000D02*
X119050000Y-103750000D01*
X119050000Y-103750000D02*
X119350000Y-103450000D01*
X119350000Y-103450000D02*
X119550000Y-103650000D01*
X119550000Y-103650000D02*
X119300000Y-103650000D01*
X119300000Y-103650000D02*
X119350000Y-103600000D01*
X119850000Y-103350000D02*
X118850000Y-103350000D01*
X119350000Y-103850000D02*
X119350000Y-104350000D01*
X119350000Y-103350000D02*
X119850000Y-103850000D01*
X119850000Y-103850000D02*
X118850000Y-103850000D01*
X118850000Y-103850000D02*
X119350000Y-103350000D01*
X122600000Y-101700000D02*
X122600000Y-105300000D01*
X124700000Y-101700000D02*
X124700000Y-105300000D01*
X123950000Y-103750000D02*
X123350000Y-103750000D01*
X123350000Y-103750000D02*
X123650000Y-103450000D01*
X123650000Y-103450000D02*
X123850000Y-103650000D01*
X123850000Y-103650000D02*
X123600000Y-103650000D01*
X123600000Y-103650000D02*
X123650000Y-103600000D01*
X124150000Y-103350000D02*
X123150000Y-103350000D01*
X123650000Y-103850000D02*
X123650000Y-104350000D01*
X123650000Y-103350000D02*
X124150000Y-103850000D01*
X124150000Y-103850000D02*
X123150000Y-103850000D01*
X123150000Y-103850000D02*
X123650000Y-103350000D01*
X127545000Y-146585000D02*
X114845000Y-146585000D01*
X114845000Y-146585000D02*
X114845000Y-141505000D01*
X114845000Y-141505000D02*
X125005000Y-141505000D01*
X127545000Y-146585000D02*
X127545000Y-144045000D01*
X127825000Y-142775000D02*
X127825000Y-141225000D01*
X127545000Y-144045000D02*
X125005000Y-144045000D01*
X125005000Y-144045000D02*
X125005000Y-141505000D01*
X127825000Y-141225000D02*
X126275000Y-141225000D01*
X122575000Y-110675000D02*
X122575000Y-108675000D01*
X124725000Y-108675000D02*
X124725000Y-110675000D01*
X118325000Y-110650000D02*
X118325000Y-108650000D01*
X120475000Y-108650000D02*
X120475000Y-110650000D01*
X122150000Y-134825000D02*
X120150000Y-134825000D01*
X120150000Y-132675000D02*
X122150000Y-132675000D01*
X127400000Y-94150000D02*
G75*
G03X127400000Y-94150000I-6000000J0D01*
G01*
D12*
X120150000Y-121200000D02*
X120150000Y-131200000D01*
X119003553Y-120700000D02*
G75*
G03X119003553Y-120700000I-353553J0D01*
G01*
X123150000Y-121200000D02*
X119150000Y-121200000D01*
X119150000Y-121200000D02*
X119150000Y-131200000D01*
X119150000Y-131200000D02*
X123150000Y-131200000D01*
X123150000Y-131200000D02*
X123150000Y-121200000D01*
D11*
X119183334Y-134597143D02*
X119135715Y-134644762D01*
X118992858Y-134692381D01*
X118897620Y-134692381D01*
X118754762Y-134644762D01*
X118659524Y-134549524D01*
X118611905Y-134454286D01*
X118564286Y-134263810D01*
X118564286Y-134120952D01*
X118611905Y-133930476D01*
X118659524Y-133835238D01*
X118754762Y-133740000D01*
X118897620Y-133692381D01*
X118992858Y-133692381D01*
X119135715Y-133740000D01*
X119183334Y-133787619D01*
X120040477Y-134025714D02*
X120040477Y-134692381D01*
X119802381Y-133644762D02*
X119564286Y-134359048D01*
X120183334Y-134359048D01*
X118238095Y-139952381D02*
X118809524Y-139952381D01*
X118523809Y-140952381D02*
X118523809Y-139952381D01*
X119714286Y-140857143D02*
X119666667Y-140904762D01*
X119523810Y-140952381D01*
X119428572Y-140952381D01*
X119285714Y-140904762D01*
X119190476Y-140809524D01*
X119142857Y-140714286D01*
X119095238Y-140523810D01*
X119095238Y-140380952D01*
X119142857Y-140190476D01*
X119190476Y-140095238D01*
X119285714Y-140000000D01*
X119428572Y-139952381D01*
X119523810Y-139952381D01*
X119666667Y-140000000D01*
X119714286Y-140047619D01*
X120666667Y-140952381D02*
X120095238Y-140952381D01*
X120380952Y-140952381D02*
X120380952Y-139952381D01*
X120285714Y-140095238D01*
X120190476Y-140190476D01*
X120095238Y-140238095D01*
X122983334Y-134747143D02*
X122935715Y-134794762D01*
X122792858Y-134842381D01*
X122697620Y-134842381D01*
X122554762Y-134794762D01*
X122459524Y-134699524D01*
X122411905Y-134604286D01*
X122364286Y-134413810D01*
X122364286Y-134270952D01*
X122411905Y-134080476D01*
X122459524Y-133985238D01*
X122554762Y-133890000D01*
X122697620Y-133842381D01*
X122792858Y-133842381D01*
X122935715Y-133890000D01*
X122983334Y-133937619D01*
X123888096Y-133842381D02*
X123411905Y-133842381D01*
X123364286Y-134318571D01*
X123411905Y-134270952D01*
X123507143Y-134223333D01*
X123745239Y-134223333D01*
X123840477Y-134270952D01*
X123888096Y-134318571D01*
X123935715Y-134413810D01*
X123935715Y-134651905D01*
X123888096Y-134747143D01*
X123840477Y-134794762D01*
X123745239Y-134842381D01*
X123507143Y-134842381D01*
X123411905Y-134794762D01*
X123364286Y-134747143D01*
X122238095Y-139952381D02*
X122809524Y-139952381D01*
X122523809Y-140952381D02*
X122523809Y-139952381D01*
X123714286Y-140857143D02*
X123666667Y-140904762D01*
X123523810Y-140952381D01*
X123428572Y-140952381D01*
X123285714Y-140904762D01*
X123190476Y-140809524D01*
X123142857Y-140714286D01*
X123095238Y-140523810D01*
X123095238Y-140380952D01*
X123142857Y-140190476D01*
X123190476Y-140095238D01*
X123285714Y-140000000D01*
X123428572Y-139952381D01*
X123523810Y-139952381D01*
X123666667Y-140000000D01*
X123714286Y-140047619D01*
X124095238Y-140047619D02*
X124142857Y-140000000D01*
X124238095Y-139952381D01*
X124476191Y-139952381D01*
X124571429Y-140000000D01*
X124619048Y-140047619D01*
X124666667Y-140142857D01*
X124666667Y-140238095D01*
X124619048Y-140380952D01*
X124047619Y-140952381D01*
X124666667Y-140952381D01*
X118511905Y-101152381D02*
X118511905Y-100152381D01*
X118750000Y-100152381D01*
X118892858Y-100200000D01*
X118988096Y-100295238D01*
X119035715Y-100390476D01*
X119083334Y-100580952D01*
X119083334Y-100723810D01*
X119035715Y-100914286D01*
X118988096Y-101009524D01*
X118892858Y-101104762D01*
X118750000Y-101152381D01*
X118511905Y-101152381D01*
X120035715Y-101152381D02*
X119464286Y-101152381D01*
X119750000Y-101152381D02*
X119750000Y-100152381D01*
X119654762Y-100295238D01*
X119559524Y-100390476D01*
X119464286Y-100438095D01*
X117602381Y-105701190D02*
X117602381Y-106177381D01*
X116602381Y-106177381D01*
X117078571Y-105367857D02*
X117078571Y-105034523D01*
X117602381Y-104891666D02*
X117602381Y-105367857D01*
X116602381Y-105367857D01*
X116602381Y-104891666D01*
X117602381Y-104463095D02*
X116602381Y-104463095D01*
X116602381Y-104225000D01*
X116650000Y-104082142D01*
X116745238Y-103986904D01*
X116840476Y-103939285D01*
X117030952Y-103891666D01*
X117173810Y-103891666D01*
X117364286Y-103939285D01*
X117459524Y-103986904D01*
X117554762Y-104082142D01*
X117602381Y-104225000D01*
X117602381Y-104463095D01*
X117602381Y-102129761D02*
X117126190Y-102463095D01*
X117602381Y-102701190D02*
X116602381Y-102701190D01*
X116602381Y-102320237D01*
X116650000Y-102224999D01*
X116697619Y-102177380D01*
X116792857Y-102129761D01*
X116935714Y-102129761D01*
X117030952Y-102177380D01*
X117078571Y-102224999D01*
X117126190Y-102320237D01*
X117126190Y-102701190D01*
X117078571Y-101701190D02*
X117078571Y-101367856D01*
X117602381Y-101224999D02*
X117602381Y-101701190D01*
X116602381Y-101701190D01*
X116602381Y-101224999D01*
X117602381Y-100796428D02*
X116602381Y-100796428D01*
X116602381Y-100558333D01*
X116650000Y-100415475D01*
X116745238Y-100320237D01*
X116840476Y-100272618D01*
X117030952Y-100224999D01*
X117173810Y-100224999D01*
X117364286Y-100272618D01*
X117459524Y-100320237D01*
X117554762Y-100415475D01*
X117602381Y-100558333D01*
X117602381Y-100796428D01*
X122986905Y-101177381D02*
X122986905Y-100177381D01*
X123225000Y-100177381D01*
X123367858Y-100225000D01*
X123463096Y-100320238D01*
X123510715Y-100415476D01*
X123558334Y-100605952D01*
X123558334Y-100748810D01*
X123510715Y-100939286D01*
X123463096Y-101034524D01*
X123367858Y-101129762D01*
X123225000Y-101177381D01*
X122986905Y-101177381D01*
X123939286Y-100272619D02*
X123986905Y-100225000D01*
X124082143Y-100177381D01*
X124320239Y-100177381D01*
X124415477Y-100225000D01*
X124463096Y-100272619D01*
X124510715Y-100367857D01*
X124510715Y-100463095D01*
X124463096Y-100605952D01*
X123891667Y-101177381D01*
X124510715Y-101177381D01*
X126227381Y-105497619D02*
X126227381Y-105973810D01*
X125227381Y-105973810D01*
X125703571Y-105164286D02*
X125703571Y-104830952D01*
X126227381Y-104688095D02*
X126227381Y-105164286D01*
X125227381Y-105164286D01*
X125227381Y-104688095D01*
X126227381Y-104259524D02*
X125227381Y-104259524D01*
X125227381Y-104021429D01*
X125275000Y-103878571D01*
X125370238Y-103783333D01*
X125465476Y-103735714D01*
X125655952Y-103688095D01*
X125798810Y-103688095D01*
X125989286Y-103735714D01*
X126084524Y-103783333D01*
X126179762Y-103878571D01*
X126227381Y-104021429D01*
X126227381Y-104259524D01*
X125275000Y-101973809D02*
X125227381Y-102069047D01*
X125227381Y-102211904D01*
X125275000Y-102354762D01*
X125370238Y-102450000D01*
X125465476Y-102497619D01*
X125655952Y-102545238D01*
X125798810Y-102545238D01*
X125989286Y-102497619D01*
X126084524Y-102450000D01*
X126179762Y-102354762D01*
X126227381Y-102211904D01*
X126227381Y-102116666D01*
X126179762Y-101973809D01*
X126132143Y-101926190D01*
X125798810Y-101926190D01*
X125798810Y-102116666D01*
X126227381Y-100926190D02*
X125751190Y-101259524D01*
X126227381Y-101497619D02*
X125227381Y-101497619D01*
X125227381Y-101116666D01*
X125275000Y-101021428D01*
X125322619Y-100973809D01*
X125417857Y-100926190D01*
X125560714Y-100926190D01*
X125655952Y-100973809D01*
X125703571Y-101021428D01*
X125751190Y-101116666D01*
X125751190Y-101497619D01*
X126227381Y-100497619D02*
X125227381Y-100497619D01*
X126227381Y-99926190D01*
X125227381Y-99926190D01*
X126127381Y-108516666D02*
X125651190Y-108850000D01*
X126127381Y-109088095D02*
X125127381Y-109088095D01*
X125127381Y-108707142D01*
X125175000Y-108611904D01*
X125222619Y-108564285D01*
X125317857Y-108516666D01*
X125460714Y-108516666D01*
X125555952Y-108564285D01*
X125603571Y-108611904D01*
X125651190Y-108707142D01*
X125651190Y-109088095D01*
X126127381Y-107564285D02*
X126127381Y-108135714D01*
X126127381Y-107850000D02*
X125127381Y-107850000D01*
X125270238Y-107945238D01*
X125365476Y-108040476D01*
X125413095Y-108135714D01*
X125202381Y-111088095D02*
X125202381Y-111564286D01*
X125678571Y-111611905D01*
X125630952Y-111564286D01*
X125583333Y-111469048D01*
X125583333Y-111230952D01*
X125630952Y-111135714D01*
X125678571Y-111088095D01*
X125773810Y-111040476D01*
X126011905Y-111040476D01*
X126107143Y-111088095D01*
X126154762Y-111135714D01*
X126202381Y-111230952D01*
X126202381Y-111469048D01*
X126154762Y-111564286D01*
X126107143Y-111611905D01*
X126202381Y-110088095D02*
X126202381Y-110659524D01*
X126202381Y-110373810D02*
X125202381Y-110373810D01*
X125345238Y-110469048D01*
X125440476Y-110564286D01*
X125488095Y-110659524D01*
X117852381Y-108766666D02*
X117376190Y-109100000D01*
X117852381Y-109338095D02*
X116852381Y-109338095D01*
X116852381Y-108957142D01*
X116900000Y-108861904D01*
X116947619Y-108814285D01*
X117042857Y-108766666D01*
X117185714Y-108766666D01*
X117280952Y-108814285D01*
X117328571Y-108861904D01*
X117376190Y-108957142D01*
X117376190Y-109338095D01*
X116947619Y-108385714D02*
X116900000Y-108338095D01*
X116852381Y-108242857D01*
X116852381Y-108004761D01*
X116900000Y-107909523D01*
X116947619Y-107861904D01*
X117042857Y-107814285D01*
X117138095Y-107814285D01*
X117280952Y-107861904D01*
X117852381Y-108433333D01*
X117852381Y-107814285D01*
X116877381Y-111363095D02*
X116877381Y-111839286D01*
X117353571Y-111886905D01*
X117305952Y-111839286D01*
X117258333Y-111744048D01*
X117258333Y-111505952D01*
X117305952Y-111410714D01*
X117353571Y-111363095D01*
X117448810Y-111315476D01*
X117686905Y-111315476D01*
X117782143Y-111363095D01*
X117829762Y-111410714D01*
X117877381Y-111505952D01*
X117877381Y-111744048D01*
X117829762Y-111839286D01*
X117782143Y-111886905D01*
X117877381Y-110363095D02*
X117877381Y-110934524D01*
X117877381Y-110648810D02*
X116877381Y-110648810D01*
X117020238Y-110744048D01*
X117115476Y-110839286D01*
X117163095Y-110934524D01*
X122833334Y-136452381D02*
X122500000Y-135976190D01*
X122261905Y-136452381D02*
X122261905Y-135452381D01*
X122642858Y-135452381D01*
X122738096Y-135500000D01*
X122785715Y-135547619D01*
X122833334Y-135642857D01*
X122833334Y-135785714D01*
X122785715Y-135880952D01*
X122738096Y-135928571D01*
X122642858Y-135976190D01*
X122261905Y-135976190D01*
X123166667Y-135452381D02*
X123833334Y-135452381D01*
X123404762Y-136452381D01*
X118904763Y-135785714D02*
X118904763Y-136452381D01*
X118666667Y-135404762D02*
X118428572Y-136119048D01*
X119047620Y-136119048D01*
X119428572Y-136357143D02*
X119476191Y-136404762D01*
X119428572Y-136452381D01*
X119380953Y-136404762D01*
X119428572Y-136357143D01*
X119428572Y-136452381D01*
X119809524Y-135452381D02*
X120476191Y-135452381D01*
X120047619Y-136452381D01*
X120857143Y-136452381D02*
X120857143Y-135452381D01*
X121190477Y-136166667D01*
X121523810Y-135452381D01*
X121523810Y-136452381D01*
D13*
X120769048Y-96052381D02*
X120840477Y-96076190D01*
X120959524Y-96076190D01*
X121007143Y-96052381D01*
X121030953Y-96028571D01*
X121054762Y-95980952D01*
X121054762Y-95933333D01*
X121030953Y-95885714D01*
X121007143Y-95861905D01*
X120959524Y-95838095D01*
X120864286Y-95814286D01*
X120816667Y-95790476D01*
X120792858Y-95766667D01*
X120769048Y-95719048D01*
X120769048Y-95671429D01*
X120792858Y-95623810D01*
X120816667Y-95600000D01*
X120864286Y-95576190D01*
X120983334Y-95576190D01*
X121054762Y-95600000D01*
X121269048Y-96076190D02*
X121269048Y-95576190D01*
X121459524Y-95576190D01*
X121507143Y-95600000D01*
X121530952Y-95623810D01*
X121554762Y-95671429D01*
X121554762Y-95742857D01*
X121530952Y-95790476D01*
X121507143Y-95814286D01*
X121459524Y-95838095D01*
X121269048Y-95838095D01*
X122030952Y-96076190D02*
X121745238Y-96076190D01*
X121888095Y-96076190D02*
X121888095Y-95576190D01*
X121840476Y-95647619D01*
X121792857Y-95695238D01*
X121745238Y-95719048D01*
D14*
X120419429Y-120082714D02*
X120419429Y-120699571D01*
X120455714Y-120772143D01*
X120492000Y-120808429D01*
X120564571Y-120844714D01*
X120709714Y-120844714D01*
X120782286Y-120808429D01*
X120818571Y-120772143D01*
X120854857Y-120699571D01*
X120854857Y-120082714D01*
X121616857Y-120844714D02*
X121181429Y-120844714D01*
X121399143Y-120844714D02*
X121399143Y-120082714D01*
X121326572Y-120191571D01*
X121254000Y-120264143D01*
X121181429Y-120300429D01*
M02*
