G04 #@! TF.FileFunction,Legend,Bot*
%FSLAX46Y46*%
G04 Gerber Fmt 4.6, Leading zero omitted, Abs format (unit mm)*
G04 Created by KiCad (PCBNEW (2015-06-09 BZR 5726)-product) date Sat 04 Jul 2015 12:59:11 PM PDT*
%MOMM*%
G01*
G04 APERTURE LIST*
%ADD10C,0.100000*%
%ADD11C,0.200000*%
G04 APERTURE END LIST*
D10*
D11*
X148728571Y-75057143D02*
X147228571Y-75057143D01*
X147228571Y-75414286D01*
X147300000Y-75628571D01*
X147442857Y-75771429D01*
X147585714Y-75842857D01*
X147871429Y-75914286D01*
X148085714Y-75914286D01*
X148371429Y-75842857D01*
X148514286Y-75771429D01*
X148657143Y-75628571D01*
X148728571Y-75414286D01*
X148728571Y-75057143D01*
X148657143Y-77128571D02*
X148728571Y-76985714D01*
X148728571Y-76700000D01*
X148657143Y-76557143D01*
X148514286Y-76485714D01*
X147942857Y-76485714D01*
X147800000Y-76557143D01*
X147728571Y-76700000D01*
X147728571Y-76985714D01*
X147800000Y-77128571D01*
X147942857Y-77200000D01*
X148085714Y-77200000D01*
X148228571Y-76485714D01*
X148657143Y-77771428D02*
X148728571Y-77914285D01*
X148728571Y-78200000D01*
X148657143Y-78342857D01*
X148514286Y-78414285D01*
X148442857Y-78414285D01*
X148300000Y-78342857D01*
X148228571Y-78200000D01*
X148228571Y-77985714D01*
X148157143Y-77842857D01*
X148014286Y-77771428D01*
X147942857Y-77771428D01*
X147800000Y-77842857D01*
X147728571Y-77985714D01*
X147728571Y-78200000D01*
X147800000Y-78342857D01*
X148657143Y-79628571D02*
X148728571Y-79485714D01*
X148728571Y-79200000D01*
X148657143Y-79057143D01*
X148514286Y-78985714D01*
X147942857Y-78985714D01*
X147800000Y-79057143D01*
X147728571Y-79200000D01*
X147728571Y-79485714D01*
X147800000Y-79628571D01*
X147942857Y-79700000D01*
X148085714Y-79700000D01*
X148228571Y-78985714D01*
X148728571Y-80342857D02*
X147728571Y-80342857D01*
X148014286Y-80342857D02*
X147871429Y-80414285D01*
X147800000Y-80485714D01*
X147728571Y-80628571D01*
X147728571Y-80771428D01*
X147728571Y-81057142D02*
X147728571Y-81628571D01*
X147228571Y-81271428D02*
X148514286Y-81271428D01*
X148657143Y-81342856D01*
X148728571Y-81485714D01*
X148728571Y-81628571D01*
X148728571Y-83985714D02*
X148728571Y-83271428D01*
X147228571Y-83271428D01*
X148728571Y-84485714D02*
X147728571Y-84485714D01*
X147228571Y-84485714D02*
X147300000Y-84414285D01*
X147371429Y-84485714D01*
X147300000Y-84557142D01*
X147228571Y-84485714D01*
X147371429Y-84485714D01*
X147728571Y-85057143D02*
X147728571Y-85842857D01*
X148728571Y-85057143D01*
X148728571Y-85842857D01*
X148728571Y-87057143D02*
X147942857Y-87057143D01*
X147800000Y-86985714D01*
X147728571Y-86842857D01*
X147728571Y-86557143D01*
X147800000Y-86414286D01*
X148657143Y-87057143D02*
X148728571Y-86914286D01*
X148728571Y-86557143D01*
X148657143Y-86414286D01*
X148514286Y-86342857D01*
X148371429Y-86342857D01*
X148228571Y-86414286D01*
X148157143Y-86557143D01*
X148157143Y-86914286D01*
X148085714Y-87057143D01*
X148728571Y-87771429D02*
X147728571Y-87771429D01*
X148014286Y-87771429D02*
X147871429Y-87842857D01*
X147800000Y-87914286D01*
X147728571Y-88057143D01*
X147728571Y-88200000D01*
X148728571Y-89342857D02*
X147228571Y-89342857D01*
X148657143Y-89342857D02*
X148728571Y-89200000D01*
X148728571Y-88914286D01*
X148657143Y-88771428D01*
X148585714Y-88700000D01*
X148442857Y-88628571D01*
X148014286Y-88628571D01*
X147871429Y-88700000D01*
X147800000Y-88771428D01*
X147728571Y-88914286D01*
X147728571Y-89200000D01*
X147800000Y-89342857D01*
X147942857Y-91700000D02*
X148014286Y-91914286D01*
X148085714Y-91985714D01*
X148228571Y-92057143D01*
X148442857Y-92057143D01*
X148585714Y-91985714D01*
X148657143Y-91914286D01*
X148728571Y-91771428D01*
X148728571Y-91200000D01*
X147228571Y-91200000D01*
X147228571Y-91700000D01*
X147300000Y-91842857D01*
X147371429Y-91914286D01*
X147514286Y-91985714D01*
X147657143Y-91985714D01*
X147800000Y-91914286D01*
X147871429Y-91842857D01*
X147942857Y-91700000D01*
X147942857Y-91200000D01*
X148728571Y-92914286D02*
X148657143Y-92771428D01*
X148585714Y-92700000D01*
X148442857Y-92628571D01*
X148014286Y-92628571D01*
X147871429Y-92700000D01*
X147800000Y-92771428D01*
X147728571Y-92914286D01*
X147728571Y-93128571D01*
X147800000Y-93271428D01*
X147871429Y-93342857D01*
X148014286Y-93414286D01*
X148442857Y-93414286D01*
X148585714Y-93342857D01*
X148657143Y-93271428D01*
X148728571Y-93128571D01*
X148728571Y-92914286D01*
X148728571Y-94700000D02*
X147942857Y-94700000D01*
X147800000Y-94628571D01*
X147728571Y-94485714D01*
X147728571Y-94200000D01*
X147800000Y-94057143D01*
X148657143Y-94700000D02*
X148728571Y-94557143D01*
X148728571Y-94200000D01*
X148657143Y-94057143D01*
X148514286Y-93985714D01*
X148371429Y-93985714D01*
X148228571Y-94057143D01*
X148157143Y-94200000D01*
X148157143Y-94557143D01*
X148085714Y-94700000D01*
X148728571Y-95414286D02*
X147728571Y-95414286D01*
X148014286Y-95414286D02*
X147871429Y-95485714D01*
X147800000Y-95557143D01*
X147728571Y-95700000D01*
X147728571Y-95842857D01*
X148728571Y-96985714D02*
X147228571Y-96985714D01*
X148657143Y-96985714D02*
X148728571Y-96842857D01*
X148728571Y-96557143D01*
X148657143Y-96414285D01*
X148585714Y-96342857D01*
X148442857Y-96271428D01*
X148014286Y-96271428D01*
X147871429Y-96342857D01*
X147800000Y-96414285D01*
X147728571Y-96557143D01*
X147728571Y-96842857D01*
X147800000Y-96985714D01*
X147728571Y-98700000D02*
X148728571Y-99057143D01*
X147728571Y-99414285D01*
X147228571Y-100271428D02*
X147228571Y-100414285D01*
X147300000Y-100557142D01*
X147371429Y-100628571D01*
X147514286Y-100700000D01*
X147800000Y-100771428D01*
X148157143Y-100771428D01*
X148442857Y-100700000D01*
X148585714Y-100628571D01*
X148657143Y-100557142D01*
X148728571Y-100414285D01*
X148728571Y-100271428D01*
X148657143Y-100128571D01*
X148585714Y-100057142D01*
X148442857Y-99985714D01*
X148157143Y-99914285D01*
X147800000Y-99914285D01*
X147514286Y-99985714D01*
X147371429Y-100057142D01*
X147300000Y-100128571D01*
X147228571Y-100271428D01*
X148585714Y-101414285D02*
X148657143Y-101485713D01*
X148728571Y-101414285D01*
X148657143Y-101342856D01*
X148585714Y-101414285D01*
X148728571Y-101414285D01*
X148728571Y-102199999D02*
X148728571Y-102485714D01*
X148657143Y-102628571D01*
X148585714Y-102699999D01*
X148371429Y-102842857D01*
X148085714Y-102914285D01*
X147514286Y-102914285D01*
X147371429Y-102842857D01*
X147300000Y-102771428D01*
X147228571Y-102628571D01*
X147228571Y-102342857D01*
X147300000Y-102199999D01*
X147371429Y-102128571D01*
X147514286Y-102057142D01*
X147871429Y-102057142D01*
X148014286Y-102128571D01*
X148085714Y-102199999D01*
X148157143Y-102342857D01*
X148157143Y-102628571D01*
X148085714Y-102771428D01*
X148014286Y-102842857D01*
X147871429Y-102914285D01*
X147228571Y-103414285D02*
X147228571Y-104342856D01*
X147800000Y-103842856D01*
X147800000Y-104057142D01*
X147871429Y-104199999D01*
X147942857Y-104271428D01*
X148085714Y-104342856D01*
X148442857Y-104342856D01*
X148585714Y-104271428D01*
X148657143Y-104199999D01*
X148728571Y-104057142D01*
X148728571Y-103628570D01*
X148657143Y-103485713D01*
X148585714Y-103414285D01*
X150885714Y-75914286D02*
X150957143Y-75842857D01*
X151028571Y-75628571D01*
X151028571Y-75485714D01*
X150957143Y-75271429D01*
X150814286Y-75128571D01*
X150671429Y-75057143D01*
X150385714Y-74985714D01*
X150171429Y-74985714D01*
X149885714Y-75057143D01*
X149742857Y-75128571D01*
X149600000Y-75271429D01*
X149528571Y-75485714D01*
X149528571Y-75628571D01*
X149600000Y-75842857D01*
X149671429Y-75914286D01*
X151028571Y-76771429D02*
X150957143Y-76628571D01*
X150885714Y-76557143D01*
X150742857Y-76485714D01*
X150314286Y-76485714D01*
X150171429Y-76557143D01*
X150100000Y-76628571D01*
X150028571Y-76771429D01*
X150028571Y-76985714D01*
X150100000Y-77128571D01*
X150171429Y-77200000D01*
X150314286Y-77271429D01*
X150742857Y-77271429D01*
X150885714Y-77200000D01*
X150957143Y-77128571D01*
X151028571Y-76985714D01*
X151028571Y-76771429D01*
X150028571Y-77914286D02*
X151528571Y-77914286D01*
X150100000Y-77914286D02*
X150028571Y-78057143D01*
X150028571Y-78342857D01*
X150100000Y-78485714D01*
X150171429Y-78557143D01*
X150314286Y-78628572D01*
X150742857Y-78628572D01*
X150885714Y-78557143D01*
X150957143Y-78485714D01*
X151028571Y-78342857D01*
X151028571Y-78057143D01*
X150957143Y-77914286D01*
X150028571Y-79128572D02*
X151028571Y-79485715D01*
X150028571Y-79842857D02*
X151028571Y-79485715D01*
X151385714Y-79342857D01*
X151457143Y-79271429D01*
X151528571Y-79128572D01*
X151028571Y-80414286D02*
X150028571Y-80414286D01*
X150314286Y-80414286D02*
X150171429Y-80485714D01*
X150100000Y-80557143D01*
X150028571Y-80700000D01*
X150028571Y-80842857D01*
X151028571Y-81342857D02*
X150028571Y-81342857D01*
X149528571Y-81342857D02*
X149600000Y-81271428D01*
X149671429Y-81342857D01*
X149600000Y-81414285D01*
X149528571Y-81342857D01*
X149671429Y-81342857D01*
X150028571Y-82700000D02*
X151242857Y-82700000D01*
X151385714Y-82628571D01*
X151457143Y-82557143D01*
X151528571Y-82414286D01*
X151528571Y-82200000D01*
X151457143Y-82057143D01*
X150957143Y-82700000D02*
X151028571Y-82557143D01*
X151028571Y-82271429D01*
X150957143Y-82128571D01*
X150885714Y-82057143D01*
X150742857Y-81985714D01*
X150314286Y-81985714D01*
X150171429Y-82057143D01*
X150100000Y-82128571D01*
X150028571Y-82271429D01*
X150028571Y-82557143D01*
X150100000Y-82700000D01*
X151028571Y-83414286D02*
X149528571Y-83414286D01*
X151028571Y-84057143D02*
X150242857Y-84057143D01*
X150100000Y-83985714D01*
X150028571Y-83842857D01*
X150028571Y-83628572D01*
X150100000Y-83485714D01*
X150171429Y-83414286D01*
X150028571Y-84557143D02*
X150028571Y-85128572D01*
X149528571Y-84771429D02*
X150814286Y-84771429D01*
X150957143Y-84842857D01*
X151028571Y-84985715D01*
X151028571Y-85128572D01*
X149885714Y-87985715D02*
X149814286Y-87842857D01*
X149814286Y-87557143D01*
X149885714Y-87414286D01*
X150028571Y-87271429D01*
X150171429Y-87200000D01*
X150457143Y-87200000D01*
X150600000Y-87271429D01*
X150742857Y-87414286D01*
X150814286Y-87557143D01*
X150814286Y-87842857D01*
X150742857Y-87985715D01*
X149314286Y-87700000D02*
X149385714Y-87342857D01*
X149600000Y-86985715D01*
X149957143Y-86771429D01*
X150314286Y-86700000D01*
X150671429Y-86771429D01*
X151028571Y-86985715D01*
X151242857Y-87342857D01*
X151314286Y-87700000D01*
X151242857Y-88057143D01*
X151028571Y-88414286D01*
X150671429Y-88628572D01*
X150314286Y-88700000D01*
X149957143Y-88628572D01*
X149600000Y-88414286D01*
X149385714Y-88057143D01*
X149314286Y-87700000D01*
X149671429Y-90414286D02*
X149600000Y-90485715D01*
X149528571Y-90628572D01*
X149528571Y-90985715D01*
X149600000Y-91128572D01*
X149671429Y-91200001D01*
X149814286Y-91271429D01*
X149957143Y-91271429D01*
X150171429Y-91200001D01*
X151028571Y-90342858D01*
X151028571Y-91271429D01*
X149528571Y-92200000D02*
X149528571Y-92342857D01*
X149600000Y-92485714D01*
X149671429Y-92557143D01*
X149814286Y-92628572D01*
X150100000Y-92700000D01*
X150457143Y-92700000D01*
X150742857Y-92628572D01*
X150885714Y-92557143D01*
X150957143Y-92485714D01*
X151028571Y-92342857D01*
X151028571Y-92200000D01*
X150957143Y-92057143D01*
X150885714Y-91985714D01*
X150742857Y-91914286D01*
X150457143Y-91842857D01*
X150100000Y-91842857D01*
X149814286Y-91914286D01*
X149671429Y-91985714D01*
X149600000Y-92057143D01*
X149528571Y-92200000D01*
X151028571Y-94128571D02*
X151028571Y-93271428D01*
X151028571Y-93700000D02*
X149528571Y-93700000D01*
X149742857Y-93557143D01*
X149885714Y-93414285D01*
X149957143Y-93271428D01*
X149528571Y-95485714D02*
X149528571Y-94771428D01*
X150242857Y-94699999D01*
X150171429Y-94771428D01*
X150100000Y-94914285D01*
X150100000Y-95271428D01*
X150171429Y-95414285D01*
X150242857Y-95485714D01*
X150385714Y-95557142D01*
X150742857Y-95557142D01*
X150885714Y-95485714D01*
X150957143Y-95414285D01*
X151028571Y-95271428D01*
X151028571Y-94914285D01*
X150957143Y-94771428D01*
X150885714Y-94699999D01*
X150242857Y-97842856D02*
X150314286Y-98057142D01*
X150385714Y-98128570D01*
X150528571Y-98199999D01*
X150742857Y-98199999D01*
X150885714Y-98128570D01*
X150957143Y-98057142D01*
X151028571Y-97914284D01*
X151028571Y-97342856D01*
X149528571Y-97342856D01*
X149528571Y-97842856D01*
X149600000Y-97985713D01*
X149671429Y-98057142D01*
X149814286Y-98128570D01*
X149957143Y-98128570D01*
X150100000Y-98057142D01*
X150171429Y-97985713D01*
X150242857Y-97842856D01*
X150242857Y-97342856D01*
X151028571Y-99485713D02*
X150242857Y-99485713D01*
X150100000Y-99414284D01*
X150028571Y-99271427D01*
X150028571Y-98985713D01*
X150100000Y-98842856D01*
X150957143Y-99485713D02*
X151028571Y-99342856D01*
X151028571Y-98985713D01*
X150957143Y-98842856D01*
X150814286Y-98771427D01*
X150671429Y-98771427D01*
X150528571Y-98842856D01*
X150457143Y-98985713D01*
X150457143Y-99342856D01*
X150385714Y-99485713D01*
X151028571Y-100199999D02*
X150028571Y-100199999D01*
X150314286Y-100199999D02*
X150171429Y-100271427D01*
X150100000Y-100342856D01*
X150028571Y-100485713D01*
X150028571Y-100628570D01*
X150028571Y-100914284D02*
X150028571Y-101485713D01*
X149528571Y-101128570D02*
X150814286Y-101128570D01*
X150957143Y-101199998D01*
X151028571Y-101342856D01*
X151028571Y-101485713D01*
X151028571Y-103128570D02*
X149528571Y-103128570D01*
X150600000Y-103628570D01*
X149528571Y-104128570D01*
X151028571Y-104128570D01*
X151028571Y-105485713D02*
X150242857Y-105485713D01*
X150100000Y-105414284D01*
X150028571Y-105271427D01*
X150028571Y-104985713D01*
X150100000Y-104842856D01*
X150957143Y-105485713D02*
X151028571Y-105342856D01*
X151028571Y-104985713D01*
X150957143Y-104842856D01*
X150814286Y-104771427D01*
X150671429Y-104771427D01*
X150528571Y-104842856D01*
X150457143Y-104985713D01*
X150457143Y-105342856D01*
X150385714Y-105485713D01*
X150957143Y-106128570D02*
X151028571Y-106271427D01*
X151028571Y-106557142D01*
X150957143Y-106699999D01*
X150814286Y-106771427D01*
X150742857Y-106771427D01*
X150600000Y-106699999D01*
X150528571Y-106557142D01*
X150528571Y-106342856D01*
X150457143Y-106199999D01*
X150314286Y-106128570D01*
X150242857Y-106128570D01*
X150100000Y-106199999D01*
X150028571Y-106342856D01*
X150028571Y-106557142D01*
X150100000Y-106699999D01*
X150957143Y-107342856D02*
X151028571Y-107485713D01*
X151028571Y-107771428D01*
X150957143Y-107914285D01*
X150814286Y-107985713D01*
X150742857Y-107985713D01*
X150600000Y-107914285D01*
X150528571Y-107771428D01*
X150528571Y-107557142D01*
X150457143Y-107414285D01*
X150314286Y-107342856D01*
X150242857Y-107342856D01*
X150100000Y-107414285D01*
X150028571Y-107557142D01*
X150028571Y-107771428D01*
X150100000Y-107914285D01*
X150957143Y-109199999D02*
X151028571Y-109057142D01*
X151028571Y-108771428D01*
X150957143Y-108628571D01*
X150814286Y-108557142D01*
X150242857Y-108557142D01*
X150100000Y-108628571D01*
X150028571Y-108771428D01*
X150028571Y-109057142D01*
X150100000Y-109199999D01*
X150242857Y-109271428D01*
X150385714Y-109271428D01*
X150528571Y-108557142D01*
X150028571Y-109771428D02*
X151028571Y-110128571D01*
X150028571Y-110485713D02*
X151028571Y-110128571D01*
X151385714Y-109985713D01*
X151457143Y-109914285D01*
X151528571Y-109771428D01*
X153328571Y-75057143D02*
X151828571Y-75057143D01*
X153328571Y-75700000D02*
X152542857Y-75700000D01*
X152400000Y-75628571D01*
X152328571Y-75485714D01*
X152328571Y-75271429D01*
X152400000Y-75128571D01*
X152471429Y-75057143D01*
X152328571Y-76200000D02*
X152328571Y-76771429D01*
X151828571Y-76414286D02*
X153114286Y-76414286D01*
X153257143Y-76485714D01*
X153328571Y-76628572D01*
X153328571Y-76771429D01*
X152328571Y-77057143D02*
X152328571Y-77628572D01*
X151828571Y-77271429D02*
X153114286Y-77271429D01*
X153257143Y-77342857D01*
X153328571Y-77485715D01*
X153328571Y-77628572D01*
X152328571Y-78128572D02*
X153828571Y-78128572D01*
X152400000Y-78128572D02*
X152328571Y-78271429D01*
X152328571Y-78557143D01*
X152400000Y-78700000D01*
X152471429Y-78771429D01*
X152614286Y-78842858D01*
X153042857Y-78842858D01*
X153185714Y-78771429D01*
X153257143Y-78700000D01*
X153328571Y-78557143D01*
X153328571Y-78271429D01*
X153257143Y-78128572D01*
X153185714Y-79485715D02*
X153257143Y-79557143D01*
X153328571Y-79485715D01*
X153257143Y-79414286D01*
X153185714Y-79485715D01*
X153328571Y-79485715D01*
X152400000Y-79485715D02*
X152471429Y-79557143D01*
X152542857Y-79485715D01*
X152471429Y-79414286D01*
X152400000Y-79485715D01*
X152542857Y-79485715D01*
X151757143Y-81271429D02*
X153685714Y-79985715D01*
X151757143Y-82842858D02*
X153685714Y-81557144D01*
X152328571Y-83985716D02*
X153542857Y-83985716D01*
X153685714Y-83914287D01*
X153757143Y-83842859D01*
X153828571Y-83700002D01*
X153828571Y-83485716D01*
X153757143Y-83342859D01*
X153257143Y-83985716D02*
X153328571Y-83842859D01*
X153328571Y-83557145D01*
X153257143Y-83414287D01*
X153185714Y-83342859D01*
X153042857Y-83271430D01*
X152614286Y-83271430D01*
X152471429Y-83342859D01*
X152400000Y-83414287D01*
X152328571Y-83557145D01*
X152328571Y-83842859D01*
X152400000Y-83985716D01*
X153328571Y-84700002D02*
X152328571Y-84700002D01*
X151828571Y-84700002D02*
X151900000Y-84628573D01*
X151971429Y-84700002D01*
X151900000Y-84771430D01*
X151828571Y-84700002D01*
X151971429Y-84700002D01*
X152328571Y-85200002D02*
X152328571Y-85771431D01*
X151828571Y-85414288D02*
X153114286Y-85414288D01*
X153257143Y-85485716D01*
X153328571Y-85628574D01*
X153328571Y-85771431D01*
X153328571Y-86271431D02*
X151828571Y-86271431D01*
X153328571Y-86914288D02*
X152542857Y-86914288D01*
X152400000Y-86842859D01*
X152328571Y-86700002D01*
X152328571Y-86485717D01*
X152400000Y-86342859D01*
X152471429Y-86271431D01*
X152328571Y-88271431D02*
X153328571Y-88271431D01*
X152328571Y-87628574D02*
X153114286Y-87628574D01*
X153257143Y-87700002D01*
X153328571Y-87842860D01*
X153328571Y-88057145D01*
X153257143Y-88200002D01*
X153185714Y-88271431D01*
X153328571Y-88985717D02*
X151828571Y-88985717D01*
X152400000Y-88985717D02*
X152328571Y-89128574D01*
X152328571Y-89414288D01*
X152400000Y-89557145D01*
X152471429Y-89628574D01*
X152614286Y-89700003D01*
X153042857Y-89700003D01*
X153185714Y-89628574D01*
X153257143Y-89557145D01*
X153328571Y-89414288D01*
X153328571Y-89128574D01*
X153257143Y-88985717D01*
X153185714Y-90342860D02*
X153257143Y-90414288D01*
X153328571Y-90342860D01*
X153257143Y-90271431D01*
X153185714Y-90342860D01*
X153328571Y-90342860D01*
X153257143Y-91700003D02*
X153328571Y-91557146D01*
X153328571Y-91271432D01*
X153257143Y-91128574D01*
X153185714Y-91057146D01*
X153042857Y-90985717D01*
X152614286Y-90985717D01*
X152471429Y-91057146D01*
X152400000Y-91128574D01*
X152328571Y-91271432D01*
X152328571Y-91557146D01*
X152400000Y-91700003D01*
X153328571Y-92557146D02*
X153257143Y-92414288D01*
X153185714Y-92342860D01*
X153042857Y-92271431D01*
X152614286Y-92271431D01*
X152471429Y-92342860D01*
X152400000Y-92414288D01*
X152328571Y-92557146D01*
X152328571Y-92771431D01*
X152400000Y-92914288D01*
X152471429Y-92985717D01*
X152614286Y-93057146D01*
X153042857Y-93057146D01*
X153185714Y-92985717D01*
X153257143Y-92914288D01*
X153328571Y-92771431D01*
X153328571Y-92557146D01*
X153328571Y-93700003D02*
X152328571Y-93700003D01*
X152471429Y-93700003D02*
X152400000Y-93771431D01*
X152328571Y-93914289D01*
X152328571Y-94128574D01*
X152400000Y-94271431D01*
X152542857Y-94342860D01*
X153328571Y-94342860D01*
X152542857Y-94342860D02*
X152400000Y-94414289D01*
X152328571Y-94557146D01*
X152328571Y-94771431D01*
X152400000Y-94914289D01*
X152542857Y-94985717D01*
X153328571Y-94985717D01*
X151757143Y-96771431D02*
X153685714Y-95485717D01*
X152542857Y-97771432D02*
X152614286Y-97985718D01*
X152685714Y-98057146D01*
X152828571Y-98128575D01*
X153042857Y-98128575D01*
X153185714Y-98057146D01*
X153257143Y-97985718D01*
X153328571Y-97842860D01*
X153328571Y-97271432D01*
X151828571Y-97271432D01*
X151828571Y-97771432D01*
X151900000Y-97914289D01*
X151971429Y-97985718D01*
X152114286Y-98057146D01*
X152257143Y-98057146D01*
X152400000Y-97985718D01*
X152471429Y-97914289D01*
X152542857Y-97771432D01*
X152542857Y-97271432D01*
X153328571Y-99414289D02*
X152542857Y-99414289D01*
X152400000Y-99342860D01*
X152328571Y-99200003D01*
X152328571Y-98914289D01*
X152400000Y-98771432D01*
X153257143Y-99414289D02*
X153328571Y-99271432D01*
X153328571Y-98914289D01*
X153257143Y-98771432D01*
X153114286Y-98700003D01*
X152971429Y-98700003D01*
X152828571Y-98771432D01*
X152757143Y-98914289D01*
X152757143Y-99271432D01*
X152685714Y-99414289D01*
X153328571Y-100128575D02*
X152328571Y-100128575D01*
X152614286Y-100128575D02*
X152471429Y-100200003D01*
X152400000Y-100271432D01*
X152328571Y-100414289D01*
X152328571Y-100557146D01*
X152328571Y-100842860D02*
X152328571Y-101414289D01*
X151828571Y-101057146D02*
X153114286Y-101057146D01*
X153257143Y-101128574D01*
X153328571Y-101271432D01*
X153328571Y-101414289D01*
X153328571Y-101914289D02*
X151828571Y-101914289D01*
X152900000Y-102414289D01*
X151828571Y-102914289D01*
X153328571Y-102914289D01*
X153328571Y-104271432D02*
X152542857Y-104271432D01*
X152400000Y-104200003D01*
X152328571Y-104057146D01*
X152328571Y-103771432D01*
X152400000Y-103628575D01*
X153257143Y-104271432D02*
X153328571Y-104128575D01*
X153328571Y-103771432D01*
X153257143Y-103628575D01*
X153114286Y-103557146D01*
X152971429Y-103557146D01*
X152828571Y-103628575D01*
X152757143Y-103771432D01*
X152757143Y-104128575D01*
X152685714Y-104271432D01*
X153257143Y-104914289D02*
X153328571Y-105057146D01*
X153328571Y-105342861D01*
X153257143Y-105485718D01*
X153114286Y-105557146D01*
X153042857Y-105557146D01*
X152900000Y-105485718D01*
X152828571Y-105342861D01*
X152828571Y-105128575D01*
X152757143Y-104985718D01*
X152614286Y-104914289D01*
X152542857Y-104914289D01*
X152400000Y-104985718D01*
X152328571Y-105128575D01*
X152328571Y-105342861D01*
X152400000Y-105485718D01*
X153257143Y-106128575D02*
X153328571Y-106271432D01*
X153328571Y-106557147D01*
X153257143Y-106700004D01*
X153114286Y-106771432D01*
X153042857Y-106771432D01*
X152900000Y-106700004D01*
X152828571Y-106557147D01*
X152828571Y-106342861D01*
X152757143Y-106200004D01*
X152614286Y-106128575D01*
X152542857Y-106128575D01*
X152400000Y-106200004D01*
X152328571Y-106342861D01*
X152328571Y-106557147D01*
X152400000Y-106700004D01*
X153257143Y-107985718D02*
X153328571Y-107842861D01*
X153328571Y-107557147D01*
X153257143Y-107414290D01*
X153114286Y-107342861D01*
X152542857Y-107342861D01*
X152400000Y-107414290D01*
X152328571Y-107557147D01*
X152328571Y-107842861D01*
X152400000Y-107985718D01*
X152542857Y-108057147D01*
X152685714Y-108057147D01*
X152828571Y-107342861D01*
X152328571Y-108557147D02*
X153328571Y-108914290D01*
X152328571Y-109271432D02*
X153328571Y-108914290D01*
X153685714Y-108771432D01*
X153757143Y-108700004D01*
X153828571Y-108557147D01*
X151757143Y-110914289D02*
X153685714Y-109628575D01*
X153328571Y-111628576D02*
X153257143Y-111485718D01*
X153114286Y-111414290D01*
X151828571Y-111414290D01*
X153328571Y-112200004D02*
X152328571Y-112200004D01*
X151828571Y-112200004D02*
X151900000Y-112128575D01*
X151971429Y-112200004D01*
X151900000Y-112271432D01*
X151828571Y-112200004D01*
X151971429Y-112200004D01*
X152328571Y-112771433D02*
X152328571Y-113557147D01*
X153328571Y-112771433D01*
X153328571Y-113557147D01*
X153328571Y-114771433D02*
X152542857Y-114771433D01*
X152400000Y-114700004D01*
X152328571Y-114557147D01*
X152328571Y-114271433D01*
X152400000Y-114128576D01*
X153257143Y-114771433D02*
X153328571Y-114628576D01*
X153328571Y-114271433D01*
X153257143Y-114128576D01*
X153114286Y-114057147D01*
X152971429Y-114057147D01*
X152828571Y-114128576D01*
X152757143Y-114271433D01*
X152757143Y-114628576D01*
X152685714Y-114771433D01*
X153328571Y-115485719D02*
X152328571Y-115485719D01*
X152614286Y-115485719D02*
X152471429Y-115557147D01*
X152400000Y-115628576D01*
X152328571Y-115771433D01*
X152328571Y-115914290D01*
X153328571Y-117057147D02*
X151828571Y-117057147D01*
X153257143Y-117057147D02*
X153328571Y-116914290D01*
X153328571Y-116628576D01*
X153257143Y-116485718D01*
X153185714Y-116414290D01*
X153042857Y-116342861D01*
X152614286Y-116342861D01*
X152471429Y-116414290D01*
X152400000Y-116485718D01*
X152328571Y-116628576D01*
X152328571Y-116914290D01*
X152400000Y-117057147D01*
X154128571Y-75342857D02*
X154128571Y-75628571D01*
X154200000Y-75771429D01*
X154342857Y-75914286D01*
X154628571Y-75985714D01*
X155128571Y-75985714D01*
X155414286Y-75914286D01*
X155557143Y-75771429D01*
X155628571Y-75628571D01*
X155628571Y-75342857D01*
X155557143Y-75200000D01*
X155414286Y-75057143D01*
X155128571Y-74985714D01*
X154628571Y-74985714D01*
X154342857Y-75057143D01*
X154200000Y-75200000D01*
X154128571Y-75342857D01*
X154628571Y-76628572D02*
X156128571Y-76628572D01*
X154700000Y-76628572D02*
X154628571Y-76771429D01*
X154628571Y-77057143D01*
X154700000Y-77200000D01*
X154771429Y-77271429D01*
X154914286Y-77342858D01*
X155342857Y-77342858D01*
X155485714Y-77271429D01*
X155557143Y-77200000D01*
X155628571Y-77057143D01*
X155628571Y-76771429D01*
X155557143Y-76628572D01*
X155557143Y-78557143D02*
X155628571Y-78414286D01*
X155628571Y-78128572D01*
X155557143Y-77985715D01*
X155414286Y-77914286D01*
X154842857Y-77914286D01*
X154700000Y-77985715D01*
X154628571Y-78128572D01*
X154628571Y-78414286D01*
X154700000Y-78557143D01*
X154842857Y-78628572D01*
X154985714Y-78628572D01*
X155128571Y-77914286D01*
X154628571Y-79271429D02*
X155628571Y-79271429D01*
X154771429Y-79271429D02*
X154700000Y-79342857D01*
X154628571Y-79485715D01*
X154628571Y-79700000D01*
X154700000Y-79842857D01*
X154842857Y-79914286D01*
X155628571Y-79914286D01*
X155628571Y-81771429D02*
X154128571Y-81771429D01*
X154842857Y-81771429D02*
X154842857Y-82628572D01*
X155628571Y-82628572D02*
X154128571Y-82628572D01*
X155628571Y-83985715D02*
X154842857Y-83985715D01*
X154700000Y-83914286D01*
X154628571Y-83771429D01*
X154628571Y-83485715D01*
X154700000Y-83342858D01*
X155557143Y-83985715D02*
X155628571Y-83842858D01*
X155628571Y-83485715D01*
X155557143Y-83342858D01*
X155414286Y-83271429D01*
X155271429Y-83271429D01*
X155128571Y-83342858D01*
X155057143Y-83485715D01*
X155057143Y-83842858D01*
X154985714Y-83985715D01*
X155628571Y-84700001D02*
X154628571Y-84700001D01*
X154914286Y-84700001D02*
X154771429Y-84771429D01*
X154700000Y-84842858D01*
X154628571Y-84985715D01*
X154628571Y-85128572D01*
X155628571Y-86271429D02*
X154128571Y-86271429D01*
X155557143Y-86271429D02*
X155628571Y-86128572D01*
X155628571Y-85842858D01*
X155557143Y-85700000D01*
X155485714Y-85628572D01*
X155342857Y-85557143D01*
X154914286Y-85557143D01*
X154771429Y-85628572D01*
X154700000Y-85700000D01*
X154628571Y-85842858D01*
X154628571Y-86128572D01*
X154700000Y-86271429D01*
X154628571Y-86842858D02*
X155628571Y-87128572D01*
X154914286Y-87414286D01*
X155628571Y-87700001D01*
X154628571Y-87985715D01*
X155628571Y-89200001D02*
X154842857Y-89200001D01*
X154700000Y-89128572D01*
X154628571Y-88985715D01*
X154628571Y-88700001D01*
X154700000Y-88557144D01*
X155557143Y-89200001D02*
X155628571Y-89057144D01*
X155628571Y-88700001D01*
X155557143Y-88557144D01*
X155414286Y-88485715D01*
X155271429Y-88485715D01*
X155128571Y-88557144D01*
X155057143Y-88700001D01*
X155057143Y-89057144D01*
X154985714Y-89200001D01*
X155628571Y-89914287D02*
X154628571Y-89914287D01*
X154914286Y-89914287D02*
X154771429Y-89985715D01*
X154700000Y-90057144D01*
X154628571Y-90200001D01*
X154628571Y-90342858D01*
X155557143Y-91414286D02*
X155628571Y-91271429D01*
X155628571Y-90985715D01*
X155557143Y-90842858D01*
X155414286Y-90771429D01*
X154842857Y-90771429D01*
X154700000Y-90842858D01*
X154628571Y-90985715D01*
X154628571Y-91271429D01*
X154700000Y-91414286D01*
X154842857Y-91485715D01*
X154985714Y-91485715D01*
X155128571Y-90771429D01*
X155485714Y-92128572D02*
X155557143Y-92200000D01*
X155628571Y-92128572D01*
X155557143Y-92057143D01*
X155485714Y-92128572D01*
X155628571Y-92128572D01*
X154700000Y-92128572D02*
X154771429Y-92200000D01*
X154842857Y-92128572D01*
X154771429Y-92057143D01*
X154700000Y-92128572D01*
X154842857Y-92128572D01*
X155557143Y-93914286D02*
X155628571Y-94057143D01*
X155628571Y-94342858D01*
X155557143Y-94485715D01*
X155414286Y-94557143D01*
X155342857Y-94557143D01*
X155200000Y-94485715D01*
X155128571Y-94342858D01*
X155128571Y-94128572D01*
X155057143Y-93985715D01*
X154914286Y-93914286D01*
X154842857Y-93914286D01*
X154700000Y-93985715D01*
X154628571Y-94128572D01*
X154628571Y-94342858D01*
X154700000Y-94485715D01*
X155557143Y-95771429D02*
X155628571Y-95628572D01*
X155628571Y-95342858D01*
X155557143Y-95200001D01*
X155414286Y-95128572D01*
X154842857Y-95128572D01*
X154700000Y-95200001D01*
X154628571Y-95342858D01*
X154628571Y-95628572D01*
X154700000Y-95771429D01*
X154842857Y-95842858D01*
X154985714Y-95842858D01*
X155128571Y-95128572D01*
X155557143Y-97057143D02*
X155628571Y-96914286D01*
X155628571Y-96628572D01*
X155557143Y-96485715D01*
X155414286Y-96414286D01*
X154842857Y-96414286D01*
X154700000Y-96485715D01*
X154628571Y-96628572D01*
X154628571Y-96914286D01*
X154700000Y-97057143D01*
X154842857Y-97128572D01*
X154985714Y-97128572D01*
X155128571Y-96414286D01*
X155628571Y-98914286D02*
X154628571Y-98914286D01*
X154914286Y-98914286D02*
X154771429Y-98985714D01*
X154700000Y-99057143D01*
X154628571Y-99200000D01*
X154628571Y-99342857D01*
X155557143Y-100414285D02*
X155628571Y-100271428D01*
X155628571Y-99985714D01*
X155557143Y-99842857D01*
X155414286Y-99771428D01*
X154842857Y-99771428D01*
X154700000Y-99842857D01*
X154628571Y-99985714D01*
X154628571Y-100271428D01*
X154700000Y-100414285D01*
X154842857Y-100485714D01*
X154985714Y-100485714D01*
X155128571Y-99771428D01*
X154628571Y-101128571D02*
X156128571Y-101128571D01*
X154700000Y-101128571D02*
X154628571Y-101271428D01*
X154628571Y-101557142D01*
X154700000Y-101699999D01*
X154771429Y-101771428D01*
X154914286Y-101842857D01*
X155342857Y-101842857D01*
X155485714Y-101771428D01*
X155557143Y-101699999D01*
X155628571Y-101557142D01*
X155628571Y-101271428D01*
X155557143Y-101128571D01*
X155628571Y-102700000D02*
X155557143Y-102557142D01*
X155485714Y-102485714D01*
X155342857Y-102414285D01*
X154914286Y-102414285D01*
X154771429Y-102485714D01*
X154700000Y-102557142D01*
X154628571Y-102700000D01*
X154628571Y-102914285D01*
X154700000Y-103057142D01*
X154771429Y-103128571D01*
X154914286Y-103200000D01*
X155342857Y-103200000D01*
X155485714Y-103128571D01*
X155557143Y-103057142D01*
X155628571Y-102914285D01*
X155628571Y-102700000D01*
X154628571Y-104771428D02*
X154628571Y-105342857D01*
X155628571Y-104985714D02*
X154342857Y-104985714D01*
X154200000Y-105057142D01*
X154128571Y-105200000D01*
X154128571Y-105342857D01*
X155628571Y-106057143D02*
X155557143Y-105914285D01*
X155485714Y-105842857D01*
X155342857Y-105771428D01*
X154914286Y-105771428D01*
X154771429Y-105842857D01*
X154700000Y-105914285D01*
X154628571Y-106057143D01*
X154628571Y-106271428D01*
X154700000Y-106414285D01*
X154771429Y-106485714D01*
X154914286Y-106557143D01*
X155342857Y-106557143D01*
X155485714Y-106485714D01*
X155557143Y-106414285D01*
X155628571Y-106271428D01*
X155628571Y-106057143D01*
X155628571Y-107200000D02*
X154628571Y-107200000D01*
X154914286Y-107200000D02*
X154771429Y-107271428D01*
X154700000Y-107342857D01*
X154628571Y-107485714D01*
X154628571Y-107628571D01*
X155628571Y-109485714D02*
X155557143Y-109342856D01*
X155414286Y-109271428D01*
X154128571Y-109271428D01*
X155628571Y-110057142D02*
X154628571Y-110057142D01*
X154128571Y-110057142D02*
X154200000Y-109985713D01*
X154271429Y-110057142D01*
X154200000Y-110128570D01*
X154128571Y-110057142D01*
X154271429Y-110057142D01*
X155557143Y-111414285D02*
X155628571Y-111271428D01*
X155628571Y-110985714D01*
X155557143Y-110842856D01*
X155485714Y-110771428D01*
X155342857Y-110699999D01*
X154914286Y-110699999D01*
X154771429Y-110771428D01*
X154700000Y-110842856D01*
X154628571Y-110985714D01*
X154628571Y-111271428D01*
X154700000Y-111414285D01*
X155557143Y-112628570D02*
X155628571Y-112485713D01*
X155628571Y-112199999D01*
X155557143Y-112057142D01*
X155414286Y-111985713D01*
X154842857Y-111985713D01*
X154700000Y-112057142D01*
X154628571Y-112199999D01*
X154628571Y-112485713D01*
X154700000Y-112628570D01*
X154842857Y-112699999D01*
X154985714Y-112699999D01*
X155128571Y-111985713D01*
X154628571Y-113342856D02*
X155628571Y-113342856D01*
X154771429Y-113342856D02*
X154700000Y-113414284D01*
X154628571Y-113557142D01*
X154628571Y-113771427D01*
X154700000Y-113914284D01*
X154842857Y-113985713D01*
X155628571Y-113985713D01*
X155557143Y-114628570D02*
X155628571Y-114771427D01*
X155628571Y-115057142D01*
X155557143Y-115199999D01*
X155414286Y-115271427D01*
X155342857Y-115271427D01*
X155200000Y-115199999D01*
X155128571Y-115057142D01*
X155128571Y-114842856D01*
X155057143Y-114699999D01*
X154914286Y-114628570D01*
X154842857Y-114628570D01*
X154700000Y-114699999D01*
X154628571Y-114842856D01*
X154628571Y-115057142D01*
X154700000Y-115199999D01*
X155557143Y-116485713D02*
X155628571Y-116342856D01*
X155628571Y-116057142D01*
X155557143Y-115914285D01*
X155414286Y-115842856D01*
X154842857Y-115842856D01*
X154700000Y-115914285D01*
X154628571Y-116057142D01*
X154628571Y-116342856D01*
X154700000Y-116485713D01*
X154842857Y-116557142D01*
X154985714Y-116557142D01*
X155128571Y-115842856D01*
X154628571Y-118128570D02*
X154628571Y-118699999D01*
X154128571Y-118342856D02*
X155414286Y-118342856D01*
X155557143Y-118414284D01*
X155628571Y-118557142D01*
X155628571Y-118699999D01*
X155557143Y-119771427D02*
X155628571Y-119628570D01*
X155628571Y-119342856D01*
X155557143Y-119199999D01*
X155414286Y-119128570D01*
X154842857Y-119128570D01*
X154700000Y-119199999D01*
X154628571Y-119342856D01*
X154628571Y-119628570D01*
X154700000Y-119771427D01*
X154842857Y-119842856D01*
X154985714Y-119842856D01*
X155128571Y-119128570D01*
X155628571Y-120485713D02*
X154628571Y-120485713D01*
X154914286Y-120485713D02*
X154771429Y-120557141D01*
X154700000Y-120628570D01*
X154628571Y-120771427D01*
X154628571Y-120914284D01*
X155628571Y-121414284D02*
X154628571Y-121414284D01*
X154771429Y-121414284D02*
X154700000Y-121485712D01*
X154628571Y-121628570D01*
X154628571Y-121842855D01*
X154700000Y-121985712D01*
X154842857Y-122057141D01*
X155628571Y-122057141D01*
X154842857Y-122057141D02*
X154700000Y-122128570D01*
X154628571Y-122271427D01*
X154628571Y-122485712D01*
X154700000Y-122628570D01*
X154842857Y-122699998D01*
X155628571Y-122699998D01*
X155557143Y-123342855D02*
X155628571Y-123485712D01*
X155628571Y-123771427D01*
X155557143Y-123914284D01*
X155414286Y-123985712D01*
X155342857Y-123985712D01*
X155200000Y-123914284D01*
X155128571Y-123771427D01*
X155128571Y-123557141D01*
X155057143Y-123414284D01*
X154914286Y-123342855D01*
X154842857Y-123342855D01*
X154700000Y-123414284D01*
X154628571Y-123557141D01*
X154628571Y-123771427D01*
X154700000Y-123914284D01*
M02*
