G04 #@! TF.FileFunction,Copper,L2,Bot,Signal*
%FSLAX46Y46*%
G04 Gerber Fmt 4.6, Leading zero omitted, Abs format (unit mm)*
G04 Created by KiCad (PCBNEW (2015-06-09 BZR 5726)-product) date Sun 21 Jun 2015 01:22:40 AM PDT*
%MOMM*%
G01*
G04 APERTURE LIST*
%ADD10C,0.100000*%
%ADD11C,2.499360*%
%ADD12C,1.250000*%
%ADD13R,2.032000X1.727200*%
%ADD14O,2.032000X1.727200*%
%ADD15C,0.600000*%
%ADD16C,0.250000*%
G04 APERTURE END LIST*
D10*
D11*
X153500000Y-132500000D03*
D12*
X147000000Y-106750000D03*
X147000000Y-113250000D03*
D11*
X153500000Y-137000000D03*
D13*
X140500000Y-136500000D03*
D14*
X140500000Y-133960000D03*
X140500000Y-131420000D03*
X140500000Y-128880000D03*
D15*
X146200000Y-133600000D03*
X148500000Y-139600000D03*
X153900000Y-117000000D03*
X154000000Y-123600000D03*
X143100000Y-132400000D03*
X144500000Y-139800000D03*
X144300000Y-153100000D03*
X150100000Y-153100000D03*
X140500000Y-121000000D03*
X147100000Y-96200000D03*
X144800000Y-127600000D03*
X144800000Y-116500000D03*
D16*
X146200000Y-137300000D02*
X146200000Y-133600000D01*
X148500000Y-139600000D02*
X146200000Y-137300000D01*
X153900000Y-117000000D02*
X150800000Y-117000000D01*
X150800000Y-117000000D02*
X150900000Y-117000000D01*
X150900000Y-117000000D02*
X150800000Y-117000000D01*
X153400000Y-123600000D02*
X150800000Y-121000000D01*
X154000000Y-123600000D02*
X153400000Y-123600000D01*
X144500000Y-139800000D02*
X143100000Y-138400000D01*
X143100000Y-138400000D02*
X143100000Y-132400000D01*
X144500000Y-152900000D02*
X144300000Y-153100000D01*
X144500000Y-139800000D02*
X144500000Y-152900000D01*
X144300000Y-153100000D02*
X150100000Y-153100000D01*
X150800000Y-117000000D02*
X150800000Y-121000000D01*
X147100000Y-96200000D02*
X150800000Y-99900000D01*
X150800000Y-109824882D02*
X150800000Y-117000000D01*
X150800000Y-99900000D02*
X150800000Y-109824882D01*
X145775118Y-109824882D02*
X150800000Y-109824882D01*
X143100000Y-112500000D02*
X145775118Y-109824882D01*
X140924264Y-121000000D02*
X140935174Y-121010910D01*
X140500000Y-121000000D02*
X140924264Y-121000000D01*
X143100000Y-121010910D02*
X143100000Y-112500000D01*
X140935174Y-121010910D02*
X143100000Y-121010910D01*
X143100000Y-132400000D02*
X143100000Y-121010910D01*
X144800000Y-127600000D02*
X144800000Y-116500000D01*
M02*
