G04 #@! TF.FileFunction,Soldermask,Top*
%FSLAX46Y46*%
G04 Gerber Fmt 4.6, Leading zero omitted, Abs format (unit mm)*
G04 Created by KiCad (PCBNEW (2015-08-06 BZR 6058)-product) date Wed 12 Aug 2015 10:19:41 AM PDT*
%MOMM*%
G01*
G04 APERTURE LIST*
%ADD10C,0.100000*%
%ADD11R,1.700000X0.900000*%
%ADD12C,2.500000*%
%ADD13R,1.800860X1.597660*%
%ADD14C,2.499360*%
%ADD15R,1.727200X1.727200*%
%ADD16O,1.727200X1.727200*%
%ADD17R,0.900000X1.700000*%
%ADD18R,1.550000X0.600000*%
G04 APERTURE END LIST*
D10*
D11*
X123150000Y-115725000D03*
X123150000Y-118625000D03*
D12*
X124150000Y-101650000D03*
X117650000Y-101650000D03*
D13*
X118850000Y-112769860D03*
X118850000Y-109930140D03*
X123150000Y-112769860D03*
X123150000Y-109930140D03*
D11*
X118900000Y-115700000D03*
X118900000Y-118600000D03*
D14*
X123250000Y-136500000D03*
X119500000Y-136500000D03*
D15*
X126275000Y-140525000D03*
D16*
X126275000Y-143065000D03*
X123735000Y-140525000D03*
X123735000Y-143065000D03*
X121195000Y-140525000D03*
X121195000Y-143065000D03*
X118655000Y-140525000D03*
X118655000Y-143065000D03*
X116115000Y-140525000D03*
X116115000Y-143065000D03*
D17*
X122950000Y-133500000D03*
X120050000Y-133500000D03*
D18*
X118450000Y-121755000D03*
X118450000Y-123025000D03*
X118450000Y-124295000D03*
X118450000Y-125565000D03*
X118450000Y-126835000D03*
X118450000Y-128105000D03*
X118450000Y-129375000D03*
X118450000Y-130645000D03*
X123850000Y-130645000D03*
X123850000Y-129375000D03*
X123850000Y-128105000D03*
X123850000Y-126835000D03*
X123850000Y-125565000D03*
X123850000Y-124295000D03*
X123850000Y-123025000D03*
X123850000Y-121755000D03*
M02*
