G04 #@! TF.FileFunction,Copper,L1,Top,Signal*
%FSLAX46Y46*%
G04 Gerber Fmt 4.6, Leading zero omitted, Abs format (unit mm)*
G04 Created by KiCad (PCBNEW (2015-06-09 BZR 5726)-product) date Sun 21 Jun 2015 01:22:40 AM PDT*
%MOMM*%
G01*
G04 APERTURE LIST*
%ADD10C,0.100000*%
%ADD11C,2.499360*%
%ADD12R,1.000000X0.800000*%
%ADD13C,1.250000*%
%ADD14R,1.550000X0.600000*%
%ADD15R,1.000000X1.600000*%
%ADD16R,1.700000X0.900000*%
%ADD17R,2.032000X1.727200*%
%ADD18O,2.032000X1.727200*%
%ADD19R,0.900000X1.700000*%
%ADD20R,4.200000X3.200000*%
%ADD21C,0.600000*%
%ADD22C,0.250000*%
%ADD23C,0.254000*%
G04 APERTURE END LIST*
D10*
D11*
X153500000Y-132500000D03*
D12*
X144350000Y-152050000D03*
X144350000Y-150050000D03*
X150050000Y-151950000D03*
X150050000Y-149950000D03*
D13*
X147000000Y-106750000D03*
X147000000Y-113250000D03*
D14*
X144800000Y-128555000D03*
X144800000Y-129825000D03*
X144800000Y-131095000D03*
X144800000Y-132365000D03*
X144800000Y-133635000D03*
X144800000Y-134905000D03*
X144800000Y-136175000D03*
X144800000Y-137445000D03*
X150200000Y-137445000D03*
X150200000Y-136175000D03*
X150200000Y-134905000D03*
X150200000Y-133635000D03*
X150200000Y-132365000D03*
X150200000Y-131095000D03*
X150200000Y-129825000D03*
X150200000Y-128555000D03*
D15*
X142000000Y-118500000D03*
X139000000Y-118500000D03*
X142000000Y-123000000D03*
X139000000Y-123000000D03*
X146000000Y-122900000D03*
X149000000Y-122900000D03*
D16*
X152500000Y-143950000D03*
X152500000Y-141050000D03*
X140500000Y-143950000D03*
X140500000Y-141050000D03*
X148500000Y-141050000D03*
X148500000Y-143950000D03*
X144500000Y-143950000D03*
X144500000Y-141050000D03*
X153900000Y-121050000D03*
X153900000Y-118150000D03*
D11*
X153500000Y-137000000D03*
D17*
X140500000Y-136500000D03*
D18*
X140500000Y-133960000D03*
X140500000Y-131420000D03*
X140500000Y-128880000D03*
D19*
X148950000Y-118500000D03*
X146050000Y-118500000D03*
D16*
X154000000Y-127650000D03*
X154000000Y-124750000D03*
D20*
X147100000Y-71350000D03*
X147100000Y-100650000D03*
D21*
X146200000Y-133600000D03*
X148500000Y-139600000D03*
X153900000Y-117000000D03*
X154000000Y-123600000D03*
X143100000Y-132400000D03*
X144500000Y-139800000D03*
X144300000Y-153100000D03*
X150100000Y-153100000D03*
X140500000Y-121000000D03*
X147100000Y-96200000D03*
X144800000Y-127600000D03*
X144800000Y-116500000D03*
D22*
X148500000Y-141050000D02*
X148500000Y-139600000D01*
X146200000Y-133635000D02*
X146235000Y-133635000D01*
X146200000Y-133600000D02*
X146200000Y-133635000D01*
X144800000Y-133635000D02*
X146235000Y-133635000D01*
X142000000Y-118500000D02*
X142000000Y-116900000D01*
X143000000Y-75450000D02*
X147100000Y-71350000D01*
X143000000Y-115900000D02*
X143000000Y-75450000D01*
X142000000Y-116900000D02*
X143000000Y-115900000D01*
X142000000Y-118500000D02*
X146050000Y-118500000D01*
X142000000Y-123000000D02*
X142000000Y-118500000D01*
X140500000Y-128880000D02*
X140500000Y-127300000D01*
X140500000Y-127300000D02*
X140500000Y-126700000D01*
X142000000Y-125200000D02*
X142000000Y-123000000D01*
X140500000Y-126700000D02*
X142000000Y-125200000D01*
X141038602Y-126761398D02*
X140500000Y-127300000D01*
X146235000Y-133635000D02*
X146235000Y-128109998D01*
X146235000Y-128109998D02*
X144886400Y-126761398D01*
X144886400Y-126761398D02*
X141038602Y-126761398D01*
X153900000Y-118150000D02*
X153900000Y-117000000D01*
X154000000Y-124750000D02*
X154000000Y-123600000D01*
X143100000Y-132400000D02*
X142120000Y-131420000D01*
X142120000Y-131420000D02*
X140500000Y-131420000D01*
X143100000Y-132400000D02*
X144765000Y-132400000D01*
X144765000Y-132400000D02*
X144800000Y-132365000D01*
X144500000Y-141050000D02*
X144500000Y-139800000D01*
X144350000Y-152050000D02*
X144300000Y-152100000D01*
X144300000Y-152100000D02*
X144300000Y-153100000D01*
X150100000Y-153100000D02*
X150100000Y-152000000D01*
X150100000Y-152000000D02*
X150050000Y-151950000D01*
X140500000Y-121000000D02*
X140450000Y-120950000D01*
X140450000Y-120950000D02*
X140500000Y-121000000D01*
X139000000Y-118500000D02*
X139000000Y-119500000D01*
X139000000Y-119500000D02*
X140500000Y-121000000D01*
X140500000Y-121000000D02*
X139000000Y-122500000D01*
X139000000Y-122500000D02*
X139000000Y-123000000D01*
X147100000Y-100650000D02*
X147100000Y-96200000D01*
X150200000Y-128555000D02*
X150200000Y-127800000D01*
X146000000Y-125400000D02*
X146000000Y-122900000D01*
X147400000Y-126800000D02*
X146000000Y-125400000D01*
X149200000Y-126800000D02*
X147400000Y-126800000D01*
X150200000Y-127800000D02*
X149200000Y-126800000D01*
X149000000Y-122900000D02*
X149700000Y-122900000D01*
X150400000Y-110150000D02*
X147000000Y-106750000D01*
X150400000Y-122200000D02*
X150400000Y-110150000D01*
X149700000Y-122900000D02*
X150400000Y-122200000D01*
X153500000Y-132500000D02*
X152100000Y-131100000D01*
X152100000Y-122850000D02*
X153900000Y-121050000D01*
X152100000Y-123400000D02*
X152100000Y-122850000D01*
X152100000Y-131100000D02*
X152100000Y-123400000D01*
X153500000Y-132500000D02*
X153500000Y-133000000D01*
X153500000Y-133000000D02*
X151595000Y-134905000D01*
X151595000Y-134905000D02*
X150200000Y-134905000D01*
X144350000Y-150050000D02*
X140500000Y-146200000D01*
X140500000Y-146200000D02*
X140500000Y-143950000D01*
X152500000Y-143950000D02*
X152500000Y-147500000D01*
X152500000Y-147500000D02*
X150050000Y-149950000D01*
X148500000Y-143950000D02*
X150050000Y-143950000D01*
X148800000Y-133000000D02*
X149435000Y-132365000D01*
X148800000Y-138300000D02*
X148800000Y-133000000D01*
X150400000Y-139900000D02*
X148800000Y-138300000D01*
X150400000Y-143600000D02*
X150400000Y-139900000D01*
X150050000Y-143950000D02*
X150400000Y-143600000D01*
X149435000Y-132365000D02*
X150200000Y-132365000D01*
X148500000Y-143950000D02*
X144500000Y-143950000D01*
X144800000Y-128555000D02*
X144800000Y-127600000D01*
X144800000Y-115450000D02*
X147000000Y-113250000D01*
X144800000Y-116500000D02*
X144800000Y-115450000D01*
X144800000Y-128005000D02*
X145146796Y-127658204D01*
X144800000Y-128555000D02*
X144800000Y-128005000D01*
X145146796Y-127658204D02*
X144700000Y-127211408D01*
X152500000Y-141050000D02*
X152500000Y-139745000D01*
X152500000Y-139745000D02*
X150200000Y-137445000D01*
X140500000Y-141050000D02*
X144105000Y-137445000D01*
X144105000Y-137445000D02*
X144800000Y-137445000D01*
X153500000Y-137000000D02*
X155800000Y-134700000D01*
X155800000Y-129450000D02*
X154000000Y-127650000D01*
X155800000Y-130200000D02*
X155800000Y-129450000D01*
X155800000Y-134700000D02*
X155800000Y-130200000D01*
X153500000Y-137000000D02*
X152675000Y-136175000D01*
X152675000Y-136175000D02*
X150200000Y-136175000D01*
X140500000Y-136500000D02*
X140825000Y-136175000D01*
X140825000Y-136175000D02*
X144800000Y-136175000D01*
X144800000Y-134905000D02*
X146395000Y-134905000D01*
X148950000Y-119950000D02*
X148950000Y-118500000D01*
X148700000Y-120200000D02*
X148950000Y-119950000D01*
X145800000Y-120200000D02*
X148700000Y-120200000D01*
X144500000Y-121500000D02*
X145800000Y-120200000D01*
X144500000Y-125100000D02*
X144500000Y-121500000D01*
X147500000Y-128100000D02*
X144500000Y-125100000D01*
X147500000Y-133800000D02*
X147500000Y-128100000D01*
X146395000Y-134905000D02*
X147500000Y-133800000D01*
X140500000Y-133960000D02*
X142060000Y-133960000D01*
X143005000Y-134905000D02*
X144800000Y-134905000D01*
X142060000Y-133960000D02*
X143005000Y-134905000D01*
D23*
G36*
X146223000Y-155423000D02*
X145485000Y-155423000D01*
X145485000Y-152576309D01*
X145485000Y-152335750D01*
X145326250Y-152177000D01*
X144477000Y-152177000D01*
X144477000Y-152926250D01*
X144635750Y-153085000D01*
X144723691Y-153085000D01*
X144976310Y-153085000D01*
X145209699Y-152988327D01*
X145388327Y-152809698D01*
X145485000Y-152576309D01*
X145485000Y-155423000D01*
X144223000Y-155423000D01*
X144223000Y-152926250D01*
X144223000Y-152177000D01*
X143373750Y-152177000D01*
X143215000Y-152335750D01*
X143215000Y-152576309D01*
X143311673Y-152809698D01*
X143490301Y-152988327D01*
X143723690Y-153085000D01*
X143976309Y-153085000D01*
X144064250Y-153085000D01*
X144223000Y-152926250D01*
X144223000Y-155423000D01*
X142477000Y-155423000D01*
X142477000Y-151677000D01*
X143215000Y-151677000D01*
X143215000Y-151764250D01*
X143373750Y-151923000D01*
X144223000Y-151923000D01*
X144223000Y-151903000D01*
X144477000Y-151903000D01*
X144477000Y-151923000D01*
X145326250Y-151923000D01*
X145485000Y-151764250D01*
X145485000Y-151677000D01*
X146223000Y-151677000D01*
X146223000Y-155423000D01*
X146223000Y-155423000D01*
G37*
X146223000Y-155423000D02*
X145485000Y-155423000D01*
X145485000Y-152576309D01*
X145485000Y-152335750D01*
X145326250Y-152177000D01*
X144477000Y-152177000D01*
X144477000Y-152926250D01*
X144635750Y-153085000D01*
X144723691Y-153085000D01*
X144976310Y-153085000D01*
X145209699Y-152988327D01*
X145388327Y-152809698D01*
X145485000Y-152576309D01*
X145485000Y-155423000D01*
X144223000Y-155423000D01*
X144223000Y-152926250D01*
X144223000Y-152177000D01*
X143373750Y-152177000D01*
X143215000Y-152335750D01*
X143215000Y-152576309D01*
X143311673Y-152809698D01*
X143490301Y-152988327D01*
X143723690Y-153085000D01*
X143976309Y-153085000D01*
X144064250Y-153085000D01*
X144223000Y-152926250D01*
X144223000Y-155423000D01*
X142477000Y-155423000D01*
X142477000Y-151677000D01*
X143215000Y-151677000D01*
X143215000Y-151764250D01*
X143373750Y-151923000D01*
X144223000Y-151923000D01*
X144223000Y-151903000D01*
X144477000Y-151903000D01*
X144477000Y-151923000D01*
X145326250Y-151923000D01*
X145485000Y-151764250D01*
X145485000Y-151677000D01*
X146223000Y-151677000D01*
X146223000Y-155423000D01*
G36*
X146223000Y-150323000D02*
X145485000Y-150323000D01*
X145485000Y-149764250D01*
X145485000Y-149523691D01*
X145388327Y-149290302D01*
X145209699Y-149111673D01*
X144976310Y-149015000D01*
X144723691Y-149015000D01*
X144635750Y-149015000D01*
X144477000Y-149173750D01*
X144477000Y-149923000D01*
X145326250Y-149923000D01*
X145485000Y-149764250D01*
X145485000Y-150323000D01*
X145472250Y-150323000D01*
X145326250Y-150177000D01*
X144477000Y-150177000D01*
X144477000Y-150197000D01*
X144223000Y-150197000D01*
X144223000Y-150177000D01*
X144223000Y-149923000D01*
X144223000Y-149173750D01*
X144064250Y-149015000D01*
X143976309Y-149015000D01*
X143723690Y-149015000D01*
X143490301Y-149111673D01*
X143311673Y-149290302D01*
X143215000Y-149523691D01*
X143215000Y-149764250D01*
X143373750Y-149923000D01*
X144223000Y-149923000D01*
X144223000Y-150177000D01*
X143373750Y-150177000D01*
X143227750Y-150323000D01*
X142477000Y-150323000D01*
X142477000Y-146577000D01*
X146223000Y-146577000D01*
X146223000Y-150323000D01*
X146223000Y-150323000D01*
G37*
X146223000Y-150323000D02*
X145485000Y-150323000D01*
X145485000Y-149764250D01*
X145485000Y-149523691D01*
X145388327Y-149290302D01*
X145209699Y-149111673D01*
X144976310Y-149015000D01*
X144723691Y-149015000D01*
X144635750Y-149015000D01*
X144477000Y-149173750D01*
X144477000Y-149923000D01*
X145326250Y-149923000D01*
X145485000Y-149764250D01*
X145485000Y-150323000D01*
X145472250Y-150323000D01*
X145326250Y-150177000D01*
X144477000Y-150177000D01*
X144477000Y-150197000D01*
X144223000Y-150197000D01*
X144223000Y-150177000D01*
X144223000Y-149923000D01*
X144223000Y-149173750D01*
X144064250Y-149015000D01*
X143976309Y-149015000D01*
X143723690Y-149015000D01*
X143490301Y-149111673D01*
X143311673Y-149290302D01*
X143215000Y-149523691D01*
X143215000Y-149764250D01*
X143373750Y-149923000D01*
X144223000Y-149923000D01*
X144223000Y-150177000D01*
X143373750Y-150177000D01*
X143227750Y-150323000D01*
X142477000Y-150323000D01*
X142477000Y-146577000D01*
X146223000Y-146577000D01*
X146223000Y-150323000D01*
G36*
X151923000Y-155323000D02*
X151185000Y-155323000D01*
X151185000Y-152476309D01*
X151185000Y-152235750D01*
X151026250Y-152077000D01*
X150177000Y-152077000D01*
X150177000Y-152826250D01*
X150335750Y-152985000D01*
X150423691Y-152985000D01*
X150676310Y-152985000D01*
X150909699Y-152888327D01*
X151088327Y-152709698D01*
X151185000Y-152476309D01*
X151185000Y-155323000D01*
X149923000Y-155323000D01*
X149923000Y-152826250D01*
X149923000Y-152077000D01*
X149073750Y-152077000D01*
X148915000Y-152235750D01*
X148915000Y-152476309D01*
X149011673Y-152709698D01*
X149190301Y-152888327D01*
X149423690Y-152985000D01*
X149676309Y-152985000D01*
X149764250Y-152985000D01*
X149923000Y-152826250D01*
X149923000Y-155323000D01*
X148177000Y-155323000D01*
X148177000Y-151577000D01*
X148915000Y-151577000D01*
X148915000Y-151664250D01*
X149073750Y-151823000D01*
X149923000Y-151823000D01*
X149923000Y-151803000D01*
X150177000Y-151803000D01*
X150177000Y-151823000D01*
X151026250Y-151823000D01*
X151185000Y-151664250D01*
X151185000Y-151577000D01*
X151923000Y-151577000D01*
X151923000Y-155323000D01*
X151923000Y-155323000D01*
G37*
X151923000Y-155323000D02*
X151185000Y-155323000D01*
X151185000Y-152476309D01*
X151185000Y-152235750D01*
X151026250Y-152077000D01*
X150177000Y-152077000D01*
X150177000Y-152826250D01*
X150335750Y-152985000D01*
X150423691Y-152985000D01*
X150676310Y-152985000D01*
X150909699Y-152888327D01*
X151088327Y-152709698D01*
X151185000Y-152476309D01*
X151185000Y-155323000D01*
X149923000Y-155323000D01*
X149923000Y-152826250D01*
X149923000Y-152077000D01*
X149073750Y-152077000D01*
X148915000Y-152235750D01*
X148915000Y-152476309D01*
X149011673Y-152709698D01*
X149190301Y-152888327D01*
X149423690Y-152985000D01*
X149676309Y-152985000D01*
X149764250Y-152985000D01*
X149923000Y-152826250D01*
X149923000Y-155323000D01*
X148177000Y-155323000D01*
X148177000Y-151577000D01*
X148915000Y-151577000D01*
X148915000Y-151664250D01*
X149073750Y-151823000D01*
X149923000Y-151823000D01*
X149923000Y-151803000D01*
X150177000Y-151803000D01*
X150177000Y-151823000D01*
X151026250Y-151823000D01*
X151185000Y-151664250D01*
X151185000Y-151577000D01*
X151923000Y-151577000D01*
X151923000Y-155323000D01*
G36*
X151923000Y-150323000D02*
X151185000Y-150323000D01*
X151185000Y-150235750D01*
X151185000Y-149664250D01*
X151185000Y-149423691D01*
X151088327Y-149190302D01*
X150909699Y-149011673D01*
X150676310Y-148915000D01*
X150423691Y-148915000D01*
X150335750Y-148915000D01*
X150177000Y-149073750D01*
X150177000Y-149823000D01*
X151026250Y-149823000D01*
X151185000Y-149664250D01*
X151185000Y-150235750D01*
X151026250Y-150077000D01*
X150177000Y-150077000D01*
X150177000Y-150097000D01*
X149923000Y-150097000D01*
X149923000Y-150077000D01*
X149923000Y-149823000D01*
X149923000Y-149073750D01*
X149764250Y-148915000D01*
X149676309Y-148915000D01*
X149423690Y-148915000D01*
X149190301Y-149011673D01*
X149011673Y-149190302D01*
X148915000Y-149423691D01*
X148915000Y-149664250D01*
X149073750Y-149823000D01*
X149923000Y-149823000D01*
X149923000Y-150077000D01*
X149073750Y-150077000D01*
X148915000Y-150235750D01*
X148915000Y-150323000D01*
X148177000Y-150323000D01*
X148177000Y-146577000D01*
X151923000Y-146577000D01*
X151923000Y-150323000D01*
X151923000Y-150323000D01*
G37*
X151923000Y-150323000D02*
X151185000Y-150323000D01*
X151185000Y-150235750D01*
X151185000Y-149664250D01*
X151185000Y-149423691D01*
X151088327Y-149190302D01*
X150909699Y-149011673D01*
X150676310Y-148915000D01*
X150423691Y-148915000D01*
X150335750Y-148915000D01*
X150177000Y-149073750D01*
X150177000Y-149823000D01*
X151026250Y-149823000D01*
X151185000Y-149664250D01*
X151185000Y-150235750D01*
X151026250Y-150077000D01*
X150177000Y-150077000D01*
X150177000Y-150097000D01*
X149923000Y-150097000D01*
X149923000Y-150077000D01*
X149923000Y-149823000D01*
X149923000Y-149073750D01*
X149764250Y-148915000D01*
X149676309Y-148915000D01*
X149423690Y-148915000D01*
X149190301Y-149011673D01*
X149011673Y-149190302D01*
X148915000Y-149423691D01*
X148915000Y-149664250D01*
X149073750Y-149823000D01*
X149923000Y-149823000D01*
X149923000Y-150077000D01*
X149073750Y-150077000D01*
X148915000Y-150235750D01*
X148915000Y-150323000D01*
X148177000Y-150323000D01*
X148177000Y-146577000D01*
X151923000Y-146577000D01*
X151923000Y-150323000D01*
M02*
