  0
SECTION
  2
HEADER
  9
$ANGBASE
  50
0.0
  9
$ANGDIR
  70
  1
  9
$MEASUREMENT
  70
0
  0
ENDSEC
  0
SECTION
  2
TABLES
  0
TABLE
  2
LTYPE
  70
1
  0
LTYPE
  2
CONTINUOUS
  70
0
  3
Solid line
  72
65
  73
0
  40
0.0
  0
ENDTAB
  0
TABLE
  2
STYLE
  70
4
  0
STYLE
  2
KICAD
  70
0
  40
0
  41
1
  42
1
  50
0
  71
0
  3
isocp.shx
  0
STYLE
  2
KICADB
  70
0
  40
0
  41
1
  42
1
  50
0
  71
0
  3
isocp.shx
  0
STYLE
  2
KICADI
  70
0
  40
0
  41
1
  42
1
  50
15
  71
0
  3
isocp.shx
  0
STYLE
  2
KICADBI
  70
0
  40
0
  41
1
  42
1
  50
15
  71
0
  3
isocp.shx
  0
ENDTAB
  0
TABLE
  2
LAYER
  70
30
  0
LAYER
  2
BLACK
  70
0
  62
7
  6
CONTINUOUS
  0
LAYER
  2
GRAY1
  70
0
  62
251
  6
CONTINUOUS
  0
LAYER
  2
GRAY2
  70
0
  62
8
  6
CONTINUOUS
  0
LAYER
  2
GRAY3
  70
0
  62
9
  6
CONTINUOUS
  0
LAYER
  2
WHITE
  70
0
  62
7
  6
CONTINUOUS
  0
LAYER
  2
LYELLOW
  70
0
  62
51
  6
CONTINUOUS
  0
LAYER
  2
BLUE1
  70
0
  62
178
  6
CONTINUOUS
  0
LAYER
  2
GREEN1
  70
0
  62
98
  6
CONTINUOUS
  0
LAYER
  2
CYAN1
  70
0
  62
138
  6
CONTINUOUS
  0
LAYER
  2
RED1
  70
0
  62
18
  6
CONTINUOUS
  0
LAYER
  2
MAGENTA1
  70
0
  62
228
  6
CONTINUOUS
  0
LAYER
  2
BROWN1
  70
0
  62
58
  6
CONTINUOUS
  0
LAYER
  2
BLUE2
  70
0
  62
5
  6
CONTINUOUS
  0
LAYER
  2
GREEN2
  70
0
  62
3
  6
CONTINUOUS
  0
LAYER
  2
CYAN2
  70
0
  62
4
  6
CONTINUOUS
  0
LAYER
  2
RED2
  70
0
  62
1
  6
CONTINUOUS
  0
LAYER
  2
MAGENTA2
  70
0
  62
6
  6
CONTINUOUS
  0
LAYER
  2
BROWN2
  70
0
  62
54
  6
CONTINUOUS
  0
LAYER
  2
BLUE3
  70
0
  62
171
  6
CONTINUOUS
  0
LAYER
  2
GREEN3
  70
0
  62
91
  6
CONTINUOUS
  0
LAYER
  2
CYAN3
  70
0
  62
131
  6
CONTINUOUS
  0
LAYER
  2
RED3
  70
0
  62
11
  6
CONTINUOUS
  0
LAYER
  2
MAGENTA3
  70
0
  62
221
  6
CONTINUOUS
  0
LAYER
  2
YELLOW3
  70
0
  62
2
  6
CONTINUOUS
  0
LAYER
  2
BLUE4
  70
0
  62
5
  6
CONTINUOUS
  0
LAYER
  2
GREEN4
  70
0
  62
3
  6
CONTINUOUS
  0
LAYER
  2
CYAN4
  70
0
  62
4
  6
CONTINUOUS
  0
LAYER
  2
RED4
  70
0
  62
1
  6
CONTINUOUS
  0
LAYER
  2
MAGENTA4
  70
0
  62
6
  6
CONTINUOUS
  0
LAYER
  2
YELLOW4
  70
0
  62
2
  6
CONTINUOUS
  0
ENDTAB
  0
ENDSEC
  0
SECTION
  2
ENTITIES
0
LINE
8
Black
10
115.55
20
-143.5
11
115.55
21
-137.5
0
LINE
8
Black
10
115.45
20
-143.5
11
115.45
21
-137.5
0
ARC
8
Black
10
115.5
20
-137.5
40
0.05
50
360
51
540
0
ARC
8
Black
10
115.5
20
-143.5
40
0.05
50
180
51
360
0
LINE
8
Black
10
115.5
20
-143.55
11
126.5
21
-143.55
0
LINE
8
Black
10
115.5
20
-143.45
11
126.5
21
-143.45
0
ARC
8
Black
10
126.5
20
-143.5
40
0.05
50
270
51
450
0
ARC
8
Black
10
115.5
20
-143.5
40
0.05
50
90
51
270
0
LINE
8
Black
10
126.55
20
-143.5
11
126.55
21
-137.5
0
LINE
8
Black
10
126.45
20
-143.5
11
126.45
21
-137.5
0
ARC
8
Black
10
126.5
20
-137.5
40
0.05
50
360
51
540
0
ARC
8
Black
10
126.5
20
-143.5
40
0.05
50
180
51
360
0
LINE
8
Black
10
126.55
20
-137.5
11
126.55
21
-99.75
0
LINE
8
Black
10
126.45
20
-137.5
11
126.45
21
-99.75
0
ARC
8
Black
10
126.5
20
-99.75
40
0.05
50
360
51
540
0
ARC
8
Black
10
126.5
20
-137.5
40
0.05
50
180
51
360
0
LINE
8
Black
10
115.55
20
-137.5
11
115.55
21
-99.75
0
LINE
8
Black
10
115.45
20
-137.5
11
115.45
21
-99.75
0
ARC
8
Black
10
115.5
20
-99.75
40
0.05
50
360
51
540
0
ARC
8
Black
10
115.5
20
-137.5
40
0.05
50
180
51
360
0
LINE
8
Black
10
115.5
20
-99.8
11
126.5
21
-99.8
0
LINE
8
Black
10
115.5
20
-99.7
11
126.5
21
-99.7
0
ARC
8
Black
10
126.5
20
-99.75
40
0.05
50
270
51
450
0
ARC
8
Black
10
115.5
20
-99.75
40
0.05
50
90
51
270
0
LINE
8
Black
10
116.1
20
-138.6
11
116.5
21
-139
0
LINE
8
Black
10
116.5
20
-138.6
11
116.1
21
-139
0
LINE
8
Black
10
116.3
20
-112.55
11
116.7
21
-112.95
0
LINE
8
Black
10
116.7
20
-112.55
11
116.3
21
-112.95
0
LINE
8
Black
10
117
20
-139.7
11
117.4
21
-140.1
0
LINE
8
Black
10
117.4
20
-139.7
11
117
21
-140.1
0
LINE
8
Black
10
118.25
20
-125.365
11
118.65
21
-125.765
0
LINE
8
Black
10
118.65
20
-125.365
11
118.25
21
-125.765
0
LINE
8
Black
10
121.05
20
-122.8
11
121.45
21
-123.2
0
LINE
8
Black
10
121.45
20
-122.8
11
121.05
21
-123.2
0
CIRCLE
8
Black
10
117.65
20
-101.65
40
0.5
0
CIRCLE
8
Black
10
124.15
20
-101.65
40
0.5
0
LINE
8
Black
10
119.5
20
-136
11
119.5
21
-137
0
LINE
8
Black
10
119
20
-136.5
11
120
21
-136.5
0
LINE
8
Black
10
123.25
20
-136
11
123.25
21
-137
0
LINE
8
Black
10
122.75
20
-136.5
11
123.75
21
-136.5
0
LINE
8
Black
10
117.559
20
-141.959
11
117.559
21
-141.241
0
LINE
8
Black
10
117.559
20
-141.241
11
116.841
21
-141.241
0
LINE
8
Black
10
116.841
20
-141.241
11
116.841
21
-141.959
0
LINE
8
Black
10
116.841
20
-141.959
11
117.559
21
-141.959
0
LINE
8
Black
10
120.099
20
-141.959
11
120.099
21
-141.241
0
LINE
8
Black
10
120.099
20
-141.241
11
119.381
21
-141.241
0
LINE
8
Black
10
119.381
20
-141.241
11
119.381
21
-141.959
0
LINE
8
Black
10
119.381
20
-141.959
11
120.099
21
-141.959
0
LINE
8
Black
10
122.639
20
-141.959
11
122.639
21
-141.241
0
LINE
8
Black
10
122.639
20
-141.241
11
121.921
21
-141.241
0
LINE
8
Black
10
121.921
20
-141.241
11
121.921
21
-141.959
0
LINE
8
Black
10
121.921
20
-141.959
11
122.639
21
-141.959
0
LINE
8
Black
10
125.179
20
-141.959
11
125.179
21
-141.241
0
LINE
8
Black
10
125.179
20
-141.241
11
124.461
21
-141.241
0
LINE
8
Black
10
124.461
20
-141.241
11
124.461
21
-141.959
0
LINE
8
Black
10
124.461
20
-141.959
11
125.179
21
-141.959
0
LINE
8
Black
10
118.164
20
-148.207
11
118.164
21
-145.207
0
LINE
8
Black
10
118.164
20
-145.207
11
118.879
21
-145.207
0
LINE
8
Black
10
118.879
20
-145.207
11
119.307
21
-145.35
0
LINE
8
Black
10
119.307
20
-145.35
11
119.593
21
-145.636
0
LINE
8
Black
10
119.593
20
-145.636
11
119.736
21
-145.921
0
LINE
8
Black
10
119.736
20
-145.921
11
119.879
21
-146.493
0
LINE
8
Black
10
119.879
20
-146.493
11
119.879
21
-146.921
0
LINE
8
Black
10
119.879
20
-146.921
11
119.736
21
-147.493
0
LINE
8
Black
10
119.736
20
-147.493
11
119.593
21
-147.779
0
LINE
8
Black
10
119.593
20
-147.779
11
119.307
21
-148.064
0
LINE
8
Black
10
119.307
20
-148.064
11
118.879
21
-148.207
0
LINE
8
Black
10
118.879
20
-148.207
11
118.164
21
-148.207
0
LINE
8
Black
10
121.164
20
-148.207
11
121.164
21
-146.207
0
LINE
8
Black
10
121.164
20
-146.779
11
121.307
21
-146.493
0
LINE
8
Black
10
121.307
20
-146.493
11
121.45
21
-146.35
0
LINE
8
Black
10
121.45
20
-146.35
11
121.736
21
-146.207
0
LINE
8
Black
10
121.736
20
-146.207
11
122.021
21
-146.207
0
LINE
8
Black
10
123.021
20
-148.207
11
123.021
21
-146.207
0
LINE
8
Black
10
123.021
20
-145.207
11
122.879
21
-145.35
0
LINE
8
Black
10
122.879
20
-145.35
11
123.021
21
-145.493
0
LINE
8
Black
10
123.021
20
-145.493
11
123.164
21
-145.35
0
LINE
8
Black
10
123.164
20
-145.35
11
123.021
21
-145.207
0
LINE
8
Black
10
123.021
20
-145.207
11
123.021
21
-145.493
0
LINE
8
Black
10
124.879
20
-148.207
11
124.593
21
-148.064
0
LINE
8
Black
10
124.593
20
-148.064
11
124.45
21
-147.779
0
LINE
8
Black
10
124.45
20
-147.779
11
124.45
21
-145.207
0
LINE
8
Black
10
126.45
20
-148.207
11
126.164
21
-148.064
0
LINE
8
Black
10
126.164
20
-148.064
11
126.021
21
-147.779
0
LINE
8
Black
10
126.021
20
-147.779
11
126.021
21
-145.207
0
LINE
8
Black
10
129.879
20
-148.207
11
129.879
21
-145.207
0
LINE
8
Black
10
129.879
20
-145.207
11
130.879
21
-147.35
0
LINE
8
Black
10
130.879
20
-147.35
11
131.879
21
-145.207
0
LINE
8
Black
10
131.879
20
-145.207
11
131.879
21
-148.207
0
LINE
8
Black
10
134.593
20
-148.207
11
134.593
21
-146.636
0
LINE
8
Black
10
134.593
20
-146.636
11
134.45
21
-146.35
0
LINE
8
Black
10
134.45
20
-146.35
11
134.164
21
-146.207
0
LINE
8
Black
10
134.164
20
-146.207
11
133.593
21
-146.207
0
LINE
8
Black
10
133.593
20
-146.207
11
133.307
21
-146.35
0
LINE
8
Black
10
134.593
20
-148.064
11
134.307
21
-148.207
0
LINE
8
Black
10
134.307
20
-148.207
11
133.593
21
-148.207
0
LINE
8
Black
10
133.593
20
-148.207
11
133.307
21
-148.064
0
LINE
8
Black
10
133.307
20
-148.064
11
133.164
21
-147.779
0
LINE
8
Black
10
133.164
20
-147.779
11
133.164
21
-147.493
0
LINE
8
Black
10
133.164
20
-147.493
11
133.307
21
-147.207
0
LINE
8
Black
10
133.307
20
-147.207
11
133.593
21
-147.064
0
LINE
8
Black
10
133.593
20
-147.064
11
134.307
21
-147.064
0
LINE
8
Black
10
134.307
20
-147.064
11
134.593
21
-146.921
0
LINE
8
Black
10
136.021
20
-146.207
11
136.021
21
-149.207
0
LINE
8
Black
10
136.021
20
-146.35
11
136.307
21
-146.207
0
LINE
8
Black
10
136.307
20
-146.207
11
136.879
21
-146.207
0
LINE
8
Black
10
136.879
20
-146.207
11
137.164
21
-146.35
0
LINE
8
Black
10
137.164
20
-146.35
11
137.307
21
-146.493
0
LINE
8
Black
10
137.307
20
-146.493
11
137.45
21
-146.779
0
LINE
8
Black
10
137.45
20
-146.779
11
137.45
21
-147.636
0
LINE
8
Black
10
137.45
20
-147.636
11
137.307
21
-147.921
0
LINE
8
Black
10
137.307
20
-147.921
11
137.164
21
-148.064
0
LINE
8
Black
10
137.164
20
-148.064
11
136.879
21
-148.207
0
LINE
8
Black
10
136.879
20
-148.207
11
136.307
21
-148.207
0
LINE
8
Black
10
136.307
20
-148.207
11
136.021
21
-148.064
0
LINE
8
Black
10
138.736
20
-147.921
11
138.879
21
-148.064
0
LINE
8
Black
10
138.879
20
-148.064
11
138.736
21
-148.207
0
LINE
8
Black
10
138.736
20
-148.207
11
138.593
21
-148.064
0
LINE
8
Black
10
138.593
20
-148.064
11
138.736
21
-147.921
0
LINE
8
Black
10
138.736
20
-147.921
11
138.736
21
-148.207
0
LINE
8
Black
10
138.736
20
-146.35
11
138.879
21
-146.493
0
LINE
8
Black
10
138.879
20
-146.493
11
138.736
21
-146.636
0
LINE
8
Black
10
138.736
20
-146.636
11
138.593
21
-146.493
0
LINE
8
Black
10
138.593
20
-146.493
11
138.736
21
-146.35
0
LINE
8
Black
10
138.736
20
-146.35
11
138.736
21
-146.636
0
LINE
8
Black
10
115.05
20
-152.95
11
115.45
21
-153.35
0
LINE
8
Black
10
115.45
20
-152.95
11
115.05
21
-153.35
0
LINE
8
Black
10
118.736
20
-151.507
11
119.021
21
-151.507
0
LINE
8
Black
10
119.021
20
-151.507
11
119.307
21
-151.65
0
LINE
8
Black
10
119.307
20
-151.65
11
119.45
21
-151.793
0
LINE
8
Black
10
119.45
20
-151.793
11
119.593
21
-152.079
0
LINE
8
Black
10
119.593
20
-152.079
11
119.736
21
-152.65
0
LINE
8
Black
10
119.736
20
-152.65
11
119.736
21
-153.364
0
LINE
8
Black
10
119.736
20
-153.364
11
119.593
21
-153.936
0
LINE
8
Black
10
119.593
20
-153.936
11
119.45
21
-154.221
0
LINE
8
Black
10
119.45
20
-154.221
11
119.307
21
-154.364
0
LINE
8
Black
10
119.307
20
-154.364
11
119.021
21
-154.507
0
LINE
8
Black
10
119.021
20
-154.507
11
118.736
21
-154.507
0
LINE
8
Black
10
118.736
20
-154.507
11
118.45
21
-154.364
0
LINE
8
Black
10
118.45
20
-154.364
11
118.307
21
-154.221
0
LINE
8
Black
10
118.307
20
-154.221
11
118.164
21
-153.936
0
LINE
8
Black
10
118.164
20
-153.936
11
118.021
21
-153.364
0
LINE
8
Black
10
118.021
20
-153.364
11
118.021
21
-152.65
0
LINE
8
Black
10
118.021
20
-152.65
11
118.164
21
-152.079
0
LINE
8
Black
10
118.164
20
-152.079
11
118.307
21
-151.793
0
LINE
8
Black
10
118.307
20
-151.793
11
118.45
21
-151.65
0
LINE
8
Black
10
118.45
20
-151.65
11
118.736
21
-151.507
0
LINE
8
Black
10
121.021
20
-154.221
11
121.164
21
-154.364
0
LINE
8
Black
10
121.164
20
-154.364
11
121.021
21
-154.507
0
LINE
8
Black
10
121.021
20
-154.507
11
120.879
21
-154.364
0
LINE
8
Black
10
120.879
20
-154.364
11
121.021
21
-154.221
0
LINE
8
Black
10
121.021
20
-154.221
11
121.021
21
-154.507
0
LINE
8
Black
10
123.736
20
-152.507
11
123.736
21
-154.507
0
LINE
8
Black
10
123.021
20
-151.364
11
122.307
21
-153.507
0
LINE
8
Black
10
122.307
20
-153.507
11
124.164
21
-153.507
0
LINE
8
Black
10
125.879
20
-151.507
11
126.164
21
-151.507
0
LINE
8
Black
10
126.164
20
-151.507
11
126.45
21
-151.65
0
LINE
8
Black
10
126.45
20
-151.65
11
126.593
21
-151.793
0
LINE
8
Black
10
126.593
20
-151.793
11
126.736
21
-152.079
0
LINE
8
Black
10
126.736
20
-152.079
11
126.879
21
-152.65
0
LINE
8
Black
10
126.879
20
-152.65
11
126.879
21
-153.364
0
LINE
8
Black
10
126.879
20
-153.364
11
126.736
21
-153.936
0
LINE
8
Black
10
126.736
20
-153.936
11
126.593
21
-154.221
0
LINE
8
Black
10
126.593
20
-154.221
11
126.45
21
-154.364
0
LINE
8
Black
10
126.45
20
-154.364
11
126.164
21
-154.507
0
LINE
8
Black
10
126.164
20
-154.507
11
125.879
21
-154.507
0
LINE
8
Black
10
125.879
20
-154.507
11
125.593
21
-154.364
0
LINE
8
Black
10
125.593
20
-154.364
11
125.45
21
-154.221
0
LINE
8
Black
10
125.45
20
-154.221
11
125.307
21
-153.936
0
LINE
8
Black
10
125.307
20
-153.936
11
125.164
21
-153.364
0
LINE
8
Black
10
125.164
20
-153.364
11
125.164
21
-152.65
0
LINE
8
Black
10
125.164
20
-152.65
11
125.307
21
-152.079
0
LINE
8
Black
10
125.307
20
-152.079
11
125.45
21
-151.793
0
LINE
8
Black
10
125.45
20
-151.793
11
125.593
21
-151.65
0
LINE
8
Black
10
125.593
20
-151.65
11
125.879
21
-151.507
0
LINE
8
Black
10
128.164
20
-154.507
11
128.164
21
-152.507
0
LINE
8
Black
10
128.164
20
-152.793
11
128.307
21
-152.65
0
LINE
8
Black
10
128.307
20
-152.65
11
128.593
21
-152.507
0
LINE
8
Black
10
128.593
20
-152.507
11
129.021
21
-152.507
0
LINE
8
Black
10
129.021
20
-152.507
11
129.307
21
-152.65
0
LINE
8
Black
10
129.307
20
-152.65
11
129.45
21
-152.936
0
LINE
8
Black
10
129.45
20
-152.936
11
129.45
21
-154.507
0
LINE
8
Black
10
129.45
20
-152.936
11
129.593
21
-152.65
0
LINE
8
Black
10
129.593
20
-152.65
11
129.879
21
-152.507
0
LINE
8
Black
10
129.879
20
-152.507
11
130.307
21
-152.507
0
LINE
8
Black
10
130.307
20
-152.507
11
130.593
21
-152.65
0
LINE
8
Black
10
130.593
20
-152.65
11
130.736
21
-152.936
0
LINE
8
Black
10
130.736
20
-152.936
11
130.736
21
-154.507
0
LINE
8
Black
10
132.164
20
-154.507
11
132.164
21
-152.507
0
LINE
8
Black
10
132.164
20
-152.793
11
132.307
21
-152.65
0
LINE
8
Black
10
132.307
20
-152.65
11
132.593
21
-152.507
0
LINE
8
Black
10
132.593
20
-152.507
11
133.021
21
-152.507
0
LINE
8
Black
10
133.021
20
-152.507
11
133.307
21
-152.65
0
LINE
8
Black
10
133.307
20
-152.65
11
133.45
21
-152.936
0
LINE
8
Black
10
133.45
20
-152.936
11
133.45
21
-154.507
0
LINE
8
Black
10
133.45
20
-152.936
11
133.593
21
-152.65
0
LINE
8
Black
10
133.593
20
-152.65
11
133.879
21
-152.507
0
LINE
8
Black
10
133.879
20
-152.507
11
134.307
21
-152.507
0
LINE
8
Black
10
134.307
20
-152.507
11
134.593
21
-152.65
0
LINE
8
Black
10
134.593
20
-152.65
11
134.736
21
-152.936
0
LINE
8
Black
10
134.736
20
-152.936
11
134.736
21
-154.507
0
LINE
8
Black
10
140.593
20
-151.364
11
138.021
21
-155.221
0
LINE
8
Black
10
144.45
20
-151.507
11
144.736
21
-151.507
0
LINE
8
Black
10
144.736
20
-151.507
11
145.021
21
-151.65
0
LINE
8
Black
10
145.021
20
-151.65
11
145.164
21
-151.793
0
LINE
8
Black
10
145.164
20
-151.793
11
145.307
21
-152.079
0
LINE
8
Black
10
145.307
20
-152.079
11
145.45
21
-152.65
0
LINE
8
Black
10
145.45
20
-152.65
11
145.45
21
-153.364
0
LINE
8
Black
10
145.45
20
-153.364
11
145.307
21
-153.936
0
LINE
8
Black
10
145.307
20
-153.936
11
145.164
21
-154.221
0
LINE
8
Black
10
145.164
20
-154.221
11
145.021
21
-154.364
0
LINE
8
Black
10
145.021
20
-154.364
11
144.736
21
-154.507
0
LINE
8
Black
10
144.736
20
-154.507
11
144.45
21
-154.507
0
LINE
8
Black
10
144.45
20
-154.507
11
144.164
21
-154.364
0
LINE
8
Black
10
144.164
20
-154.364
11
144.021
21
-154.221
0
LINE
8
Black
10
144.021
20
-154.221
11
143.879
21
-153.936
0
LINE
8
Black
10
143.879
20
-153.936
11
143.736
21
-153.364
0
LINE
8
Black
10
143.736
20
-153.364
11
143.736
21
-152.65
0
LINE
8
Black
10
143.736
20
-152.65
11
143.879
21
-152.079
0
LINE
8
Black
10
143.879
20
-152.079
11
144.021
21
-151.793
0
LINE
8
Black
10
144.021
20
-151.793
11
144.164
21
-151.65
0
LINE
8
Black
10
144.164
20
-151.65
11
144.45
21
-151.507
0
LINE
8
Black
10
146.736
20
-154.221
11
146.879
21
-154.364
0
LINE
8
Black
10
146.879
20
-154.364
11
146.736
21
-154.507
0
LINE
8
Black
10
146.736
20
-154.507
11
146.593
21
-154.364
0
LINE
8
Black
10
146.593
20
-154.364
11
146.736
21
-154.221
0
LINE
8
Black
10
146.736
20
-154.221
11
146.736
21
-154.507
0
LINE
8
Black
10
148.736
20
-151.507
11
149.021
21
-151.507
0
LINE
8
Black
10
149.021
20
-151.507
11
149.307
21
-151.65
0
LINE
8
Black
10
149.307
20
-151.65
11
149.45
21
-151.793
0
LINE
8
Black
10
149.45
20
-151.793
11
149.593
21
-152.079
0
LINE
8
Black
10
149.593
20
-152.079
11
149.736
21
-152.65
0
LINE
8
Black
10
149.736
20
-152.65
11
149.736
21
-153.364
0
LINE
8
Black
10
149.736
20
-153.364
11
149.593
21
-153.936
0
LINE
8
Black
10
149.593
20
-153.936
11
149.45
21
-154.221
0
LINE
8
Black
10
149.45
20
-154.221
11
149.307
21
-154.364
0
LINE
8
Black
10
149.307
20
-154.364
11
149.021
21
-154.507
0
LINE
8
Black
10
149.021
20
-154.507
11
148.736
21
-154.507
0
LINE
8
Black
10
148.736
20
-154.507
11
148.45
21
-154.364
0
LINE
8
Black
10
148.45
20
-154.364
11
148.307
21
-154.221
0
LINE
8
Black
10
148.307
20
-154.221
11
148.164
21
-153.936
0
LINE
8
Black
10
148.164
20
-153.936
11
148.021
21
-153.364
0
LINE
8
Black
10
148.021
20
-153.364
11
148.021
21
-152.65
0
LINE
8
Black
10
148.021
20
-152.65
11
148.164
21
-152.079
0
LINE
8
Black
10
148.164
20
-152.079
11
148.307
21
-151.793
0
LINE
8
Black
10
148.307
20
-151.793
11
148.45
21
-151.65
0
LINE
8
Black
10
148.45
20
-151.65
11
148.736
21
-151.507
0
LINE
8
Black
10
152.593
20
-154.507
11
150.879
21
-154.507
0
LINE
8
Black
10
151.736
20
-154.507
11
151.736
21
-151.507
0
LINE
8
Black
10
151.736
20
-151.507
11
151.45
21
-151.936
0
LINE
8
Black
10
151.45
20
-151.936
11
151.164
21
-152.221
0
LINE
8
Black
10
151.164
20
-152.221
11
150.879
21
-152.364
0
LINE
8
Black
10
155.164
20
-151.507
11
154.593
21
-151.507
0
LINE
8
Black
10
154.593
20
-151.507
11
154.307
21
-151.65
0
LINE
8
Black
10
154.307
20
-151.65
11
154.164
21
-151.793
0
LINE
8
Black
10
154.164
20
-151.793
11
153.879
21
-152.221
0
LINE
8
Black
10
153.879
20
-152.221
11
153.736
21
-152.793
0
LINE
8
Black
10
153.736
20
-152.793
11
153.736
21
-153.936
0
LINE
8
Black
10
153.736
20
-153.936
11
153.879
21
-154.221
0
LINE
8
Black
10
153.879
20
-154.221
11
154.021
21
-154.364
0
LINE
8
Black
10
154.021
20
-154.364
11
154.307
21
-154.507
0
LINE
8
Black
10
154.307
20
-154.507
11
154.879
21
-154.507
0
LINE
8
Black
10
154.879
20
-154.507
11
155.164
21
-154.364
0
LINE
8
Black
10
155.164
20
-154.364
11
155.307
21
-154.221
0
LINE
8
Black
10
155.307
20
-154.221
11
155.45
21
-153.936
0
LINE
8
Black
10
155.45
20
-153.936
11
155.45
21
-153.221
0
LINE
8
Black
10
155.45
20
-153.221
11
155.307
21
-152.936
0
LINE
8
Black
10
155.307
20
-152.936
11
155.164
21
-152.793
0
LINE
8
Black
10
155.164
20
-152.793
11
154.879
21
-152.65
0
LINE
8
Black
10
154.879
20
-152.65
11
154.307
21
-152.65
0
LINE
8
Black
10
154.307
20
-152.65
11
154.021
21
-152.793
0
LINE
8
Black
10
154.021
20
-152.793
11
153.879
21
-152.936
0
LINE
8
Black
10
153.879
20
-152.936
11
153.736
21
-153.221
0
LINE
8
Black
10
156.593
20
-151.507
11
156.593
21
-152.079
0
LINE
8
Black
10
157.736
20
-151.507
11
157.736
21
-152.079
0
LINE
8
Black
10
162.164
20
-155.65
11
162.021
21
-155.507
0
LINE
8
Black
10
162.021
20
-155.507
11
161.736
21
-155.079
0
LINE
8
Black
10
161.736
20
-155.079
11
161.593
21
-154.793
0
LINE
8
Black
10
161.593
20
-154.793
11
161.45
21
-154.364
0
LINE
8
Black
10
161.45
20
-154.364
11
161.307
21
-153.65
0
LINE
8
Black
10
161.307
20
-153.65
11
161.307
21
-153.079
0
LINE
8
Black
10
161.307
20
-153.079
11
161.45
21
-152.364
0
LINE
8
Black
10
161.45
20
-152.364
11
161.593
21
-151.936
0
LINE
8
Black
10
161.593
20
-151.936
11
161.736
21
-151.65
0
LINE
8
Black
10
161.736
20
-151.65
11
162.021
21
-151.221
0
LINE
8
Black
10
162.021
20
-151.221
11
162.164
21
-151.079
0
LINE
8
Black
10
164.736
20
-151.507
11
163.307
21
-151.507
0
LINE
8
Black
10
163.307
20
-151.507
11
163.164
21
-152.936
0
LINE
8
Black
10
163.164
20
-152.936
11
163.307
21
-152.793
0
LINE
8
Black
10
163.307
20
-152.793
11
163.593
21
-152.65
0
LINE
8
Black
10
163.593
20
-152.65
11
164.307
21
-152.65
0
LINE
8
Black
10
164.307
20
-152.65
11
164.593
21
-152.793
0
LINE
8
Black
10
164.593
20
-152.793
11
164.736
21
-152.936
0
LINE
8
Black
10
164.736
20
-152.936
11
164.879
21
-153.221
0
LINE
8
Black
10
164.879
20
-153.221
11
164.879
21
-153.936
0
LINE
8
Black
10
164.879
20
-153.936
11
164.736
21
-154.221
0
LINE
8
Black
10
164.736
20
-154.221
11
164.593
21
-154.364
0
LINE
8
Black
10
164.593
20
-154.364
11
164.307
21
-154.507
0
LINE
8
Black
10
164.307
20
-154.507
11
163.593
21
-154.507
0
LINE
8
Black
10
163.593
20
-154.507
11
163.307
21
-154.364
0
LINE
8
Black
10
163.307
20
-154.364
11
163.164
21
-154.221
0
LINE
8
Black
10
168.45
20
-154.507
11
168.45
21
-151.507
0
LINE
8
Black
10
169.736
20
-154.507
11
169.736
21
-152.936
0
LINE
8
Black
10
169.736
20
-152.936
11
169.593
21
-152.65
0
LINE
8
Black
10
169.593
20
-152.65
11
169.307
21
-152.507
0
LINE
8
Black
10
169.307
20
-152.507
11
168.879
21
-152.507
0
LINE
8
Black
10
168.879
20
-152.507
11
168.593
21
-152.65
0
LINE
8
Black
10
168.593
20
-152.65
11
168.45
21
-152.793
0
LINE
8
Black
10
171.593
20
-154.507
11
171.307
21
-154.364
0
LINE
8
Black
10
171.307
20
-154.364
11
171.164
21
-154.221
0
LINE
8
Black
10
171.164
20
-154.221
11
171.021
21
-153.936
0
LINE
8
Black
10
171.021
20
-153.936
11
171.021
21
-153.079
0
LINE
8
Black
10
171.021
20
-153.079
11
171.164
21
-152.793
0
LINE
8
Black
10
171.164
20
-152.793
11
171.307
21
-152.65
0
LINE
8
Black
10
171.307
20
-152.65
11
171.593
21
-152.507
0
LINE
8
Black
10
171.593
20
-152.507
11
172.021
21
-152.507
0
LINE
8
Black
10
172.021
20
-152.507
11
172.307
21
-152.65
0
LINE
8
Black
10
172.307
20
-152.65
11
172.45
21
-152.793
0
LINE
8
Black
10
172.45
20
-152.793
11
172.593
21
-153.079
0
LINE
8
Black
10
172.593
20
-153.079
11
172.593
21
-153.936
0
LINE
8
Black
10
172.593
20
-153.936
11
172.45
21
-154.221
0
LINE
8
Black
10
172.45
20
-154.221
11
172.307
21
-154.364
0
LINE
8
Black
10
172.307
20
-154.364
11
172.021
21
-154.507
0
LINE
8
Black
10
172.021
20
-154.507
11
171.593
21
-154.507
0
LINE
8
Black
10
174.307
20
-154.507
11
174.021
21
-154.364
0
LINE
8
Black
10
174.021
20
-154.364
11
173.879
21
-154.079
0
LINE
8
Black
10
173.879
20
-154.079
11
173.879
21
-151.507
0
LINE
8
Black
10
176.593
20
-154.364
11
176.307
21
-154.507
0
LINE
8
Black
10
176.307
20
-154.507
11
175.736
21
-154.507
0
LINE
8
Black
10
175.736
20
-154.507
11
175.45
21
-154.364
0
LINE
8
Black
10
175.45
20
-154.364
11
175.307
21
-154.079
0
LINE
8
Black
10
175.307
20
-154.079
11
175.307
21
-152.936
0
LINE
8
Black
10
175.307
20
-152.936
11
175.45
21
-152.65
0
LINE
8
Black
10
175.45
20
-152.65
11
175.736
21
-152.507
0
LINE
8
Black
10
175.736
20
-152.507
11
176.307
21
-152.507
0
LINE
8
Black
10
176.307
20
-152.507
11
176.593
21
-152.65
0
LINE
8
Black
10
176.593
20
-152.65
11
176.736
21
-152.936
0
LINE
8
Black
10
176.736
20
-152.936
11
176.736
21
-153.221
0
LINE
8
Black
10
176.736
20
-153.221
11
175.307
21
-153.507
0
LINE
8
Black
10
177.879
20
-154.364
11
178.164
21
-154.507
0
LINE
8
Black
10
178.164
20
-154.507
11
178.736
21
-154.507
0
LINE
8
Black
10
178.736
20
-154.507
11
179.021
21
-154.364
0
LINE
8
Black
10
179.021
20
-154.364
11
179.164
21
-154.079
0
LINE
8
Black
10
179.164
20
-154.079
11
179.164
21
-153.936
0
LINE
8
Black
10
179.164
20
-153.936
11
179.021
21
-153.65
0
LINE
8
Black
10
179.021
20
-153.65
11
178.736
21
-153.507
0
LINE
8
Black
10
178.736
20
-153.507
11
178.307
21
-153.507
0
LINE
8
Black
10
178.307
20
-153.507
11
178.021
21
-153.364
0
LINE
8
Black
10
178.021
20
-153.364
11
177.879
21
-153.079
0
LINE
8
Black
10
177.879
20
-153.079
11
177.879
21
-152.936
0
LINE
8
Black
10
177.879
20
-152.936
11
178.021
21
-152.65
0
LINE
8
Black
10
178.021
20
-152.65
11
178.307
21
-152.507
0
LINE
8
Black
10
178.307
20
-152.507
11
178.736
21
-152.507
0
LINE
8
Black
10
178.736
20
-152.507
11
179.021
21
-152.65
0
LINE
8
Black
10
180.164
20
-155.65
11
180.307
21
-155.507
0
LINE
8
Black
10
180.307
20
-155.507
11
180.593
21
-155.079
0
LINE
8
Black
10
180.593
20
-155.079
11
180.736
21
-154.793
0
LINE
8
Black
10
180.736
20
-154.793
11
180.879
21
-154.364
0
LINE
8
Black
10
180.879
20
-154.364
11
181.021
21
-153.65
0
LINE
8
Black
10
181.021
20
-153.65
11
181.021
21
-153.079
0
LINE
8
Black
10
181.021
20
-153.079
11
180.879
21
-152.364
0
LINE
8
Black
10
180.879
20
-152.364
11
180.736
21
-151.936
0
LINE
8
Black
10
180.736
20
-151.936
11
180.593
21
-151.65
0
LINE
8
Black
10
180.593
20
-151.65
11
180.307
21
-151.221
0
LINE
8
Black
10
180.307
20
-151.221
11
180.164
21
-151.079
0
CIRCLE
8
Black
10
114.95
20
-157.11
40
0.5
0
LINE
8
Black
10
119.736
20
-158.467
11
118.021
21
-158.467
0
LINE
8
Black
10
118.879
20
-158.467
11
118.879
21
-155.467
0
LINE
8
Black
10
118.879
20
-155.467
11
118.593
21
-155.896
0
LINE
8
Black
10
118.593
20
-155.896
11
118.307
21
-156.181
0
LINE
8
Black
10
118.307
20
-156.181
11
118.021
21
-156.324
0
LINE
8
Black
10
121.021
20
-158.181
11
121.164
21
-158.324
0
LINE
8
Black
10
121.164
20
-158.324
11
121.021
21
-158.467
0
LINE
8
Black
10
121.021
20
-158.467
11
120.879
21
-158.324
0
LINE
8
Black
10
120.879
20
-158.324
11
121.021
21
-158.181
0
LINE
8
Black
10
121.021
20
-158.181
11
121.021
21
-158.467
0
LINE
8
Black
10
123.021
20
-155.467
11
123.307
21
-155.467
0
LINE
8
Black
10
123.307
20
-155.467
11
123.593
21
-155.61
0
LINE
8
Black
10
123.593
20
-155.61
11
123.736
21
-155.753
0
LINE
8
Black
10
123.736
20
-155.753
11
123.879
21
-156.039
0
LINE
8
Black
10
123.879
20
-156.039
11
124.021
21
-156.61
0
LINE
8
Black
10
124.021
20
-156.61
11
124.021
21
-157.324
0
LINE
8
Black
10
124.021
20
-157.324
11
123.879
21
-157.896
0
LINE
8
Black
10
123.879
20
-157.896
11
123.736
21
-158.181
0
LINE
8
Black
10
123.736
20
-158.181
11
123.593
21
-158.324
0
LINE
8
Black
10
123.593
20
-158.324
11
123.307
21
-158.467
0
LINE
8
Black
10
123.307
20
-158.467
11
123.021
21
-158.467
0
LINE
8
Black
10
123.021
20
-158.467
11
122.736
21
-158.324
0
LINE
8
Black
10
122.736
20
-158.324
11
122.593
21
-158.181
0
LINE
8
Black
10
122.593
20
-158.181
11
122.45
21
-157.896
0
LINE
8
Black
10
122.45
20
-157.896
11
122.307
21
-157.324
0
LINE
8
Black
10
122.307
20
-157.324
11
122.307
21
-156.61
0
LINE
8
Black
10
122.307
20
-156.61
11
122.45
21
-156.039
0
LINE
8
Black
10
122.45
20
-156.039
11
122.593
21
-155.753
0
LINE
8
Black
10
122.593
20
-155.753
11
122.736
21
-155.61
0
LINE
8
Black
10
122.736
20
-155.61
11
123.021
21
-155.467
0
LINE
8
Black
10
125.879
20
-155.467
11
126.164
21
-155.467
0
LINE
8
Black
10
126.164
20
-155.467
11
126.45
21
-155.61
0
LINE
8
Black
10
126.45
20
-155.61
11
126.593
21
-155.753
0
LINE
8
Black
10
126.593
20
-155.753
11
126.736
21
-156.039
0
LINE
8
Black
10
126.736
20
-156.039
11
126.879
21
-156.61
0
LINE
8
Black
10
126.879
20
-156.61
11
126.879
21
-157.324
0
LINE
8
Black
10
126.879
20
-157.324
11
126.736
21
-157.896
0
LINE
8
Black
10
126.736
20
-157.896
11
126.593
21
-158.181
0
LINE
8
Black
10
126.593
20
-158.181
11
126.45
21
-158.324
0
LINE
8
Black
10
126.45
20
-158.324
11
126.164
21
-158.467
0
LINE
8
Black
10
126.164
20
-158.467
11
125.879
21
-158.467
0
LINE
8
Black
10
125.879
20
-158.467
11
125.593
21
-158.324
0
LINE
8
Black
10
125.593
20
-158.324
11
125.45
21
-158.181
0
LINE
8
Black
10
125.45
20
-158.181
11
125.307
21
-157.896
0
LINE
8
Black
10
125.307
20
-157.896
11
125.164
21
-157.324
0
LINE
8
Black
10
125.164
20
-157.324
11
125.164
21
-156.61
0
LINE
8
Black
10
125.164
20
-156.61
11
125.307
21
-156.039
0
LINE
8
Black
10
125.307
20
-156.039
11
125.45
21
-155.753
0
LINE
8
Black
10
125.45
20
-155.753
11
125.593
21
-155.61
0
LINE
8
Black
10
125.593
20
-155.61
11
125.879
21
-155.467
0
LINE
8
Black
10
128.164
20
-158.467
11
128.164
21
-156.467
0
LINE
8
Black
10
128.164
20
-156.753
11
128.307
21
-156.61
0
LINE
8
Black
10
128.307
20
-156.61
11
128.593
21
-156.467
0
LINE
8
Black
10
128.593
20
-156.467
11
129.021
21
-156.467
0
LINE
8
Black
10
129.021
20
-156.467
11
129.307
21
-156.61
0
LINE
8
Black
10
129.307
20
-156.61
11
129.45
21
-156.896
0
LINE
8
Black
10
129.45
20
-156.896
11
129.45
21
-158.467
0
LINE
8
Black
10
129.45
20
-156.896
11
129.593
21
-156.61
0
LINE
8
Black
10
129.593
20
-156.61
11
129.879
21
-156.467
0
LINE
8
Black
10
129.879
20
-156.467
11
130.307
21
-156.467
0
LINE
8
Black
10
130.307
20
-156.467
11
130.593
21
-156.61
0
LINE
8
Black
10
130.593
20
-156.61
11
130.736
21
-156.896
0
LINE
8
Black
10
130.736
20
-156.896
11
130.736
21
-158.467
0
LINE
8
Black
10
132.164
20
-158.467
11
132.164
21
-156.467
0
LINE
8
Black
10
132.164
20
-156.753
11
132.307
21
-156.61
0
LINE
8
Black
10
132.307
20
-156.61
11
132.593
21
-156.467
0
LINE
8
Black
10
132.593
20
-156.467
11
133.021
21
-156.467
0
LINE
8
Black
10
133.021
20
-156.467
11
133.307
21
-156.61
0
LINE
8
Black
10
133.307
20
-156.61
11
133.45
21
-156.896
0
LINE
8
Black
10
133.45
20
-156.896
11
133.45
21
-158.467
0
LINE
8
Black
10
133.45
20
-156.896
11
133.593
21
-156.61
0
LINE
8
Black
10
133.593
20
-156.61
11
133.879
21
-156.467
0
LINE
8
Black
10
133.879
20
-156.467
11
134.307
21
-156.467
0
LINE
8
Black
10
134.307
20
-156.467
11
134.593
21
-156.61
0
LINE
8
Black
10
134.593
20
-156.61
11
134.736
21
-156.896
0
LINE
8
Black
10
134.736
20
-156.896
11
134.736
21
-158.467
0
LINE
8
Black
10
140.593
20
-155.324
11
138.021
21
-159.181
0
LINE
8
Black
10
144.45
20
-155.467
11
144.736
21
-155.467
0
LINE
8
Black
10
144.736
20
-155.467
11
145.021
21
-155.61
0
LINE
8
Black
10
145.021
20
-155.61
11
145.164
21
-155.753
0
LINE
8
Black
10
145.164
20
-155.753
11
145.307
21
-156.039
0
LINE
8
Black
10
145.307
20
-156.039
11
145.45
21
-156.61
0
LINE
8
Black
10
145.45
20
-156.61
11
145.45
21
-157.324
0
LINE
8
Black
10
145.45
20
-157.324
11
145.307
21
-157.896
0
LINE
8
Black
10
145.307
20
-157.896
11
145.164
21
-158.181
0
LINE
8
Black
10
145.164
20
-158.181
11
145.021
21
-158.324
0
LINE
8
Black
10
145.021
20
-158.324
11
144.736
21
-158.467
0
LINE
8
Black
10
144.736
20
-158.467
11
144.45
21
-158.467
0
LINE
8
Black
10
144.45
20
-158.467
11
144.164
21
-158.324
0
LINE
8
Black
10
144.164
20
-158.324
11
144.021
21
-158.181
0
LINE
8
Black
10
144.021
20
-158.181
11
143.879
21
-157.896
0
LINE
8
Black
10
143.879
20
-157.896
11
143.736
21
-157.324
0
LINE
8
Black
10
143.736
20
-157.324
11
143.736
21
-156.61
0
LINE
8
Black
10
143.736
20
-156.61
11
143.879
21
-156.039
0
LINE
8
Black
10
143.879
20
-156.039
11
144.021
21
-155.753
0
LINE
8
Black
10
144.021
20
-155.753
11
144.164
21
-155.61
0
LINE
8
Black
10
144.164
20
-155.61
11
144.45
21
-155.467
0
LINE
8
Black
10
146.736
20
-158.181
11
146.879
21
-158.324
0
LINE
8
Black
10
146.879
20
-158.324
11
146.736
21
-158.467
0
LINE
8
Black
10
146.736
20
-158.467
11
146.593
21
-158.324
0
LINE
8
Black
10
146.593
20
-158.324
11
146.736
21
-158.181
0
LINE
8
Black
10
146.736
20
-158.181
11
146.736
21
-158.467
0
LINE
8
Black
10
148.736
20
-155.467
11
149.021
21
-155.467
0
LINE
8
Black
10
149.021
20
-155.467
11
149.307
21
-155.61
0
LINE
8
Black
10
149.307
20
-155.61
11
149.45
21
-155.753
0
LINE
8
Black
10
149.45
20
-155.753
11
149.593
21
-156.039
0
LINE
8
Black
10
149.593
20
-156.039
11
149.736
21
-156.61
0
LINE
8
Black
10
149.736
20
-156.61
11
149.736
21
-157.324
0
LINE
8
Black
10
149.736
20
-157.324
11
149.593
21
-157.896
0
LINE
8
Black
10
149.593
20
-157.896
11
149.45
21
-158.181
0
LINE
8
Black
10
149.45
20
-158.181
11
149.307
21
-158.324
0
LINE
8
Black
10
149.307
20
-158.324
11
149.021
21
-158.467
0
LINE
8
Black
10
149.021
20
-158.467
11
148.736
21
-158.467
0
LINE
8
Black
10
148.736
20
-158.467
11
148.45
21
-158.324
0
LINE
8
Black
10
148.45
20
-158.324
11
148.307
21
-158.181
0
LINE
8
Black
10
148.307
20
-158.181
11
148.164
21
-157.896
0
LINE
8
Black
10
148.164
20
-157.896
11
148.021
21
-157.324
0
LINE
8
Black
10
148.021
20
-157.324
11
148.021
21
-156.61
0
LINE
8
Black
10
148.021
20
-156.61
11
148.164
21
-156.039
0
LINE
8
Black
10
148.164
20
-156.039
11
148.307
21
-155.753
0
LINE
8
Black
10
148.307
20
-155.753
11
148.45
21
-155.61
0
LINE
8
Black
10
148.45
20
-155.61
11
148.736
21
-155.467
0
LINE
8
Black
10
150.736
20
-155.467
11
152.593
21
-155.467
0
LINE
8
Black
10
152.593
20
-155.467
11
151.593
21
-156.61
0
LINE
8
Black
10
151.593
20
-156.61
11
152.021
21
-156.61
0
LINE
8
Black
10
152.021
20
-156.61
11
152.307
21
-156.753
0
LINE
8
Black
10
152.307
20
-156.753
11
152.45
21
-156.896
0
LINE
8
Black
10
152.45
20
-156.896
11
152.593
21
-157.181
0
LINE
8
Black
10
152.593
20
-157.181
11
152.593
21
-157.896
0
LINE
8
Black
10
152.593
20
-157.896
11
152.45
21
-158.181
0
LINE
8
Black
10
152.45
20
-158.181
11
152.307
21
-158.324
0
LINE
8
Black
10
152.307
20
-158.324
11
152.021
21
-158.467
0
LINE
8
Black
10
152.021
20
-158.467
11
151.164
21
-158.467
0
LINE
8
Black
10
151.164
20
-158.467
11
150.879
21
-158.324
0
LINE
8
Black
10
150.879
20
-158.324
11
150.736
21
-158.181
0
LINE
8
Black
10
154.021
20
-158.467
11
154.593
21
-158.467
0
LINE
8
Black
10
154.593
20
-158.467
11
154.879
21
-158.324
0
LINE
8
Black
10
154.879
20
-158.324
11
155.021
21
-158.181
0
LINE
8
Black
10
155.021
20
-158.181
11
155.307
21
-157.753
0
LINE
8
Black
10
155.307
20
-157.753
11
155.45
21
-157.181
0
LINE
8
Black
10
155.45
20
-157.181
11
155.45
21
-156.039
0
LINE
8
Black
10
155.45
20
-156.039
11
155.307
21
-155.753
0
LINE
8
Black
10
155.307
20
-155.753
11
155.164
21
-155.61
0
LINE
8
Black
10
155.164
20
-155.61
11
154.879
21
-155.467
0
LINE
8
Black
10
154.879
20
-155.467
11
154.307
21
-155.467
0
LINE
8
Black
10
154.307
20
-155.467
11
154.021
21
-155.61
0
LINE
8
Black
10
154.021
20
-155.61
11
153.879
21
-155.753
0
LINE
8
Black
10
153.879
20
-155.753
11
153.736
21
-156.039
0
LINE
8
Black
10
153.736
20
-156.039
11
153.736
21
-156.753
0
LINE
8
Black
10
153.736
20
-156.753
11
153.879
21
-157.039
0
LINE
8
Black
10
153.879
20
-157.039
11
154.021
21
-157.181
0
LINE
8
Black
10
154.021
20
-157.181
11
154.307
21
-157.324
0
LINE
8
Black
10
154.307
20
-157.324
11
154.879
21
-157.324
0
LINE
8
Black
10
154.879
20
-157.324
11
155.164
21
-157.181
0
LINE
8
Black
10
155.164
20
-157.181
11
155.307
21
-157.039
0
LINE
8
Black
10
155.307
20
-157.039
11
155.45
21
-156.753
0
LINE
8
Black
10
156.593
20
-155.467
11
156.593
21
-156.039
0
LINE
8
Black
10
157.736
20
-155.467
11
157.736
21
-156.039
0
LINE
8
Black
10
162.164
20
-159.61
11
162.021
21
-159.467
0
LINE
8
Black
10
162.021
20
-159.467
11
161.736
21
-159.039
0
LINE
8
Black
10
161.736
20
-159.039
11
161.593
21
-158.753
0
LINE
8
Black
10
161.593
20
-158.753
11
161.45
21
-158.324
0
LINE
8
Black
10
161.45
20
-158.324
11
161.307
21
-157.61
0
LINE
8
Black
10
161.307
20
-157.61
11
161.307
21
-157.039
0
LINE
8
Black
10
161.307
20
-157.039
11
161.45
21
-156.324
0
LINE
8
Black
10
161.45
20
-156.324
11
161.593
21
-155.896
0
LINE
8
Black
10
161.593
20
-155.896
11
161.736
21
-155.61
0
LINE
8
Black
10
161.736
20
-155.61
11
162.021
21
-155.181
0
LINE
8
Black
10
162.021
20
-155.181
11
162.164
21
-155.039
0
LINE
8
Black
10
163.164
20
-155.753
11
163.307
21
-155.61
0
LINE
8
Black
10
163.307
20
-155.61
11
163.593
21
-155.467
0
LINE
8
Black
10
163.593
20
-155.467
11
164.307
21
-155.467
0
LINE
8
Black
10
164.307
20
-155.467
11
164.593
21
-155.61
0
LINE
8
Black
10
164.593
20
-155.61
11
164.736
21
-155.753
0
LINE
8
Black
10
164.736
20
-155.753
11
164.879
21
-156.039
0
LINE
8
Black
10
164.879
20
-156.039
11
164.879
21
-156.324
0
LINE
8
Black
10
164.879
20
-156.324
11
164.736
21
-156.753
0
LINE
8
Black
10
164.736
20
-156.753
11
163.021
21
-158.467
0
LINE
8
Black
10
163.021
20
-158.467
11
164.879
21
-158.467
0
LINE
8
Black
10
168.45
20
-158.467
11
168.45
21
-155.467
0
LINE
8
Black
10
169.736
20
-158.467
11
169.736
21
-156.896
0
LINE
8
Black
10
169.736
20
-156.896
11
169.593
21
-156.61
0
LINE
8
Black
10
169.593
20
-156.61
11
169.307
21
-156.467
0
LINE
8
Black
10
169.307
20
-156.467
11
168.879
21
-156.467
0
LINE
8
Black
10
168.879
20
-156.467
11
168.593
21
-156.61
0
LINE
8
Black
10
168.593
20
-156.61
11
168.45
21
-156.753
0
LINE
8
Black
10
171.593
20
-158.467
11
171.307
21
-158.324
0
LINE
8
Black
10
171.307
20
-158.324
11
171.164
21
-158.181
0
LINE
8
Black
10
171.164
20
-158.181
11
171.021
21
-157.896
0
LINE
8
Black
10
171.021
20
-157.896
11
171.021
21
-157.039
0
LINE
8
Black
10
171.021
20
-157.039
11
171.164
21
-156.753
0
LINE
8
Black
10
171.164
20
-156.753
11
171.307
21
-156.61
0
LINE
8
Black
10
171.307
20
-156.61
11
171.593
21
-156.467
0
LINE
8
Black
10
171.593
20
-156.467
11
172.021
21
-156.467
0
LINE
8
Black
10
172.021
20
-156.467
11
172.307
21
-156.61
0
LINE
8
Black
10
172.307
20
-156.61
11
172.45
21
-156.753
0
LINE
8
Black
10
172.45
20
-156.753
11
172.593
21
-157.039
0
LINE
8
Black
10
172.593
20
-157.039
11
172.593
21
-157.896
0
LINE
8
Black
10
172.593
20
-157.896
11
172.45
21
-158.181
0
LINE
8
Black
10
172.45
20
-158.181
11
172.307
21
-158.324
0
LINE
8
Black
10
172.307
20
-158.324
11
172.021
21
-158.467
0
LINE
8
Black
10
172.021
20
-158.467
11
171.593
21
-158.467
0
LINE
8
Black
10
174.307
20
-158.467
11
174.021
21
-158.324
0
LINE
8
Black
10
174.021
20
-158.324
11
173.879
21
-158.039
0
LINE
8
Black
10
173.879
20
-158.039
11
173.879
21
-155.467
0
LINE
8
Black
10
176.593
20
-158.324
11
176.307
21
-158.467
0
LINE
8
Black
10
176.307
20
-158.467
11
175.736
21
-158.467
0
LINE
8
Black
10
175.736
20
-158.467
11
175.45
21
-158.324
0
LINE
8
Black
10
175.45
20
-158.324
11
175.307
21
-158.039
0
LINE
8
Black
10
175.307
20
-158.039
11
175.307
21
-156.896
0
LINE
8
Black
10
175.307
20
-156.896
11
175.45
21
-156.61
0
LINE
8
Black
10
175.45
20
-156.61
11
175.736
21
-156.467
0
LINE
8
Black
10
175.736
20
-156.467
11
176.307
21
-156.467
0
LINE
8
Black
10
176.307
20
-156.467
11
176.593
21
-156.61
0
LINE
8
Black
10
176.593
20
-156.61
11
176.736
21
-156.896
0
LINE
8
Black
10
176.736
20
-156.896
11
176.736
21
-157.181
0
LINE
8
Black
10
176.736
20
-157.181
11
175.307
21
-157.467
0
LINE
8
Black
10
177.879
20
-158.324
11
178.164
21
-158.467
0
LINE
8
Black
10
178.164
20
-158.467
11
178.736
21
-158.467
0
LINE
8
Black
10
178.736
20
-158.467
11
179.021
21
-158.324
0
LINE
8
Black
10
179.021
20
-158.324
11
179.164
21
-158.039
0
LINE
8
Black
10
179.164
20
-158.039
11
179.164
21
-157.896
0
LINE
8
Black
10
179.164
20
-157.896
11
179.021
21
-157.61
0
LINE
8
Black
10
179.021
20
-157.61
11
178.736
21
-157.467
0
LINE
8
Black
10
178.736
20
-157.467
11
178.307
21
-157.467
0
LINE
8
Black
10
178.307
20
-157.467
11
178.021
21
-157.324
0
LINE
8
Black
10
178.021
20
-157.324
11
177.879
21
-157.039
0
LINE
8
Black
10
177.879
20
-157.039
11
177.879
21
-156.896
0
LINE
8
Black
10
177.879
20
-156.896
11
178.021
21
-156.61
0
LINE
8
Black
10
178.021
20
-156.61
11
178.307
21
-156.467
0
LINE
8
Black
10
178.307
20
-156.467
11
178.736
21
-156.467
0
LINE
8
Black
10
178.736
20
-156.467
11
179.021
21
-156.61
0
LINE
8
Black
10
180.164
20
-159.61
11
180.307
21
-159.467
0
LINE
8
Black
10
180.307
20
-159.467
11
180.593
21
-159.039
0
LINE
8
Black
10
180.593
20
-159.039
11
180.736
21
-158.753
0
LINE
8
Black
10
180.736
20
-158.753
11
180.879
21
-158.324
0
LINE
8
Black
10
180.879
20
-158.324
11
181.021
21
-157.61
0
LINE
8
Black
10
181.021
20
-157.61
11
181.021
21
-157.039
0
LINE
8
Black
10
181.021
20
-157.039
11
180.879
21
-156.324
0
LINE
8
Black
10
180.879
20
-156.324
11
180.736
21
-155.896
0
LINE
8
Black
10
180.736
20
-155.896
11
180.593
21
-155.61
0
LINE
8
Black
10
180.593
20
-155.61
11
180.307
21
-155.181
0
LINE
8
Black
10
180.307
20
-155.181
11
180.164
21
-155.039
0
LINE
8
Black
10
114.95
20
-160.57
11
114.95
21
-161.57
0
LINE
8
Black
10
114.449
20
-161.07
11
115.45
21
-161.07
0
LINE
8
Black
10
119.736
20
-162.427
11
118.021
21
-162.427
0
LINE
8
Black
10
118.879
20
-162.427
11
118.879
21
-159.427
0
LINE
8
Black
10
118.879
20
-159.427
11
118.593
21
-159.856
0
LINE
8
Black
10
118.593
20
-159.856
11
118.307
21
-160.141
0
LINE
8
Black
10
118.307
20
-160.141
11
118.021
21
-160.284
0
LINE
8
Black
10
121.021
20
-162.141
11
121.164
21
-162.284
0
LINE
8
Black
10
121.164
20
-162.284
11
121.021
21
-162.427
0
LINE
8
Black
10
121.021
20
-162.427
11
120.879
21
-162.284
0
LINE
8
Black
10
120.879
20
-162.284
11
121.021
21
-162.141
0
LINE
8
Black
10
121.021
20
-162.141
11
121.021
21
-162.427
0
LINE
8
Black
10
123.021
20
-159.427
11
123.307
21
-159.427
0
LINE
8
Black
10
123.307
20
-159.427
11
123.593
21
-159.57
0
LINE
8
Black
10
123.593
20
-159.57
11
123.736
21
-159.713
0
LINE
8
Black
10
123.736
20
-159.713
11
123.879
21
-159.999
0
LINE
8
Black
10
123.879
20
-159.999
11
124.021
21
-160.57
0
LINE
8
Black
10
124.021
20
-160.57
11
124.021
21
-161.284
0
LINE
8
Black
10
124.021
20
-161.284
11
123.879
21
-161.856
0
LINE
8
Black
10
123.879
20
-161.856
11
123.736
21
-162.141
0
LINE
8
Black
10
123.736
20
-162.141
11
123.593
21
-162.284
0
LINE
8
Black
10
123.593
20
-162.284
11
123.307
21
-162.427
0
LINE
8
Black
10
123.307
20
-162.427
11
123.021
21
-162.427
0
LINE
8
Black
10
123.021
20
-162.427
11
122.736
21
-162.284
0
LINE
8
Black
10
122.736
20
-162.284
11
122.593
21
-162.141
0
LINE
8
Black
10
122.593
20
-162.141
11
122.45
21
-161.856
0
LINE
8
Black
10
122.45
20
-161.856
11
122.307
21
-161.284
0
LINE
8
Black
10
122.307
20
-161.284
11
122.307
21
-160.57
0
LINE
8
Black
10
122.307
20
-160.57
11
122.45
21
-159.999
0
LINE
8
Black
10
122.45
20
-159.999
11
122.593
21
-159.713
0
LINE
8
Black
10
122.593
20
-159.713
11
122.736
21
-159.57
0
LINE
8
Black
10
122.736
20
-159.57
11
123.021
21
-159.427
0
LINE
8
Black
10
125.879
20
-159.427
11
126.164
21
-159.427
0
LINE
8
Black
10
126.164
20
-159.427
11
126.45
21
-159.57
0
LINE
8
Black
10
126.45
20
-159.57
11
126.593
21
-159.713
0
LINE
8
Black
10
126.593
20
-159.713
11
126.736
21
-159.999
0
LINE
8
Black
10
126.736
20
-159.999
11
126.879
21
-160.57
0
LINE
8
Black
10
126.879
20
-160.57
11
126.879
21
-161.284
0
LINE
8
Black
10
126.879
20
-161.284
11
126.736
21
-161.856
0
LINE
8
Black
10
126.736
20
-161.856
11
126.593
21
-162.141
0
LINE
8
Black
10
126.593
20
-162.141
11
126.45
21
-162.284
0
LINE
8
Black
10
126.45
20
-162.284
11
126.164
21
-162.427
0
LINE
8
Black
10
126.164
20
-162.427
11
125.879
21
-162.427
0
LINE
8
Black
10
125.879
20
-162.427
11
125.593
21
-162.284
0
LINE
8
Black
10
125.593
20
-162.284
11
125.45
21
-162.141
0
LINE
8
Black
10
125.45
20
-162.141
11
125.307
21
-161.856
0
LINE
8
Black
10
125.307
20
-161.856
11
125.164
21
-161.284
0
LINE
8
Black
10
125.164
20
-161.284
11
125.164
21
-160.57
0
LINE
8
Black
10
125.164
20
-160.57
11
125.307
21
-159.999
0
LINE
8
Black
10
125.307
20
-159.999
11
125.45
21
-159.713
0
LINE
8
Black
10
125.45
20
-159.713
11
125.593
21
-159.57
0
LINE
8
Black
10
125.593
20
-159.57
11
125.879
21
-159.427
0
LINE
8
Black
10
128.164
20
-162.427
11
128.164
21
-160.427
0
LINE
8
Black
10
128.164
20
-160.713
11
128.307
21
-160.57
0
LINE
8
Black
10
128.307
20
-160.57
11
128.593
21
-160.427
0
LINE
8
Black
10
128.593
20
-160.427
11
129.021
21
-160.427
0
LINE
8
Black
10
129.021
20
-160.427
11
129.307
21
-160.57
0
LINE
8
Black
10
129.307
20
-160.57
11
129.45
21
-160.856
0
LINE
8
Black
10
129.45
20
-160.856
11
129.45
21
-162.427
0
LINE
8
Black
10
129.45
20
-160.856
11
129.593
21
-160.57
0
LINE
8
Black
10
129.593
20
-160.57
11
129.879
21
-160.427
0
LINE
8
Black
10
129.879
20
-160.427
11
130.307
21
-160.427
0
LINE
8
Black
10
130.307
20
-160.427
11
130.593
21
-160.57
0
LINE
8
Black
10
130.593
20
-160.57
11
130.736
21
-160.856
0
LINE
8
Black
10
130.736
20
-160.856
11
130.736
21
-162.427
0
LINE
8
Black
10
132.164
20
-162.427
11
132.164
21
-160.427
0
LINE
8
Black
10
132.164
20
-160.713
11
132.307
21
-160.57
0
LINE
8
Black
10
132.307
20
-160.57
11
132.593
21
-160.427
0
LINE
8
Black
10
132.593
20
-160.427
11
133.021
21
-160.427
0
LINE
8
Black
10
133.021
20
-160.427
11
133.307
21
-160.57
0
LINE
8
Black
10
133.307
20
-160.57
11
133.45
21
-160.856
0
LINE
8
Black
10
133.45
20
-160.856
11
133.45
21
-162.427
0
LINE
8
Black
10
133.45
20
-160.856
11
133.593
21
-160.57
0
LINE
8
Black
10
133.593
20
-160.57
11
133.879
21
-160.427
0
LINE
8
Black
10
133.879
20
-160.427
11
134.307
21
-160.427
0
LINE
8
Black
10
134.307
20
-160.427
11
134.593
21
-160.57
0
LINE
8
Black
10
134.593
20
-160.57
11
134.736
21
-160.856
0
LINE
8
Black
10
134.736
20
-160.856
11
134.736
21
-162.427
0
LINE
8
Black
10
140.593
20
-159.284
11
138.021
21
-163.141
0
LINE
8
Black
10
144.45
20
-159.427
11
144.736
21
-159.427
0
LINE
8
Black
10
144.736
20
-159.427
11
145.021
21
-159.57
0
LINE
8
Black
10
145.021
20
-159.57
11
145.164
21
-159.713
0
LINE
8
Black
10
145.164
20
-159.713
11
145.307
21
-159.999
0
LINE
8
Black
10
145.307
20
-159.999
11
145.45
21
-160.57
0
LINE
8
Black
10
145.45
20
-160.57
11
145.45
21
-161.284
0
LINE
8
Black
10
145.45
20
-161.284
11
145.307
21
-161.856
0
LINE
8
Black
10
145.307
20
-161.856
11
145.164
21
-162.141
0
LINE
8
Black
10
145.164
20
-162.141
11
145.021
21
-162.284
0
LINE
8
Black
10
145.021
20
-162.284
11
144.736
21
-162.427
0
LINE
8
Black
10
144.736
20
-162.427
11
144.45
21
-162.427
0
LINE
8
Black
10
144.45
20
-162.427
11
144.164
21
-162.284
0
LINE
8
Black
10
144.164
20
-162.284
11
144.021
21
-162.141
0
LINE
8
Black
10
144.021
20
-162.141
11
143.879
21
-161.856
0
LINE
8
Black
10
143.879
20
-161.856
11
143.736
21
-161.284
0
LINE
8
Black
10
143.736
20
-161.284
11
143.736
21
-160.57
0
LINE
8
Black
10
143.736
20
-160.57
11
143.879
21
-159.999
0
LINE
8
Black
10
143.879
20
-159.999
11
144.021
21
-159.713
0
LINE
8
Black
10
144.021
20
-159.713
11
144.164
21
-159.57
0
LINE
8
Black
10
144.164
20
-159.57
11
144.45
21
-159.427
0
LINE
8
Black
10
146.736
20
-162.141
11
146.879
21
-162.284
0
LINE
8
Black
10
146.879
20
-162.284
11
146.736
21
-162.427
0
LINE
8
Black
10
146.736
20
-162.427
11
146.593
21
-162.284
0
LINE
8
Black
10
146.593
20
-162.284
11
146.736
21
-162.141
0
LINE
8
Black
10
146.736
20
-162.141
11
146.736
21
-162.427
0
LINE
8
Black
10
148.736
20
-159.427
11
149.021
21
-159.427
0
LINE
8
Black
10
149.021
20
-159.427
11
149.307
21
-159.57
0
LINE
8
Black
10
149.307
20
-159.57
11
149.45
21
-159.713
0
LINE
8
Black
10
149.45
20
-159.713
11
149.593
21
-159.999
0
LINE
8
Black
10
149.593
20
-159.999
11
149.736
21
-160.57
0
LINE
8
Black
10
149.736
20
-160.57
11
149.736
21
-161.284
0
LINE
8
Black
10
149.736
20
-161.284
11
149.593
21
-161.856
0
LINE
8
Black
10
149.593
20
-161.856
11
149.45
21
-162.141
0
LINE
8
Black
10
149.45
20
-162.141
11
149.307
21
-162.284
0
LINE
8
Black
10
149.307
20
-162.284
11
149.021
21
-162.427
0
LINE
8
Black
10
149.021
20
-162.427
11
148.736
21
-162.427
0
LINE
8
Black
10
148.736
20
-162.427
11
148.45
21
-162.284
0
LINE
8
Black
10
148.45
20
-162.284
11
148.307
21
-162.141
0
LINE
8
Black
10
148.307
20
-162.141
11
148.164
21
-161.856
0
LINE
8
Black
10
148.164
20
-161.856
11
148.021
21
-161.284
0
LINE
8
Black
10
148.021
20
-161.284
11
148.021
21
-160.57
0
LINE
8
Black
10
148.021
20
-160.57
11
148.164
21
-159.999
0
LINE
8
Black
10
148.164
20
-159.999
11
148.307
21
-159.713
0
LINE
8
Black
10
148.307
20
-159.713
11
148.45
21
-159.57
0
LINE
8
Black
10
148.45
20
-159.57
11
148.736
21
-159.427
0
LINE
8
Black
10
150.736
20
-159.427
11
152.593
21
-159.427
0
LINE
8
Black
10
152.593
20
-159.427
11
151.593
21
-160.57
0
LINE
8
Black
10
151.593
20
-160.57
11
152.021
21
-160.57
0
LINE
8
Black
10
152.021
20
-160.57
11
152.307
21
-160.713
0
LINE
8
Black
10
152.307
20
-160.713
11
152.45
21
-160.856
0
LINE
8
Black
10
152.45
20
-160.856
11
152.593
21
-161.141
0
LINE
8
Black
10
152.593
20
-161.141
11
152.593
21
-161.856
0
LINE
8
Black
10
152.593
20
-161.856
11
152.45
21
-162.141
0
LINE
8
Black
10
152.45
20
-162.141
11
152.307
21
-162.284
0
LINE
8
Black
10
152.307
20
-162.284
11
152.021
21
-162.427
0
LINE
8
Black
10
152.021
20
-162.427
11
151.164
21
-162.427
0
LINE
8
Black
10
151.164
20
-162.427
11
150.879
21
-162.284
0
LINE
8
Black
10
150.879
20
-162.284
11
150.736
21
-162.141
0
LINE
8
Black
10
154.021
20
-162.427
11
154.593
21
-162.427
0
LINE
8
Black
10
154.593
20
-162.427
11
154.879
21
-162.284
0
LINE
8
Black
10
154.879
20
-162.284
11
155.021
21
-162.141
0
LINE
8
Black
10
155.021
20
-162.141
11
155.307
21
-161.713
0
LINE
8
Black
10
155.307
20
-161.713
11
155.45
21
-161.141
0
LINE
8
Black
10
155.45
20
-161.141
11
155.45
21
-159.999
0
LINE
8
Black
10
155.45
20
-159.999
11
155.307
21
-159.713
0
LINE
8
Black
10
155.307
20
-159.713
11
155.164
21
-159.57
0
LINE
8
Black
10
155.164
20
-159.57
11
154.879
21
-159.427
0
LINE
8
Black
10
154.879
20
-159.427
11
154.307
21
-159.427
0
LINE
8
Black
10
154.307
20
-159.427
11
154.021
21
-159.57
0
LINE
8
Black
10
154.021
20
-159.57
11
153.879
21
-159.713
0
LINE
8
Black
10
153.879
20
-159.713
11
153.736
21
-159.999
0
LINE
8
Black
10
153.736
20
-159.999
11
153.736
21
-160.713
0
LINE
8
Black
10
153.736
20
-160.713
11
153.879
21
-160.999
0
LINE
8
Black
10
153.879
20
-160.999
11
154.021
21
-161.141
0
LINE
8
Black
10
154.021
20
-161.141
11
154.307
21
-161.284
0
LINE
8
Black
10
154.307
20
-161.284
11
154.879
21
-161.284
0
LINE
8
Black
10
154.879
20
-161.284
11
155.164
21
-161.141
0
LINE
8
Black
10
155.164
20
-161.141
11
155.307
21
-160.999
0
LINE
8
Black
10
155.307
20
-160.999
11
155.45
21
-160.713
0
LINE
8
Black
10
156.593
20
-159.427
11
156.593
21
-159.999
0
LINE
8
Black
10
157.736
20
-159.427
11
157.736
21
-159.999
0
LINE
8
Black
10
162.164
20
-163.57
11
162.021
21
-163.427
0
LINE
8
Black
10
162.021
20
-163.427
11
161.736
21
-162.999
0
LINE
8
Black
10
161.736
20
-162.999
11
161.593
21
-162.713
0
LINE
8
Black
10
161.593
20
-162.713
11
161.45
21
-162.284
0
LINE
8
Black
10
161.45
20
-162.284
11
161.307
21
-161.57
0
LINE
8
Black
10
161.307
20
-161.57
11
161.307
21
-160.999
0
LINE
8
Black
10
161.307
20
-160.999
11
161.45
21
-160.284
0
LINE
8
Black
10
161.45
20
-160.284
11
161.593
21
-159.856
0
LINE
8
Black
10
161.593
20
-159.856
11
161.736
21
-159.57
0
LINE
8
Black
10
161.736
20
-159.57
11
162.021
21
-159.141
0
LINE
8
Black
10
162.021
20
-159.141
11
162.164
21
-158.999
0
LINE
8
Black
10
163.164
20
-159.713
11
163.307
21
-159.57
0
LINE
8
Black
10
163.307
20
-159.57
11
163.593
21
-159.427
0
LINE
8
Black
10
163.593
20
-159.427
11
164.307
21
-159.427
0
LINE
8
Black
10
164.307
20
-159.427
11
164.593
21
-159.57
0
LINE
8
Black
10
164.593
20
-159.57
11
164.736
21
-159.713
0
LINE
8
Black
10
164.736
20
-159.713
11
164.879
21
-159.999
0
LINE
8
Black
10
164.879
20
-159.999
11
164.879
21
-160.284
0
LINE
8
Black
10
164.879
20
-160.284
11
164.736
21
-160.713
0
LINE
8
Black
10
164.736
20
-160.713
11
163.021
21
-162.427
0
LINE
8
Black
10
163.021
20
-162.427
11
164.879
21
-162.427
0
LINE
8
Black
10
168.45
20
-162.427
11
168.45
21
-159.427
0
LINE
8
Black
10
169.736
20
-162.427
11
169.736
21
-160.856
0
LINE
8
Black
10
169.736
20
-160.856
11
169.593
21
-160.57
0
LINE
8
Black
10
169.593
20
-160.57
11
169.307
21
-160.427
0
LINE
8
Black
10
169.307
20
-160.427
11
168.879
21
-160.427
0
LINE
8
Black
10
168.879
20
-160.427
11
168.593
21
-160.57
0
LINE
8
Black
10
168.593
20
-160.57
11
168.45
21
-160.713
0
LINE
8
Black
10
171.593
20
-162.427
11
171.307
21
-162.284
0
LINE
8
Black
10
171.307
20
-162.284
11
171.164
21
-162.141
0
LINE
8
Black
10
171.164
20
-162.141
11
171.021
21
-161.856
0
LINE
8
Black
10
171.021
20
-161.856
11
171.021
21
-160.999
0
LINE
8
Black
10
171.021
20
-160.999
11
171.164
21
-160.713
0
LINE
8
Black
10
171.164
20
-160.713
11
171.307
21
-160.57
0
LINE
8
Black
10
171.307
20
-160.57
11
171.593
21
-160.427
0
LINE
8
Black
10
171.593
20
-160.427
11
172.021
21
-160.427
0
LINE
8
Black
10
172.021
20
-160.427
11
172.307
21
-160.57
0
LINE
8
Black
10
172.307
20
-160.57
11
172.45
21
-160.713
0
LINE
8
Black
10
172.45
20
-160.713
11
172.593
21
-160.999
0
LINE
8
Black
10
172.593
20
-160.999
11
172.593
21
-161.856
0
LINE
8
Black
10
172.593
20
-161.856
11
172.45
21
-162.141
0
LINE
8
Black
10
172.45
20
-162.141
11
172.307
21
-162.284
0
LINE
8
Black
10
172.307
20
-162.284
11
172.021
21
-162.427
0
LINE
8
Black
10
172.021
20
-162.427
11
171.593
21
-162.427
0
LINE
8
Black
10
174.307
20
-162.427
11
174.021
21
-162.284
0
LINE
8
Black
10
174.021
20
-162.284
11
173.879
21
-161.999
0
LINE
8
Black
10
173.879
20
-161.999
11
173.879
21
-159.427
0
LINE
8
Black
10
176.593
20
-162.284
11
176.307
21
-162.427
0
LINE
8
Black
10
176.307
20
-162.427
11
175.736
21
-162.427
0
LINE
8
Black
10
175.736
20
-162.427
11
175.45
21
-162.284
0
LINE
8
Black
10
175.45
20
-162.284
11
175.307
21
-161.999
0
LINE
8
Black
10
175.307
20
-161.999
11
175.307
21
-160.856
0
LINE
8
Black
10
175.307
20
-160.856
11
175.45
21
-160.57
0
LINE
8
Black
10
175.45
20
-160.57
11
175.736
21
-160.427
0
LINE
8
Black
10
175.736
20
-160.427
11
176.307
21
-160.427
0
LINE
8
Black
10
176.307
20
-160.427
11
176.593
21
-160.57
0
LINE
8
Black
10
176.593
20
-160.57
11
176.736
21
-160.856
0
LINE
8
Black
10
176.736
20
-160.856
11
176.736
21
-161.141
0
LINE
8
Black
10
176.736
20
-161.141
11
175.307
21
-161.427
0
LINE
8
Black
10
177.879
20
-162.284
11
178.164
21
-162.427
0
LINE
8
Black
10
178.164
20
-162.427
11
178.736
21
-162.427
0
LINE
8
Black
10
178.736
20
-162.427
11
179.021
21
-162.284
0
LINE
8
Black
10
179.021
20
-162.284
11
179.164
21
-161.999
0
LINE
8
Black
10
179.164
20
-161.999
11
179.164
21
-161.856
0
LINE
8
Black
10
179.164
20
-161.856
11
179.021
21
-161.57
0
LINE
8
Black
10
179.021
20
-161.57
11
178.736
21
-161.427
0
LINE
8
Black
10
178.736
20
-161.427
11
178.307
21
-161.427
0
LINE
8
Black
10
178.307
20
-161.427
11
178.021
21
-161.284
0
LINE
8
Black
10
178.021
20
-161.284
11
177.879
21
-160.999
0
LINE
8
Black
10
177.879
20
-160.999
11
177.879
21
-160.856
0
LINE
8
Black
10
177.879
20
-160.856
11
178.021
21
-160.57
0
LINE
8
Black
10
178.021
20
-160.57
11
178.307
21
-160.427
0
LINE
8
Black
10
178.307
20
-160.427
11
178.736
21
-160.427
0
LINE
8
Black
10
178.736
20
-160.427
11
179.021
21
-160.57
0
LINE
8
Black
10
180.164
20
-163.57
11
180.307
21
-163.427
0
LINE
8
Black
10
180.307
20
-163.427
11
180.593
21
-162.999
0
LINE
8
Black
10
180.593
20
-162.999
11
180.736
21
-162.713
0
LINE
8
Black
10
180.736
20
-162.713
11
180.879
21
-162.284
0
LINE
8
Black
10
180.879
20
-162.284
11
181.021
21
-161.57
0
LINE
8
Black
10
181.021
20
-161.57
11
181.021
21
-160.999
0
LINE
8
Black
10
181.021
20
-160.999
11
180.879
21
-160.284
0
LINE
8
Black
10
180.879
20
-160.284
11
180.736
21
-159.856
0
LINE
8
Black
10
180.736
20
-159.856
11
180.593
21
-159.57
0
LINE
8
Black
10
180.593
20
-159.57
11
180.307
21
-159.141
0
LINE
8
Black
10
180.307
20
-159.141
11
180.164
21
-158.999
0
LINE
8
Black
10
115.301
20
-165.389
11
115.301
21
-164.671
0
LINE
8
Black
10
115.301
20
-164.671
11
114.583
21
-164.671
0
LINE
8
Black
10
114.583
20
-164.671
11
114.583
21
-165.389
0
LINE
8
Black
10
114.583
20
-165.389
11
115.301
21
-165.389
0
LINE
8
Black
10
119.736
20
-166.387
11
118.021
21
-166.387
0
LINE
8
Black
10
118.879
20
-166.387
11
118.879
21
-163.387
0
LINE
8
Black
10
118.879
20
-163.387
11
118.593
21
-163.816
0
LINE
8
Black
10
118.593
20
-163.816
11
118.307
21
-164.101
0
LINE
8
Black
10
118.307
20
-164.101
11
118.021
21
-164.244
0
LINE
8
Black
10
121.021
20
-166.101
11
121.164
21
-166.244
0
LINE
8
Black
10
121.164
20
-166.244
11
121.021
21
-166.387
0
LINE
8
Black
10
121.021
20
-166.387
11
120.879
21
-166.244
0
LINE
8
Black
10
120.879
20
-166.244
11
121.021
21
-166.101
0
LINE
8
Black
10
121.021
20
-166.101
11
121.021
21
-166.387
0
LINE
8
Black
10
123.021
20
-163.387
11
123.307
21
-163.387
0
LINE
8
Black
10
123.307
20
-163.387
11
123.593
21
-163.53
0
LINE
8
Black
10
123.593
20
-163.53
11
123.736
21
-163.673
0
LINE
8
Black
10
123.736
20
-163.673
11
123.879
21
-163.959
0
LINE
8
Black
10
123.879
20
-163.959
11
124.021
21
-164.53
0
LINE
8
Black
10
124.021
20
-164.53
11
124.021
21
-165.244
0
LINE
8
Black
10
124.021
20
-165.244
11
123.879
21
-165.816
0
LINE
8
Black
10
123.879
20
-165.816
11
123.736
21
-166.101
0
LINE
8
Black
10
123.736
20
-166.101
11
123.593
21
-166.244
0
LINE
8
Black
10
123.593
20
-166.244
11
123.307
21
-166.387
0
LINE
8
Black
10
123.307
20
-166.387
11
123.021
21
-166.387
0
LINE
8
Black
10
123.021
20
-166.387
11
122.736
21
-166.244
0
LINE
8
Black
10
122.736
20
-166.244
11
122.593
21
-166.101
0
LINE
8
Black
10
122.593
20
-166.101
11
122.45
21
-165.816
0
LINE
8
Black
10
122.45
20
-165.816
11
122.307
21
-165.244
0
LINE
8
Black
10
122.307
20
-165.244
11
122.307
21
-164.53
0
LINE
8
Black
10
122.307
20
-164.53
11
122.45
21
-163.959
0
LINE
8
Black
10
122.45
20
-163.959
11
122.593
21
-163.673
0
LINE
8
Black
10
122.593
20
-163.673
11
122.736
21
-163.53
0
LINE
8
Black
10
122.736
20
-163.53
11
123.021
21
-163.387
0
LINE
8
Black
10
125.164
20
-163.673
11
125.307
21
-163.53
0
LINE
8
Black
10
125.307
20
-163.53
11
125.593
21
-163.387
0
LINE
8
Black
10
125.593
20
-163.387
11
126.307
21
-163.387
0
LINE
8
Black
10
126.307
20
-163.387
11
126.593
21
-163.53
0
LINE
8
Black
10
126.593
20
-163.53
11
126.736
21
-163.673
0
LINE
8
Black
10
126.736
20
-163.673
11
126.879
21
-163.959
0
LINE
8
Black
10
126.879
20
-163.959
11
126.879
21
-164.244
0
LINE
8
Black
10
126.879
20
-164.244
11
126.736
21
-164.673
0
LINE
8
Black
10
126.736
20
-164.673
11
125.021
21
-166.387
0
LINE
8
Black
10
125.021
20
-166.387
11
126.879
21
-166.387
0
LINE
8
Black
10
128.164
20
-166.387
11
128.164
21
-164.387
0
LINE
8
Black
10
128.164
20
-164.673
11
128.307
21
-164.53
0
LINE
8
Black
10
128.307
20
-164.53
11
128.593
21
-164.387
0
LINE
8
Black
10
128.593
20
-164.387
11
129.021
21
-164.387
0
LINE
8
Black
10
129.021
20
-164.387
11
129.307
21
-164.53
0
LINE
8
Black
10
129.307
20
-164.53
11
129.45
21
-164.816
0
LINE
8
Black
10
129.45
20
-164.816
11
129.45
21
-166.387
0
LINE
8
Black
10
129.45
20
-164.816
11
129.593
21
-164.53
0
LINE
8
Black
10
129.593
20
-164.53
11
129.879
21
-164.387
0
LINE
8
Black
10
129.879
20
-164.387
11
130.307
21
-164.387
0
LINE
8
Black
10
130.307
20
-164.387
11
130.593
21
-164.53
0
LINE
8
Black
10
130.593
20
-164.53
11
130.736
21
-164.816
0
LINE
8
Black
10
130.736
20
-164.816
11
130.736
21
-166.387
0
LINE
8
Black
10
132.164
20
-166.387
11
132.164
21
-164.387
0
LINE
8
Black
10
132.164
20
-164.673
11
132.307
21
-164.53
0
LINE
8
Black
10
132.307
20
-164.53
11
132.593
21
-164.387
0
LINE
8
Black
10
132.593
20
-164.387
11
133.021
21
-164.387
0
LINE
8
Black
10
133.021
20
-164.387
11
133.307
21
-164.53
0
LINE
8
Black
10
133.307
20
-164.53
11
133.45
21
-164.816
0
LINE
8
Black
10
133.45
20
-164.816
11
133.45
21
-166.387
0
LINE
8
Black
10
133.45
20
-164.816
11
133.593
21
-164.53
0
LINE
8
Black
10
133.593
20
-164.53
11
133.879
21
-164.387
0
LINE
8
Black
10
133.879
20
-164.387
11
134.307
21
-164.387
0
LINE
8
Black
10
134.307
20
-164.387
11
134.593
21
-164.53
0
LINE
8
Black
10
134.593
20
-164.53
11
134.736
21
-164.816
0
LINE
8
Black
10
134.736
20
-164.816
11
134.736
21
-166.387
0
LINE
8
Black
10
140.593
20
-163.244
11
138.021
21
-167.101
0
LINE
8
Black
10
144.45
20
-163.387
11
144.736
21
-163.387
0
LINE
8
Black
10
144.736
20
-163.387
11
145.021
21
-163.53
0
LINE
8
Black
10
145.021
20
-163.53
11
145.164
21
-163.673
0
LINE
8
Black
10
145.164
20
-163.673
11
145.307
21
-163.959
0
LINE
8
Black
10
145.307
20
-163.959
11
145.45
21
-164.53
0
LINE
8
Black
10
145.45
20
-164.53
11
145.45
21
-165.244
0
LINE
8
Black
10
145.45
20
-165.244
11
145.307
21
-165.816
0
LINE
8
Black
10
145.307
20
-165.816
11
145.164
21
-166.101
0
LINE
8
Black
10
145.164
20
-166.101
11
145.021
21
-166.244
0
LINE
8
Black
10
145.021
20
-166.244
11
144.736
21
-166.387
0
LINE
8
Black
10
144.736
20
-166.387
11
144.45
21
-166.387
0
LINE
8
Black
10
144.45
20
-166.387
11
144.164
21
-166.244
0
LINE
8
Black
10
144.164
20
-166.244
11
144.021
21
-166.101
0
LINE
8
Black
10
144.021
20
-166.101
11
143.879
21
-165.816
0
LINE
8
Black
10
143.879
20
-165.816
11
143.736
21
-165.244
0
LINE
8
Black
10
143.736
20
-165.244
11
143.736
21
-164.53
0
LINE
8
Black
10
143.736
20
-164.53
11
143.879
21
-163.959
0
LINE
8
Black
10
143.879
20
-163.959
11
144.021
21
-163.673
0
LINE
8
Black
10
144.021
20
-163.673
11
144.164
21
-163.53
0
LINE
8
Black
10
144.164
20
-163.53
11
144.45
21
-163.387
0
LINE
8
Black
10
146.736
20
-166.101
11
146.879
21
-166.244
0
LINE
8
Black
10
146.879
20
-166.244
11
146.736
21
-166.387
0
LINE
8
Black
10
146.736
20
-166.387
11
146.593
21
-166.244
0
LINE
8
Black
10
146.593
20
-166.244
11
146.736
21
-166.101
0
LINE
8
Black
10
146.736
20
-166.101
11
146.736
21
-166.387
0
LINE
8
Black
10
148.736
20
-163.387
11
149.021
21
-163.387
0
LINE
8
Black
10
149.021
20
-163.387
11
149.307
21
-163.53
0
LINE
8
Black
10
149.307
20
-163.53
11
149.45
21
-163.673
0
LINE
8
Black
10
149.45
20
-163.673
11
149.593
21
-163.959
0
LINE
8
Black
10
149.593
20
-163.959
11
149.736
21
-164.53
0
LINE
8
Black
10
149.736
20
-164.53
11
149.736
21
-165.244
0
LINE
8
Black
10
149.736
20
-165.244
11
149.593
21
-165.816
0
LINE
8
Black
10
149.593
20
-165.816
11
149.45
21
-166.101
0
LINE
8
Black
10
149.45
20
-166.101
11
149.307
21
-166.244
0
LINE
8
Black
10
149.307
20
-166.244
11
149.021
21
-166.387
0
LINE
8
Black
10
149.021
20
-166.387
11
148.736
21
-166.387
0
LINE
8
Black
10
148.736
20
-166.387
11
148.45
21
-166.244
0
LINE
8
Black
10
148.45
20
-166.244
11
148.307
21
-166.101
0
LINE
8
Black
10
148.307
20
-166.101
11
148.164
21
-165.816
0
LINE
8
Black
10
148.164
20
-165.816
11
148.021
21
-165.244
0
LINE
8
Black
10
148.021
20
-165.244
11
148.021
21
-164.53
0
LINE
8
Black
10
148.021
20
-164.53
11
148.164
21
-163.959
0
LINE
8
Black
10
148.164
20
-163.959
11
148.307
21
-163.673
0
LINE
8
Black
10
148.307
20
-163.673
11
148.45
21
-163.53
0
LINE
8
Black
10
148.45
20
-163.53
11
148.736
21
-163.387
0
LINE
8
Black
10
152.307
20
-164.387
11
152.307
21
-166.387
0
LINE
8
Black
10
151.593
20
-163.244
11
150.879
21
-165.387
0
LINE
8
Black
10
150.879
20
-165.387
11
152.736
21
-165.387
0
LINE
8
Black
10
154.45
20
-163.387
11
154.736
21
-163.387
0
LINE
8
Black
10
154.736
20
-163.387
11
155.021
21
-163.53
0
LINE
8
Black
10
155.021
20
-163.53
11
155.164
21
-163.673
0
LINE
8
Black
10
155.164
20
-163.673
11
155.307
21
-163.959
0
LINE
8
Black
10
155.307
20
-163.959
11
155.45
21
-164.53
0
LINE
8
Black
10
155.45
20
-164.53
11
155.45
21
-165.244
0
LINE
8
Black
10
155.45
20
-165.244
11
155.307
21
-165.816
0
LINE
8
Black
10
155.307
20
-165.816
11
155.164
21
-166.101
0
LINE
8
Black
10
155.164
20
-166.101
11
155.021
21
-166.244
0
LINE
8
Black
10
155.021
20
-166.244
11
154.736
21
-166.387
0
LINE
8
Black
10
154.736
20
-166.387
11
154.45
21
-166.387
0
LINE
8
Black
10
154.45
20
-166.387
11
154.164
21
-166.244
0
LINE
8
Black
10
154.164
20
-166.244
11
154.021
21
-166.101
0
LINE
8
Black
10
154.021
20
-166.101
11
153.879
21
-165.816
0
LINE
8
Black
10
153.879
20
-165.816
11
153.736
21
-165.244
0
LINE
8
Black
10
153.736
20
-165.244
11
153.736
21
-164.53
0
LINE
8
Black
10
153.736
20
-164.53
11
153.879
21
-163.959
0
LINE
8
Black
10
153.879
20
-163.959
11
154.021
21
-163.673
0
LINE
8
Black
10
154.021
20
-163.673
11
154.164
21
-163.53
0
LINE
8
Black
10
154.164
20
-163.53
11
154.45
21
-163.387
0
LINE
8
Black
10
156.593
20
-163.387
11
156.593
21
-163.959
0
LINE
8
Black
10
157.736
20
-163.387
11
157.736
21
-163.959
0
LINE
8
Black
10
162.164
20
-167.53
11
162.021
21
-167.387
0
LINE
8
Black
10
162.021
20
-167.387
11
161.736
21
-166.959
0
LINE
8
Black
10
161.736
20
-166.959
11
161.593
21
-166.673
0
LINE
8
Black
10
161.593
20
-166.673
11
161.45
21
-166.244
0
LINE
8
Black
10
161.45
20
-166.244
11
161.307
21
-165.53
0
LINE
8
Black
10
161.307
20
-165.53
11
161.307
21
-164.959
0
LINE
8
Black
10
161.307
20
-164.959
11
161.45
21
-164.244
0
LINE
8
Black
10
161.45
20
-164.244
11
161.593
21
-163.816
0
LINE
8
Black
10
161.593
20
-163.816
11
161.736
21
-163.53
0
LINE
8
Black
10
161.736
20
-163.53
11
162.021
21
-163.101
0
LINE
8
Black
10
162.021
20
-163.101
11
162.164
21
-162.959
0
LINE
8
Black
10
164.593
20
-164.387
11
164.593
21
-166.387
0
LINE
8
Black
10
163.879
20
-163.244
11
163.164
21
-165.387
0
LINE
8
Black
10
163.164
20
-165.387
11
165.021
21
-165.387
0
LINE
8
Black
10
168.45
20
-166.387
11
168.45
21
-163.387
0
LINE
8
Black
10
169.736
20
-166.387
11
169.736
21
-164.816
0
LINE
8
Black
10
169.736
20
-164.816
11
169.593
21
-164.53
0
LINE
8
Black
10
169.593
20
-164.53
11
169.307
21
-164.387
0
LINE
8
Black
10
169.307
20
-164.387
11
168.879
21
-164.387
0
LINE
8
Black
10
168.879
20
-164.387
11
168.593
21
-164.53
0
LINE
8
Black
10
168.593
20
-164.53
11
168.45
21
-164.673
0
LINE
8
Black
10
171.593
20
-166.387
11
171.307
21
-166.244
0
LINE
8
Black
10
171.307
20
-166.244
11
171.164
21
-166.101
0
LINE
8
Black
10
171.164
20
-166.101
11
171.021
21
-165.816
0
LINE
8
Black
10
171.021
20
-165.816
11
171.021
21
-164.959
0
LINE
8
Black
10
171.021
20
-164.959
11
171.164
21
-164.673
0
LINE
8
Black
10
171.164
20
-164.673
11
171.307
21
-164.53
0
LINE
8
Black
10
171.307
20
-164.53
11
171.593
21
-164.387
0
LINE
8
Black
10
171.593
20
-164.387
11
172.021
21
-164.387
0
LINE
8
Black
10
172.021
20
-164.387
11
172.307
21
-164.53
0
LINE
8
Black
10
172.307
20
-164.53
11
172.45
21
-164.673
0
LINE
8
Black
10
172.45
20
-164.673
11
172.593
21
-164.959
0
LINE
8
Black
10
172.593
20
-164.959
11
172.593
21
-165.816
0
LINE
8
Black
10
172.593
20
-165.816
11
172.45
21
-166.101
0
LINE
8
Black
10
172.45
20
-166.101
11
172.307
21
-166.244
0
LINE
8
Black
10
172.307
20
-166.244
11
172.021
21
-166.387
0
LINE
8
Black
10
172.021
20
-166.387
11
171.593
21
-166.387
0
LINE
8
Black
10
174.307
20
-166.387
11
174.021
21
-166.244
0
LINE
8
Black
10
174.021
20
-166.244
11
173.879
21
-165.959
0
LINE
8
Black
10
173.879
20
-165.959
11
173.879
21
-163.387
0
LINE
8
Black
10
176.593
20
-166.244
11
176.307
21
-166.387
0
LINE
8
Black
10
176.307
20
-166.387
11
175.736
21
-166.387
0
LINE
8
Black
10
175.736
20
-166.387
11
175.45
21
-166.244
0
LINE
8
Black
10
175.45
20
-166.244
11
175.307
21
-165.959
0
LINE
8
Black
10
175.307
20
-165.959
11
175.307
21
-164.816
0
LINE
8
Black
10
175.307
20
-164.816
11
175.45
21
-164.53
0
LINE
8
Black
10
175.45
20
-164.53
11
175.736
21
-164.387
0
LINE
8
Black
10
175.736
20
-164.387
11
176.307
21
-164.387
0
LINE
8
Black
10
176.307
20
-164.387
11
176.593
21
-164.53
0
LINE
8
Black
10
176.593
20
-164.53
11
176.736
21
-164.816
0
LINE
8
Black
10
176.736
20
-164.816
11
176.736
21
-165.101
0
LINE
8
Black
10
176.736
20
-165.101
11
175.307
21
-165.387
0
LINE
8
Black
10
177.879
20
-166.244
11
178.164
21
-166.387
0
LINE
8
Black
10
178.164
20
-166.387
11
178.736
21
-166.387
0
LINE
8
Black
10
178.736
20
-166.387
11
179.021
21
-166.244
0
LINE
8
Black
10
179.021
20
-166.244
11
179.164
21
-165.959
0
LINE
8
Black
10
179.164
20
-165.959
11
179.164
21
-165.816
0
LINE
8
Black
10
179.164
20
-165.816
11
179.021
21
-165.53
0
LINE
8
Black
10
179.021
20
-165.53
11
178.736
21
-165.387
0
LINE
8
Black
10
178.736
20
-165.387
11
178.307
21
-165.387
0
LINE
8
Black
10
178.307
20
-165.387
11
178.021
21
-165.244
0
LINE
8
Black
10
178.021
20
-165.244
11
177.879
21
-164.959
0
LINE
8
Black
10
177.879
20
-164.959
11
177.879
21
-164.816
0
LINE
8
Black
10
177.879
20
-164.816
11
178.021
21
-164.53
0
LINE
8
Black
10
178.021
20
-164.53
11
178.307
21
-164.387
0
LINE
8
Black
10
178.307
20
-164.387
11
178.736
21
-164.387
0
LINE
8
Black
10
178.736
20
-164.387
11
179.021
21
-164.53
0
LINE
8
Black
10
180.164
20
-167.53
11
180.307
21
-167.387
0
LINE
8
Black
10
180.307
20
-167.387
11
180.593
21
-166.959
0
LINE
8
Black
10
180.593
20
-166.959
11
180.736
21
-166.673
0
LINE
8
Black
10
180.736
20
-166.673
11
180.879
21
-166.244
0
LINE
8
Black
10
180.879
20
-166.244
11
181.021
21
-165.53
0
LINE
8
Black
10
181.021
20
-165.53
11
181.021
21
-164.959
0
LINE
8
Black
10
181.021
20
-164.959
11
180.879
21
-164.244
0
LINE
8
Black
10
180.879
20
-164.244
11
180.736
21
-163.816
0
LINE
8
Black
10
180.736
20
-163.816
11
180.593
21
-163.53
0
LINE
8
Black
10
180.593
20
-163.53
11
180.307
21
-163.101
0
LINE
8
Black
10
180.307
20
-163.101
11
180.164
21
-162.959
  0
ENDSEC
  0
EOF
