  0
SECTION
  2
HEADER
  9
$ANGBASE
  50
0.0
  9
$ANGDIR
  70
  1
  9
$MEASUREMENT
  70
0
  0
ENDSEC
  0
SECTION
  2
TABLES
  0
TABLE
  2
LTYPE
  70
1
  0
LTYPE
  2
CONTINUOUS
  70
0
  3
Solid line
  72
65
  73
0
  40
0.0
  0
ENDTAB
  0
TABLE
  2
STYLE
  70
4
  0
STYLE
  2
KICAD
  70
0
  40
0
  41
1
  42
1
  50
0
  71
0
  3
isocp.shx
  0
STYLE
  2
KICADB
  70
0
  40
0
  41
1
  42
1
  50
0
  71
0
  3
isocp.shx
  0
STYLE
  2
KICADI
  70
0
  40
0
  41
1
  42
1
  50
15
  71
0
  3
isocp.shx
  0
STYLE
  2
KICADBI
  70
0
  40
0
  41
1
  42
1
  50
15
  71
0
  3
isocp.shx
  0
ENDTAB
  0
TABLE
  2
LAYER
  70
30
  0
LAYER
  2
BLACK
  70
0
  62
7
  6
CONTINUOUS
  0
LAYER
  2
GRAY1
  70
0
  62
251
  6
CONTINUOUS
  0
LAYER
  2
GRAY2
  70
0
  62
8
  6
CONTINUOUS
  0
LAYER
  2
GRAY3
  70
0
  62
9
  6
CONTINUOUS
  0
LAYER
  2
WHITE
  70
0
  62
7
  6
CONTINUOUS
  0
LAYER
  2
LYELLOW
  70
0
  62
51
  6
CONTINUOUS
  0
LAYER
  2
BLUE1
  70
0
  62
178
  6
CONTINUOUS
  0
LAYER
  2
GREEN1
  70
0
  62
98
  6
CONTINUOUS
  0
LAYER
  2
CYAN1
  70
0
  62
138
  6
CONTINUOUS
  0
LAYER
  2
RED1
  70
0
  62
18
  6
CONTINUOUS
  0
LAYER
  2
MAGENTA1
  70
0
  62
228
  6
CONTINUOUS
  0
LAYER
  2
BROWN1
  70
0
  62
58
  6
CONTINUOUS
  0
LAYER
  2
BLUE2
  70
0
  62
5
  6
CONTINUOUS
  0
LAYER
  2
GREEN2
  70
0
  62
3
  6
CONTINUOUS
  0
LAYER
  2
CYAN2
  70
0
  62
4
  6
CONTINUOUS
  0
LAYER
  2
RED2
  70
0
  62
1
  6
CONTINUOUS
  0
LAYER
  2
MAGENTA2
  70
0
  62
6
  6
CONTINUOUS
  0
LAYER
  2
BROWN2
  70
0
  62
54
  6
CONTINUOUS
  0
LAYER
  2
BLUE3
  70
0
  62
171
  6
CONTINUOUS
  0
LAYER
  2
GREEN3
  70
0
  62
91
  6
CONTINUOUS
  0
LAYER
  2
CYAN3
  70
0
  62
131
  6
CONTINUOUS
  0
LAYER
  2
RED3
  70
0
  62
11
  6
CONTINUOUS
  0
LAYER
  2
MAGENTA3
  70
0
  62
221
  6
CONTINUOUS
  0
LAYER
  2
YELLOW3
  70
0
  62
2
  6
CONTINUOUS
  0
LAYER
  2
BLUE4
  70
0
  62
5
  6
CONTINUOUS
  0
LAYER
  2
GREEN4
  70
0
  62
3
  6
CONTINUOUS
  0
LAYER
  2
CYAN4
  70
0
  62
4
  6
CONTINUOUS
  0
LAYER
  2
RED4
  70
0
  62
1
  6
CONTINUOUS
  0
LAYER
  2
MAGENTA4
  70
0
  62
6
  6
CONTINUOUS
  0
LAYER
  2
YELLOW4
  70
0
  62
2
  6
CONTINUOUS
  0
ENDTAB
  0
ENDSEC
  0
SECTION
  2
ENTITIES
0
LINE
8
Black
10
136
20
-67.05
11
158
21
-67.05
0
LINE
8
Black
10
136
20
-66.95
11
158
21
-66.95
0
ARC
8
Black
10
158
20
-67
40
0.05
50
270
51
450
0
ARC
8
Black
10
136
20
-67
40
0.05
50
90
51
270
0
LINE
8
Black
10
158.05
20
-159
11
158.05
21
-67
0
LINE
8
Black
10
157.95
20
-159
11
157.95
21
-67
0
ARC
8
Black
10
158
20
-67
40
0.05
50
360
51
540
0
ARC
8
Black
10
158
20
-159
40
0.05
50
180
51
360
0
LINE
8
Black
10
136
20
-159.05
11
158
21
-159.05
0
LINE
8
Black
10
136
20
-158.95
11
158
21
-158.95
0
ARC
8
Black
10
158
20
-159
40
0.05
50
270
51
450
0
ARC
8
Black
10
136
20
-159
40
0.05
50
90
51
270
0
LINE
8
Black
10
136.05
20
-159
11
136.05
21
-67
0
LINE
8
Black
10
135.95
20
-159
11
135.95
21
-67
0
ARC
8
Black
10
136
20
-67
40
0.05
50
360
51
540
0
ARC
8
Black
10
136
20
-159
40
0.05
50
180
51
360
0
LINE
8
Black
10
138.8
20
-120.8
11
139.2
21
-121.2
0
LINE
8
Black
10
139.2
20
-120.8
11
138.8
21
-121.2
0
LINE
8
Black
10
142.9
20
-132.2
11
143.3
21
-132.6
0
LINE
8
Black
10
143.3
20
-132.2
11
142.9
21
-132.6
0
LINE
8
Black
10
144.1
20
-152.9
11
144.5
21
-153.3
0
LINE
8
Black
10
144.5
20
-152.9
11
144.1
21
-153.3
0
LINE
8
Black
10
144.3
20
-139.6
11
144.7
21
-140
0
LINE
8
Black
10
144.7
20
-139.6
11
144.3
21
-140
0
LINE
8
Black
10
144.6
20
-116.3
11
145
21
-116.7
0
LINE
8
Black
10
145
20
-116.3
11
144.6
21
-116.7
0
LINE
8
Black
10
144.6
20
-127.4
11
145
21
-127.8
0
LINE
8
Black
10
145
20
-127.4
11
144.6
21
-127.8
0
LINE
8
Black
10
146
20
-133.4
11
146.4
21
-133.8
0
LINE
8
Black
10
146.4
20
-133.4
11
146
21
-133.8
0
LINE
8
Black
10
146.9
20
-96
11
147.3
21
-96.4
0
LINE
8
Black
10
147.3
20
-96
11
146.9
21
-96.4
0
LINE
8
Black
10
148.3
20
-139.4
11
148.7
21
-139.8
0
LINE
8
Black
10
148.7
20
-139.4
11
148.3
21
-139.8
0
LINE
8
Black
10
149.9
20
-152.9
11
150.3
21
-153.3
0
LINE
8
Black
10
150.3
20
-152.9
11
149.9
21
-153.3
0
LINE
8
Black
10
153.7
20
-116.8
11
154.1
21
-117.2
0
LINE
8
Black
10
154.1
20
-116.8
11
153.7
21
-117.2
0
LINE
8
Black
10
153.8
20
-123.4
11
154.2
21
-123.8
0
LINE
8
Black
10
154.2
20
-123.4
11
153.8
21
-123.8
0
CIRCLE
8
Black
10
147
20
-106.75
40
0.5
0
CIRCLE
8
Black
10
147
20
-113.25
40
0.5
0
LINE
8
Black
10
153.5
20
-132
11
153.5
21
-133
0
LINE
8
Black
10
153
20
-132.5
11
154
21
-132.5
0
LINE
8
Black
10
153.5
20
-136.5
11
153.5
21
-137.5
0
LINE
8
Black
10
153
20
-137
11
154
21
-137
0
LINE
8
Black
10
140.859
20
-129.239
11
140.859
21
-128.521
0
LINE
8
Black
10
140.859
20
-128.521
11
140.141
21
-128.521
0
LINE
8
Black
10
140.141
20
-128.521
11
140.141
21
-129.239
0
LINE
8
Black
10
140.141
20
-129.239
11
140.859
21
-129.239
0
LINE
8
Black
10
140.859
20
-131.779
11
140.859
21
-131.061
0
LINE
8
Black
10
140.859
20
-131.061
11
140.141
21
-131.061
0
LINE
8
Black
10
140.141
20
-131.061
11
140.141
21
-131.779
0
LINE
8
Black
10
140.141
20
-131.779
11
140.859
21
-131.779
0
LINE
8
Black
10
140.859
20
-134.319
11
140.859
21
-133.601
0
LINE
8
Black
10
140.859
20
-133.601
11
140.141
21
-133.601
0
LINE
8
Black
10
140.141
20
-133.601
11
140.141
21
-134.319
0
LINE
8
Black
10
140.141
20
-134.319
11
140.859
21
-134.319
0
LINE
8
Black
10
140.859
20
-136.859
11
140.859
21
-136.141
0
LINE
8
Black
10
140.859
20
-136.141
11
140.141
21
-136.141
0
LINE
8
Black
10
140.141
20
-136.141
11
140.141
21
-136.859
0
LINE
8
Black
10
140.141
20
-136.859
11
140.859
21
-136.859
0
LINE
8
Black
10
138.664
20
-163.707
11
138.664
21
-160.707
0
LINE
8
Black
10
138.664
20
-160.707
11
139.379
21
-160.707
0
LINE
8
Black
10
139.379
20
-160.707
11
139.807
21
-160.85
0
LINE
8
Black
10
139.807
20
-160.85
11
140.093
21
-161.136
0
LINE
8
Black
10
140.093
20
-161.136
11
140.236
21
-161.421
0
LINE
8
Black
10
140.236
20
-161.421
11
140.379
21
-161.993
0
LINE
8
Black
10
140.379
20
-161.993
11
140.379
21
-162.421
0
LINE
8
Black
10
140.379
20
-162.421
11
140.236
21
-162.993
0
LINE
8
Black
10
140.236
20
-162.993
11
140.093
21
-163.279
0
LINE
8
Black
10
140.093
20
-163.279
11
139.807
21
-163.564
0
LINE
8
Black
10
139.807
20
-163.564
11
139.379
21
-163.707
0
LINE
8
Black
10
139.379
20
-163.707
11
138.664
21
-163.707
0
LINE
8
Black
10
141.664
20
-163.707
11
141.664
21
-161.707
0
LINE
8
Black
10
141.664
20
-162.279
11
141.807
21
-161.993
0
LINE
8
Black
10
141.807
20
-161.993
11
141.95
21
-161.85
0
LINE
8
Black
10
141.95
20
-161.85
11
142.236
21
-161.707
0
LINE
8
Black
10
142.236
20
-161.707
11
142.521
21
-161.707
0
LINE
8
Black
10
143.521
20
-163.707
11
143.521
21
-161.707
0
LINE
8
Black
10
143.521
20
-160.707
11
143.379
21
-160.85
0
LINE
8
Black
10
143.379
20
-160.85
11
143.521
21
-160.993
0
LINE
8
Black
10
143.521
20
-160.993
11
143.664
21
-160.85
0
LINE
8
Black
10
143.664
20
-160.85
11
143.521
21
-160.707
0
LINE
8
Black
10
143.521
20
-160.707
11
143.521
21
-160.993
0
LINE
8
Black
10
145.379
20
-163.707
11
145.093
21
-163.564
0
LINE
8
Black
10
145.093
20
-163.564
11
144.95
21
-163.279
0
LINE
8
Black
10
144.95
20
-163.279
11
144.95
21
-160.707
0
LINE
8
Black
10
146.95
20
-163.707
11
146.664
21
-163.564
0
LINE
8
Black
10
146.664
20
-163.564
11
146.521
21
-163.279
0
LINE
8
Black
10
146.521
20
-163.279
11
146.521
21
-160.707
0
LINE
8
Black
10
150.379
20
-163.707
11
150.379
21
-160.707
0
LINE
8
Black
10
150.379
20
-160.707
11
151.379
21
-162.85
0
LINE
8
Black
10
151.379
20
-162.85
11
152.379
21
-160.707
0
LINE
8
Black
10
152.379
20
-160.707
11
152.379
21
-163.707
0
LINE
8
Black
10
155.093
20
-163.707
11
155.093
21
-162.136
0
LINE
8
Black
10
155.093
20
-162.136
11
154.95
21
-161.85
0
LINE
8
Black
10
154.95
20
-161.85
11
154.664
21
-161.707
0
LINE
8
Black
10
154.664
20
-161.707
11
154.093
21
-161.707
0
LINE
8
Black
10
154.093
20
-161.707
11
153.807
21
-161.85
0
LINE
8
Black
10
155.093
20
-163.564
11
154.807
21
-163.707
0
LINE
8
Black
10
154.807
20
-163.707
11
154.093
21
-163.707
0
LINE
8
Black
10
154.093
20
-163.707
11
153.807
21
-163.564
0
LINE
8
Black
10
153.807
20
-163.564
11
153.664
21
-163.279
0
LINE
8
Black
10
153.664
20
-163.279
11
153.664
21
-162.993
0
LINE
8
Black
10
153.664
20
-162.993
11
153.807
21
-162.707
0
LINE
8
Black
10
153.807
20
-162.707
11
154.093
21
-162.564
0
LINE
8
Black
10
154.093
20
-162.564
11
154.807
21
-162.564
0
LINE
8
Black
10
154.807
20
-162.564
11
155.093
21
-162.421
0
LINE
8
Black
10
156.521
20
-161.707
11
156.521
21
-164.707
0
LINE
8
Black
10
156.521
20
-161.85
11
156.807
21
-161.707
0
LINE
8
Black
10
156.807
20
-161.707
11
157.379
21
-161.707
0
LINE
8
Black
10
157.379
20
-161.707
11
157.664
21
-161.85
0
LINE
8
Black
10
157.664
20
-161.85
11
157.807
21
-161.993
0
LINE
8
Black
10
157.807
20
-161.993
11
157.95
21
-162.279
0
LINE
8
Black
10
157.95
20
-162.279
11
157.95
21
-163.136
0
LINE
8
Black
10
157.95
20
-163.136
11
157.807
21
-163.421
0
LINE
8
Black
10
157.807
20
-163.421
11
157.664
21
-163.564
0
LINE
8
Black
10
157.664
20
-163.564
11
157.379
21
-163.707
0
LINE
8
Black
10
157.379
20
-163.707
11
156.807
21
-163.707
0
LINE
8
Black
10
156.807
20
-163.707
11
156.521
21
-163.564
0
LINE
8
Black
10
159.236
20
-163.421
11
159.379
21
-163.564
0
LINE
8
Black
10
159.379
20
-163.564
11
159.236
21
-163.707
0
LINE
8
Black
10
159.236
20
-163.707
11
159.093
21
-163.564
0
LINE
8
Black
10
159.093
20
-163.564
11
159.236
21
-163.421
0
LINE
8
Black
10
159.236
20
-163.421
11
159.236
21
-163.707
0
LINE
8
Black
10
159.236
20
-161.85
11
159.379
21
-161.993
0
LINE
8
Black
10
159.379
20
-161.993
11
159.236
21
-162.136
0
LINE
8
Black
10
159.236
20
-162.136
11
159.093
21
-161.993
0
LINE
8
Black
10
159.093
20
-161.993
11
159.236
21
-161.85
0
LINE
8
Black
10
159.236
20
-161.85
11
159.236
21
-162.136
0
LINE
8
Black
10
135.55
20
-168.45
11
135.95
21
-168.85
0
LINE
8
Black
10
135.95
20
-168.45
11
135.55
21
-168.85
0
LINE
8
Black
10
139.236
20
-167.007
11
139.521
21
-167.007
0
LINE
8
Black
10
139.521
20
-167.007
11
139.807
21
-167.15
0
LINE
8
Black
10
139.807
20
-167.15
11
139.95
21
-167.293
0
LINE
8
Black
10
139.95
20
-167.293
11
140.093
21
-167.579
0
LINE
8
Black
10
140.093
20
-167.579
11
140.236
21
-168.15
0
LINE
8
Black
10
140.236
20
-168.15
11
140.236
21
-168.864
0
LINE
8
Black
10
140.236
20
-168.864
11
140.093
21
-169.436
0
LINE
8
Black
10
140.093
20
-169.436
11
139.95
21
-169.721
0
LINE
8
Black
10
139.95
20
-169.721
11
139.807
21
-169.864
0
LINE
8
Black
10
139.807
20
-169.864
11
139.521
21
-170.007
0
LINE
8
Black
10
139.521
20
-170.007
11
139.236
21
-170.007
0
LINE
8
Black
10
139.236
20
-170.007
11
138.95
21
-169.864
0
LINE
8
Black
10
138.95
20
-169.864
11
138.807
21
-169.721
0
LINE
8
Black
10
138.807
20
-169.721
11
138.664
21
-169.436
0
LINE
8
Black
10
138.664
20
-169.436
11
138.521
21
-168.864
0
LINE
8
Black
10
138.521
20
-168.864
11
138.521
21
-168.15
0
LINE
8
Black
10
138.521
20
-168.15
11
138.664
21
-167.579
0
LINE
8
Black
10
138.664
20
-167.579
11
138.807
21
-167.293
0
LINE
8
Black
10
138.807
20
-167.293
11
138.95
21
-167.15
0
LINE
8
Black
10
138.95
20
-167.15
11
139.236
21
-167.007
0
LINE
8
Black
10
141.521
20
-169.721
11
141.664
21
-169.864
0
LINE
8
Black
10
141.664
20
-169.864
11
141.521
21
-170.007
0
LINE
8
Black
10
141.521
20
-170.007
11
141.379
21
-169.864
0
LINE
8
Black
10
141.379
20
-169.864
11
141.521
21
-169.721
0
LINE
8
Black
10
141.521
20
-169.721
11
141.521
21
-170.007
0
LINE
8
Black
10
144.236
20
-168.007
11
144.236
21
-170.007
0
LINE
8
Black
10
143.521
20
-166.864
11
142.807
21
-169.007
0
LINE
8
Black
10
142.807
20
-169.007
11
144.664
21
-169.007
0
LINE
8
Black
10
146.379
20
-167.007
11
146.664
21
-167.007
0
LINE
8
Black
10
146.664
20
-167.007
11
146.95
21
-167.15
0
LINE
8
Black
10
146.95
20
-167.15
11
147.093
21
-167.293
0
LINE
8
Black
10
147.093
20
-167.293
11
147.236
21
-167.579
0
LINE
8
Black
10
147.236
20
-167.579
11
147.379
21
-168.15
0
LINE
8
Black
10
147.379
20
-168.15
11
147.379
21
-168.864
0
LINE
8
Black
10
147.379
20
-168.864
11
147.236
21
-169.436
0
LINE
8
Black
10
147.236
20
-169.436
11
147.093
21
-169.721
0
LINE
8
Black
10
147.093
20
-169.721
11
146.95
21
-169.864
0
LINE
8
Black
10
146.95
20
-169.864
11
146.664
21
-170.007
0
LINE
8
Black
10
146.664
20
-170.007
11
146.379
21
-170.007
0
LINE
8
Black
10
146.379
20
-170.007
11
146.093
21
-169.864
0
LINE
8
Black
10
146.093
20
-169.864
11
145.95
21
-169.721
0
LINE
8
Black
10
145.95
20
-169.721
11
145.807
21
-169.436
0
LINE
8
Black
10
145.807
20
-169.436
11
145.664
21
-168.864
0
LINE
8
Black
10
145.664
20
-168.864
11
145.664
21
-168.15
0
LINE
8
Black
10
145.664
20
-168.15
11
145.807
21
-167.579
0
LINE
8
Black
10
145.807
20
-167.579
11
145.95
21
-167.293
0
LINE
8
Black
10
145.95
20
-167.293
11
146.093
21
-167.15
0
LINE
8
Black
10
146.093
20
-167.15
11
146.379
21
-167.007
0
LINE
8
Black
10
148.664
20
-170.007
11
148.664
21
-168.007
0
LINE
8
Black
10
148.664
20
-168.293
11
148.807
21
-168.15
0
LINE
8
Black
10
148.807
20
-168.15
11
149.093
21
-168.007
0
LINE
8
Black
10
149.093
20
-168.007
11
149.521
21
-168.007
0
LINE
8
Black
10
149.521
20
-168.007
11
149.807
21
-168.15
0
LINE
8
Black
10
149.807
20
-168.15
11
149.95
21
-168.436
0
LINE
8
Black
10
149.95
20
-168.436
11
149.95
21
-170.007
0
LINE
8
Black
10
149.95
20
-168.436
11
150.093
21
-168.15
0
LINE
8
Black
10
150.093
20
-168.15
11
150.379
21
-168.007
0
LINE
8
Black
10
150.379
20
-168.007
11
150.807
21
-168.007
0
LINE
8
Black
10
150.807
20
-168.007
11
151.093
21
-168.15
0
LINE
8
Black
10
151.093
20
-168.15
11
151.236
21
-168.436
0
LINE
8
Black
10
151.236
20
-168.436
11
151.236
21
-170.007
0
LINE
8
Black
10
152.664
20
-170.007
11
152.664
21
-168.007
0
LINE
8
Black
10
152.664
20
-168.293
11
152.807
21
-168.15
0
LINE
8
Black
10
152.807
20
-168.15
11
153.093
21
-168.007
0
LINE
8
Black
10
153.093
20
-168.007
11
153.521
21
-168.007
0
LINE
8
Black
10
153.521
20
-168.007
11
153.807
21
-168.15
0
LINE
8
Black
10
153.807
20
-168.15
11
153.95
21
-168.436
0
LINE
8
Black
10
153.95
20
-168.436
11
153.95
21
-170.007
0
LINE
8
Black
10
153.95
20
-168.436
11
154.093
21
-168.15
0
LINE
8
Black
10
154.093
20
-168.15
11
154.379
21
-168.007
0
LINE
8
Black
10
154.379
20
-168.007
11
154.807
21
-168.007
0
LINE
8
Black
10
154.807
20
-168.007
11
155.093
21
-168.15
0
LINE
8
Black
10
155.093
20
-168.15
11
155.236
21
-168.436
0
LINE
8
Black
10
155.236
20
-168.436
11
155.236
21
-170.007
0
LINE
8
Black
10
161.093
20
-166.864
11
158.521
21
-170.721
0
LINE
8
Black
10
164.95
20
-167.007
11
165.236
21
-167.007
0
LINE
8
Black
10
165.236
20
-167.007
11
165.521
21
-167.15
0
LINE
8
Black
10
165.521
20
-167.15
11
165.664
21
-167.293
0
LINE
8
Black
10
165.664
20
-167.293
11
165.807
21
-167.579
0
LINE
8
Black
10
165.807
20
-167.579
11
165.95
21
-168.15
0
LINE
8
Black
10
165.95
20
-168.15
11
165.95
21
-168.864
0
LINE
8
Black
10
165.95
20
-168.864
11
165.807
21
-169.436
0
LINE
8
Black
10
165.807
20
-169.436
11
165.664
21
-169.721
0
LINE
8
Black
10
165.664
20
-169.721
11
165.521
21
-169.864
0
LINE
8
Black
10
165.521
20
-169.864
11
165.236
21
-170.007
0
LINE
8
Black
10
165.236
20
-170.007
11
164.95
21
-170.007
0
LINE
8
Black
10
164.95
20
-170.007
11
164.664
21
-169.864
0
LINE
8
Black
10
164.664
20
-169.864
11
164.521
21
-169.721
0
LINE
8
Black
10
164.521
20
-169.721
11
164.379
21
-169.436
0
LINE
8
Black
10
164.379
20
-169.436
11
164.236
21
-168.864
0
LINE
8
Black
10
164.236
20
-168.864
11
164.236
21
-168.15
0
LINE
8
Black
10
164.236
20
-168.15
11
164.379
21
-167.579
0
LINE
8
Black
10
164.379
20
-167.579
11
164.521
21
-167.293
0
LINE
8
Black
10
164.521
20
-167.293
11
164.664
21
-167.15
0
LINE
8
Black
10
164.664
20
-167.15
11
164.95
21
-167.007
0
LINE
8
Black
10
167.236
20
-169.721
11
167.379
21
-169.864
0
LINE
8
Black
10
167.379
20
-169.864
11
167.236
21
-170.007
0
LINE
8
Black
10
167.236
20
-170.007
11
167.093
21
-169.864
0
LINE
8
Black
10
167.093
20
-169.864
11
167.236
21
-169.721
0
LINE
8
Black
10
167.236
20
-169.721
11
167.236
21
-170.007
0
LINE
8
Black
10
169.236
20
-167.007
11
169.521
21
-167.007
0
LINE
8
Black
10
169.521
20
-167.007
11
169.807
21
-167.15
0
LINE
8
Black
10
169.807
20
-167.15
11
169.95
21
-167.293
0
LINE
8
Black
10
169.95
20
-167.293
11
170.093
21
-167.579
0
LINE
8
Black
10
170.093
20
-167.579
11
170.236
21
-168.15
0
LINE
8
Black
10
170.236
20
-168.15
11
170.236
21
-168.864
0
LINE
8
Black
10
170.236
20
-168.864
11
170.093
21
-169.436
0
LINE
8
Black
10
170.093
20
-169.436
11
169.95
21
-169.721
0
LINE
8
Black
10
169.95
20
-169.721
11
169.807
21
-169.864
0
LINE
8
Black
10
169.807
20
-169.864
11
169.521
21
-170.007
0
LINE
8
Black
10
169.521
20
-170.007
11
169.236
21
-170.007
0
LINE
8
Black
10
169.236
20
-170.007
11
168.95
21
-169.864
0
LINE
8
Black
10
168.95
20
-169.864
11
168.807
21
-169.721
0
LINE
8
Black
10
168.807
20
-169.721
11
168.664
21
-169.436
0
LINE
8
Black
10
168.664
20
-169.436
11
168.521
21
-168.864
0
LINE
8
Black
10
168.521
20
-168.864
11
168.521
21
-168.15
0
LINE
8
Black
10
168.521
20
-168.15
11
168.664
21
-167.579
0
LINE
8
Black
10
168.664
20
-167.579
11
168.807
21
-167.293
0
LINE
8
Black
10
168.807
20
-167.293
11
168.95
21
-167.15
0
LINE
8
Black
10
168.95
20
-167.15
11
169.236
21
-167.007
0
LINE
8
Black
10
173.093
20
-170.007
11
171.379
21
-170.007
0
LINE
8
Black
10
172.236
20
-170.007
11
172.236
21
-167.007
0
LINE
8
Black
10
172.236
20
-167.007
11
171.95
21
-167.436
0
LINE
8
Black
10
171.95
20
-167.436
11
171.664
21
-167.721
0
LINE
8
Black
10
171.664
20
-167.721
11
171.379
21
-167.864
0
LINE
8
Black
10
175.664
20
-167.007
11
175.093
21
-167.007
0
LINE
8
Black
10
175.093
20
-167.007
11
174.807
21
-167.15
0
LINE
8
Black
10
174.807
20
-167.15
11
174.664
21
-167.293
0
LINE
8
Black
10
174.664
20
-167.293
11
174.379
21
-167.721
0
LINE
8
Black
10
174.379
20
-167.721
11
174.236
21
-168.293
0
LINE
8
Black
10
174.236
20
-168.293
11
174.236
21
-169.436
0
LINE
8
Black
10
174.236
20
-169.436
11
174.379
21
-169.721
0
LINE
8
Black
10
174.379
20
-169.721
11
174.521
21
-169.864
0
LINE
8
Black
10
174.521
20
-169.864
11
174.807
21
-170.007
0
LINE
8
Black
10
174.807
20
-170.007
11
175.379
21
-170.007
0
LINE
8
Black
10
175.379
20
-170.007
11
175.664
21
-169.864
0
LINE
8
Black
10
175.664
20
-169.864
11
175.807
21
-169.721
0
LINE
8
Black
10
175.807
20
-169.721
11
175.95
21
-169.436
0
LINE
8
Black
10
175.95
20
-169.436
11
175.95
21
-168.721
0
LINE
8
Black
10
175.95
20
-168.721
11
175.807
21
-168.436
0
LINE
8
Black
10
175.807
20
-168.436
11
175.664
21
-168.293
0
LINE
8
Black
10
175.664
20
-168.293
11
175.379
21
-168.15
0
LINE
8
Black
10
175.379
20
-168.15
11
174.807
21
-168.15
0
LINE
8
Black
10
174.807
20
-168.15
11
174.521
21
-168.293
0
LINE
8
Black
10
174.521
20
-168.293
11
174.379
21
-168.436
0
LINE
8
Black
10
174.379
20
-168.436
11
174.236
21
-168.721
0
LINE
8
Black
10
177.093
20
-167.007
11
177.093
21
-167.579
0
LINE
8
Black
10
178.236
20
-167.007
11
178.236
21
-167.579
0
LINE
8
Black
10
182.664
20
-171.15
11
182.521
21
-171.007
0
LINE
8
Black
10
182.521
20
-171.007
11
182.236
21
-170.579
0
LINE
8
Black
10
182.236
20
-170.579
11
182.093
21
-170.293
0
LINE
8
Black
10
182.093
20
-170.293
11
181.95
21
-169.864
0
LINE
8
Black
10
181.95
20
-169.864
11
181.807
21
-169.15
0
LINE
8
Black
10
181.807
20
-169.15
11
181.807
21
-168.579
0
LINE
8
Black
10
181.807
20
-168.579
11
181.95
21
-167.864
0
LINE
8
Black
10
181.95
20
-167.864
11
182.093
21
-167.436
0
LINE
8
Black
10
182.093
20
-167.436
11
182.236
21
-167.15
0
LINE
8
Black
10
182.236
20
-167.15
11
182.521
21
-166.721
0
LINE
8
Black
10
182.521
20
-166.721
11
182.664
21
-166.579
0
LINE
8
Black
10
185.379
20
-170.007
11
183.664
21
-170.007
0
LINE
8
Black
10
184.521
20
-170.007
11
184.521
21
-167.007
0
LINE
8
Black
10
184.521
20
-167.007
11
184.236
21
-167.436
0
LINE
8
Black
10
184.236
20
-167.436
11
183.95
21
-167.721
0
LINE
8
Black
10
183.95
20
-167.721
11
183.664
21
-167.864
0
LINE
8
Black
10
186.521
20
-167.293
11
186.664
21
-167.15
0
LINE
8
Black
10
186.664
20
-167.15
11
186.95
21
-167.007
0
LINE
8
Black
10
186.95
20
-167.007
11
187.664
21
-167.007
0
LINE
8
Black
10
187.664
20
-167.007
11
187.95
21
-167.15
0
LINE
8
Black
10
187.95
20
-167.15
11
188.093
21
-167.293
0
LINE
8
Black
10
188.093
20
-167.293
11
188.236
21
-167.579
0
LINE
8
Black
10
188.236
20
-167.579
11
188.236
21
-167.864
0
LINE
8
Black
10
188.236
20
-167.864
11
188.093
21
-168.293
0
LINE
8
Black
10
188.093
20
-168.293
11
186.379
21
-170.007
0
LINE
8
Black
10
186.379
20
-170.007
11
188.236
21
-170.007
0
LINE
8
Black
10
191.807
20
-170.007
11
191.807
21
-167.007
0
LINE
8
Black
10
193.093
20
-170.007
11
193.093
21
-168.436
0
LINE
8
Black
10
193.093
20
-168.436
11
192.95
21
-168.15
0
LINE
8
Black
10
192.95
20
-168.15
11
192.664
21
-168.007
0
LINE
8
Black
10
192.664
20
-168.007
11
192.236
21
-168.007
0
LINE
8
Black
10
192.236
20
-168.007
11
191.95
21
-168.15
0
LINE
8
Black
10
191.95
20
-168.15
11
191.807
21
-168.293
0
LINE
8
Black
10
194.95
20
-170.007
11
194.664
21
-169.864
0
LINE
8
Black
10
194.664
20
-169.864
11
194.521
21
-169.721
0
LINE
8
Black
10
194.521
20
-169.721
11
194.379
21
-169.436
0
LINE
8
Black
10
194.379
20
-169.436
11
194.379
21
-168.579
0
LINE
8
Black
10
194.379
20
-168.579
11
194.521
21
-168.293
0
LINE
8
Black
10
194.521
20
-168.293
11
194.664
21
-168.15
0
LINE
8
Black
10
194.664
20
-168.15
11
194.95
21
-168.007
0
LINE
8
Black
10
194.95
20
-168.007
11
195.379
21
-168.007
0
LINE
8
Black
10
195.379
20
-168.007
11
195.664
21
-168.15
0
LINE
8
Black
10
195.664
20
-168.15
11
195.807
21
-168.293
0
LINE
8
Black
10
195.807
20
-168.293
11
195.95
21
-168.579
0
LINE
8
Black
10
195.95
20
-168.579
11
195.95
21
-169.436
0
LINE
8
Black
10
195.95
20
-169.436
11
195.807
21
-169.721
0
LINE
8
Black
10
195.807
20
-169.721
11
195.664
21
-169.864
0
LINE
8
Black
10
195.664
20
-169.864
11
195.379
21
-170.007
0
LINE
8
Black
10
195.379
20
-170.007
11
194.95
21
-170.007
0
LINE
8
Black
10
197.664
20
-170.007
11
197.379
21
-169.864
0
LINE
8
Black
10
197.379
20
-169.864
11
197.236
21
-169.579
0
LINE
8
Black
10
197.236
20
-169.579
11
197.236
21
-167.007
0
LINE
8
Black
10
199.95
20
-169.864
11
199.664
21
-170.007
0
LINE
8
Black
10
199.664
20
-170.007
11
199.093
21
-170.007
0
LINE
8
Black
10
199.093
20
-170.007
11
198.807
21
-169.864
0
LINE
8
Black
10
198.807
20
-169.864
11
198.664
21
-169.579
0
LINE
8
Black
10
198.664
20
-169.579
11
198.664
21
-168.436
0
LINE
8
Black
10
198.664
20
-168.436
11
198.807
21
-168.15
0
LINE
8
Black
10
198.807
20
-168.15
11
199.093
21
-168.007
0
LINE
8
Black
10
199.093
20
-168.007
11
199.664
21
-168.007
0
LINE
8
Black
10
199.664
20
-168.007
11
199.95
21
-168.15
0
LINE
8
Black
10
199.95
20
-168.15
11
200.093
21
-168.436
0
LINE
8
Black
10
200.093
20
-168.436
11
200.093
21
-168.721
0
LINE
8
Black
10
200.093
20
-168.721
11
198.664
21
-169.007
0
LINE
8
Black
10
201.236
20
-169.864
11
201.521
21
-170.007
0
LINE
8
Black
10
201.521
20
-170.007
11
202.093
21
-170.007
0
LINE
8
Black
10
202.093
20
-170.007
11
202.379
21
-169.864
0
LINE
8
Black
10
202.379
20
-169.864
11
202.521
21
-169.579
0
LINE
8
Black
10
202.521
20
-169.579
11
202.521
21
-169.436
0
LINE
8
Black
10
202.521
20
-169.436
11
202.379
21
-169.15
0
LINE
8
Black
10
202.379
20
-169.15
11
202.093
21
-169.007
0
LINE
8
Black
10
202.093
20
-169.007
11
201.664
21
-169.007
0
LINE
8
Black
10
201.664
20
-169.007
11
201.379
21
-168.864
0
LINE
8
Black
10
201.379
20
-168.864
11
201.236
21
-168.579
0
LINE
8
Black
10
201.236
20
-168.579
11
201.236
21
-168.436
0
LINE
8
Black
10
201.236
20
-168.436
11
201.379
21
-168.15
0
LINE
8
Black
10
201.379
20
-168.15
11
201.664
21
-168.007
0
LINE
8
Black
10
201.664
20
-168.007
11
202.093
21
-168.007
0
LINE
8
Black
10
202.093
20
-168.007
11
202.379
21
-168.15
0
LINE
8
Black
10
203.521
20
-171.15
11
203.664
21
-171.007
0
LINE
8
Black
10
203.664
20
-171.007
11
203.95
21
-170.579
0
LINE
8
Black
10
203.95
20
-170.579
11
204.093
21
-170.293
0
LINE
8
Black
10
204.093
20
-170.293
11
204.236
21
-169.864
0
LINE
8
Black
10
204.236
20
-169.864
11
204.379
21
-169.15
0
LINE
8
Black
10
204.379
20
-169.15
11
204.379
21
-168.579
0
LINE
8
Black
10
204.379
20
-168.579
11
204.236
21
-167.864
0
LINE
8
Black
10
204.236
20
-167.864
11
204.093
21
-167.436
0
LINE
8
Black
10
204.093
20
-167.436
11
203.95
21
-167.15
0
LINE
8
Black
10
203.95
20
-167.15
11
203.664
21
-166.721
0
LINE
8
Black
10
203.664
20
-166.721
11
203.521
21
-166.579
0
CIRCLE
8
Black
10
135.45
20
-172.61
40
0.5
0
LINE
8
Black
10
140.236
20
-173.967
11
138.521
21
-173.967
0
LINE
8
Black
10
139.379
20
-173.967
11
139.379
21
-170.967
0
LINE
8
Black
10
139.379
20
-170.967
11
139.093
21
-171.396
0
LINE
8
Black
10
139.093
20
-171.396
11
138.807
21
-171.681
0
LINE
8
Black
10
138.807
20
-171.681
11
138.521
21
-171.824
0
LINE
8
Black
10
141.521
20
-173.681
11
141.664
21
-173.824
0
LINE
8
Black
10
141.664
20
-173.824
11
141.521
21
-173.967
0
LINE
8
Black
10
141.521
20
-173.967
11
141.379
21
-173.824
0
LINE
8
Black
10
141.379
20
-173.824
11
141.521
21
-173.681
0
LINE
8
Black
10
141.521
20
-173.681
11
141.521
21
-173.967
0
LINE
8
Black
10
143.521
20
-170.967
11
143.807
21
-170.967
0
LINE
8
Black
10
143.807
20
-170.967
11
144.093
21
-171.11
0
LINE
8
Black
10
144.093
20
-171.11
11
144.236
21
-171.253
0
LINE
8
Black
10
144.236
20
-171.253
11
144.379
21
-171.539
0
LINE
8
Black
10
144.379
20
-171.539
11
144.521
21
-172.11
0
LINE
8
Black
10
144.521
20
-172.11
11
144.521
21
-172.824
0
LINE
8
Black
10
144.521
20
-172.824
11
144.379
21
-173.396
0
LINE
8
Black
10
144.379
20
-173.396
11
144.236
21
-173.681
0
LINE
8
Black
10
144.236
20
-173.681
11
144.093
21
-173.824
0
LINE
8
Black
10
144.093
20
-173.824
11
143.807
21
-173.967
0
LINE
8
Black
10
143.807
20
-173.967
11
143.521
21
-173.967
0
LINE
8
Black
10
143.521
20
-173.967
11
143.236
21
-173.824
0
LINE
8
Black
10
143.236
20
-173.824
11
143.093
21
-173.681
0
LINE
8
Black
10
143.093
20
-173.681
11
142.95
21
-173.396
0
LINE
8
Black
10
142.95
20
-173.396
11
142.807
21
-172.824
0
LINE
8
Black
10
142.807
20
-172.824
11
142.807
21
-172.11
0
LINE
8
Black
10
142.807
20
-172.11
11
142.95
21
-171.539
0
LINE
8
Black
10
142.95
20
-171.539
11
143.093
21
-171.253
0
LINE
8
Black
10
143.093
20
-171.253
11
143.236
21
-171.11
0
LINE
8
Black
10
143.236
20
-171.11
11
143.521
21
-170.967
0
LINE
8
Black
10
146.379
20
-170.967
11
146.664
21
-170.967
0
LINE
8
Black
10
146.664
20
-170.967
11
146.95
21
-171.11
0
LINE
8
Black
10
146.95
20
-171.11
11
147.093
21
-171.253
0
LINE
8
Black
10
147.093
20
-171.253
11
147.236
21
-171.539
0
LINE
8
Black
10
147.236
20
-171.539
11
147.379
21
-172.11
0
LINE
8
Black
10
147.379
20
-172.11
11
147.379
21
-172.824
0
LINE
8
Black
10
147.379
20
-172.824
11
147.236
21
-173.396
0
LINE
8
Black
10
147.236
20
-173.396
11
147.093
21
-173.681
0
LINE
8
Black
10
147.093
20
-173.681
11
146.95
21
-173.824
0
LINE
8
Black
10
146.95
20
-173.824
11
146.664
21
-173.967
0
LINE
8
Black
10
146.664
20
-173.967
11
146.379
21
-173.967
0
LINE
8
Black
10
146.379
20
-173.967
11
146.093
21
-173.824
0
LINE
8
Black
10
146.093
20
-173.824
11
145.95
21
-173.681
0
LINE
8
Black
10
145.95
20
-173.681
11
145.807
21
-173.396
0
LINE
8
Black
10
145.807
20
-173.396
11
145.664
21
-172.824
0
LINE
8
Black
10
145.664
20
-172.824
11
145.664
21
-172.11
0
LINE
8
Black
10
145.664
20
-172.11
11
145.807
21
-171.539
0
LINE
8
Black
10
145.807
20
-171.539
11
145.95
21
-171.253
0
LINE
8
Black
10
145.95
20
-171.253
11
146.093
21
-171.11
0
LINE
8
Black
10
146.093
20
-171.11
11
146.379
21
-170.967
0
LINE
8
Black
10
148.664
20
-173.967
11
148.664
21
-171.967
0
LINE
8
Black
10
148.664
20
-172.253
11
148.807
21
-172.11
0
LINE
8
Black
10
148.807
20
-172.11
11
149.093
21
-171.967
0
LINE
8
Black
10
149.093
20
-171.967
11
149.521
21
-171.967
0
LINE
8
Black
10
149.521
20
-171.967
11
149.807
21
-172.11
0
LINE
8
Black
10
149.807
20
-172.11
11
149.95
21
-172.396
0
LINE
8
Black
10
149.95
20
-172.396
11
149.95
21
-173.967
0
LINE
8
Black
10
149.95
20
-172.396
11
150.093
21
-172.11
0
LINE
8
Black
10
150.093
20
-172.11
11
150.379
21
-171.967
0
LINE
8
Black
10
150.379
20
-171.967
11
150.807
21
-171.967
0
LINE
8
Black
10
150.807
20
-171.967
11
151.093
21
-172.11
0
LINE
8
Black
10
151.093
20
-172.11
11
151.236
21
-172.396
0
LINE
8
Black
10
151.236
20
-172.396
11
151.236
21
-173.967
0
LINE
8
Black
10
152.664
20
-173.967
11
152.664
21
-171.967
0
LINE
8
Black
10
152.664
20
-172.253
11
152.807
21
-172.11
0
LINE
8
Black
10
152.807
20
-172.11
11
153.093
21
-171.967
0
LINE
8
Black
10
153.093
20
-171.967
11
153.521
21
-171.967
0
LINE
8
Black
10
153.521
20
-171.967
11
153.807
21
-172.11
0
LINE
8
Black
10
153.807
20
-172.11
11
153.95
21
-172.396
0
LINE
8
Black
10
153.95
20
-172.396
11
153.95
21
-173.967
0
LINE
8
Black
10
153.95
20
-172.396
11
154.093
21
-172.11
0
LINE
8
Black
10
154.093
20
-172.11
11
154.379
21
-171.967
0
LINE
8
Black
10
154.379
20
-171.967
11
154.807
21
-171.967
0
LINE
8
Black
10
154.807
20
-171.967
11
155.093
21
-172.11
0
LINE
8
Black
10
155.093
20
-172.11
11
155.236
21
-172.396
0
LINE
8
Black
10
155.236
20
-172.396
11
155.236
21
-173.967
0
LINE
8
Black
10
161.093
20
-170.824
11
158.521
21
-174.681
0
LINE
8
Black
10
164.95
20
-170.967
11
165.236
21
-170.967
0
LINE
8
Black
10
165.236
20
-170.967
11
165.521
21
-171.11
0
LINE
8
Black
10
165.521
20
-171.11
11
165.664
21
-171.253
0
LINE
8
Black
10
165.664
20
-171.253
11
165.807
21
-171.539
0
LINE
8
Black
10
165.807
20
-171.539
11
165.95
21
-172.11
0
LINE
8
Black
10
165.95
20
-172.11
11
165.95
21
-172.824
0
LINE
8
Black
10
165.95
20
-172.824
11
165.807
21
-173.396
0
LINE
8
Black
10
165.807
20
-173.396
11
165.664
21
-173.681
0
LINE
8
Black
10
165.664
20
-173.681
11
165.521
21
-173.824
0
LINE
8
Black
10
165.521
20
-173.824
11
165.236
21
-173.967
0
LINE
8
Black
10
165.236
20
-173.967
11
164.95
21
-173.967
0
LINE
8
Black
10
164.95
20
-173.967
11
164.664
21
-173.824
0
LINE
8
Black
10
164.664
20
-173.824
11
164.521
21
-173.681
0
LINE
8
Black
10
164.521
20
-173.681
11
164.379
21
-173.396
0
LINE
8
Black
10
164.379
20
-173.396
11
164.236
21
-172.824
0
LINE
8
Black
10
164.236
20
-172.824
11
164.236
21
-172.11
0
LINE
8
Black
10
164.236
20
-172.11
11
164.379
21
-171.539
0
LINE
8
Black
10
164.379
20
-171.539
11
164.521
21
-171.253
0
LINE
8
Black
10
164.521
20
-171.253
11
164.664
21
-171.11
0
LINE
8
Black
10
164.664
20
-171.11
11
164.95
21
-170.967
0
LINE
8
Black
10
167.236
20
-173.681
11
167.379
21
-173.824
0
LINE
8
Black
10
167.379
20
-173.824
11
167.236
21
-173.967
0
LINE
8
Black
10
167.236
20
-173.967
11
167.093
21
-173.824
0
LINE
8
Black
10
167.093
20
-173.824
11
167.236
21
-173.681
0
LINE
8
Black
10
167.236
20
-173.681
11
167.236
21
-173.967
0
LINE
8
Black
10
169.236
20
-170.967
11
169.521
21
-170.967
0
LINE
8
Black
10
169.521
20
-170.967
11
169.807
21
-171.11
0
LINE
8
Black
10
169.807
20
-171.11
11
169.95
21
-171.253
0
LINE
8
Black
10
169.95
20
-171.253
11
170.093
21
-171.539
0
LINE
8
Black
10
170.093
20
-171.539
11
170.236
21
-172.11
0
LINE
8
Black
10
170.236
20
-172.11
11
170.236
21
-172.824
0
LINE
8
Black
10
170.236
20
-172.824
11
170.093
21
-173.396
0
LINE
8
Black
10
170.093
20
-173.396
11
169.95
21
-173.681
0
LINE
8
Black
10
169.95
20
-173.681
11
169.807
21
-173.824
0
LINE
8
Black
10
169.807
20
-173.824
11
169.521
21
-173.967
0
LINE
8
Black
10
169.521
20
-173.967
11
169.236
21
-173.967
0
LINE
8
Black
10
169.236
20
-173.967
11
168.95
21
-173.824
0
LINE
8
Black
10
168.95
20
-173.824
11
168.807
21
-173.681
0
LINE
8
Black
10
168.807
20
-173.681
11
168.664
21
-173.396
0
LINE
8
Black
10
168.664
20
-173.396
11
168.521
21
-172.824
0
LINE
8
Black
10
168.521
20
-172.824
11
168.521
21
-172.11
0
LINE
8
Black
10
168.521
20
-172.11
11
168.664
21
-171.539
0
LINE
8
Black
10
168.664
20
-171.539
11
168.807
21
-171.253
0
LINE
8
Black
10
168.807
20
-171.253
11
168.95
21
-171.11
0
LINE
8
Black
10
168.95
20
-171.11
11
169.236
21
-170.967
0
LINE
8
Black
10
171.236
20
-170.967
11
173.093
21
-170.967
0
LINE
8
Black
10
173.093
20
-170.967
11
172.093
21
-172.11
0
LINE
8
Black
10
172.093
20
-172.11
11
172.521
21
-172.11
0
LINE
8
Black
10
172.521
20
-172.11
11
172.807
21
-172.253
0
LINE
8
Black
10
172.807
20
-172.253
11
172.95
21
-172.396
0
LINE
8
Black
10
172.95
20
-172.396
11
173.093
21
-172.681
0
LINE
8
Black
10
173.093
20
-172.681
11
173.093
21
-173.396
0
LINE
8
Black
10
173.093
20
-173.396
11
172.95
21
-173.681
0
LINE
8
Black
10
172.95
20
-173.681
11
172.807
21
-173.824
0
LINE
8
Black
10
172.807
20
-173.824
11
172.521
21
-173.967
0
LINE
8
Black
10
172.521
20
-173.967
11
171.664
21
-173.967
0
LINE
8
Black
10
171.664
20
-173.967
11
171.379
21
-173.824
0
LINE
8
Black
10
171.379
20
-173.824
11
171.236
21
-173.681
0
LINE
8
Black
10
174.521
20
-173.967
11
175.093
21
-173.967
0
LINE
8
Black
10
175.093
20
-173.967
11
175.379
21
-173.824
0
LINE
8
Black
10
175.379
20
-173.824
11
175.521
21
-173.681
0
LINE
8
Black
10
175.521
20
-173.681
11
175.807
21
-173.253
0
LINE
8
Black
10
175.807
20
-173.253
11
175.95
21
-172.681
0
LINE
8
Black
10
175.95
20
-172.681
11
175.95
21
-171.539
0
LINE
8
Black
10
175.95
20
-171.539
11
175.807
21
-171.253
0
LINE
8
Black
10
175.807
20
-171.253
11
175.664
21
-171.11
0
LINE
8
Black
10
175.664
20
-171.11
11
175.379
21
-170.967
0
LINE
8
Black
10
175.379
20
-170.967
11
174.807
21
-170.967
0
LINE
8
Black
10
174.807
20
-170.967
11
174.521
21
-171.11
0
LINE
8
Black
10
174.521
20
-171.11
11
174.379
21
-171.253
0
LINE
8
Black
10
174.379
20
-171.253
11
174.236
21
-171.539
0
LINE
8
Black
10
174.236
20
-171.539
11
174.236
21
-172.253
0
LINE
8
Black
10
174.236
20
-172.253
11
174.379
21
-172.539
0
LINE
8
Black
10
174.379
20
-172.539
11
174.521
21
-172.681
0
LINE
8
Black
10
174.521
20
-172.681
11
174.807
21
-172.824
0
LINE
8
Black
10
174.807
20
-172.824
11
175.379
21
-172.824
0
LINE
8
Black
10
175.379
20
-172.824
11
175.664
21
-172.681
0
LINE
8
Black
10
175.664
20
-172.681
11
175.807
21
-172.539
0
LINE
8
Black
10
175.807
20
-172.539
11
175.95
21
-172.253
0
LINE
8
Black
10
177.093
20
-170.967
11
177.093
21
-171.539
0
LINE
8
Black
10
178.236
20
-170.967
11
178.236
21
-171.539
0
LINE
8
Black
10
182.664
20
-175.11
11
182.521
21
-174.967
0
LINE
8
Black
10
182.521
20
-174.967
11
182.236
21
-174.539
0
LINE
8
Black
10
182.236
20
-174.539
11
182.093
21
-174.253
0
LINE
8
Black
10
182.093
20
-174.253
11
181.95
21
-173.824
0
LINE
8
Black
10
181.95
20
-173.824
11
181.807
21
-173.11
0
LINE
8
Black
10
181.807
20
-173.11
11
181.807
21
-172.539
0
LINE
8
Black
10
181.807
20
-172.539
11
181.95
21
-171.824
0
LINE
8
Black
10
181.95
20
-171.824
11
182.093
21
-171.396
0
LINE
8
Black
10
182.093
20
-171.396
11
182.236
21
-171.11
0
LINE
8
Black
10
182.236
20
-171.11
11
182.521
21
-170.681
0
LINE
8
Black
10
182.521
20
-170.681
11
182.664
21
-170.539
0
LINE
8
Black
10
183.664
20
-171.253
11
183.807
21
-171.11
0
LINE
8
Black
10
183.807
20
-171.11
11
184.093
21
-170.967
0
LINE
8
Black
10
184.093
20
-170.967
11
184.807
21
-170.967
0
LINE
8
Black
10
184.807
20
-170.967
11
185.093
21
-171.11
0
LINE
8
Black
10
185.093
20
-171.11
11
185.236
21
-171.253
0
LINE
8
Black
10
185.236
20
-171.253
11
185.379
21
-171.539
0
LINE
8
Black
10
185.379
20
-171.539
11
185.379
21
-171.824
0
LINE
8
Black
10
185.379
20
-171.824
11
185.236
21
-172.253
0
LINE
8
Black
10
185.236
20
-172.253
11
183.521
21
-173.967
0
LINE
8
Black
10
183.521
20
-173.967
11
185.379
21
-173.967
0
LINE
8
Black
10
188.95
20
-173.967
11
188.95
21
-170.967
0
LINE
8
Black
10
190.236
20
-173.967
11
190.236
21
-172.396
0
LINE
8
Black
10
190.236
20
-172.396
11
190.093
21
-172.11
0
LINE
8
Black
10
190.093
20
-172.11
11
189.807
21
-171.967
0
LINE
8
Black
10
189.807
20
-171.967
11
189.379
21
-171.967
0
LINE
8
Black
10
189.379
20
-171.967
11
189.093
21
-172.11
0
LINE
8
Black
10
189.093
20
-172.11
11
188.95
21
-172.253
0
LINE
8
Black
10
192.093
20
-173.967
11
191.807
21
-173.824
0
LINE
8
Black
10
191.807
20
-173.824
11
191.664
21
-173.681
0
LINE
8
Black
10
191.664
20
-173.681
11
191.521
21
-173.396
0
LINE
8
Black
10
191.521
20
-173.396
11
191.521
21
-172.539
0
LINE
8
Black
10
191.521
20
-172.539
11
191.664
21
-172.253
0
LINE
8
Black
10
191.664
20
-172.253
11
191.807
21
-172.11
0
LINE
8
Black
10
191.807
20
-172.11
11
192.093
21
-171.967
0
LINE
8
Black
10
192.093
20
-171.967
11
192.521
21
-171.967
0
LINE
8
Black
10
192.521
20
-171.967
11
192.807
21
-172.11
0
LINE
8
Black
10
192.807
20
-172.11
11
192.95
21
-172.253
0
LINE
8
Black
10
192.95
20
-172.253
11
193.093
21
-172.539
0
LINE
8
Black
10
193.093
20
-172.539
11
193.093
21
-173.396
0
LINE
8
Black
10
193.093
20
-173.396
11
192.95
21
-173.681
0
LINE
8
Black
10
192.95
20
-173.681
11
192.807
21
-173.824
0
LINE
8
Black
10
192.807
20
-173.824
11
192.521
21
-173.967
0
LINE
8
Black
10
192.521
20
-173.967
11
192.093
21
-173.967
0
LINE
8
Black
10
194.807
20
-173.967
11
194.521
21
-173.824
0
LINE
8
Black
10
194.521
20
-173.824
11
194.379
21
-173.539
0
LINE
8
Black
10
194.379
20
-173.539
11
194.379
21
-170.967
0
LINE
8
Black
10
197.093
20
-173.824
11
196.807
21
-173.967
0
LINE
8
Black
10
196.807
20
-173.967
11
196.236
21
-173.967
0
LINE
8
Black
10
196.236
20
-173.967
11
195.95
21
-173.824
0
LINE
8
Black
10
195.95
20
-173.824
11
195.807
21
-173.539
0
LINE
8
Black
10
195.807
20
-173.539
11
195.807
21
-172.396
0
LINE
8
Black
10
195.807
20
-172.396
11
195.95
21
-172.11
0
LINE
8
Black
10
195.95
20
-172.11
11
196.236
21
-171.967
0
LINE
8
Black
10
196.236
20
-171.967
11
196.807
21
-171.967
0
LINE
8
Black
10
196.807
20
-171.967
11
197.093
21
-172.11
0
LINE
8
Black
10
197.093
20
-172.11
11
197.236
21
-172.396
0
LINE
8
Black
10
197.236
20
-172.396
11
197.236
21
-172.681
0
LINE
8
Black
10
197.236
20
-172.681
11
195.807
21
-172.967
0
LINE
8
Black
10
198.379
20
-173.824
11
198.664
21
-173.967
0
LINE
8
Black
10
198.664
20
-173.967
11
199.236
21
-173.967
0
LINE
8
Black
10
199.236
20
-173.967
11
199.521
21
-173.824
0
LINE
8
Black
10
199.521
20
-173.824
11
199.664
21
-173.539
0
LINE
8
Black
10
199.664
20
-173.539
11
199.664
21
-173.396
0
LINE
8
Black
10
199.664
20
-173.396
11
199.521
21
-173.11
0
LINE
8
Black
10
199.521
20
-173.11
11
199.236
21
-172.967
0
LINE
8
Black
10
199.236
20
-172.967
11
198.807
21
-172.967
0
LINE
8
Black
10
198.807
20
-172.967
11
198.521
21
-172.824
0
LINE
8
Black
10
198.521
20
-172.824
11
198.379
21
-172.539
0
LINE
8
Black
10
198.379
20
-172.539
11
198.379
21
-172.396
0
LINE
8
Black
10
198.379
20
-172.396
11
198.521
21
-172.11
0
LINE
8
Black
10
198.521
20
-172.11
11
198.807
21
-171.967
0
LINE
8
Black
10
198.807
20
-171.967
11
199.236
21
-171.967
0
LINE
8
Black
10
199.236
20
-171.967
11
199.521
21
-172.11
0
LINE
8
Black
10
200.664
20
-175.11
11
200.807
21
-174.967
0
LINE
8
Black
10
200.807
20
-174.967
11
201.093
21
-174.539
0
LINE
8
Black
10
201.093
20
-174.539
11
201.236
21
-174.253
0
LINE
8
Black
10
201.236
20
-174.253
11
201.379
21
-173.824
0
LINE
8
Black
10
201.379
20
-173.824
11
201.521
21
-173.11
0
LINE
8
Black
10
201.521
20
-173.11
11
201.521
21
-172.539
0
LINE
8
Black
10
201.521
20
-172.539
11
201.379
21
-171.824
0
LINE
8
Black
10
201.379
20
-171.824
11
201.236
21
-171.396
0
LINE
8
Black
10
201.236
20
-171.396
11
201.093
21
-171.11
0
LINE
8
Black
10
201.093
20
-171.11
11
200.807
21
-170.681
0
LINE
8
Black
10
200.807
20
-170.681
11
200.664
21
-170.539
0
LINE
8
Black
10
135.45
20
-176.07
11
135.45
21
-177.07
0
LINE
8
Black
10
134.949
20
-176.57
11
135.95
21
-176.57
0
LINE
8
Black
10
140.236
20
-177.927
11
138.521
21
-177.927
0
LINE
8
Black
10
139.379
20
-177.927
11
139.379
21
-174.927
0
LINE
8
Black
10
139.379
20
-174.927
11
139.093
21
-175.356
0
LINE
8
Black
10
139.093
20
-175.356
11
138.807
21
-175.641
0
LINE
8
Black
10
138.807
20
-175.641
11
138.521
21
-175.784
0
LINE
8
Black
10
141.521
20
-177.641
11
141.664
21
-177.784
0
LINE
8
Black
10
141.664
20
-177.784
11
141.521
21
-177.927
0
LINE
8
Black
10
141.521
20
-177.927
11
141.379
21
-177.784
0
LINE
8
Black
10
141.379
20
-177.784
11
141.521
21
-177.641
0
LINE
8
Black
10
141.521
20
-177.641
11
141.521
21
-177.927
0
LINE
8
Black
10
143.521
20
-174.927
11
143.807
21
-174.927
0
LINE
8
Black
10
143.807
20
-174.927
11
144.093
21
-175.07
0
LINE
8
Black
10
144.093
20
-175.07
11
144.236
21
-175.213
0
LINE
8
Black
10
144.236
20
-175.213
11
144.379
21
-175.499
0
LINE
8
Black
10
144.379
20
-175.499
11
144.521
21
-176.07
0
LINE
8
Black
10
144.521
20
-176.07
11
144.521
21
-176.784
0
LINE
8
Black
10
144.521
20
-176.784
11
144.379
21
-177.356
0
LINE
8
Black
10
144.379
20
-177.356
11
144.236
21
-177.641
0
LINE
8
Black
10
144.236
20
-177.641
11
144.093
21
-177.784
0
LINE
8
Black
10
144.093
20
-177.784
11
143.807
21
-177.927
0
LINE
8
Black
10
143.807
20
-177.927
11
143.521
21
-177.927
0
LINE
8
Black
10
143.521
20
-177.927
11
143.236
21
-177.784
0
LINE
8
Black
10
143.236
20
-177.784
11
143.093
21
-177.641
0
LINE
8
Black
10
143.093
20
-177.641
11
142.95
21
-177.356
0
LINE
8
Black
10
142.95
20
-177.356
11
142.807
21
-176.784
0
LINE
8
Black
10
142.807
20
-176.784
11
142.807
21
-176.07
0
LINE
8
Black
10
142.807
20
-176.07
11
142.95
21
-175.499
0
LINE
8
Black
10
142.95
20
-175.499
11
143.093
21
-175.213
0
LINE
8
Black
10
143.093
20
-175.213
11
143.236
21
-175.07
0
LINE
8
Black
10
143.236
20
-175.07
11
143.521
21
-174.927
0
LINE
8
Black
10
146.379
20
-174.927
11
146.664
21
-174.927
0
LINE
8
Black
10
146.664
20
-174.927
11
146.95
21
-175.07
0
LINE
8
Black
10
146.95
20
-175.07
11
147.093
21
-175.213
0
LINE
8
Black
10
147.093
20
-175.213
11
147.236
21
-175.499
0
LINE
8
Black
10
147.236
20
-175.499
11
147.379
21
-176.07
0
LINE
8
Black
10
147.379
20
-176.07
11
147.379
21
-176.784
0
LINE
8
Black
10
147.379
20
-176.784
11
147.236
21
-177.356
0
LINE
8
Black
10
147.236
20
-177.356
11
147.093
21
-177.641
0
LINE
8
Black
10
147.093
20
-177.641
11
146.95
21
-177.784
0
LINE
8
Black
10
146.95
20
-177.784
11
146.664
21
-177.927
0
LINE
8
Black
10
146.664
20
-177.927
11
146.379
21
-177.927
0
LINE
8
Black
10
146.379
20
-177.927
11
146.093
21
-177.784
0
LINE
8
Black
10
146.093
20
-177.784
11
145.95
21
-177.641
0
LINE
8
Black
10
145.95
20
-177.641
11
145.807
21
-177.356
0
LINE
8
Black
10
145.807
20
-177.356
11
145.664
21
-176.784
0
LINE
8
Black
10
145.664
20
-176.784
11
145.664
21
-176.07
0
LINE
8
Black
10
145.664
20
-176.07
11
145.807
21
-175.499
0
LINE
8
Black
10
145.807
20
-175.499
11
145.95
21
-175.213
0
LINE
8
Black
10
145.95
20
-175.213
11
146.093
21
-175.07
0
LINE
8
Black
10
146.093
20
-175.07
11
146.379
21
-174.927
0
LINE
8
Black
10
148.664
20
-177.927
11
148.664
21
-175.927
0
LINE
8
Black
10
148.664
20
-176.213
11
148.807
21
-176.07
0
LINE
8
Black
10
148.807
20
-176.07
11
149.093
21
-175.927
0
LINE
8
Black
10
149.093
20
-175.927
11
149.521
21
-175.927
0
LINE
8
Black
10
149.521
20
-175.927
11
149.807
21
-176.07
0
LINE
8
Black
10
149.807
20
-176.07
11
149.95
21
-176.356
0
LINE
8
Black
10
149.95
20
-176.356
11
149.95
21
-177.927
0
LINE
8
Black
10
149.95
20
-176.356
11
150.093
21
-176.07
0
LINE
8
Black
10
150.093
20
-176.07
11
150.379
21
-175.927
0
LINE
8
Black
10
150.379
20
-175.927
11
150.807
21
-175.927
0
LINE
8
Black
10
150.807
20
-175.927
11
151.093
21
-176.07
0
LINE
8
Black
10
151.093
20
-176.07
11
151.236
21
-176.356
0
LINE
8
Black
10
151.236
20
-176.356
11
151.236
21
-177.927
0
LINE
8
Black
10
152.664
20
-177.927
11
152.664
21
-175.927
0
LINE
8
Black
10
152.664
20
-176.213
11
152.807
21
-176.07
0
LINE
8
Black
10
152.807
20
-176.07
11
153.093
21
-175.927
0
LINE
8
Black
10
153.093
20
-175.927
11
153.521
21
-175.927
0
LINE
8
Black
10
153.521
20
-175.927
11
153.807
21
-176.07
0
LINE
8
Black
10
153.807
20
-176.07
11
153.95
21
-176.356
0
LINE
8
Black
10
153.95
20
-176.356
11
153.95
21
-177.927
0
LINE
8
Black
10
153.95
20
-176.356
11
154.093
21
-176.07
0
LINE
8
Black
10
154.093
20
-176.07
11
154.379
21
-175.927
0
LINE
8
Black
10
154.379
20
-175.927
11
154.807
21
-175.927
0
LINE
8
Black
10
154.807
20
-175.927
11
155.093
21
-176.07
0
LINE
8
Black
10
155.093
20
-176.07
11
155.236
21
-176.356
0
LINE
8
Black
10
155.236
20
-176.356
11
155.236
21
-177.927
0
LINE
8
Black
10
161.093
20
-174.784
11
158.521
21
-178.641
0
LINE
8
Black
10
164.95
20
-174.927
11
165.236
21
-174.927
0
LINE
8
Black
10
165.236
20
-174.927
11
165.521
21
-175.07
0
LINE
8
Black
10
165.521
20
-175.07
11
165.664
21
-175.213
0
LINE
8
Black
10
165.664
20
-175.213
11
165.807
21
-175.499
0
LINE
8
Black
10
165.807
20
-175.499
11
165.95
21
-176.07
0
LINE
8
Black
10
165.95
20
-176.07
11
165.95
21
-176.784
0
LINE
8
Black
10
165.95
20
-176.784
11
165.807
21
-177.356
0
LINE
8
Black
10
165.807
20
-177.356
11
165.664
21
-177.641
0
LINE
8
Black
10
165.664
20
-177.641
11
165.521
21
-177.784
0
LINE
8
Black
10
165.521
20
-177.784
11
165.236
21
-177.927
0
LINE
8
Black
10
165.236
20
-177.927
11
164.95
21
-177.927
0
LINE
8
Black
10
164.95
20
-177.927
11
164.664
21
-177.784
0
LINE
8
Black
10
164.664
20
-177.784
11
164.521
21
-177.641
0
LINE
8
Black
10
164.521
20
-177.641
11
164.379
21
-177.356
0
LINE
8
Black
10
164.379
20
-177.356
11
164.236
21
-176.784
0
LINE
8
Black
10
164.236
20
-176.784
11
164.236
21
-176.07
0
LINE
8
Black
10
164.236
20
-176.07
11
164.379
21
-175.499
0
LINE
8
Black
10
164.379
20
-175.499
11
164.521
21
-175.213
0
LINE
8
Black
10
164.521
20
-175.213
11
164.664
21
-175.07
0
LINE
8
Black
10
164.664
20
-175.07
11
164.95
21
-174.927
0
LINE
8
Black
10
167.236
20
-177.641
11
167.379
21
-177.784
0
LINE
8
Black
10
167.379
20
-177.784
11
167.236
21
-177.927
0
LINE
8
Black
10
167.236
20
-177.927
11
167.093
21
-177.784
0
LINE
8
Black
10
167.093
20
-177.784
11
167.236
21
-177.641
0
LINE
8
Black
10
167.236
20
-177.641
11
167.236
21
-177.927
0
LINE
8
Black
10
169.236
20
-174.927
11
169.521
21
-174.927
0
LINE
8
Black
10
169.521
20
-174.927
11
169.807
21
-175.07
0
LINE
8
Black
10
169.807
20
-175.07
11
169.95
21
-175.213
0
LINE
8
Black
10
169.95
20
-175.213
11
170.093
21
-175.499
0
LINE
8
Black
10
170.093
20
-175.499
11
170.236
21
-176.07
0
LINE
8
Black
10
170.236
20
-176.07
11
170.236
21
-176.784
0
LINE
8
Black
10
170.236
20
-176.784
11
170.093
21
-177.356
0
LINE
8
Black
10
170.093
20
-177.356
11
169.95
21
-177.641
0
LINE
8
Black
10
169.95
20
-177.641
11
169.807
21
-177.784
0
LINE
8
Black
10
169.807
20
-177.784
11
169.521
21
-177.927
0
LINE
8
Black
10
169.521
20
-177.927
11
169.236
21
-177.927
0
LINE
8
Black
10
169.236
20
-177.927
11
168.95
21
-177.784
0
LINE
8
Black
10
168.95
20
-177.784
11
168.807
21
-177.641
0
LINE
8
Black
10
168.807
20
-177.641
11
168.664
21
-177.356
0
LINE
8
Black
10
168.664
20
-177.356
11
168.521
21
-176.784
0
LINE
8
Black
10
168.521
20
-176.784
11
168.521
21
-176.07
0
LINE
8
Black
10
168.521
20
-176.07
11
168.664
21
-175.499
0
LINE
8
Black
10
168.664
20
-175.499
11
168.807
21
-175.213
0
LINE
8
Black
10
168.807
20
-175.213
11
168.95
21
-175.07
0
LINE
8
Black
10
168.95
20
-175.07
11
169.236
21
-174.927
0
LINE
8
Black
10
171.236
20
-174.927
11
173.093
21
-174.927
0
LINE
8
Black
10
173.093
20
-174.927
11
172.093
21
-176.07
0
LINE
8
Black
10
172.093
20
-176.07
11
172.521
21
-176.07
0
LINE
8
Black
10
172.521
20
-176.07
11
172.807
21
-176.213
0
LINE
8
Black
10
172.807
20
-176.213
11
172.95
21
-176.356
0
LINE
8
Black
10
172.95
20
-176.356
11
173.093
21
-176.641
0
LINE
8
Black
10
173.093
20
-176.641
11
173.093
21
-177.356
0
LINE
8
Black
10
173.093
20
-177.356
11
172.95
21
-177.641
0
LINE
8
Black
10
172.95
20
-177.641
11
172.807
21
-177.784
0
LINE
8
Black
10
172.807
20
-177.784
11
172.521
21
-177.927
0
LINE
8
Black
10
172.521
20
-177.927
11
171.664
21
-177.927
0
LINE
8
Black
10
171.664
20
-177.927
11
171.379
21
-177.784
0
LINE
8
Black
10
171.379
20
-177.784
11
171.236
21
-177.641
0
LINE
8
Black
10
174.521
20
-177.927
11
175.093
21
-177.927
0
LINE
8
Black
10
175.093
20
-177.927
11
175.379
21
-177.784
0
LINE
8
Black
10
175.379
20
-177.784
11
175.521
21
-177.641
0
LINE
8
Black
10
175.521
20
-177.641
11
175.807
21
-177.213
0
LINE
8
Black
10
175.807
20
-177.213
11
175.95
21
-176.641
0
LINE
8
Black
10
175.95
20
-176.641
11
175.95
21
-175.499
0
LINE
8
Black
10
175.95
20
-175.499
11
175.807
21
-175.213
0
LINE
8
Black
10
175.807
20
-175.213
11
175.664
21
-175.07
0
LINE
8
Black
10
175.664
20
-175.07
11
175.379
21
-174.927
0
LINE
8
Black
10
175.379
20
-174.927
11
174.807
21
-174.927
0
LINE
8
Black
10
174.807
20
-174.927
11
174.521
21
-175.07
0
LINE
8
Black
10
174.521
20
-175.07
11
174.379
21
-175.213
0
LINE
8
Black
10
174.379
20
-175.213
11
174.236
21
-175.499
0
LINE
8
Black
10
174.236
20
-175.499
11
174.236
21
-176.213
0
LINE
8
Black
10
174.236
20
-176.213
11
174.379
21
-176.499
0
LINE
8
Black
10
174.379
20
-176.499
11
174.521
21
-176.641
0
LINE
8
Black
10
174.521
20
-176.641
11
174.807
21
-176.784
0
LINE
8
Black
10
174.807
20
-176.784
11
175.379
21
-176.784
0
LINE
8
Black
10
175.379
20
-176.784
11
175.664
21
-176.641
0
LINE
8
Black
10
175.664
20
-176.641
11
175.807
21
-176.499
0
LINE
8
Black
10
175.807
20
-176.499
11
175.95
21
-176.213
0
LINE
8
Black
10
177.093
20
-174.927
11
177.093
21
-175.499
0
LINE
8
Black
10
178.236
20
-174.927
11
178.236
21
-175.499
0
LINE
8
Black
10
182.664
20
-179.07
11
182.521
21
-178.927
0
LINE
8
Black
10
182.521
20
-178.927
11
182.236
21
-178.499
0
LINE
8
Black
10
182.236
20
-178.499
11
182.093
21
-178.213
0
LINE
8
Black
10
182.093
20
-178.213
11
181.95
21
-177.784
0
LINE
8
Black
10
181.95
20
-177.784
11
181.807
21
-177.07
0
LINE
8
Black
10
181.807
20
-177.07
11
181.807
21
-176.499
0
LINE
8
Black
10
181.807
20
-176.499
11
181.95
21
-175.784
0
LINE
8
Black
10
181.95
20
-175.784
11
182.093
21
-175.356
0
LINE
8
Black
10
182.093
20
-175.356
11
182.236
21
-175.07
0
LINE
8
Black
10
182.236
20
-175.07
11
182.521
21
-174.641
0
LINE
8
Black
10
182.521
20
-174.641
11
182.664
21
-174.499
0
LINE
8
Black
10
183.664
20
-175.213
11
183.807
21
-175.07
0
LINE
8
Black
10
183.807
20
-175.07
11
184.093
21
-174.927
0
LINE
8
Black
10
184.093
20
-174.927
11
184.807
21
-174.927
0
LINE
8
Black
10
184.807
20
-174.927
11
185.093
21
-175.07
0
LINE
8
Black
10
185.093
20
-175.07
11
185.236
21
-175.213
0
LINE
8
Black
10
185.236
20
-175.213
11
185.379
21
-175.499
0
LINE
8
Black
10
185.379
20
-175.499
11
185.379
21
-175.784
0
LINE
8
Black
10
185.379
20
-175.784
11
185.236
21
-176.213
0
LINE
8
Black
10
185.236
20
-176.213
11
183.521
21
-177.927
0
LINE
8
Black
10
183.521
20
-177.927
11
185.379
21
-177.927
0
LINE
8
Black
10
188.95
20
-177.927
11
188.95
21
-174.927
0
LINE
8
Black
10
190.236
20
-177.927
11
190.236
21
-176.356
0
LINE
8
Black
10
190.236
20
-176.356
11
190.093
21
-176.07
0
LINE
8
Black
10
190.093
20
-176.07
11
189.807
21
-175.927
0
LINE
8
Black
10
189.807
20
-175.927
11
189.379
21
-175.927
0
LINE
8
Black
10
189.379
20
-175.927
11
189.093
21
-176.07
0
LINE
8
Black
10
189.093
20
-176.07
11
188.95
21
-176.213
0
LINE
8
Black
10
192.093
20
-177.927
11
191.807
21
-177.784
0
LINE
8
Black
10
191.807
20
-177.784
11
191.664
21
-177.641
0
LINE
8
Black
10
191.664
20
-177.641
11
191.521
21
-177.356
0
LINE
8
Black
10
191.521
20
-177.356
11
191.521
21
-176.499
0
LINE
8
Black
10
191.521
20
-176.499
11
191.664
21
-176.213
0
LINE
8
Black
10
191.664
20
-176.213
11
191.807
21
-176.07
0
LINE
8
Black
10
191.807
20
-176.07
11
192.093
21
-175.927
0
LINE
8
Black
10
192.093
20
-175.927
11
192.521
21
-175.927
0
LINE
8
Black
10
192.521
20
-175.927
11
192.807
21
-176.07
0
LINE
8
Black
10
192.807
20
-176.07
11
192.95
21
-176.213
0
LINE
8
Black
10
192.95
20
-176.213
11
193.093
21
-176.499
0
LINE
8
Black
10
193.093
20
-176.499
11
193.093
21
-177.356
0
LINE
8
Black
10
193.093
20
-177.356
11
192.95
21
-177.641
0
LINE
8
Black
10
192.95
20
-177.641
11
192.807
21
-177.784
0
LINE
8
Black
10
192.807
20
-177.784
11
192.521
21
-177.927
0
LINE
8
Black
10
192.521
20
-177.927
11
192.093
21
-177.927
0
LINE
8
Black
10
194.807
20
-177.927
11
194.521
21
-177.784
0
LINE
8
Black
10
194.521
20
-177.784
11
194.379
21
-177.499
0
LINE
8
Black
10
194.379
20
-177.499
11
194.379
21
-174.927
0
LINE
8
Black
10
197.093
20
-177.784
11
196.807
21
-177.927
0
LINE
8
Black
10
196.807
20
-177.927
11
196.236
21
-177.927
0
LINE
8
Black
10
196.236
20
-177.927
11
195.95
21
-177.784
0
LINE
8
Black
10
195.95
20
-177.784
11
195.807
21
-177.499
0
LINE
8
Black
10
195.807
20
-177.499
11
195.807
21
-176.356
0
LINE
8
Black
10
195.807
20
-176.356
11
195.95
21
-176.07
0
LINE
8
Black
10
195.95
20
-176.07
11
196.236
21
-175.927
0
LINE
8
Black
10
196.236
20
-175.927
11
196.807
21
-175.927
0
LINE
8
Black
10
196.807
20
-175.927
11
197.093
21
-176.07
0
LINE
8
Black
10
197.093
20
-176.07
11
197.236
21
-176.356
0
LINE
8
Black
10
197.236
20
-176.356
11
197.236
21
-176.641
0
LINE
8
Black
10
197.236
20
-176.641
11
195.807
21
-176.927
0
LINE
8
Black
10
198.379
20
-177.784
11
198.664
21
-177.927
0
LINE
8
Black
10
198.664
20
-177.927
11
199.236
21
-177.927
0
LINE
8
Black
10
199.236
20
-177.927
11
199.521
21
-177.784
0
LINE
8
Black
10
199.521
20
-177.784
11
199.664
21
-177.499
0
LINE
8
Black
10
199.664
20
-177.499
11
199.664
21
-177.356
0
LINE
8
Black
10
199.664
20
-177.356
11
199.521
21
-177.07
0
LINE
8
Black
10
199.521
20
-177.07
11
199.236
21
-176.927
0
LINE
8
Black
10
199.236
20
-176.927
11
198.807
21
-176.927
0
LINE
8
Black
10
198.807
20
-176.927
11
198.521
21
-176.784
0
LINE
8
Black
10
198.521
20
-176.784
11
198.379
21
-176.499
0
LINE
8
Black
10
198.379
20
-176.499
11
198.379
21
-176.356
0
LINE
8
Black
10
198.379
20
-176.356
11
198.521
21
-176.07
0
LINE
8
Black
10
198.521
20
-176.07
11
198.807
21
-175.927
0
LINE
8
Black
10
198.807
20
-175.927
11
199.236
21
-175.927
0
LINE
8
Black
10
199.236
20
-175.927
11
199.521
21
-176.07
0
LINE
8
Black
10
200.664
20
-179.07
11
200.807
21
-178.927
0
LINE
8
Black
10
200.807
20
-178.927
11
201.093
21
-178.499
0
LINE
8
Black
10
201.093
20
-178.499
11
201.236
21
-178.213
0
LINE
8
Black
10
201.236
20
-178.213
11
201.379
21
-177.784
0
LINE
8
Black
10
201.379
20
-177.784
11
201.521
21
-177.07
0
LINE
8
Black
10
201.521
20
-177.07
11
201.521
21
-176.499
0
LINE
8
Black
10
201.521
20
-176.499
11
201.379
21
-175.784
0
LINE
8
Black
10
201.379
20
-175.784
11
201.236
21
-175.356
0
LINE
8
Black
10
201.236
20
-175.356
11
201.093
21
-175.07
0
LINE
8
Black
10
201.093
20
-175.07
11
200.807
21
-174.641
0
LINE
8
Black
10
200.807
20
-174.641
11
200.664
21
-174.499
0
LINE
8
Black
10
135.801
20
-180.889
11
135.801
21
-180.171
0
LINE
8
Black
10
135.801
20
-180.171
11
135.083
21
-180.171
0
LINE
8
Black
10
135.083
20
-180.171
11
135.083
21
-180.889
0
LINE
8
Black
10
135.083
20
-180.889
11
135.801
21
-180.889
0
LINE
8
Black
10
140.236
20
-181.887
11
138.521
21
-181.887
0
LINE
8
Black
10
139.379
20
-181.887
11
139.379
21
-178.887
0
LINE
8
Black
10
139.379
20
-178.887
11
139.093
21
-179.316
0
LINE
8
Black
10
139.093
20
-179.316
11
138.807
21
-179.601
0
LINE
8
Black
10
138.807
20
-179.601
11
138.521
21
-179.744
0
LINE
8
Black
10
141.521
20
-181.601
11
141.664
21
-181.744
0
LINE
8
Black
10
141.664
20
-181.744
11
141.521
21
-181.887
0
LINE
8
Black
10
141.521
20
-181.887
11
141.379
21
-181.744
0
LINE
8
Black
10
141.379
20
-181.744
11
141.521
21
-181.601
0
LINE
8
Black
10
141.521
20
-181.601
11
141.521
21
-181.887
0
LINE
8
Black
10
143.521
20
-178.887
11
143.807
21
-178.887
0
LINE
8
Black
10
143.807
20
-178.887
11
144.093
21
-179.03
0
LINE
8
Black
10
144.093
20
-179.03
11
144.236
21
-179.173
0
LINE
8
Black
10
144.236
20
-179.173
11
144.379
21
-179.459
0
LINE
8
Black
10
144.379
20
-179.459
11
144.521
21
-180.03
0
LINE
8
Black
10
144.521
20
-180.03
11
144.521
21
-180.744
0
LINE
8
Black
10
144.521
20
-180.744
11
144.379
21
-181.316
0
LINE
8
Black
10
144.379
20
-181.316
11
144.236
21
-181.601
0
LINE
8
Black
10
144.236
20
-181.601
11
144.093
21
-181.744
0
LINE
8
Black
10
144.093
20
-181.744
11
143.807
21
-181.887
0
LINE
8
Black
10
143.807
20
-181.887
11
143.521
21
-181.887
0
LINE
8
Black
10
143.521
20
-181.887
11
143.236
21
-181.744
0
LINE
8
Black
10
143.236
20
-181.744
11
143.093
21
-181.601
0
LINE
8
Black
10
143.093
20
-181.601
11
142.95
21
-181.316
0
LINE
8
Black
10
142.95
20
-181.316
11
142.807
21
-180.744
0
LINE
8
Black
10
142.807
20
-180.744
11
142.807
21
-180.03
0
LINE
8
Black
10
142.807
20
-180.03
11
142.95
21
-179.459
0
LINE
8
Black
10
142.95
20
-179.459
11
143.093
21
-179.173
0
LINE
8
Black
10
143.093
20
-179.173
11
143.236
21
-179.03
0
LINE
8
Black
10
143.236
20
-179.03
11
143.521
21
-178.887
0
LINE
8
Black
10
145.664
20
-179.173
11
145.807
21
-179.03
0
LINE
8
Black
10
145.807
20
-179.03
11
146.093
21
-178.887
0
LINE
8
Black
10
146.093
20
-178.887
11
146.807
21
-178.887
0
LINE
8
Black
10
146.807
20
-178.887
11
147.093
21
-179.03
0
LINE
8
Black
10
147.093
20
-179.03
11
147.236
21
-179.173
0
LINE
8
Black
10
147.236
20
-179.173
11
147.379
21
-179.459
0
LINE
8
Black
10
147.379
20
-179.459
11
147.379
21
-179.744
0
LINE
8
Black
10
147.379
20
-179.744
11
147.236
21
-180.173
0
LINE
8
Black
10
147.236
20
-180.173
11
145.521
21
-181.887
0
LINE
8
Black
10
145.521
20
-181.887
11
147.379
21
-181.887
0
LINE
8
Black
10
148.664
20
-181.887
11
148.664
21
-179.887
0
LINE
8
Black
10
148.664
20
-180.173
11
148.807
21
-180.03
0
LINE
8
Black
10
148.807
20
-180.03
11
149.093
21
-179.887
0
LINE
8
Black
10
149.093
20
-179.887
11
149.521
21
-179.887
0
LINE
8
Black
10
149.521
20
-179.887
11
149.807
21
-180.03
0
LINE
8
Black
10
149.807
20
-180.03
11
149.95
21
-180.316
0
LINE
8
Black
10
149.95
20
-180.316
11
149.95
21
-181.887
0
LINE
8
Black
10
149.95
20
-180.316
11
150.093
21
-180.03
0
LINE
8
Black
10
150.093
20
-180.03
11
150.379
21
-179.887
0
LINE
8
Black
10
150.379
20
-179.887
11
150.807
21
-179.887
0
LINE
8
Black
10
150.807
20
-179.887
11
151.093
21
-180.03
0
LINE
8
Black
10
151.093
20
-180.03
11
151.236
21
-180.316
0
LINE
8
Black
10
151.236
20
-180.316
11
151.236
21
-181.887
0
LINE
8
Black
10
152.664
20
-181.887
11
152.664
21
-179.887
0
LINE
8
Black
10
152.664
20
-180.173
11
152.807
21
-180.03
0
LINE
8
Black
10
152.807
20
-180.03
11
153.093
21
-179.887
0
LINE
8
Black
10
153.093
20
-179.887
11
153.521
21
-179.887
0
LINE
8
Black
10
153.521
20
-179.887
11
153.807
21
-180.03
0
LINE
8
Black
10
153.807
20
-180.03
11
153.95
21
-180.316
0
LINE
8
Black
10
153.95
20
-180.316
11
153.95
21
-181.887
0
LINE
8
Black
10
153.95
20
-180.316
11
154.093
21
-180.03
0
LINE
8
Black
10
154.093
20
-180.03
11
154.379
21
-179.887
0
LINE
8
Black
10
154.379
20
-179.887
11
154.807
21
-179.887
0
LINE
8
Black
10
154.807
20
-179.887
11
155.093
21
-180.03
0
LINE
8
Black
10
155.093
20
-180.03
11
155.236
21
-180.316
0
LINE
8
Black
10
155.236
20
-180.316
11
155.236
21
-181.887
0
LINE
8
Black
10
161.093
20
-178.744
11
158.521
21
-182.601
0
LINE
8
Black
10
164.95
20
-178.887
11
165.236
21
-178.887
0
LINE
8
Black
10
165.236
20
-178.887
11
165.521
21
-179.03
0
LINE
8
Black
10
165.521
20
-179.03
11
165.664
21
-179.173
0
LINE
8
Black
10
165.664
20
-179.173
11
165.807
21
-179.459
0
LINE
8
Black
10
165.807
20
-179.459
11
165.95
21
-180.03
0
LINE
8
Black
10
165.95
20
-180.03
11
165.95
21
-180.744
0
LINE
8
Black
10
165.95
20
-180.744
11
165.807
21
-181.316
0
LINE
8
Black
10
165.807
20
-181.316
11
165.664
21
-181.601
0
LINE
8
Black
10
165.664
20
-181.601
11
165.521
21
-181.744
0
LINE
8
Black
10
165.521
20
-181.744
11
165.236
21
-181.887
0
LINE
8
Black
10
165.236
20
-181.887
11
164.95
21
-181.887
0
LINE
8
Black
10
164.95
20
-181.887
11
164.664
21
-181.744
0
LINE
8
Black
10
164.664
20
-181.744
11
164.521
21
-181.601
0
LINE
8
Black
10
164.521
20
-181.601
11
164.379
21
-181.316
0
LINE
8
Black
10
164.379
20
-181.316
11
164.236
21
-180.744
0
LINE
8
Black
10
164.236
20
-180.744
11
164.236
21
-180.03
0
LINE
8
Black
10
164.236
20
-180.03
11
164.379
21
-179.459
0
LINE
8
Black
10
164.379
20
-179.459
11
164.521
21
-179.173
0
LINE
8
Black
10
164.521
20
-179.173
11
164.664
21
-179.03
0
LINE
8
Black
10
164.664
20
-179.03
11
164.95
21
-178.887
0
LINE
8
Black
10
167.236
20
-181.601
11
167.379
21
-181.744
0
LINE
8
Black
10
167.379
20
-181.744
11
167.236
21
-181.887
0
LINE
8
Black
10
167.236
20
-181.887
11
167.093
21
-181.744
0
LINE
8
Black
10
167.093
20
-181.744
11
167.236
21
-181.601
0
LINE
8
Black
10
167.236
20
-181.601
11
167.236
21
-181.887
0
LINE
8
Black
10
169.236
20
-178.887
11
169.521
21
-178.887
0
LINE
8
Black
10
169.521
20
-178.887
11
169.807
21
-179.03
0
LINE
8
Black
10
169.807
20
-179.03
11
169.95
21
-179.173
0
LINE
8
Black
10
169.95
20
-179.173
11
170.093
21
-179.459
0
LINE
8
Black
10
170.093
20
-179.459
11
170.236
21
-180.03
0
LINE
8
Black
10
170.236
20
-180.03
11
170.236
21
-180.744
0
LINE
8
Black
10
170.236
20
-180.744
11
170.093
21
-181.316
0
LINE
8
Black
10
170.093
20
-181.316
11
169.95
21
-181.601
0
LINE
8
Black
10
169.95
20
-181.601
11
169.807
21
-181.744
0
LINE
8
Black
10
169.807
20
-181.744
11
169.521
21
-181.887
0
LINE
8
Black
10
169.521
20
-181.887
11
169.236
21
-181.887
0
LINE
8
Black
10
169.236
20
-181.887
11
168.95
21
-181.744
0
LINE
8
Black
10
168.95
20
-181.744
11
168.807
21
-181.601
0
LINE
8
Black
10
168.807
20
-181.601
11
168.664
21
-181.316
0
LINE
8
Black
10
168.664
20
-181.316
11
168.521
21
-180.744
0
LINE
8
Black
10
168.521
20
-180.744
11
168.521
21
-180.03
0
LINE
8
Black
10
168.521
20
-180.03
11
168.664
21
-179.459
0
LINE
8
Black
10
168.664
20
-179.459
11
168.807
21
-179.173
0
LINE
8
Black
10
168.807
20
-179.173
11
168.95
21
-179.03
0
LINE
8
Black
10
168.95
20
-179.03
11
169.236
21
-178.887
0
LINE
8
Black
10
172.807
20
-179.887
11
172.807
21
-181.887
0
LINE
8
Black
10
172.093
20
-178.744
11
171.379
21
-180.887
0
LINE
8
Black
10
171.379
20
-180.887
11
173.236
21
-180.887
0
LINE
8
Black
10
174.95
20
-178.887
11
175.236
21
-178.887
0
LINE
8
Black
10
175.236
20
-178.887
11
175.521
21
-179.03
0
LINE
8
Black
10
175.521
20
-179.03
11
175.664
21
-179.173
0
LINE
8
Black
10
175.664
20
-179.173
11
175.807
21
-179.459
0
LINE
8
Black
10
175.807
20
-179.459
11
175.95
21
-180.03
0
LINE
8
Black
10
175.95
20
-180.03
11
175.95
21
-180.744
0
LINE
8
Black
10
175.95
20
-180.744
11
175.807
21
-181.316
0
LINE
8
Black
10
175.807
20
-181.316
11
175.664
21
-181.601
0
LINE
8
Black
10
175.664
20
-181.601
11
175.521
21
-181.744
0
LINE
8
Black
10
175.521
20
-181.744
11
175.236
21
-181.887
0
LINE
8
Black
10
175.236
20
-181.887
11
174.95
21
-181.887
0
LINE
8
Black
10
174.95
20
-181.887
11
174.664
21
-181.744
0
LINE
8
Black
10
174.664
20
-181.744
11
174.521
21
-181.601
0
LINE
8
Black
10
174.521
20
-181.601
11
174.379
21
-181.316
0
LINE
8
Black
10
174.379
20
-181.316
11
174.236
21
-180.744
0
LINE
8
Black
10
174.236
20
-180.744
11
174.236
21
-180.03
0
LINE
8
Black
10
174.236
20
-180.03
11
174.379
21
-179.459
0
LINE
8
Black
10
174.379
20
-179.459
11
174.521
21
-179.173
0
LINE
8
Black
10
174.521
20
-179.173
11
174.664
21
-179.03
0
LINE
8
Black
10
174.664
20
-179.03
11
174.95
21
-178.887
0
LINE
8
Black
10
177.093
20
-178.887
11
177.093
21
-179.459
0
LINE
8
Black
10
178.236
20
-178.887
11
178.236
21
-179.459
0
LINE
8
Black
10
182.664
20
-183.03
11
182.521
21
-182.887
0
LINE
8
Black
10
182.521
20
-182.887
11
182.236
21
-182.459
0
LINE
8
Black
10
182.236
20
-182.459
11
182.093
21
-182.173
0
LINE
8
Black
10
182.093
20
-182.173
11
181.95
21
-181.744
0
LINE
8
Black
10
181.95
20
-181.744
11
181.807
21
-181.03
0
LINE
8
Black
10
181.807
20
-181.03
11
181.807
21
-180.459
0
LINE
8
Black
10
181.807
20
-180.459
11
181.95
21
-179.744
0
LINE
8
Black
10
181.95
20
-179.744
11
182.093
21
-179.316
0
LINE
8
Black
10
182.093
20
-179.316
11
182.236
21
-179.03
0
LINE
8
Black
10
182.236
20
-179.03
11
182.521
21
-178.601
0
LINE
8
Black
10
182.521
20
-178.601
11
182.664
21
-178.459
0
LINE
8
Black
10
185.093
20
-179.887
11
185.093
21
-181.887
0
LINE
8
Black
10
184.379
20
-178.744
11
183.664
21
-180.887
0
LINE
8
Black
10
183.664
20
-180.887
11
185.521
21
-180.887
0
LINE
8
Black
10
188.95
20
-181.887
11
188.95
21
-178.887
0
LINE
8
Black
10
190.236
20
-181.887
11
190.236
21
-180.316
0
LINE
8
Black
10
190.236
20
-180.316
11
190.093
21
-180.03
0
LINE
8
Black
10
190.093
20
-180.03
11
189.807
21
-179.887
0
LINE
8
Black
10
189.807
20
-179.887
11
189.379
21
-179.887
0
LINE
8
Black
10
189.379
20
-179.887
11
189.093
21
-180.03
0
LINE
8
Black
10
189.093
20
-180.03
11
188.95
21
-180.173
0
LINE
8
Black
10
192.093
20
-181.887
11
191.807
21
-181.744
0
LINE
8
Black
10
191.807
20
-181.744
11
191.664
21
-181.601
0
LINE
8
Black
10
191.664
20
-181.601
11
191.521
21
-181.316
0
LINE
8
Black
10
191.521
20
-181.316
11
191.521
21
-180.459
0
LINE
8
Black
10
191.521
20
-180.459
11
191.664
21
-180.173
0
LINE
8
Black
10
191.664
20
-180.173
11
191.807
21
-180.03
0
LINE
8
Black
10
191.807
20
-180.03
11
192.093
21
-179.887
0
LINE
8
Black
10
192.093
20
-179.887
11
192.521
21
-179.887
0
LINE
8
Black
10
192.521
20
-179.887
11
192.807
21
-180.03
0
LINE
8
Black
10
192.807
20
-180.03
11
192.95
21
-180.173
0
LINE
8
Black
10
192.95
20
-180.173
11
193.093
21
-180.459
0
LINE
8
Black
10
193.093
20
-180.459
11
193.093
21
-181.316
0
LINE
8
Black
10
193.093
20
-181.316
11
192.95
21
-181.601
0
LINE
8
Black
10
192.95
20
-181.601
11
192.807
21
-181.744
0
LINE
8
Black
10
192.807
20
-181.744
11
192.521
21
-181.887
0
LINE
8
Black
10
192.521
20
-181.887
11
192.093
21
-181.887
0
LINE
8
Black
10
194.807
20
-181.887
11
194.521
21
-181.744
0
LINE
8
Black
10
194.521
20
-181.744
11
194.379
21
-181.459
0
LINE
8
Black
10
194.379
20
-181.459
11
194.379
21
-178.887
0
LINE
8
Black
10
197.093
20
-181.744
11
196.807
21
-181.887
0
LINE
8
Black
10
196.807
20
-181.887
11
196.236
21
-181.887
0
LINE
8
Black
10
196.236
20
-181.887
11
195.95
21
-181.744
0
LINE
8
Black
10
195.95
20
-181.744
11
195.807
21
-181.459
0
LINE
8
Black
10
195.807
20
-181.459
11
195.807
21
-180.316
0
LINE
8
Black
10
195.807
20
-180.316
11
195.95
21
-180.03
0
LINE
8
Black
10
195.95
20
-180.03
11
196.236
21
-179.887
0
LINE
8
Black
10
196.236
20
-179.887
11
196.807
21
-179.887
0
LINE
8
Black
10
196.807
20
-179.887
11
197.093
21
-180.03
0
LINE
8
Black
10
197.093
20
-180.03
11
197.236
21
-180.316
0
LINE
8
Black
10
197.236
20
-180.316
11
197.236
21
-180.601
0
LINE
8
Black
10
197.236
20
-180.601
11
195.807
21
-180.887
0
LINE
8
Black
10
198.379
20
-181.744
11
198.664
21
-181.887
0
LINE
8
Black
10
198.664
20
-181.887
11
199.236
21
-181.887
0
LINE
8
Black
10
199.236
20
-181.887
11
199.521
21
-181.744
0
LINE
8
Black
10
199.521
20
-181.744
11
199.664
21
-181.459
0
LINE
8
Black
10
199.664
20
-181.459
11
199.664
21
-181.316
0
LINE
8
Black
10
199.664
20
-181.316
11
199.521
21
-181.03
0
LINE
8
Black
10
199.521
20
-181.03
11
199.236
21
-180.887
0
LINE
8
Black
10
199.236
20
-180.887
11
198.807
21
-180.887
0
LINE
8
Black
10
198.807
20
-180.887
11
198.521
21
-180.744
0
LINE
8
Black
10
198.521
20
-180.744
11
198.379
21
-180.459
0
LINE
8
Black
10
198.379
20
-180.459
11
198.379
21
-180.316
0
LINE
8
Black
10
198.379
20
-180.316
11
198.521
21
-180.03
0
LINE
8
Black
10
198.521
20
-180.03
11
198.807
21
-179.887
0
LINE
8
Black
10
198.807
20
-179.887
11
199.236
21
-179.887
0
LINE
8
Black
10
199.236
20
-179.887
11
199.521
21
-180.03
0
LINE
8
Black
10
200.664
20
-183.03
11
200.807
21
-182.887
0
LINE
8
Black
10
200.807
20
-182.887
11
201.093
21
-182.459
0
LINE
8
Black
10
201.093
20
-182.459
11
201.236
21
-182.173
0
LINE
8
Black
10
201.236
20
-182.173
11
201.379
21
-181.744
0
LINE
8
Black
10
201.379
20
-181.744
11
201.521
21
-181.03
0
LINE
8
Black
10
201.521
20
-181.03
11
201.521
21
-180.459
0
LINE
8
Black
10
201.521
20
-180.459
11
201.379
21
-179.744
0
LINE
8
Black
10
201.379
20
-179.744
11
201.236
21
-179.316
0
LINE
8
Black
10
201.236
20
-179.316
11
201.093
21
-179.03
0
LINE
8
Black
10
201.093
20
-179.03
11
200.807
21
-178.601
0
LINE
8
Black
10
200.807
20
-178.601
11
200.664
21
-178.459
  0
ENDSEC
  0
EOF
