G04 #@! TF.FileFunction,Copper,L2,Bot,Signal*
%FSLAX46Y46*%
G04 Gerber Fmt 4.6, Leading zero omitted, Abs format (unit mm)*
G04 Created by KiCad (PCBNEW (2015-06-09 BZR 5726)-product) date Thu 11 Jun 2015 11:31:05 PM PDT*
%MOMM*%
G01*
G04 APERTURE LIST*
%ADD10C,0.100000*%
%ADD11C,2.499360*%
%ADD12C,1.250000*%
%ADD13R,2.032000X1.727200*%
%ADD14O,2.032000X1.727200*%
%ADD15C,0.600000*%
%ADD16C,0.250000*%
%ADD17C,0.254000*%
G04 APERTURE END LIST*
D10*
D11*
X153500000Y-124500000D03*
D12*
X147000000Y-98750000D03*
X147000000Y-105250000D03*
D11*
X153500000Y-129000000D03*
D13*
X140500000Y-128500000D03*
D14*
X140500000Y-125960000D03*
X140500000Y-123420000D03*
X140500000Y-120880000D03*
D15*
X148500000Y-131600000D03*
X146200000Y-125600000D03*
X147100000Y-88200000D03*
X140500000Y-113000000D03*
X150100000Y-145100000D03*
X144300000Y-145100000D03*
X144500000Y-131800000D03*
X143100000Y-124400000D03*
X154000000Y-115600000D03*
X153900000Y-109000000D03*
X144800000Y-108500000D03*
X144800000Y-119600000D03*
D16*
X148500000Y-131600000D02*
X146200000Y-129300000D01*
X146200000Y-129300000D02*
X146200000Y-125600000D01*
X143100000Y-124400000D02*
X143100000Y-113010910D01*
X140935174Y-113010910D02*
X143100000Y-113010910D01*
X143100000Y-113010910D02*
X143100000Y-104500000D01*
X140500000Y-113000000D02*
X140924264Y-113000000D01*
X140924264Y-113000000D02*
X140935174Y-113010910D01*
X143100000Y-104500000D02*
X145775118Y-101824882D01*
X145775118Y-101824882D02*
X150800000Y-101824882D01*
X150800000Y-91900000D02*
X150800000Y-101824882D01*
X150800000Y-101824882D02*
X150800000Y-109000000D01*
X147100000Y-88200000D02*
X150800000Y-91900000D01*
X150800000Y-109000000D02*
X150800000Y-113000000D01*
X144300000Y-145100000D02*
X150100000Y-145100000D01*
X144500000Y-131800000D02*
X144500000Y-144900000D01*
X144500000Y-144900000D02*
X144300000Y-145100000D01*
X143100000Y-130400000D02*
X143100000Y-124400000D01*
X144500000Y-131800000D02*
X143100000Y-130400000D01*
X154000000Y-115600000D02*
X153400000Y-115600000D01*
X153400000Y-115600000D02*
X150800000Y-113000000D01*
X150900000Y-109000000D02*
X150800000Y-109000000D01*
X150800000Y-109000000D02*
X150900000Y-109000000D01*
X153900000Y-109000000D02*
X150800000Y-109000000D01*
X144800000Y-119600000D02*
X144800000Y-108500000D01*
D17*
G36*
X157315000Y-149315000D02*
X155385006Y-149315000D01*
X155385006Y-128626759D01*
X155385006Y-124126759D01*
X155098686Y-123433809D01*
X154568979Y-122903178D01*
X153876531Y-122615648D01*
X153126759Y-122614994D01*
X152433809Y-122901314D01*
X151903178Y-123431021D01*
X151615648Y-124123469D01*
X151614994Y-124873241D01*
X151901314Y-125566191D01*
X152431021Y-126096822D01*
X153123469Y-126384352D01*
X153873241Y-126385006D01*
X154566191Y-126098686D01*
X155096822Y-125568979D01*
X155384352Y-124876531D01*
X155385006Y-124126759D01*
X155385006Y-128626759D01*
X155098686Y-127933809D01*
X154568979Y-127403178D01*
X153876531Y-127115648D01*
X153126759Y-127114994D01*
X152433809Y-127401314D01*
X151903178Y-127931021D01*
X151615648Y-128623469D01*
X151614994Y-129373241D01*
X151901314Y-130066191D01*
X152431021Y-130596822D01*
X153123469Y-130884352D01*
X153873241Y-130885006D01*
X154566191Y-130598686D01*
X155096822Y-130068979D01*
X155384352Y-129376531D01*
X155385006Y-128626759D01*
X155385006Y-149315000D01*
X149435162Y-149315000D01*
X149435162Y-131414833D01*
X149293117Y-131071057D01*
X149030327Y-130807808D01*
X148686799Y-130665162D01*
X148639923Y-130665121D01*
X148260218Y-130285416D01*
X148260218Y-105000470D01*
X148260218Y-98500470D01*
X148068799Y-98037200D01*
X147714665Y-97682447D01*
X147251729Y-97490219D01*
X146750470Y-97489782D01*
X146287200Y-97681201D01*
X145932447Y-98035335D01*
X145740219Y-98498271D01*
X145739782Y-98999530D01*
X145931201Y-99462800D01*
X146285335Y-99817553D01*
X146748271Y-100009781D01*
X147249530Y-100010218D01*
X147712800Y-99818799D01*
X148067553Y-99464665D01*
X148259781Y-99001729D01*
X148260218Y-98500470D01*
X148260218Y-105000470D01*
X148068799Y-104537200D01*
X147714665Y-104182447D01*
X147251729Y-103990219D01*
X146750470Y-103989782D01*
X146287200Y-104181201D01*
X145932447Y-104535335D01*
X145740219Y-104998271D01*
X145739782Y-105499530D01*
X145931201Y-105962800D01*
X146285335Y-106317553D01*
X146748271Y-106509781D01*
X147249530Y-106510218D01*
X147712800Y-106318799D01*
X148067553Y-105964665D01*
X148259781Y-105501729D01*
X148260218Y-105000470D01*
X148260218Y-130285416D01*
X146960000Y-128985198D01*
X146960000Y-126162462D01*
X146992192Y-126130327D01*
X147134838Y-125786799D01*
X147135162Y-125414833D01*
X146993117Y-125071057D01*
X146730327Y-124807808D01*
X146386799Y-124665162D01*
X146014833Y-124664838D01*
X145735162Y-124780395D01*
X145735162Y-119414833D01*
X145593117Y-119071057D01*
X145560000Y-119037882D01*
X145560000Y-109062462D01*
X145592192Y-109030327D01*
X145734838Y-108686799D01*
X145735162Y-108314833D01*
X145593117Y-107971057D01*
X145330327Y-107707808D01*
X144986799Y-107565162D01*
X144614833Y-107564838D01*
X144271057Y-107706883D01*
X144007808Y-107969673D01*
X143865162Y-108313201D01*
X143864838Y-108685167D01*
X144006883Y-109028943D01*
X144040000Y-109062117D01*
X144040000Y-119037537D01*
X144007808Y-119069673D01*
X143865162Y-119413201D01*
X143864838Y-119785167D01*
X144006883Y-120128943D01*
X144269673Y-120392192D01*
X144613201Y-120534838D01*
X144985167Y-120535162D01*
X145328943Y-120393117D01*
X145592192Y-120130327D01*
X145734838Y-119786799D01*
X145735162Y-119414833D01*
X145735162Y-124780395D01*
X145671057Y-124806883D01*
X145407808Y-125069673D01*
X145265162Y-125413201D01*
X145264838Y-125785167D01*
X145406883Y-126128943D01*
X145440000Y-126162117D01*
X145440000Y-129300000D01*
X145497852Y-129590839D01*
X145662599Y-129837401D01*
X147564877Y-131739679D01*
X147564838Y-131785167D01*
X147706883Y-132128943D01*
X147969673Y-132392192D01*
X148313201Y-132534838D01*
X148685167Y-132535162D01*
X149028943Y-132393117D01*
X149292192Y-132130327D01*
X149434838Y-131786799D01*
X149435162Y-131414833D01*
X149435162Y-149315000D01*
X142183345Y-149315000D01*
X142183345Y-125960000D01*
X142183345Y-120880000D01*
X142069271Y-120306511D01*
X141744415Y-119820330D01*
X141258234Y-119495474D01*
X140684745Y-119381400D01*
X140315255Y-119381400D01*
X139741766Y-119495474D01*
X139255585Y-119820330D01*
X138930729Y-120306511D01*
X138816655Y-120880000D01*
X138930729Y-121453489D01*
X139255585Y-121939670D01*
X139741766Y-122264526D01*
X140315255Y-122378600D01*
X140684745Y-122378600D01*
X141258234Y-122264526D01*
X141744415Y-121939670D01*
X142069271Y-121453489D01*
X142183345Y-120880000D01*
X142183345Y-125960000D01*
X142069271Y-125386511D01*
X141744415Y-124900330D01*
X141258234Y-124575474D01*
X140684745Y-124461400D01*
X140315255Y-124461400D01*
X139741766Y-124575474D01*
X139255585Y-124900330D01*
X138930729Y-125386511D01*
X138816655Y-125960000D01*
X138930729Y-126533489D01*
X139255585Y-127019670D01*
X139271367Y-127030215D01*
X139241877Y-127035937D01*
X139029073Y-127175727D01*
X138886623Y-127386760D01*
X138836560Y-127636400D01*
X138836560Y-129363600D01*
X138883537Y-129605723D01*
X139023327Y-129818527D01*
X139234360Y-129960977D01*
X139484000Y-130011040D01*
X141516000Y-130011040D01*
X141758123Y-129964063D01*
X141970927Y-129824273D01*
X142113377Y-129613240D01*
X142163440Y-129363600D01*
X142163440Y-127636400D01*
X142116463Y-127394277D01*
X141976673Y-127181473D01*
X141765640Y-127039023D01*
X141727037Y-127031281D01*
X141744415Y-127019670D01*
X142069271Y-126533489D01*
X142183345Y-125960000D01*
X142183345Y-149315000D01*
X136685000Y-149315000D01*
X136685000Y-105685000D01*
X142000000Y-105685000D01*
X142262138Y-105632857D01*
X142484368Y-105484368D01*
X142632857Y-105262138D01*
X142685000Y-105000000D01*
X142685000Y-60685000D01*
X151315000Y-60685000D01*
X151315000Y-105000000D01*
X151367143Y-105262138D01*
X151515632Y-105484368D01*
X151737862Y-105632857D01*
X152000000Y-105685000D01*
X157315000Y-105685000D01*
X157315000Y-149315000D01*
X157315000Y-149315000D01*
G37*
X157315000Y-149315000D02*
X155385006Y-149315000D01*
X155385006Y-128626759D01*
X155385006Y-124126759D01*
X155098686Y-123433809D01*
X154568979Y-122903178D01*
X153876531Y-122615648D01*
X153126759Y-122614994D01*
X152433809Y-122901314D01*
X151903178Y-123431021D01*
X151615648Y-124123469D01*
X151614994Y-124873241D01*
X151901314Y-125566191D01*
X152431021Y-126096822D01*
X153123469Y-126384352D01*
X153873241Y-126385006D01*
X154566191Y-126098686D01*
X155096822Y-125568979D01*
X155384352Y-124876531D01*
X155385006Y-124126759D01*
X155385006Y-128626759D01*
X155098686Y-127933809D01*
X154568979Y-127403178D01*
X153876531Y-127115648D01*
X153126759Y-127114994D01*
X152433809Y-127401314D01*
X151903178Y-127931021D01*
X151615648Y-128623469D01*
X151614994Y-129373241D01*
X151901314Y-130066191D01*
X152431021Y-130596822D01*
X153123469Y-130884352D01*
X153873241Y-130885006D01*
X154566191Y-130598686D01*
X155096822Y-130068979D01*
X155384352Y-129376531D01*
X155385006Y-128626759D01*
X155385006Y-149315000D01*
X149435162Y-149315000D01*
X149435162Y-131414833D01*
X149293117Y-131071057D01*
X149030327Y-130807808D01*
X148686799Y-130665162D01*
X148639923Y-130665121D01*
X148260218Y-130285416D01*
X148260218Y-105000470D01*
X148260218Y-98500470D01*
X148068799Y-98037200D01*
X147714665Y-97682447D01*
X147251729Y-97490219D01*
X146750470Y-97489782D01*
X146287200Y-97681201D01*
X145932447Y-98035335D01*
X145740219Y-98498271D01*
X145739782Y-98999530D01*
X145931201Y-99462800D01*
X146285335Y-99817553D01*
X146748271Y-100009781D01*
X147249530Y-100010218D01*
X147712800Y-99818799D01*
X148067553Y-99464665D01*
X148259781Y-99001729D01*
X148260218Y-98500470D01*
X148260218Y-105000470D01*
X148068799Y-104537200D01*
X147714665Y-104182447D01*
X147251729Y-103990219D01*
X146750470Y-103989782D01*
X146287200Y-104181201D01*
X145932447Y-104535335D01*
X145740219Y-104998271D01*
X145739782Y-105499530D01*
X145931201Y-105962800D01*
X146285335Y-106317553D01*
X146748271Y-106509781D01*
X147249530Y-106510218D01*
X147712800Y-106318799D01*
X148067553Y-105964665D01*
X148259781Y-105501729D01*
X148260218Y-105000470D01*
X148260218Y-130285416D01*
X146960000Y-128985198D01*
X146960000Y-126162462D01*
X146992192Y-126130327D01*
X147134838Y-125786799D01*
X147135162Y-125414833D01*
X146993117Y-125071057D01*
X146730327Y-124807808D01*
X146386799Y-124665162D01*
X146014833Y-124664838D01*
X145735162Y-124780395D01*
X145735162Y-119414833D01*
X145593117Y-119071057D01*
X145560000Y-119037882D01*
X145560000Y-109062462D01*
X145592192Y-109030327D01*
X145734838Y-108686799D01*
X145735162Y-108314833D01*
X145593117Y-107971057D01*
X145330327Y-107707808D01*
X144986799Y-107565162D01*
X144614833Y-107564838D01*
X144271057Y-107706883D01*
X144007808Y-107969673D01*
X143865162Y-108313201D01*
X143864838Y-108685167D01*
X144006883Y-109028943D01*
X144040000Y-109062117D01*
X144040000Y-119037537D01*
X144007808Y-119069673D01*
X143865162Y-119413201D01*
X143864838Y-119785167D01*
X144006883Y-120128943D01*
X144269673Y-120392192D01*
X144613201Y-120534838D01*
X144985167Y-120535162D01*
X145328943Y-120393117D01*
X145592192Y-120130327D01*
X145734838Y-119786799D01*
X145735162Y-119414833D01*
X145735162Y-124780395D01*
X145671057Y-124806883D01*
X145407808Y-125069673D01*
X145265162Y-125413201D01*
X145264838Y-125785167D01*
X145406883Y-126128943D01*
X145440000Y-126162117D01*
X145440000Y-129300000D01*
X145497852Y-129590839D01*
X145662599Y-129837401D01*
X147564877Y-131739679D01*
X147564838Y-131785167D01*
X147706883Y-132128943D01*
X147969673Y-132392192D01*
X148313201Y-132534838D01*
X148685167Y-132535162D01*
X149028943Y-132393117D01*
X149292192Y-132130327D01*
X149434838Y-131786799D01*
X149435162Y-131414833D01*
X149435162Y-149315000D01*
X142183345Y-149315000D01*
X142183345Y-125960000D01*
X142183345Y-120880000D01*
X142069271Y-120306511D01*
X141744415Y-119820330D01*
X141258234Y-119495474D01*
X140684745Y-119381400D01*
X140315255Y-119381400D01*
X139741766Y-119495474D01*
X139255585Y-119820330D01*
X138930729Y-120306511D01*
X138816655Y-120880000D01*
X138930729Y-121453489D01*
X139255585Y-121939670D01*
X139741766Y-122264526D01*
X140315255Y-122378600D01*
X140684745Y-122378600D01*
X141258234Y-122264526D01*
X141744415Y-121939670D01*
X142069271Y-121453489D01*
X142183345Y-120880000D01*
X142183345Y-125960000D01*
X142069271Y-125386511D01*
X141744415Y-124900330D01*
X141258234Y-124575474D01*
X140684745Y-124461400D01*
X140315255Y-124461400D01*
X139741766Y-124575474D01*
X139255585Y-124900330D01*
X138930729Y-125386511D01*
X138816655Y-125960000D01*
X138930729Y-126533489D01*
X139255585Y-127019670D01*
X139271367Y-127030215D01*
X139241877Y-127035937D01*
X139029073Y-127175727D01*
X138886623Y-127386760D01*
X138836560Y-127636400D01*
X138836560Y-129363600D01*
X138883537Y-129605723D01*
X139023327Y-129818527D01*
X139234360Y-129960977D01*
X139484000Y-130011040D01*
X141516000Y-130011040D01*
X141758123Y-129964063D01*
X141970927Y-129824273D01*
X142113377Y-129613240D01*
X142163440Y-129363600D01*
X142163440Y-127636400D01*
X142116463Y-127394277D01*
X141976673Y-127181473D01*
X141765640Y-127039023D01*
X141727037Y-127031281D01*
X141744415Y-127019670D01*
X142069271Y-126533489D01*
X142183345Y-125960000D01*
X142183345Y-149315000D01*
X136685000Y-149315000D01*
X136685000Y-105685000D01*
X142000000Y-105685000D01*
X142262138Y-105632857D01*
X142484368Y-105484368D01*
X142632857Y-105262138D01*
X142685000Y-105000000D01*
X142685000Y-60685000D01*
X151315000Y-60685000D01*
X151315000Y-105000000D01*
X151367143Y-105262138D01*
X151515632Y-105484368D01*
X151737862Y-105632857D01*
X152000000Y-105685000D01*
X157315000Y-105685000D01*
X157315000Y-149315000D01*
M02*
