M48
;DRILL file {KiCad (2015-06-09 BZR 5726)-product} date Thu 06 Aug 2015 12:12:25 AM PDT
;FORMAT={-:-/ absolute / metric / decimal}
FMAT,2
METRIC,TZ
T1C0.400
T2C1.000
T3C1.001
T4C1.016
%
G90
G05
M71
T1
X116.75Y-126.75
X117.5Y-114.25
X117.5Y-120.5
X118.25Y-112.75
X118.45Y-130.645
X120.25Y-125.5
X121.5Y-115.
X125.Y-130.75
X125.25Y-112.75
T2
X118.15Y-94.15
X124.65Y-94.15
T3
X119.35Y-138.05
X123.15Y-138.2
T4
X116.115Y-142.775
X116.115Y-145.315
X118.655Y-142.775
X118.655Y-145.315
X121.195Y-142.775
X121.195Y-145.315
X123.735Y-142.775
X123.735Y-145.315
X126.275Y-142.775
X126.275Y-145.315
T0
M30
