G04 #@! TF.FileFunction,Copper,L2,Bot,Signal*
%FSLAX46Y46*%
G04 Gerber Fmt 4.6, Leading zero omitted, Abs format (unit mm)*
G04 Created by KiCad (PCBNEW (2015-08-06 BZR 6058)-product) date Thu 06 Aug 2015 02:07:34 PM PDT*
%MOMM*%
G01*
G04 APERTURE LIST*
%ADD10C,0.100000*%
%ADD11R,4.200000X6.200000*%
%ADD12C,2.499360*%
%ADD13R,1.727200X1.727200*%
%ADD14O,1.727200X1.727200*%
%ADD15C,2.500000*%
%ADD16C,0.600000*%
%ADD17C,0.250000*%
G04 APERTURE END LIST*
D10*
D11*
X121100000Y-99800000D03*
X121100000Y-132100000D03*
D12*
X119350000Y-138050000D03*
X123150000Y-138200000D03*
D13*
X126275000Y-142775000D03*
D14*
X126275000Y-145315000D03*
X123735000Y-142775000D03*
X123735000Y-145315000D03*
X121195000Y-142775000D03*
X121195000Y-145315000D03*
X118655000Y-142775000D03*
X118655000Y-145315000D03*
X116115000Y-142775000D03*
X116115000Y-145315000D03*
D15*
X124650000Y-94150000D03*
X118150000Y-94150000D03*
D16*
X116750000Y-126750000D03*
X121500000Y-115000000D03*
X120250000Y-125500000D03*
X117500000Y-114250000D03*
X117500000Y-120500000D03*
X125250000Y-112750000D03*
X125000000Y-130750000D03*
X118450000Y-130645000D03*
X118250000Y-112750000D03*
D17*
X116750000Y-126750000D02*
X116750000Y-140250000D01*
X114250000Y-143450000D02*
X116115000Y-145315000D01*
X114250000Y-141500000D02*
X114250000Y-143450000D01*
X115250000Y-140500000D02*
X114250000Y-141500000D01*
X116500000Y-140500000D02*
X115250000Y-140500000D01*
X116750000Y-140250000D02*
X116500000Y-140500000D01*
X117250000Y-100000000D02*
X120900000Y-100000000D01*
X116750000Y-100500000D02*
X117250000Y-100000000D01*
X116750000Y-126750000D02*
X116750000Y-100500000D01*
X120900000Y-100000000D02*
X121100000Y-99800000D01*
X121100000Y-126350000D02*
X121100000Y-115400000D01*
X121100000Y-115400000D02*
X121500000Y-115000000D01*
X121250000Y-141000000D02*
X121250000Y-132250000D01*
X121250000Y-132250000D02*
X121100000Y-132100000D01*
X123735000Y-142775000D02*
X123525000Y-142775000D01*
X123525000Y-142775000D02*
X121750000Y-141000000D01*
X117890000Y-141000000D02*
X116115000Y-142775000D01*
X121750000Y-141000000D02*
X121250000Y-141000000D01*
X121250000Y-141000000D02*
X117890000Y-141000000D01*
X126275000Y-145315000D02*
X126275000Y-145475000D01*
X126275000Y-145475000D02*
X123735000Y-142935000D01*
X123735000Y-142935000D02*
X123735000Y-142775000D01*
X121100000Y-126350000D02*
X121100000Y-132100000D01*
X120250000Y-125500000D02*
X121100000Y-126350000D01*
X117500000Y-114250000D02*
X117500000Y-120500000D01*
X125250000Y-130500000D02*
X125250000Y-112750000D01*
X125000000Y-130750000D02*
X125250000Y-130500000D01*
X118250000Y-130445000D02*
X118250000Y-112750000D01*
X118250000Y-130445000D02*
X118450000Y-130645000D01*
M02*
