  0
SECTION
  2
HEADER
  9
$ANGBASE
  50
0.0
  9
$ANGDIR
  70
  1
  9
$MEASUREMENT
  70
0
  0
ENDSEC
  0
SECTION
  2
TABLES
  0
TABLE
  2
LTYPE
  70
1
  0
LTYPE
  2
CONTINUOUS
  70
0
  3
Solid line
  72
65
  73
0
  40
0.0
  0
ENDTAB
  0
TABLE
  2
STYLE
  70
4
  0
STYLE
  2
KICAD
  70
0
  40
0
  41
1
  42
1
  50
0
  71
0
  3
isocp.shx
  0
STYLE
  2
KICADB
  70
0
  40
0
  41
1
  42
1
  50
0
  71
0
  3
isocp.shx
  0
STYLE
  2
KICADI
  70
0
  40
0
  41
1
  42
1
  50
15
  71
0
  3
isocp.shx
  0
STYLE
  2
KICADBI
  70
0
  40
0
  41
1
  42
1
  50
15
  71
0
  3
isocp.shx
  0
ENDTAB
  0
TABLE
  2
LAYER
  70
30
  0
LAYER
  2
BLACK
  70
0
  62
7
  6
CONTINUOUS
  0
LAYER
  2
GRAY1
  70
0
  62
251
  6
CONTINUOUS
  0
LAYER
  2
GRAY2
  70
0
  62
8
  6
CONTINUOUS
  0
LAYER
  2
GRAY3
  70
0
  62
9
  6
CONTINUOUS
  0
LAYER
  2
WHITE
  70
0
  62
7
  6
CONTINUOUS
  0
LAYER
  2
LYELLOW
  70
0
  62
51
  6
CONTINUOUS
  0
LAYER
  2
BLUE1
  70
0
  62
178
  6
CONTINUOUS
  0
LAYER
  2
GREEN1
  70
0
  62
98
  6
CONTINUOUS
  0
LAYER
  2
CYAN1
  70
0
  62
138
  6
CONTINUOUS
  0
LAYER
  2
RED1
  70
0
  62
18
  6
CONTINUOUS
  0
LAYER
  2
MAGENTA1
  70
0
  62
228
  6
CONTINUOUS
  0
LAYER
  2
BROWN1
  70
0
  62
58
  6
CONTINUOUS
  0
LAYER
  2
BLUE2
  70
0
  62
5
  6
CONTINUOUS
  0
LAYER
  2
GREEN2
  70
0
  62
3
  6
CONTINUOUS
  0
LAYER
  2
CYAN2
  70
0
  62
4
  6
CONTINUOUS
  0
LAYER
  2
RED2
  70
0
  62
1
  6
CONTINUOUS
  0
LAYER
  2
MAGENTA2
  70
0
  62
6
  6
CONTINUOUS
  0
LAYER
  2
BROWN2
  70
0
  62
54
  6
CONTINUOUS
  0
LAYER
  2
BLUE3
  70
0
  62
171
  6
CONTINUOUS
  0
LAYER
  2
GREEN3
  70
0
  62
91
  6
CONTINUOUS
  0
LAYER
  2
CYAN3
  70
0
  62
131
  6
CONTINUOUS
  0
LAYER
  2
RED3
  70
0
  62
11
  6
CONTINUOUS
  0
LAYER
  2
MAGENTA3
  70
0
  62
221
  6
CONTINUOUS
  0
LAYER
  2
YELLOW3
  70
0
  62
2
  6
CONTINUOUS
  0
LAYER
  2
BLUE4
  70
0
  62
5
  6
CONTINUOUS
  0
LAYER
  2
GREEN4
  70
0
  62
3
  6
CONTINUOUS
  0
LAYER
  2
CYAN4
  70
0
  62
4
  6
CONTINUOUS
  0
LAYER
  2
RED4
  70
0
  62
1
  6
CONTINUOUS
  0
LAYER
  2
MAGENTA4
  70
0
  62
6
  6
CONTINUOUS
  0
LAYER
  2
YELLOW4
  70
0
  62
2
  6
CONTINUOUS
  0
ENDTAB
  0
ENDSEC
  0
SECTION
  2
ENTITIES
0
LINE
8
Black
10
126.55
20
-137.5
11
126.55
21
-99.75
0
LINE
8
Black
10
126.45
20
-137.5
11
126.45
21
-99.75
0
ARC
8
Black
10
126.5
20
-99.75
40
0.05
50
360
51
540
0
ARC
8
Black
10
126.5
20
-137.5
40
0.05
50
180
51
360
0
LINE
8
Black
10
115.55
20
-137.5
11
115.55
21
-99.75
0
LINE
8
Black
10
115.45
20
-137.5
11
115.45
21
-99.75
0
ARC
8
Black
10
115.5
20
-99.75
40
0.05
50
360
51
540
0
ARC
8
Black
10
115.5
20
-137.5
40
0.05
50
180
51
360
0
LINE
8
Black
10
113.75
20
-137.55
11
115.5
21
-137.55
0
LINE
8
Black
10
113.75
20
-137.45
11
115.5
21
-137.45
0
ARC
8
Black
10
115.5
20
-137.5
40
0.05
50
270
51
450
0
ARC
8
Black
10
113.75
20
-137.5
40
0.05
50
90
51
270
0
LINE
8
Black
10
126.5
20
-137.55
11
128.5
21
-137.55
0
LINE
8
Black
10
126.5
20
-137.45
11
128.5
21
-137.45
0
ARC
8
Black
10
128.5
20
-137.5
40
0.05
50
270
51
450
0
ARC
8
Black
10
126.5
20
-137.5
40
0.05
50
90
51
270
0
LINE
8
Black
10
115.5
20
-99.8
11
126.5
21
-99.8
0
LINE
8
Black
10
115.5
20
-99.7
11
126.5
21
-99.7
0
ARC
8
Black
10
126.5
20
-99.75
40
0.05
50
270
51
450
0
ARC
8
Black
10
115.5
20
-99.75
40
0.05
50
90
51
270
0
LINE
8
Black
10
128.55
20
-145.75
11
128.55
21
-137.5
0
LINE
8
Black
10
128.45
20
-145.75
11
128.45
21
-137.5
0
ARC
8
Black
10
128.5
20
-137.5
40
0.05
50
360
51
540
0
ARC
8
Black
10
128.5
20
-145.75
40
0.05
50
180
51
360
0
LINE
8
Black
10
113.75
20
-145.8
11
128.5
21
-145.8
0
LINE
8
Black
10
113.75
20
-145.7
11
128.5
21
-145.7
0
ARC
8
Black
10
128.5
20
-145.75
40
0.05
50
270
51
450
0
ARC
8
Black
10
113.75
20
-145.75
40
0.05
50
90
51
270
0
LINE
8
Black
10
113.8
20
-145.75
11
113.8
21
-137.5
0
LINE
8
Black
10
113.7
20
-145.75
11
113.7
21
-137.5
0
ARC
8
Black
10
113.75
20
-137.5
40
0.05
50
360
51
540
0
ARC
8
Black
10
113.75
20
-145.75
40
0.05
50
180
51
360
0
LINE
8
Black
10
116.3
20
-112.55
11
116.7
21
-112.95
0
LINE
8
Black
10
116.7
20
-112.55
11
116.3
21
-112.95
0
LINE
8
Black
10
118.25
20
-125.365
11
118.65
21
-125.765
0
LINE
8
Black
10
118.65
20
-125.365
11
118.25
21
-125.765
0
LINE
8
Black
10
121.05
20
-122.8
11
121.45
21
-123.2
0
LINE
8
Black
10
121.45
20
-122.8
11
121.05
21
-123.2
0
CIRCLE
8
Black
10
117.65
20
-101.65
40
0.5
0
CIRCLE
8
Black
10
124.15
20
-101.65
40
0.5
0
LINE
8
Black
10
119.5
20
-136
11
119.5
21
-137
0
LINE
8
Black
10
119
20
-136.5
11
120
21
-136.5
0
LINE
8
Black
10
123.25
20
-136
11
123.25
21
-137
0
LINE
8
Black
10
122.75
20
-136.5
11
123.75
21
-136.5
0
LINE
8
Black
10
116.474
20
-140.884
11
116.474
21
-140.166
0
LINE
8
Black
10
116.474
20
-140.166
11
115.756
21
-140.166
0
LINE
8
Black
10
115.756
20
-140.166
11
115.756
21
-140.884
0
LINE
8
Black
10
115.756
20
-140.884
11
116.474
21
-140.884
0
LINE
8
Black
10
116.474
20
-143.424
11
116.474
21
-142.706
0
LINE
8
Black
10
116.474
20
-142.706
11
115.756
21
-142.706
0
LINE
8
Black
10
115.756
20
-142.706
11
115.756
21
-143.424
0
LINE
8
Black
10
115.756
20
-143.424
11
116.474
21
-143.424
0
LINE
8
Black
10
119.014
20
-140.884
11
119.014
21
-140.166
0
LINE
8
Black
10
119.014
20
-140.166
11
118.296
21
-140.166
0
LINE
8
Black
10
118.296
20
-140.166
11
118.296
21
-140.884
0
LINE
8
Black
10
118.296
20
-140.884
11
119.014
21
-140.884
0
LINE
8
Black
10
119.014
20
-143.424
11
119.014
21
-142.706
0
LINE
8
Black
10
119.014
20
-142.706
11
118.296
21
-142.706
0
LINE
8
Black
10
118.296
20
-142.706
11
118.296
21
-143.424
0
LINE
8
Black
10
118.296
20
-143.424
11
119.014
21
-143.424
0
LINE
8
Black
10
121.554
20
-140.884
11
121.554
21
-140.166
0
LINE
8
Black
10
121.554
20
-140.166
11
120.836
21
-140.166
0
LINE
8
Black
10
120.836
20
-140.166
11
120.836
21
-140.884
0
LINE
8
Black
10
120.836
20
-140.884
11
121.554
21
-140.884
0
LINE
8
Black
10
121.554
20
-143.424
11
121.554
21
-142.706
0
LINE
8
Black
10
121.554
20
-142.706
11
120.836
21
-142.706
0
LINE
8
Black
10
120.836
20
-142.706
11
120.836
21
-143.424
0
LINE
8
Black
10
120.836
20
-143.424
11
121.554
21
-143.424
0
LINE
8
Black
10
124.094
20
-140.884
11
124.094
21
-140.166
0
LINE
8
Black
10
124.094
20
-140.166
11
123.376
21
-140.166
0
LINE
8
Black
10
123.376
20
-140.166
11
123.376
21
-140.884
0
LINE
8
Black
10
123.376
20
-140.884
11
124.094
21
-140.884
0
LINE
8
Black
10
124.094
20
-143.424
11
124.094
21
-142.706
0
LINE
8
Black
10
124.094
20
-142.706
11
123.376
21
-142.706
0
LINE
8
Black
10
123.376
20
-142.706
11
123.376
21
-143.424
0
LINE
8
Black
10
123.376
20
-143.424
11
124.094
21
-143.424
0
LINE
8
Black
10
126.634
20
-140.884
11
126.634
21
-140.166
0
LINE
8
Black
10
126.634
20
-140.166
11
125.916
21
-140.166
0
LINE
8
Black
10
125.916
20
-140.166
11
125.916
21
-140.884
0
LINE
8
Black
10
125.916
20
-140.884
11
126.634
21
-140.884
0
LINE
8
Black
10
126.634
20
-143.424
11
126.634
21
-142.706
0
LINE
8
Black
10
126.634
20
-142.706
11
125.916
21
-142.706
0
LINE
8
Black
10
125.916
20
-142.706
11
125.916
21
-143.424
0
LINE
8
Black
10
125.916
20
-143.424
11
126.634
21
-143.424
0
LINE
8
Black
10
116.414
20
-150.457
11
116.414
21
-147.457
0
LINE
8
Black
10
116.414
20
-147.457
11
117.129
21
-147.457
0
LINE
8
Black
10
117.129
20
-147.457
11
117.557
21
-147.6
0
LINE
8
Black
10
117.557
20
-147.6
11
117.843
21
-147.886
0
LINE
8
Black
10
117.843
20
-147.886
11
117.986
21
-148.171
0
LINE
8
Black
10
117.986
20
-148.171
11
118.129
21
-148.743
0
LINE
8
Black
10
118.129
20
-148.743
11
118.129
21
-149.171
0
LINE
8
Black
10
118.129
20
-149.171
11
117.986
21
-149.743
0
LINE
8
Black
10
117.986
20
-149.743
11
117.843
21
-150.029
0
LINE
8
Black
10
117.843
20
-150.029
11
117.557
21
-150.314
0
LINE
8
Black
10
117.557
20
-150.314
11
117.129
21
-150.457
0
LINE
8
Black
10
117.129
20
-150.457
11
116.414
21
-150.457
0
LINE
8
Black
10
119.414
20
-150.457
11
119.414
21
-148.457
0
LINE
8
Black
10
119.414
20
-149.029
11
119.557
21
-148.743
0
LINE
8
Black
10
119.557
20
-148.743
11
119.7
21
-148.6
0
LINE
8
Black
10
119.7
20
-148.6
11
119.986
21
-148.457
0
LINE
8
Black
10
119.986
20
-148.457
11
120.271
21
-148.457
0
LINE
8
Black
10
121.271
20
-150.457
11
121.271
21
-148.457
0
LINE
8
Black
10
121.271
20
-147.457
11
121.129
21
-147.6
0
LINE
8
Black
10
121.129
20
-147.6
11
121.271
21
-147.743
0
LINE
8
Black
10
121.271
20
-147.743
11
121.414
21
-147.6
0
LINE
8
Black
10
121.414
20
-147.6
11
121.271
21
-147.457
0
LINE
8
Black
10
121.271
20
-147.457
11
121.271
21
-147.743
0
LINE
8
Black
10
123.129
20
-150.457
11
122.843
21
-150.314
0
LINE
8
Black
10
122.843
20
-150.314
11
122.7
21
-150.029
0
LINE
8
Black
10
122.7
20
-150.029
11
122.7
21
-147.457
0
LINE
8
Black
10
124.7
20
-150.457
11
124.414
21
-150.314
0
LINE
8
Black
10
124.414
20
-150.314
11
124.271
21
-150.029
0
LINE
8
Black
10
124.271
20
-150.029
11
124.271
21
-147.457
0
LINE
8
Black
10
128.129
20
-150.457
11
128.129
21
-147.457
0
LINE
8
Black
10
128.129
20
-147.457
11
129.129
21
-149.6
0
LINE
8
Black
10
129.129
20
-149.6
11
130.129
21
-147.457
0
LINE
8
Black
10
130.129
20
-147.457
11
130.129
21
-150.457
0
LINE
8
Black
10
132.843
20
-150.457
11
132.843
21
-148.886
0
LINE
8
Black
10
132.843
20
-148.886
11
132.7
21
-148.6
0
LINE
8
Black
10
132.7
20
-148.6
11
132.414
21
-148.457
0
LINE
8
Black
10
132.414
20
-148.457
11
131.843
21
-148.457
0
LINE
8
Black
10
131.843
20
-148.457
11
131.557
21
-148.6
0
LINE
8
Black
10
132.843
20
-150.314
11
132.557
21
-150.457
0
LINE
8
Black
10
132.557
20
-150.457
11
131.843
21
-150.457
0
LINE
8
Black
10
131.843
20
-150.457
11
131.557
21
-150.314
0
LINE
8
Black
10
131.557
20
-150.314
11
131.414
21
-150.029
0
LINE
8
Black
10
131.414
20
-150.029
11
131.414
21
-149.743
0
LINE
8
Black
10
131.414
20
-149.743
11
131.557
21
-149.457
0
LINE
8
Black
10
131.557
20
-149.457
11
131.843
21
-149.314
0
LINE
8
Black
10
131.843
20
-149.314
11
132.557
21
-149.314
0
LINE
8
Black
10
132.557
20
-149.314
11
132.843
21
-149.171
0
LINE
8
Black
10
134.271
20
-148.457
11
134.271
21
-151.457
0
LINE
8
Black
10
134.271
20
-148.6
11
134.557
21
-148.457
0
LINE
8
Black
10
134.557
20
-148.457
11
135.129
21
-148.457
0
LINE
8
Black
10
135.129
20
-148.457
11
135.414
21
-148.6
0
LINE
8
Black
10
135.414
20
-148.6
11
135.557
21
-148.743
0
LINE
8
Black
10
135.557
20
-148.743
11
135.7
21
-149.029
0
LINE
8
Black
10
135.7
20
-149.029
11
135.7
21
-149.886
0
LINE
8
Black
10
135.7
20
-149.886
11
135.557
21
-150.171
0
LINE
8
Black
10
135.557
20
-150.171
11
135.414
21
-150.314
0
LINE
8
Black
10
135.414
20
-150.314
11
135.129
21
-150.457
0
LINE
8
Black
10
135.129
20
-150.457
11
134.557
21
-150.457
0
LINE
8
Black
10
134.557
20
-150.457
11
134.271
21
-150.314
0
LINE
8
Black
10
136.986
20
-150.171
11
137.129
21
-150.314
0
LINE
8
Black
10
137.129
20
-150.314
11
136.986
21
-150.457
0
LINE
8
Black
10
136.986
20
-150.457
11
136.843
21
-150.314
0
LINE
8
Black
10
136.843
20
-150.314
11
136.986
21
-150.171
0
LINE
8
Black
10
136.986
20
-150.171
11
136.986
21
-150.457
0
LINE
8
Black
10
136.986
20
-148.6
11
137.129
21
-148.743
0
LINE
8
Black
10
137.129
20
-148.743
11
136.986
21
-148.886
0
LINE
8
Black
10
136.986
20
-148.886
11
136.843
21
-148.743
0
LINE
8
Black
10
136.843
20
-148.743
11
136.986
21
-148.6
0
LINE
8
Black
10
136.986
20
-148.6
11
136.986
21
-148.886
0
LINE
8
Black
10
113.3
20
-155.2
11
113.7
21
-155.6
0
LINE
8
Black
10
113.7
20
-155.2
11
113.3
21
-155.6
0
LINE
8
Black
10
116.986
20
-153.757
11
117.271
21
-153.757
0
LINE
8
Black
10
117.271
20
-153.757
11
117.557
21
-153.9
0
LINE
8
Black
10
117.557
20
-153.9
11
117.7
21
-154.043
0
LINE
8
Black
10
117.7
20
-154.043
11
117.843
21
-154.329
0
LINE
8
Black
10
117.843
20
-154.329
11
117.986
21
-154.9
0
LINE
8
Black
10
117.986
20
-154.9
11
117.986
21
-155.614
0
LINE
8
Black
10
117.986
20
-155.614
11
117.843
21
-156.186
0
LINE
8
Black
10
117.843
20
-156.186
11
117.7
21
-156.471
0
LINE
8
Black
10
117.7
20
-156.471
11
117.557
21
-156.614
0
LINE
8
Black
10
117.557
20
-156.614
11
117.271
21
-156.757
0
LINE
8
Black
10
117.271
20
-156.757
11
116.986
21
-156.757
0
LINE
8
Black
10
116.986
20
-156.757
11
116.7
21
-156.614
0
LINE
8
Black
10
116.7
20
-156.614
11
116.557
21
-156.471
0
LINE
8
Black
10
116.557
20
-156.471
11
116.414
21
-156.186
0
LINE
8
Black
10
116.414
20
-156.186
11
116.271
21
-155.614
0
LINE
8
Black
10
116.271
20
-155.614
11
116.271
21
-154.9
0
LINE
8
Black
10
116.271
20
-154.9
11
116.414
21
-154.329
0
LINE
8
Black
10
116.414
20
-154.329
11
116.557
21
-154.043
0
LINE
8
Black
10
116.557
20
-154.043
11
116.7
21
-153.9
0
LINE
8
Black
10
116.7
20
-153.9
11
116.986
21
-153.757
0
LINE
8
Black
10
119.271
20
-156.471
11
119.414
21
-156.614
0
LINE
8
Black
10
119.414
20
-156.614
11
119.271
21
-156.757
0
LINE
8
Black
10
119.271
20
-156.757
11
119.129
21
-156.614
0
LINE
8
Black
10
119.129
20
-156.614
11
119.271
21
-156.471
0
LINE
8
Black
10
119.271
20
-156.471
11
119.271
21
-156.757
0
LINE
8
Black
10
121.986
20
-154.757
11
121.986
21
-156.757
0
LINE
8
Black
10
121.271
20
-153.614
11
120.557
21
-155.757
0
LINE
8
Black
10
120.557
20
-155.757
11
122.414
21
-155.757
0
LINE
8
Black
10
124.129
20
-153.757
11
124.414
21
-153.757
0
LINE
8
Black
10
124.414
20
-153.757
11
124.7
21
-153.9
0
LINE
8
Black
10
124.7
20
-153.9
11
124.843
21
-154.043
0
LINE
8
Black
10
124.843
20
-154.043
11
124.986
21
-154.329
0
LINE
8
Black
10
124.986
20
-154.329
11
125.129
21
-154.9
0
LINE
8
Black
10
125.129
20
-154.9
11
125.129
21
-155.614
0
LINE
8
Black
10
125.129
20
-155.614
11
124.986
21
-156.186
0
LINE
8
Black
10
124.986
20
-156.186
11
124.843
21
-156.471
0
LINE
8
Black
10
124.843
20
-156.471
11
124.7
21
-156.614
0
LINE
8
Black
10
124.7
20
-156.614
11
124.414
21
-156.757
0
LINE
8
Black
10
124.414
20
-156.757
11
124.129
21
-156.757
0
LINE
8
Black
10
124.129
20
-156.757
11
123.843
21
-156.614
0
LINE
8
Black
10
123.843
20
-156.614
11
123.7
21
-156.471
0
LINE
8
Black
10
123.7
20
-156.471
11
123.557
21
-156.186
0
LINE
8
Black
10
123.557
20
-156.186
11
123.414
21
-155.614
0
LINE
8
Black
10
123.414
20
-155.614
11
123.414
21
-154.9
0
LINE
8
Black
10
123.414
20
-154.9
11
123.557
21
-154.329
0
LINE
8
Black
10
123.557
20
-154.329
11
123.7
21
-154.043
0
LINE
8
Black
10
123.7
20
-154.043
11
123.843
21
-153.9
0
LINE
8
Black
10
123.843
20
-153.9
11
124.129
21
-153.757
0
LINE
8
Black
10
126.414
20
-156.757
11
126.414
21
-154.757
0
LINE
8
Black
10
126.414
20
-155.043
11
126.557
21
-154.9
0
LINE
8
Black
10
126.557
20
-154.9
11
126.843
21
-154.757
0
LINE
8
Black
10
126.843
20
-154.757
11
127.271
21
-154.757
0
LINE
8
Black
10
127.271
20
-154.757
11
127.557
21
-154.9
0
LINE
8
Black
10
127.557
20
-154.9
11
127.7
21
-155.186
0
LINE
8
Black
10
127.7
20
-155.186
11
127.7
21
-156.757
0
LINE
8
Black
10
127.7
20
-155.186
11
127.843
21
-154.9
0
LINE
8
Black
10
127.843
20
-154.9
11
128.129
21
-154.757
0
LINE
8
Black
10
128.129
20
-154.757
11
128.557
21
-154.757
0
LINE
8
Black
10
128.557
20
-154.757
11
128.843
21
-154.9
0
LINE
8
Black
10
128.843
20
-154.9
11
128.986
21
-155.186
0
LINE
8
Black
10
128.986
20
-155.186
11
128.986
21
-156.757
0
LINE
8
Black
10
130.414
20
-156.757
11
130.414
21
-154.757
0
LINE
8
Black
10
130.414
20
-155.043
11
130.557
21
-154.9
0
LINE
8
Black
10
130.557
20
-154.9
11
130.843
21
-154.757
0
LINE
8
Black
10
130.843
20
-154.757
11
131.271
21
-154.757
0
LINE
8
Black
10
131.271
20
-154.757
11
131.557
21
-154.9
0
LINE
8
Black
10
131.557
20
-154.9
11
131.7
21
-155.186
0
LINE
8
Black
10
131.7
20
-155.186
11
131.7
21
-156.757
0
LINE
8
Black
10
131.7
20
-155.186
11
131.843
21
-154.9
0
LINE
8
Black
10
131.843
20
-154.9
11
132.129
21
-154.757
0
LINE
8
Black
10
132.129
20
-154.757
11
132.557
21
-154.757
0
LINE
8
Black
10
132.557
20
-154.757
11
132.843
21
-154.9
0
LINE
8
Black
10
132.843
20
-154.9
11
132.986
21
-155.186
0
LINE
8
Black
10
132.986
20
-155.186
11
132.986
21
-156.757
0
LINE
8
Black
10
138.843
20
-153.614
11
136.271
21
-157.471
0
LINE
8
Black
10
142.7
20
-153.757
11
142.986
21
-153.757
0
LINE
8
Black
10
142.986
20
-153.757
11
143.271
21
-153.9
0
LINE
8
Black
10
143.271
20
-153.9
11
143.414
21
-154.043
0
LINE
8
Black
10
143.414
20
-154.043
11
143.557
21
-154.329
0
LINE
8
Black
10
143.557
20
-154.329
11
143.7
21
-154.9
0
LINE
8
Black
10
143.7
20
-154.9
11
143.7
21
-155.614
0
LINE
8
Black
10
143.7
20
-155.614
11
143.557
21
-156.186
0
LINE
8
Black
10
143.557
20
-156.186
11
143.414
21
-156.471
0
LINE
8
Black
10
143.414
20
-156.471
11
143.271
21
-156.614
0
LINE
8
Black
10
143.271
20
-156.614
11
142.986
21
-156.757
0
LINE
8
Black
10
142.986
20
-156.757
11
142.7
21
-156.757
0
LINE
8
Black
10
142.7
20
-156.757
11
142.414
21
-156.614
0
LINE
8
Black
10
142.414
20
-156.614
11
142.271
21
-156.471
0
LINE
8
Black
10
142.271
20
-156.471
11
142.129
21
-156.186
0
LINE
8
Black
10
142.129
20
-156.186
11
141.986
21
-155.614
0
LINE
8
Black
10
141.986
20
-155.614
11
141.986
21
-154.9
0
LINE
8
Black
10
141.986
20
-154.9
11
142.129
21
-154.329
0
LINE
8
Black
10
142.129
20
-154.329
11
142.271
21
-154.043
0
LINE
8
Black
10
142.271
20
-154.043
11
142.414
21
-153.9
0
LINE
8
Black
10
142.414
20
-153.9
11
142.7
21
-153.757
0
LINE
8
Black
10
144.986
20
-156.471
11
145.129
21
-156.614
0
LINE
8
Black
10
145.129
20
-156.614
11
144.986
21
-156.757
0
LINE
8
Black
10
144.986
20
-156.757
11
144.843
21
-156.614
0
LINE
8
Black
10
144.843
20
-156.614
11
144.986
21
-156.471
0
LINE
8
Black
10
144.986
20
-156.471
11
144.986
21
-156.757
0
LINE
8
Black
10
146.986
20
-153.757
11
147.271
21
-153.757
0
LINE
8
Black
10
147.271
20
-153.757
11
147.557
21
-153.9
0
LINE
8
Black
10
147.557
20
-153.9
11
147.7
21
-154.043
0
LINE
8
Black
10
147.7
20
-154.043
11
147.843
21
-154.329
0
LINE
8
Black
10
147.843
20
-154.329
11
147.986
21
-154.9
0
LINE
8
Black
10
147.986
20
-154.9
11
147.986
21
-155.614
0
LINE
8
Black
10
147.986
20
-155.614
11
147.843
21
-156.186
0
LINE
8
Black
10
147.843
20
-156.186
11
147.7
21
-156.471
0
LINE
8
Black
10
147.7
20
-156.471
11
147.557
21
-156.614
0
LINE
8
Black
10
147.557
20
-156.614
11
147.271
21
-156.757
0
LINE
8
Black
10
147.271
20
-156.757
11
146.986
21
-156.757
0
LINE
8
Black
10
146.986
20
-156.757
11
146.7
21
-156.614
0
LINE
8
Black
10
146.7
20
-156.614
11
146.557
21
-156.471
0
LINE
8
Black
10
146.557
20
-156.471
11
146.414
21
-156.186
0
LINE
8
Black
10
146.414
20
-156.186
11
146.271
21
-155.614
0
LINE
8
Black
10
146.271
20
-155.614
11
146.271
21
-154.9
0
LINE
8
Black
10
146.271
20
-154.9
11
146.414
21
-154.329
0
LINE
8
Black
10
146.414
20
-154.329
11
146.557
21
-154.043
0
LINE
8
Black
10
146.557
20
-154.043
11
146.7
21
-153.9
0
LINE
8
Black
10
146.7
20
-153.9
11
146.986
21
-153.757
0
LINE
8
Black
10
150.843
20
-156.757
11
149.129
21
-156.757
0
LINE
8
Black
10
149.986
20
-156.757
11
149.986
21
-153.757
0
LINE
8
Black
10
149.986
20
-153.757
11
149.7
21
-154.186
0
LINE
8
Black
10
149.7
20
-154.186
11
149.414
21
-154.471
0
LINE
8
Black
10
149.414
20
-154.471
11
149.129
21
-154.614
0
LINE
8
Black
10
153.414
20
-153.757
11
152.843
21
-153.757
0
LINE
8
Black
10
152.843
20
-153.757
11
152.557
21
-153.9
0
LINE
8
Black
10
152.557
20
-153.9
11
152.414
21
-154.043
0
LINE
8
Black
10
152.414
20
-154.043
11
152.129
21
-154.471
0
LINE
8
Black
10
152.129
20
-154.471
11
151.986
21
-155.043
0
LINE
8
Black
10
151.986
20
-155.043
11
151.986
21
-156.186
0
LINE
8
Black
10
151.986
20
-156.186
11
152.129
21
-156.471
0
LINE
8
Black
10
152.129
20
-156.471
11
152.271
21
-156.614
0
LINE
8
Black
10
152.271
20
-156.614
11
152.557
21
-156.757
0
LINE
8
Black
10
152.557
20
-156.757
11
153.129
21
-156.757
0
LINE
8
Black
10
153.129
20
-156.757
11
153.414
21
-156.614
0
LINE
8
Black
10
153.414
20
-156.614
11
153.557
21
-156.471
0
LINE
8
Black
10
153.557
20
-156.471
11
153.7
21
-156.186
0
LINE
8
Black
10
153.7
20
-156.186
11
153.7
21
-155.471
0
LINE
8
Black
10
153.7
20
-155.471
11
153.557
21
-155.186
0
LINE
8
Black
10
153.557
20
-155.186
11
153.414
21
-155.043
0
LINE
8
Black
10
153.414
20
-155.043
11
153.129
21
-154.9
0
LINE
8
Black
10
153.129
20
-154.9
11
152.557
21
-154.9
0
LINE
8
Black
10
152.557
20
-154.9
11
152.271
21
-155.043
0
LINE
8
Black
10
152.271
20
-155.043
11
152.129
21
-155.186
0
LINE
8
Black
10
152.129
20
-155.186
11
151.986
21
-155.471
0
LINE
8
Black
10
154.843
20
-153.757
11
154.843
21
-154.329
0
LINE
8
Black
10
155.986
20
-153.757
11
155.986
21
-154.329
0
LINE
8
Black
10
160.414
20
-157.9
11
160.271
21
-157.757
0
LINE
8
Black
10
160.271
20
-157.757
11
159.986
21
-157.329
0
LINE
8
Black
10
159.986
20
-157.329
11
159.843
21
-157.043
0
LINE
8
Black
10
159.843
20
-157.043
11
159.7
21
-156.614
0
LINE
8
Black
10
159.7
20
-156.614
11
159.557
21
-155.9
0
LINE
8
Black
10
159.557
20
-155.9
11
159.557
21
-155.329
0
LINE
8
Black
10
159.557
20
-155.329
11
159.7
21
-154.614
0
LINE
8
Black
10
159.7
20
-154.614
11
159.843
21
-154.186
0
LINE
8
Black
10
159.843
20
-154.186
11
159.986
21
-153.9
0
LINE
8
Black
10
159.986
20
-153.9
11
160.271
21
-153.471
0
LINE
8
Black
10
160.271
20
-153.471
11
160.414
21
-153.329
0
LINE
8
Black
10
161.271
20
-153.757
11
163.129
21
-153.757
0
LINE
8
Black
10
163.129
20
-153.757
11
162.129
21
-154.9
0
LINE
8
Black
10
162.129
20
-154.9
11
162.557
21
-154.9
0
LINE
8
Black
10
162.557
20
-154.9
11
162.843
21
-155.043
0
LINE
8
Black
10
162.843
20
-155.043
11
162.986
21
-155.186
0
LINE
8
Black
10
162.986
20
-155.186
11
163.129
21
-155.471
0
LINE
8
Black
10
163.129
20
-155.471
11
163.129
21
-156.186
0
LINE
8
Black
10
163.129
20
-156.186
11
162.986
21
-156.471
0
LINE
8
Black
10
162.986
20
-156.471
11
162.843
21
-156.614
0
LINE
8
Black
10
162.843
20
-156.614
11
162.557
21
-156.757
0
LINE
8
Black
10
162.557
20
-156.757
11
161.7
21
-156.757
0
LINE
8
Black
10
161.7
20
-156.757
11
161.414
21
-156.614
0
LINE
8
Black
10
161.414
20
-156.614
11
161.271
21
-156.471
0
LINE
8
Black
10
166.7
20
-156.757
11
166.7
21
-153.757
0
LINE
8
Black
10
167.986
20
-156.757
11
167.986
21
-155.186
0
LINE
8
Black
10
167.986
20
-155.186
11
167.843
21
-154.9
0
LINE
8
Black
10
167.843
20
-154.9
11
167.557
21
-154.757
0
LINE
8
Black
10
167.557
20
-154.757
11
167.129
21
-154.757
0
LINE
8
Black
10
167.129
20
-154.757
11
166.843
21
-154.9
0
LINE
8
Black
10
166.843
20
-154.9
11
166.7
21
-155.043
0
LINE
8
Black
10
169.843
20
-156.757
11
169.557
21
-156.614
0
LINE
8
Black
10
169.557
20
-156.614
11
169.414
21
-156.471
0
LINE
8
Black
10
169.414
20
-156.471
11
169.271
21
-156.186
0
LINE
8
Black
10
169.271
20
-156.186
11
169.271
21
-155.329
0
LINE
8
Black
10
169.271
20
-155.329
11
169.414
21
-155.043
0
LINE
8
Black
10
169.414
20
-155.043
11
169.557
21
-154.9
0
LINE
8
Black
10
169.557
20
-154.9
11
169.843
21
-154.757
0
LINE
8
Black
10
169.843
20
-154.757
11
170.271
21
-154.757
0
LINE
8
Black
10
170.271
20
-154.757
11
170.557
21
-154.9
0
LINE
8
Black
10
170.557
20
-154.9
11
170.7
21
-155.043
0
LINE
8
Black
10
170.7
20
-155.043
11
170.843
21
-155.329
0
LINE
8
Black
10
170.843
20
-155.329
11
170.843
21
-156.186
0
LINE
8
Black
10
170.843
20
-156.186
11
170.7
21
-156.471
0
LINE
8
Black
10
170.7
20
-156.471
11
170.557
21
-156.614
0
LINE
8
Black
10
170.557
20
-156.614
11
170.271
21
-156.757
0
LINE
8
Black
10
170.271
20
-156.757
11
169.843
21
-156.757
0
LINE
8
Black
10
172.557
20
-156.757
11
172.271
21
-156.614
0
LINE
8
Black
10
172.271
20
-156.614
11
172.129
21
-156.329
0
LINE
8
Black
10
172.129
20
-156.329
11
172.129
21
-153.757
0
LINE
8
Black
10
174.843
20
-156.614
11
174.557
21
-156.757
0
LINE
8
Black
10
174.557
20
-156.757
11
173.986
21
-156.757
0
LINE
8
Black
10
173.986
20
-156.757
11
173.7
21
-156.614
0
LINE
8
Black
10
173.7
20
-156.614
11
173.557
21
-156.329
0
LINE
8
Black
10
173.557
20
-156.329
11
173.557
21
-155.186
0
LINE
8
Black
10
173.557
20
-155.186
11
173.7
21
-154.9
0
LINE
8
Black
10
173.7
20
-154.9
11
173.986
21
-154.757
0
LINE
8
Black
10
173.986
20
-154.757
11
174.557
21
-154.757
0
LINE
8
Black
10
174.557
20
-154.757
11
174.843
21
-154.9
0
LINE
8
Black
10
174.843
20
-154.9
11
174.986
21
-155.186
0
LINE
8
Black
10
174.986
20
-155.186
11
174.986
21
-155.471
0
LINE
8
Black
10
174.986
20
-155.471
11
173.557
21
-155.757
0
LINE
8
Black
10
176.129
20
-156.614
11
176.414
21
-156.757
0
LINE
8
Black
10
176.414
20
-156.757
11
176.986
21
-156.757
0
LINE
8
Black
10
176.986
20
-156.757
11
177.271
21
-156.614
0
LINE
8
Black
10
177.271
20
-156.614
11
177.414
21
-156.329
0
LINE
8
Black
10
177.414
20
-156.329
11
177.414
21
-156.186
0
LINE
8
Black
10
177.414
20
-156.186
11
177.271
21
-155.9
0
LINE
8
Black
10
177.271
20
-155.9
11
176.986
21
-155.757
0
LINE
8
Black
10
176.986
20
-155.757
11
176.557
21
-155.757
0
LINE
8
Black
10
176.557
20
-155.757
11
176.271
21
-155.614
0
LINE
8
Black
10
176.271
20
-155.614
11
176.129
21
-155.329
0
LINE
8
Black
10
176.129
20
-155.329
11
176.129
21
-155.186
0
LINE
8
Black
10
176.129
20
-155.186
11
176.271
21
-154.9
0
LINE
8
Black
10
176.271
20
-154.9
11
176.557
21
-154.757
0
LINE
8
Black
10
176.557
20
-154.757
11
176.986
21
-154.757
0
LINE
8
Black
10
176.986
20
-154.757
11
177.271
21
-154.9
0
LINE
8
Black
10
178.414
20
-157.9
11
178.557
21
-157.757
0
LINE
8
Black
10
178.557
20
-157.757
11
178.843
21
-157.329
0
LINE
8
Black
10
178.843
20
-157.329
11
178.986
21
-157.043
0
LINE
8
Black
10
178.986
20
-157.043
11
179.129
21
-156.614
0
LINE
8
Black
10
179.129
20
-156.614
11
179.271
21
-155.9
0
LINE
8
Black
10
179.271
20
-155.9
11
179.271
21
-155.329
0
LINE
8
Black
10
179.271
20
-155.329
11
179.129
21
-154.614
0
LINE
8
Black
10
179.129
20
-154.614
11
178.986
21
-154.186
0
LINE
8
Black
10
178.986
20
-154.186
11
178.843
21
-153.9
0
LINE
8
Black
10
178.843
20
-153.9
11
178.557
21
-153.471
0
LINE
8
Black
10
178.557
20
-153.471
11
178.414
21
-153.329
0
CIRCLE
8
Black
10
113.2
20
-159.36
40
0.5
0
LINE
8
Black
10
117.986
20
-160.717
11
116.271
21
-160.717
0
LINE
8
Black
10
117.129
20
-160.717
11
117.129
21
-157.717
0
LINE
8
Black
10
117.129
20
-157.717
11
116.843
21
-158.146
0
LINE
8
Black
10
116.843
20
-158.146
11
116.557
21
-158.431
0
LINE
8
Black
10
116.557
20
-158.431
11
116.271
21
-158.574
0
LINE
8
Black
10
119.271
20
-160.431
11
119.414
21
-160.574
0
LINE
8
Black
10
119.414
20
-160.574
11
119.271
21
-160.717
0
LINE
8
Black
10
119.271
20
-160.717
11
119.129
21
-160.574
0
LINE
8
Black
10
119.129
20
-160.574
11
119.271
21
-160.431
0
LINE
8
Black
10
119.271
20
-160.431
11
119.271
21
-160.717
0
LINE
8
Black
10
121.271
20
-157.717
11
121.557
21
-157.717
0
LINE
8
Black
10
121.557
20
-157.717
11
121.843
21
-157.86
0
LINE
8
Black
10
121.843
20
-157.86
11
121.986
21
-158.003
0
LINE
8
Black
10
121.986
20
-158.003
11
122.129
21
-158.289
0
LINE
8
Black
10
122.129
20
-158.289
11
122.271
21
-158.86
0
LINE
8
Black
10
122.271
20
-158.86
11
122.271
21
-159.574
0
LINE
8
Black
10
122.271
20
-159.574
11
122.129
21
-160.146
0
LINE
8
Black
10
122.129
20
-160.146
11
121.986
21
-160.431
0
LINE
8
Black
10
121.986
20
-160.431
11
121.843
21
-160.574
0
LINE
8
Black
10
121.843
20
-160.574
11
121.557
21
-160.717
0
LINE
8
Black
10
121.557
20
-160.717
11
121.271
21
-160.717
0
LINE
8
Black
10
121.271
20
-160.717
11
120.986
21
-160.574
0
LINE
8
Black
10
120.986
20
-160.574
11
120.843
21
-160.431
0
LINE
8
Black
10
120.843
20
-160.431
11
120.7
21
-160.146
0
LINE
8
Black
10
120.7
20
-160.146
11
120.557
21
-159.574
0
LINE
8
Black
10
120.557
20
-159.574
11
120.557
21
-158.86
0
LINE
8
Black
10
120.557
20
-158.86
11
120.7
21
-158.289
0
LINE
8
Black
10
120.7
20
-158.289
11
120.843
21
-158.003
0
LINE
8
Black
10
120.843
20
-158.003
11
120.986
21
-157.86
0
LINE
8
Black
10
120.986
20
-157.86
11
121.271
21
-157.717
0
LINE
8
Black
10
124.129
20
-157.717
11
124.414
21
-157.717
0
LINE
8
Black
10
124.414
20
-157.717
11
124.7
21
-157.86
0
LINE
8
Black
10
124.7
20
-157.86
11
124.843
21
-158.003
0
LINE
8
Black
10
124.843
20
-158.003
11
124.986
21
-158.289
0
LINE
8
Black
10
124.986
20
-158.289
11
125.129
21
-158.86
0
LINE
8
Black
10
125.129
20
-158.86
11
125.129
21
-159.574
0
LINE
8
Black
10
125.129
20
-159.574
11
124.986
21
-160.146
0
LINE
8
Black
10
124.986
20
-160.146
11
124.843
21
-160.431
0
LINE
8
Black
10
124.843
20
-160.431
11
124.7
21
-160.574
0
LINE
8
Black
10
124.7
20
-160.574
11
124.414
21
-160.717
0
LINE
8
Black
10
124.414
20
-160.717
11
124.129
21
-160.717
0
LINE
8
Black
10
124.129
20
-160.717
11
123.843
21
-160.574
0
LINE
8
Black
10
123.843
20
-160.574
11
123.7
21
-160.431
0
LINE
8
Black
10
123.7
20
-160.431
11
123.557
21
-160.146
0
LINE
8
Black
10
123.557
20
-160.146
11
123.414
21
-159.574
0
LINE
8
Black
10
123.414
20
-159.574
11
123.414
21
-158.86
0
LINE
8
Black
10
123.414
20
-158.86
11
123.557
21
-158.289
0
LINE
8
Black
10
123.557
20
-158.289
11
123.7
21
-158.003
0
LINE
8
Black
10
123.7
20
-158.003
11
123.843
21
-157.86
0
LINE
8
Black
10
123.843
20
-157.86
11
124.129
21
-157.717
0
LINE
8
Black
10
126.414
20
-160.717
11
126.414
21
-158.717
0
LINE
8
Black
10
126.414
20
-159.003
11
126.557
21
-158.86
0
LINE
8
Black
10
126.557
20
-158.86
11
126.843
21
-158.717
0
LINE
8
Black
10
126.843
20
-158.717
11
127.271
21
-158.717
0
LINE
8
Black
10
127.271
20
-158.717
11
127.557
21
-158.86
0
LINE
8
Black
10
127.557
20
-158.86
11
127.7
21
-159.146
0
LINE
8
Black
10
127.7
20
-159.146
11
127.7
21
-160.717
0
LINE
8
Black
10
127.7
20
-159.146
11
127.843
21
-158.86
0
LINE
8
Black
10
127.843
20
-158.86
11
128.129
21
-158.717
0
LINE
8
Black
10
128.129
20
-158.717
11
128.557
21
-158.717
0
LINE
8
Black
10
128.557
20
-158.717
11
128.843
21
-158.86
0
LINE
8
Black
10
128.843
20
-158.86
11
128.986
21
-159.146
0
LINE
8
Black
10
128.986
20
-159.146
11
128.986
21
-160.717
0
LINE
8
Black
10
130.414
20
-160.717
11
130.414
21
-158.717
0
LINE
8
Black
10
130.414
20
-159.003
11
130.557
21
-158.86
0
LINE
8
Black
10
130.557
20
-158.86
11
130.843
21
-158.717
0
LINE
8
Black
10
130.843
20
-158.717
11
131.271
21
-158.717
0
LINE
8
Black
10
131.271
20
-158.717
11
131.557
21
-158.86
0
LINE
8
Black
10
131.557
20
-158.86
11
131.7
21
-159.146
0
LINE
8
Black
10
131.7
20
-159.146
11
131.7
21
-160.717
0
LINE
8
Black
10
131.7
20
-159.146
11
131.843
21
-158.86
0
LINE
8
Black
10
131.843
20
-158.86
11
132.129
21
-158.717
0
LINE
8
Black
10
132.129
20
-158.717
11
132.557
21
-158.717
0
LINE
8
Black
10
132.557
20
-158.717
11
132.843
21
-158.86
0
LINE
8
Black
10
132.843
20
-158.86
11
132.986
21
-159.146
0
LINE
8
Black
10
132.986
20
-159.146
11
132.986
21
-160.717
0
LINE
8
Black
10
138.843
20
-157.574
11
136.271
21
-161.431
0
LINE
8
Black
10
142.7
20
-157.717
11
142.986
21
-157.717
0
LINE
8
Black
10
142.986
20
-157.717
11
143.271
21
-157.86
0
LINE
8
Black
10
143.271
20
-157.86
11
143.414
21
-158.003
0
LINE
8
Black
10
143.414
20
-158.003
11
143.557
21
-158.289
0
LINE
8
Black
10
143.557
20
-158.289
11
143.7
21
-158.86
0
LINE
8
Black
10
143.7
20
-158.86
11
143.7
21
-159.574
0
LINE
8
Black
10
143.7
20
-159.574
11
143.557
21
-160.146
0
LINE
8
Black
10
143.557
20
-160.146
11
143.414
21
-160.431
0
LINE
8
Black
10
143.414
20
-160.431
11
143.271
21
-160.574
0
LINE
8
Black
10
143.271
20
-160.574
11
142.986
21
-160.717
0
LINE
8
Black
10
142.986
20
-160.717
11
142.7
21
-160.717
0
LINE
8
Black
10
142.7
20
-160.717
11
142.414
21
-160.574
0
LINE
8
Black
10
142.414
20
-160.574
11
142.271
21
-160.431
0
LINE
8
Black
10
142.271
20
-160.431
11
142.129
21
-160.146
0
LINE
8
Black
10
142.129
20
-160.146
11
141.986
21
-159.574
0
LINE
8
Black
10
141.986
20
-159.574
11
141.986
21
-158.86
0
LINE
8
Black
10
141.986
20
-158.86
11
142.129
21
-158.289
0
LINE
8
Black
10
142.129
20
-158.289
11
142.271
21
-158.003
0
LINE
8
Black
10
142.271
20
-158.003
11
142.414
21
-157.86
0
LINE
8
Black
10
142.414
20
-157.86
11
142.7
21
-157.717
0
LINE
8
Black
10
144.986
20
-160.431
11
145.129
21
-160.574
0
LINE
8
Black
10
145.129
20
-160.574
11
144.986
21
-160.717
0
LINE
8
Black
10
144.986
20
-160.717
11
144.843
21
-160.574
0
LINE
8
Black
10
144.843
20
-160.574
11
144.986
21
-160.431
0
LINE
8
Black
10
144.986
20
-160.431
11
144.986
21
-160.717
0
LINE
8
Black
10
146.986
20
-157.717
11
147.271
21
-157.717
0
LINE
8
Black
10
147.271
20
-157.717
11
147.557
21
-157.86
0
LINE
8
Black
10
147.557
20
-157.86
11
147.7
21
-158.003
0
LINE
8
Black
10
147.7
20
-158.003
11
147.843
21
-158.289
0
LINE
8
Black
10
147.843
20
-158.289
11
147.986
21
-158.86
0
LINE
8
Black
10
147.986
20
-158.86
11
147.986
21
-159.574
0
LINE
8
Black
10
147.986
20
-159.574
11
147.843
21
-160.146
0
LINE
8
Black
10
147.843
20
-160.146
11
147.7
21
-160.431
0
LINE
8
Black
10
147.7
20
-160.431
11
147.557
21
-160.574
0
LINE
8
Black
10
147.557
20
-160.574
11
147.271
21
-160.717
0
LINE
8
Black
10
147.271
20
-160.717
11
146.986
21
-160.717
0
LINE
8
Black
10
146.986
20
-160.717
11
146.7
21
-160.574
0
LINE
8
Black
10
146.7
20
-160.574
11
146.557
21
-160.431
0
LINE
8
Black
10
146.557
20
-160.431
11
146.414
21
-160.146
0
LINE
8
Black
10
146.414
20
-160.146
11
146.271
21
-159.574
0
LINE
8
Black
10
146.271
20
-159.574
11
146.271
21
-158.86
0
LINE
8
Black
10
146.271
20
-158.86
11
146.414
21
-158.289
0
LINE
8
Black
10
146.414
20
-158.289
11
146.557
21
-158.003
0
LINE
8
Black
10
146.557
20
-158.003
11
146.7
21
-157.86
0
LINE
8
Black
10
146.7
20
-157.86
11
146.986
21
-157.717
0
LINE
8
Black
10
148.986
20
-157.717
11
150.843
21
-157.717
0
LINE
8
Black
10
150.843
20
-157.717
11
149.843
21
-158.86
0
LINE
8
Black
10
149.843
20
-158.86
11
150.271
21
-158.86
0
LINE
8
Black
10
150.271
20
-158.86
11
150.557
21
-159.003
0
LINE
8
Black
10
150.557
20
-159.003
11
150.7
21
-159.146
0
LINE
8
Black
10
150.7
20
-159.146
11
150.843
21
-159.431
0
LINE
8
Black
10
150.843
20
-159.431
11
150.843
21
-160.146
0
LINE
8
Black
10
150.843
20
-160.146
11
150.7
21
-160.431
0
LINE
8
Black
10
150.7
20
-160.431
11
150.557
21
-160.574
0
LINE
8
Black
10
150.557
20
-160.574
11
150.271
21
-160.717
0
LINE
8
Black
10
150.271
20
-160.717
11
149.414
21
-160.717
0
LINE
8
Black
10
149.414
20
-160.717
11
149.129
21
-160.574
0
LINE
8
Black
10
149.129
20
-160.574
11
148.986
21
-160.431
0
LINE
8
Black
10
152.271
20
-160.717
11
152.843
21
-160.717
0
LINE
8
Black
10
152.843
20
-160.717
11
153.129
21
-160.574
0
LINE
8
Black
10
153.129
20
-160.574
11
153.271
21
-160.431
0
LINE
8
Black
10
153.271
20
-160.431
11
153.557
21
-160.003
0
LINE
8
Black
10
153.557
20
-160.003
11
153.7
21
-159.431
0
LINE
8
Black
10
153.7
20
-159.431
11
153.7
21
-158.289
0
LINE
8
Black
10
153.7
20
-158.289
11
153.557
21
-158.003
0
LINE
8
Black
10
153.557
20
-158.003
11
153.414
21
-157.86
0
LINE
8
Black
10
153.414
20
-157.86
11
153.129
21
-157.717
0
LINE
8
Black
10
153.129
20
-157.717
11
152.557
21
-157.717
0
LINE
8
Black
10
152.557
20
-157.717
11
152.271
21
-157.86
0
LINE
8
Black
10
152.271
20
-157.86
11
152.129
21
-158.003
0
LINE
8
Black
10
152.129
20
-158.003
11
151.986
21
-158.289
0
LINE
8
Black
10
151.986
20
-158.289
11
151.986
21
-159.003
0
LINE
8
Black
10
151.986
20
-159.003
11
152.129
21
-159.289
0
LINE
8
Black
10
152.129
20
-159.289
11
152.271
21
-159.431
0
LINE
8
Black
10
152.271
20
-159.431
11
152.557
21
-159.574
0
LINE
8
Black
10
152.557
20
-159.574
11
153.129
21
-159.574
0
LINE
8
Black
10
153.129
20
-159.574
11
153.414
21
-159.431
0
LINE
8
Black
10
153.414
20
-159.431
11
153.557
21
-159.289
0
LINE
8
Black
10
153.557
20
-159.289
11
153.7
21
-159.003
0
LINE
8
Black
10
154.843
20
-157.717
11
154.843
21
-158.289
0
LINE
8
Black
10
155.986
20
-157.717
11
155.986
21
-158.289
0
LINE
8
Black
10
160.414
20
-161.86
11
160.271
21
-161.717
0
LINE
8
Black
10
160.271
20
-161.717
11
159.986
21
-161.289
0
LINE
8
Black
10
159.986
20
-161.289
11
159.843
21
-161.003
0
LINE
8
Black
10
159.843
20
-161.003
11
159.7
21
-160.574
0
LINE
8
Black
10
159.7
20
-160.574
11
159.557
21
-159.86
0
LINE
8
Black
10
159.557
20
-159.86
11
159.557
21
-159.289
0
LINE
8
Black
10
159.557
20
-159.289
11
159.7
21
-158.574
0
LINE
8
Black
10
159.7
20
-158.574
11
159.843
21
-158.146
0
LINE
8
Black
10
159.843
20
-158.146
11
159.986
21
-157.86
0
LINE
8
Black
10
159.986
20
-157.86
11
160.271
21
-157.431
0
LINE
8
Black
10
160.271
20
-157.431
11
160.414
21
-157.289
0
LINE
8
Black
10
161.414
20
-158.003
11
161.557
21
-157.86
0
LINE
8
Black
10
161.557
20
-157.86
11
161.843
21
-157.717
0
LINE
8
Black
10
161.843
20
-157.717
11
162.557
21
-157.717
0
LINE
8
Black
10
162.557
20
-157.717
11
162.843
21
-157.86
0
LINE
8
Black
10
162.843
20
-157.86
11
162.986
21
-158.003
0
LINE
8
Black
10
162.986
20
-158.003
11
163.129
21
-158.289
0
LINE
8
Black
10
163.129
20
-158.289
11
163.129
21
-158.574
0
LINE
8
Black
10
163.129
20
-158.574
11
162.986
21
-159.003
0
LINE
8
Black
10
162.986
20
-159.003
11
161.271
21
-160.717
0
LINE
8
Black
10
161.271
20
-160.717
11
163.129
21
-160.717
0
LINE
8
Black
10
166.7
20
-160.717
11
166.7
21
-157.717
0
LINE
8
Black
10
167.986
20
-160.717
11
167.986
21
-159.146
0
LINE
8
Black
10
167.986
20
-159.146
11
167.843
21
-158.86
0
LINE
8
Black
10
167.843
20
-158.86
11
167.557
21
-158.717
0
LINE
8
Black
10
167.557
20
-158.717
11
167.129
21
-158.717
0
LINE
8
Black
10
167.129
20
-158.717
11
166.843
21
-158.86
0
LINE
8
Black
10
166.843
20
-158.86
11
166.7
21
-159.003
0
LINE
8
Black
10
169.843
20
-160.717
11
169.557
21
-160.574
0
LINE
8
Black
10
169.557
20
-160.574
11
169.414
21
-160.431
0
LINE
8
Black
10
169.414
20
-160.431
11
169.271
21
-160.146
0
LINE
8
Black
10
169.271
20
-160.146
11
169.271
21
-159.289
0
LINE
8
Black
10
169.271
20
-159.289
11
169.414
21
-159.003
0
LINE
8
Black
10
169.414
20
-159.003
11
169.557
21
-158.86
0
LINE
8
Black
10
169.557
20
-158.86
11
169.843
21
-158.717
0
LINE
8
Black
10
169.843
20
-158.717
11
170.271
21
-158.717
0
LINE
8
Black
10
170.271
20
-158.717
11
170.557
21
-158.86
0
LINE
8
Black
10
170.557
20
-158.86
11
170.7
21
-159.003
0
LINE
8
Black
10
170.7
20
-159.003
11
170.843
21
-159.289
0
LINE
8
Black
10
170.843
20
-159.289
11
170.843
21
-160.146
0
LINE
8
Black
10
170.843
20
-160.146
11
170.7
21
-160.431
0
LINE
8
Black
10
170.7
20
-160.431
11
170.557
21
-160.574
0
LINE
8
Black
10
170.557
20
-160.574
11
170.271
21
-160.717
0
LINE
8
Black
10
170.271
20
-160.717
11
169.843
21
-160.717
0
LINE
8
Black
10
172.557
20
-160.717
11
172.271
21
-160.574
0
LINE
8
Black
10
172.271
20
-160.574
11
172.129
21
-160.289
0
LINE
8
Black
10
172.129
20
-160.289
11
172.129
21
-157.717
0
LINE
8
Black
10
174.843
20
-160.574
11
174.557
21
-160.717
0
LINE
8
Black
10
174.557
20
-160.717
11
173.986
21
-160.717
0
LINE
8
Black
10
173.986
20
-160.717
11
173.7
21
-160.574
0
LINE
8
Black
10
173.7
20
-160.574
11
173.557
21
-160.289
0
LINE
8
Black
10
173.557
20
-160.289
11
173.557
21
-159.146
0
LINE
8
Black
10
173.557
20
-159.146
11
173.7
21
-158.86
0
LINE
8
Black
10
173.7
20
-158.86
11
173.986
21
-158.717
0
LINE
8
Black
10
173.986
20
-158.717
11
174.557
21
-158.717
0
LINE
8
Black
10
174.557
20
-158.717
11
174.843
21
-158.86
0
LINE
8
Black
10
174.843
20
-158.86
11
174.986
21
-159.146
0
LINE
8
Black
10
174.986
20
-159.146
11
174.986
21
-159.431
0
LINE
8
Black
10
174.986
20
-159.431
11
173.557
21
-159.717
0
LINE
8
Black
10
176.129
20
-160.574
11
176.414
21
-160.717
0
LINE
8
Black
10
176.414
20
-160.717
11
176.986
21
-160.717
0
LINE
8
Black
10
176.986
20
-160.717
11
177.271
21
-160.574
0
LINE
8
Black
10
177.271
20
-160.574
11
177.414
21
-160.289
0
LINE
8
Black
10
177.414
20
-160.289
11
177.414
21
-160.146
0
LINE
8
Black
10
177.414
20
-160.146
11
177.271
21
-159.86
0
LINE
8
Black
10
177.271
20
-159.86
11
176.986
21
-159.717
0
LINE
8
Black
10
176.986
20
-159.717
11
176.557
21
-159.717
0
LINE
8
Black
10
176.557
20
-159.717
11
176.271
21
-159.574
0
LINE
8
Black
10
176.271
20
-159.574
11
176.129
21
-159.289
0
LINE
8
Black
10
176.129
20
-159.289
11
176.129
21
-159.146
0
LINE
8
Black
10
176.129
20
-159.146
11
176.271
21
-158.86
0
LINE
8
Black
10
176.271
20
-158.86
11
176.557
21
-158.717
0
LINE
8
Black
10
176.557
20
-158.717
11
176.986
21
-158.717
0
LINE
8
Black
10
176.986
20
-158.717
11
177.271
21
-158.86
0
LINE
8
Black
10
178.414
20
-161.86
11
178.557
21
-161.717
0
LINE
8
Black
10
178.557
20
-161.717
11
178.843
21
-161.289
0
LINE
8
Black
10
178.843
20
-161.289
11
178.986
21
-161.003
0
LINE
8
Black
10
178.986
20
-161.003
11
179.129
21
-160.574
0
LINE
8
Black
10
179.129
20
-160.574
11
179.271
21
-159.86
0
LINE
8
Black
10
179.271
20
-159.86
11
179.271
21
-159.289
0
LINE
8
Black
10
179.271
20
-159.289
11
179.129
21
-158.574
0
LINE
8
Black
10
179.129
20
-158.574
11
178.986
21
-158.146
0
LINE
8
Black
10
178.986
20
-158.146
11
178.843
21
-157.86
0
LINE
8
Black
10
178.843
20
-157.86
11
178.557
21
-157.431
0
LINE
8
Black
10
178.557
20
-157.431
11
178.414
21
-157.289
0
LINE
8
Black
10
113.2
20
-162.82
11
113.2
21
-163.82
0
LINE
8
Black
10
112.699
20
-163.32
11
113.7
21
-163.32
0
LINE
8
Black
10
117.986
20
-164.677
11
116.271
21
-164.677
0
LINE
8
Black
10
117.129
20
-164.677
11
117.129
21
-161.677
0
LINE
8
Black
10
117.129
20
-161.677
11
116.843
21
-162.106
0
LINE
8
Black
10
116.843
20
-162.106
11
116.557
21
-162.391
0
LINE
8
Black
10
116.557
20
-162.391
11
116.271
21
-162.534
0
LINE
8
Black
10
119.271
20
-164.391
11
119.414
21
-164.534
0
LINE
8
Black
10
119.414
20
-164.534
11
119.271
21
-164.677
0
LINE
8
Black
10
119.271
20
-164.677
11
119.129
21
-164.534
0
LINE
8
Black
10
119.129
20
-164.534
11
119.271
21
-164.391
0
LINE
8
Black
10
119.271
20
-164.391
11
119.271
21
-164.677
0
LINE
8
Black
10
121.271
20
-161.677
11
121.557
21
-161.677
0
LINE
8
Black
10
121.557
20
-161.677
11
121.843
21
-161.82
0
LINE
8
Black
10
121.843
20
-161.82
11
121.986
21
-161.963
0
LINE
8
Black
10
121.986
20
-161.963
11
122.129
21
-162.249
0
LINE
8
Black
10
122.129
20
-162.249
11
122.271
21
-162.82
0
LINE
8
Black
10
122.271
20
-162.82
11
122.271
21
-163.534
0
LINE
8
Black
10
122.271
20
-163.534
11
122.129
21
-164.106
0
LINE
8
Black
10
122.129
20
-164.106
11
121.986
21
-164.391
0
LINE
8
Black
10
121.986
20
-164.391
11
121.843
21
-164.534
0
LINE
8
Black
10
121.843
20
-164.534
11
121.557
21
-164.677
0
LINE
8
Black
10
121.557
20
-164.677
11
121.271
21
-164.677
0
LINE
8
Black
10
121.271
20
-164.677
11
120.986
21
-164.534
0
LINE
8
Black
10
120.986
20
-164.534
11
120.843
21
-164.391
0
LINE
8
Black
10
120.843
20
-164.391
11
120.7
21
-164.106
0
LINE
8
Black
10
120.7
20
-164.106
11
120.557
21
-163.534
0
LINE
8
Black
10
120.557
20
-163.534
11
120.557
21
-162.82
0
LINE
8
Black
10
120.557
20
-162.82
11
120.7
21
-162.249
0
LINE
8
Black
10
120.7
20
-162.249
11
120.843
21
-161.963
0
LINE
8
Black
10
120.843
20
-161.963
11
120.986
21
-161.82
0
LINE
8
Black
10
120.986
20
-161.82
11
121.271
21
-161.677
0
LINE
8
Black
10
124.129
20
-161.677
11
124.414
21
-161.677
0
LINE
8
Black
10
124.414
20
-161.677
11
124.7
21
-161.82
0
LINE
8
Black
10
124.7
20
-161.82
11
124.843
21
-161.963
0
LINE
8
Black
10
124.843
20
-161.963
11
124.986
21
-162.249
0
LINE
8
Black
10
124.986
20
-162.249
11
125.129
21
-162.82
0
LINE
8
Black
10
125.129
20
-162.82
11
125.129
21
-163.534
0
LINE
8
Black
10
125.129
20
-163.534
11
124.986
21
-164.106
0
LINE
8
Black
10
124.986
20
-164.106
11
124.843
21
-164.391
0
LINE
8
Black
10
124.843
20
-164.391
11
124.7
21
-164.534
0
LINE
8
Black
10
124.7
20
-164.534
11
124.414
21
-164.677
0
LINE
8
Black
10
124.414
20
-164.677
11
124.129
21
-164.677
0
LINE
8
Black
10
124.129
20
-164.677
11
123.843
21
-164.534
0
LINE
8
Black
10
123.843
20
-164.534
11
123.7
21
-164.391
0
LINE
8
Black
10
123.7
20
-164.391
11
123.557
21
-164.106
0
LINE
8
Black
10
123.557
20
-164.106
11
123.414
21
-163.534
0
LINE
8
Black
10
123.414
20
-163.534
11
123.414
21
-162.82
0
LINE
8
Black
10
123.414
20
-162.82
11
123.557
21
-162.249
0
LINE
8
Black
10
123.557
20
-162.249
11
123.7
21
-161.963
0
LINE
8
Black
10
123.7
20
-161.963
11
123.843
21
-161.82
0
LINE
8
Black
10
123.843
20
-161.82
11
124.129
21
-161.677
0
LINE
8
Black
10
126.414
20
-164.677
11
126.414
21
-162.677
0
LINE
8
Black
10
126.414
20
-162.963
11
126.557
21
-162.82
0
LINE
8
Black
10
126.557
20
-162.82
11
126.843
21
-162.677
0
LINE
8
Black
10
126.843
20
-162.677
11
127.271
21
-162.677
0
LINE
8
Black
10
127.271
20
-162.677
11
127.557
21
-162.82
0
LINE
8
Black
10
127.557
20
-162.82
11
127.7
21
-163.106
0
LINE
8
Black
10
127.7
20
-163.106
11
127.7
21
-164.677
0
LINE
8
Black
10
127.7
20
-163.106
11
127.843
21
-162.82
0
LINE
8
Black
10
127.843
20
-162.82
11
128.129
21
-162.677
0
LINE
8
Black
10
128.129
20
-162.677
11
128.557
21
-162.677
0
LINE
8
Black
10
128.557
20
-162.677
11
128.843
21
-162.82
0
LINE
8
Black
10
128.843
20
-162.82
11
128.986
21
-163.106
0
LINE
8
Black
10
128.986
20
-163.106
11
128.986
21
-164.677
0
LINE
8
Black
10
130.414
20
-164.677
11
130.414
21
-162.677
0
LINE
8
Black
10
130.414
20
-162.963
11
130.557
21
-162.82
0
LINE
8
Black
10
130.557
20
-162.82
11
130.843
21
-162.677
0
LINE
8
Black
10
130.843
20
-162.677
11
131.271
21
-162.677
0
LINE
8
Black
10
131.271
20
-162.677
11
131.557
21
-162.82
0
LINE
8
Black
10
131.557
20
-162.82
11
131.7
21
-163.106
0
LINE
8
Black
10
131.7
20
-163.106
11
131.7
21
-164.677
0
LINE
8
Black
10
131.7
20
-163.106
11
131.843
21
-162.82
0
LINE
8
Black
10
131.843
20
-162.82
11
132.129
21
-162.677
0
LINE
8
Black
10
132.129
20
-162.677
11
132.557
21
-162.677
0
LINE
8
Black
10
132.557
20
-162.677
11
132.843
21
-162.82
0
LINE
8
Black
10
132.843
20
-162.82
11
132.986
21
-163.106
0
LINE
8
Black
10
132.986
20
-163.106
11
132.986
21
-164.677
0
LINE
8
Black
10
138.843
20
-161.534
11
136.271
21
-165.391
0
LINE
8
Black
10
142.7
20
-161.677
11
142.986
21
-161.677
0
LINE
8
Black
10
142.986
20
-161.677
11
143.271
21
-161.82
0
LINE
8
Black
10
143.271
20
-161.82
11
143.414
21
-161.963
0
LINE
8
Black
10
143.414
20
-161.963
11
143.557
21
-162.249
0
LINE
8
Black
10
143.557
20
-162.249
11
143.7
21
-162.82
0
LINE
8
Black
10
143.7
20
-162.82
11
143.7
21
-163.534
0
LINE
8
Black
10
143.7
20
-163.534
11
143.557
21
-164.106
0
LINE
8
Black
10
143.557
20
-164.106
11
143.414
21
-164.391
0
LINE
8
Black
10
143.414
20
-164.391
11
143.271
21
-164.534
0
LINE
8
Black
10
143.271
20
-164.534
11
142.986
21
-164.677
0
LINE
8
Black
10
142.986
20
-164.677
11
142.7
21
-164.677
0
LINE
8
Black
10
142.7
20
-164.677
11
142.414
21
-164.534
0
LINE
8
Black
10
142.414
20
-164.534
11
142.271
21
-164.391
0
LINE
8
Black
10
142.271
20
-164.391
11
142.129
21
-164.106
0
LINE
8
Black
10
142.129
20
-164.106
11
141.986
21
-163.534
0
LINE
8
Black
10
141.986
20
-163.534
11
141.986
21
-162.82
0
LINE
8
Black
10
141.986
20
-162.82
11
142.129
21
-162.249
0
LINE
8
Black
10
142.129
20
-162.249
11
142.271
21
-161.963
0
LINE
8
Black
10
142.271
20
-161.963
11
142.414
21
-161.82
0
LINE
8
Black
10
142.414
20
-161.82
11
142.7
21
-161.677
0
LINE
8
Black
10
144.986
20
-164.391
11
145.129
21
-164.534
0
LINE
8
Black
10
145.129
20
-164.534
11
144.986
21
-164.677
0
LINE
8
Black
10
144.986
20
-164.677
11
144.843
21
-164.534
0
LINE
8
Black
10
144.843
20
-164.534
11
144.986
21
-164.391
0
LINE
8
Black
10
144.986
20
-164.391
11
144.986
21
-164.677
0
LINE
8
Black
10
146.986
20
-161.677
11
147.271
21
-161.677
0
LINE
8
Black
10
147.271
20
-161.677
11
147.557
21
-161.82
0
LINE
8
Black
10
147.557
20
-161.82
11
147.7
21
-161.963
0
LINE
8
Black
10
147.7
20
-161.963
11
147.843
21
-162.249
0
LINE
8
Black
10
147.843
20
-162.249
11
147.986
21
-162.82
0
LINE
8
Black
10
147.986
20
-162.82
11
147.986
21
-163.534
0
LINE
8
Black
10
147.986
20
-163.534
11
147.843
21
-164.106
0
LINE
8
Black
10
147.843
20
-164.106
11
147.7
21
-164.391
0
LINE
8
Black
10
147.7
20
-164.391
11
147.557
21
-164.534
0
LINE
8
Black
10
147.557
20
-164.534
11
147.271
21
-164.677
0
LINE
8
Black
10
147.271
20
-164.677
11
146.986
21
-164.677
0
LINE
8
Black
10
146.986
20
-164.677
11
146.7
21
-164.534
0
LINE
8
Black
10
146.7
20
-164.534
11
146.557
21
-164.391
0
LINE
8
Black
10
146.557
20
-164.391
11
146.414
21
-164.106
0
LINE
8
Black
10
146.414
20
-164.106
11
146.271
21
-163.534
0
LINE
8
Black
10
146.271
20
-163.534
11
146.271
21
-162.82
0
LINE
8
Black
10
146.271
20
-162.82
11
146.414
21
-162.249
0
LINE
8
Black
10
146.414
20
-162.249
11
146.557
21
-161.963
0
LINE
8
Black
10
146.557
20
-161.963
11
146.7
21
-161.82
0
LINE
8
Black
10
146.7
20
-161.82
11
146.986
21
-161.677
0
LINE
8
Black
10
148.986
20
-161.677
11
150.843
21
-161.677
0
LINE
8
Black
10
150.843
20
-161.677
11
149.843
21
-162.82
0
LINE
8
Black
10
149.843
20
-162.82
11
150.271
21
-162.82
0
LINE
8
Black
10
150.271
20
-162.82
11
150.557
21
-162.963
0
LINE
8
Black
10
150.557
20
-162.963
11
150.7
21
-163.106
0
LINE
8
Black
10
150.7
20
-163.106
11
150.843
21
-163.391
0
LINE
8
Black
10
150.843
20
-163.391
11
150.843
21
-164.106
0
LINE
8
Black
10
150.843
20
-164.106
11
150.7
21
-164.391
0
LINE
8
Black
10
150.7
20
-164.391
11
150.557
21
-164.534
0
LINE
8
Black
10
150.557
20
-164.534
11
150.271
21
-164.677
0
LINE
8
Black
10
150.271
20
-164.677
11
149.414
21
-164.677
0
LINE
8
Black
10
149.414
20
-164.677
11
149.129
21
-164.534
0
LINE
8
Black
10
149.129
20
-164.534
11
148.986
21
-164.391
0
LINE
8
Black
10
152.271
20
-164.677
11
152.843
21
-164.677
0
LINE
8
Black
10
152.843
20
-164.677
11
153.129
21
-164.534
0
LINE
8
Black
10
153.129
20
-164.534
11
153.271
21
-164.391
0
LINE
8
Black
10
153.271
20
-164.391
11
153.557
21
-163.963
0
LINE
8
Black
10
153.557
20
-163.963
11
153.7
21
-163.391
0
LINE
8
Black
10
153.7
20
-163.391
11
153.7
21
-162.249
0
LINE
8
Black
10
153.7
20
-162.249
11
153.557
21
-161.963
0
LINE
8
Black
10
153.557
20
-161.963
11
153.414
21
-161.82
0
LINE
8
Black
10
153.414
20
-161.82
11
153.129
21
-161.677
0
LINE
8
Black
10
153.129
20
-161.677
11
152.557
21
-161.677
0
LINE
8
Black
10
152.557
20
-161.677
11
152.271
21
-161.82
0
LINE
8
Black
10
152.271
20
-161.82
11
152.129
21
-161.963
0
LINE
8
Black
10
152.129
20
-161.963
11
151.986
21
-162.249
0
LINE
8
Black
10
151.986
20
-162.249
11
151.986
21
-162.963
0
LINE
8
Black
10
151.986
20
-162.963
11
152.129
21
-163.249
0
LINE
8
Black
10
152.129
20
-163.249
11
152.271
21
-163.391
0
LINE
8
Black
10
152.271
20
-163.391
11
152.557
21
-163.534
0
LINE
8
Black
10
152.557
20
-163.534
11
153.129
21
-163.534
0
LINE
8
Black
10
153.129
20
-163.534
11
153.414
21
-163.391
0
LINE
8
Black
10
153.414
20
-163.391
11
153.557
21
-163.249
0
LINE
8
Black
10
153.557
20
-163.249
11
153.7
21
-162.963
0
LINE
8
Black
10
154.843
20
-161.677
11
154.843
21
-162.249
0
LINE
8
Black
10
155.986
20
-161.677
11
155.986
21
-162.249
0
LINE
8
Black
10
160.414
20
-165.82
11
160.271
21
-165.677
0
LINE
8
Black
10
160.271
20
-165.677
11
159.986
21
-165.249
0
LINE
8
Black
10
159.986
20
-165.249
11
159.843
21
-164.963
0
LINE
8
Black
10
159.843
20
-164.963
11
159.7
21
-164.534
0
LINE
8
Black
10
159.7
20
-164.534
11
159.557
21
-163.82
0
LINE
8
Black
10
159.557
20
-163.82
11
159.557
21
-163.249
0
LINE
8
Black
10
159.557
20
-163.249
11
159.7
21
-162.534
0
LINE
8
Black
10
159.7
20
-162.534
11
159.843
21
-162.106
0
LINE
8
Black
10
159.843
20
-162.106
11
159.986
21
-161.82
0
LINE
8
Black
10
159.986
20
-161.82
11
160.271
21
-161.391
0
LINE
8
Black
10
160.271
20
-161.391
11
160.414
21
-161.249
0
LINE
8
Black
10
161.414
20
-161.963
11
161.557
21
-161.82
0
LINE
8
Black
10
161.557
20
-161.82
11
161.843
21
-161.677
0
LINE
8
Black
10
161.843
20
-161.677
11
162.557
21
-161.677
0
LINE
8
Black
10
162.557
20
-161.677
11
162.843
21
-161.82
0
LINE
8
Black
10
162.843
20
-161.82
11
162.986
21
-161.963
0
LINE
8
Black
10
162.986
20
-161.963
11
163.129
21
-162.249
0
LINE
8
Black
10
163.129
20
-162.249
11
163.129
21
-162.534
0
LINE
8
Black
10
163.129
20
-162.534
11
162.986
21
-162.963
0
LINE
8
Black
10
162.986
20
-162.963
11
161.271
21
-164.677
0
LINE
8
Black
10
161.271
20
-164.677
11
163.129
21
-164.677
0
LINE
8
Black
10
166.7
20
-164.677
11
166.7
21
-161.677
0
LINE
8
Black
10
167.986
20
-164.677
11
167.986
21
-163.106
0
LINE
8
Black
10
167.986
20
-163.106
11
167.843
21
-162.82
0
LINE
8
Black
10
167.843
20
-162.82
11
167.557
21
-162.677
0
LINE
8
Black
10
167.557
20
-162.677
11
167.129
21
-162.677
0
LINE
8
Black
10
167.129
20
-162.677
11
166.843
21
-162.82
0
LINE
8
Black
10
166.843
20
-162.82
11
166.7
21
-162.963
0
LINE
8
Black
10
169.843
20
-164.677
11
169.557
21
-164.534
0
LINE
8
Black
10
169.557
20
-164.534
11
169.414
21
-164.391
0
LINE
8
Black
10
169.414
20
-164.391
11
169.271
21
-164.106
0
LINE
8
Black
10
169.271
20
-164.106
11
169.271
21
-163.249
0
LINE
8
Black
10
169.271
20
-163.249
11
169.414
21
-162.963
0
LINE
8
Black
10
169.414
20
-162.963
11
169.557
21
-162.82
0
LINE
8
Black
10
169.557
20
-162.82
11
169.843
21
-162.677
0
LINE
8
Black
10
169.843
20
-162.677
11
170.271
21
-162.677
0
LINE
8
Black
10
170.271
20
-162.677
11
170.557
21
-162.82
0
LINE
8
Black
10
170.557
20
-162.82
11
170.7
21
-162.963
0
LINE
8
Black
10
170.7
20
-162.963
11
170.843
21
-163.249
0
LINE
8
Black
10
170.843
20
-163.249
11
170.843
21
-164.106
0
LINE
8
Black
10
170.843
20
-164.106
11
170.7
21
-164.391
0
LINE
8
Black
10
170.7
20
-164.391
11
170.557
21
-164.534
0
LINE
8
Black
10
170.557
20
-164.534
11
170.271
21
-164.677
0
LINE
8
Black
10
170.271
20
-164.677
11
169.843
21
-164.677
0
LINE
8
Black
10
172.557
20
-164.677
11
172.271
21
-164.534
0
LINE
8
Black
10
172.271
20
-164.534
11
172.129
21
-164.249
0
LINE
8
Black
10
172.129
20
-164.249
11
172.129
21
-161.677
0
LINE
8
Black
10
174.843
20
-164.534
11
174.557
21
-164.677
0
LINE
8
Black
10
174.557
20
-164.677
11
173.986
21
-164.677
0
LINE
8
Black
10
173.986
20
-164.677
11
173.7
21
-164.534
0
LINE
8
Black
10
173.7
20
-164.534
11
173.557
21
-164.249
0
LINE
8
Black
10
173.557
20
-164.249
11
173.557
21
-163.106
0
LINE
8
Black
10
173.557
20
-163.106
11
173.7
21
-162.82
0
LINE
8
Black
10
173.7
20
-162.82
11
173.986
21
-162.677
0
LINE
8
Black
10
173.986
20
-162.677
11
174.557
21
-162.677
0
LINE
8
Black
10
174.557
20
-162.677
11
174.843
21
-162.82
0
LINE
8
Black
10
174.843
20
-162.82
11
174.986
21
-163.106
0
LINE
8
Black
10
174.986
20
-163.106
11
174.986
21
-163.391
0
LINE
8
Black
10
174.986
20
-163.391
11
173.557
21
-163.677
0
LINE
8
Black
10
176.129
20
-164.534
11
176.414
21
-164.677
0
LINE
8
Black
10
176.414
20
-164.677
11
176.986
21
-164.677
0
LINE
8
Black
10
176.986
20
-164.677
11
177.271
21
-164.534
0
LINE
8
Black
10
177.271
20
-164.534
11
177.414
21
-164.249
0
LINE
8
Black
10
177.414
20
-164.249
11
177.414
21
-164.106
0
LINE
8
Black
10
177.414
20
-164.106
11
177.271
21
-163.82
0
LINE
8
Black
10
177.271
20
-163.82
11
176.986
21
-163.677
0
LINE
8
Black
10
176.986
20
-163.677
11
176.557
21
-163.677
0
LINE
8
Black
10
176.557
20
-163.677
11
176.271
21
-163.534
0
LINE
8
Black
10
176.271
20
-163.534
11
176.129
21
-163.249
0
LINE
8
Black
10
176.129
20
-163.249
11
176.129
21
-163.106
0
LINE
8
Black
10
176.129
20
-163.106
11
176.271
21
-162.82
0
LINE
8
Black
10
176.271
20
-162.82
11
176.557
21
-162.677
0
LINE
8
Black
10
176.557
20
-162.677
11
176.986
21
-162.677
0
LINE
8
Black
10
176.986
20
-162.677
11
177.271
21
-162.82
0
LINE
8
Black
10
178.414
20
-165.82
11
178.557
21
-165.677
0
LINE
8
Black
10
178.557
20
-165.677
11
178.843
21
-165.249
0
LINE
8
Black
10
178.843
20
-165.249
11
178.986
21
-164.963
0
LINE
8
Black
10
178.986
20
-164.963
11
179.129
21
-164.534
0
LINE
8
Black
10
179.129
20
-164.534
11
179.271
21
-163.82
0
LINE
8
Black
10
179.271
20
-163.82
11
179.271
21
-163.249
0
LINE
8
Black
10
179.271
20
-163.249
11
179.129
21
-162.534
0
LINE
8
Black
10
179.129
20
-162.534
11
178.986
21
-162.106
0
LINE
8
Black
10
178.986
20
-162.106
11
178.843
21
-161.82
0
LINE
8
Black
10
178.843
20
-161.82
11
178.557
21
-161.391
0
LINE
8
Black
10
178.557
20
-161.391
11
178.414
21
-161.249
0
LINE
8
Black
10
113.551
20
-167.639
11
113.551
21
-166.921
0
LINE
8
Black
10
113.551
20
-166.921
11
112.833
21
-166.921
0
LINE
8
Black
10
112.833
20
-166.921
11
112.833
21
-167.639
0
LINE
8
Black
10
112.833
20
-167.639
11
113.551
21
-167.639
0
LINE
8
Black
10
117.986
20
-168.637
11
116.271
21
-168.637
0
LINE
8
Black
10
117.129
20
-168.637
11
117.129
21
-165.637
0
LINE
8
Black
10
117.129
20
-165.637
11
116.843
21
-166.066
0
LINE
8
Black
10
116.843
20
-166.066
11
116.557
21
-166.351
0
LINE
8
Black
10
116.557
20
-166.351
11
116.271
21
-166.494
0
LINE
8
Black
10
119.271
20
-168.351
11
119.414
21
-168.494
0
LINE
8
Black
10
119.414
20
-168.494
11
119.271
21
-168.637
0
LINE
8
Black
10
119.271
20
-168.637
11
119.129
21
-168.494
0
LINE
8
Black
10
119.129
20
-168.494
11
119.271
21
-168.351
0
LINE
8
Black
10
119.271
20
-168.351
11
119.271
21
-168.637
0
LINE
8
Black
10
121.271
20
-165.637
11
121.557
21
-165.637
0
LINE
8
Black
10
121.557
20
-165.637
11
121.843
21
-165.78
0
LINE
8
Black
10
121.843
20
-165.78
11
121.986
21
-165.923
0
LINE
8
Black
10
121.986
20
-165.923
11
122.129
21
-166.209
0
LINE
8
Black
10
122.129
20
-166.209
11
122.271
21
-166.78
0
LINE
8
Black
10
122.271
20
-166.78
11
122.271
21
-167.494
0
LINE
8
Black
10
122.271
20
-167.494
11
122.129
21
-168.066
0
LINE
8
Black
10
122.129
20
-168.066
11
121.986
21
-168.351
0
LINE
8
Black
10
121.986
20
-168.351
11
121.843
21
-168.494
0
LINE
8
Black
10
121.843
20
-168.494
11
121.557
21
-168.637
0
LINE
8
Black
10
121.557
20
-168.637
11
121.271
21
-168.637
0
LINE
8
Black
10
121.271
20
-168.637
11
120.986
21
-168.494
0
LINE
8
Black
10
120.986
20
-168.494
11
120.843
21
-168.351
0
LINE
8
Black
10
120.843
20
-168.351
11
120.7
21
-168.066
0
LINE
8
Black
10
120.7
20
-168.066
11
120.557
21
-167.494
0
LINE
8
Black
10
120.557
20
-167.494
11
120.557
21
-166.78
0
LINE
8
Black
10
120.557
20
-166.78
11
120.7
21
-166.209
0
LINE
8
Black
10
120.7
20
-166.209
11
120.843
21
-165.923
0
LINE
8
Black
10
120.843
20
-165.923
11
120.986
21
-165.78
0
LINE
8
Black
10
120.986
20
-165.78
11
121.271
21
-165.637
0
LINE
8
Black
10
123.414
20
-165.923
11
123.557
21
-165.78
0
LINE
8
Black
10
123.557
20
-165.78
11
123.843
21
-165.637
0
LINE
8
Black
10
123.843
20
-165.637
11
124.557
21
-165.637
0
LINE
8
Black
10
124.557
20
-165.637
11
124.843
21
-165.78
0
LINE
8
Black
10
124.843
20
-165.78
11
124.986
21
-165.923
0
LINE
8
Black
10
124.986
20
-165.923
11
125.129
21
-166.209
0
LINE
8
Black
10
125.129
20
-166.209
11
125.129
21
-166.494
0
LINE
8
Black
10
125.129
20
-166.494
11
124.986
21
-166.923
0
LINE
8
Black
10
124.986
20
-166.923
11
123.271
21
-168.637
0
LINE
8
Black
10
123.271
20
-168.637
11
125.129
21
-168.637
0
LINE
8
Black
10
126.414
20
-168.637
11
126.414
21
-166.637
0
LINE
8
Black
10
126.414
20
-166.923
11
126.557
21
-166.78
0
LINE
8
Black
10
126.557
20
-166.78
11
126.843
21
-166.637
0
LINE
8
Black
10
126.843
20
-166.637
11
127.271
21
-166.637
0
LINE
8
Black
10
127.271
20
-166.637
11
127.557
21
-166.78
0
LINE
8
Black
10
127.557
20
-166.78
11
127.7
21
-167.066
0
LINE
8
Black
10
127.7
20
-167.066
11
127.7
21
-168.637
0
LINE
8
Black
10
127.7
20
-167.066
11
127.843
21
-166.78
0
LINE
8
Black
10
127.843
20
-166.78
11
128.129
21
-166.637
0
LINE
8
Black
10
128.129
20
-166.637
11
128.557
21
-166.637
0
LINE
8
Black
10
128.557
20
-166.637
11
128.843
21
-166.78
0
LINE
8
Black
10
128.843
20
-166.78
11
128.986
21
-167.066
0
LINE
8
Black
10
128.986
20
-167.066
11
128.986
21
-168.637
0
LINE
8
Black
10
130.414
20
-168.637
11
130.414
21
-166.637
0
LINE
8
Black
10
130.414
20
-166.923
11
130.557
21
-166.78
0
LINE
8
Black
10
130.557
20
-166.78
11
130.843
21
-166.637
0
LINE
8
Black
10
130.843
20
-166.637
11
131.271
21
-166.637
0
LINE
8
Black
10
131.271
20
-166.637
11
131.557
21
-166.78
0
LINE
8
Black
10
131.557
20
-166.78
11
131.7
21
-167.066
0
LINE
8
Black
10
131.7
20
-167.066
11
131.7
21
-168.637
0
LINE
8
Black
10
131.7
20
-167.066
11
131.843
21
-166.78
0
LINE
8
Black
10
131.843
20
-166.78
11
132.129
21
-166.637
0
LINE
8
Black
10
132.129
20
-166.637
11
132.557
21
-166.637
0
LINE
8
Black
10
132.557
20
-166.637
11
132.843
21
-166.78
0
LINE
8
Black
10
132.843
20
-166.78
11
132.986
21
-167.066
0
LINE
8
Black
10
132.986
20
-167.066
11
132.986
21
-168.637
0
LINE
8
Black
10
138.843
20
-165.494
11
136.271
21
-169.351
0
LINE
8
Black
10
142.7
20
-165.637
11
142.986
21
-165.637
0
LINE
8
Black
10
142.986
20
-165.637
11
143.271
21
-165.78
0
LINE
8
Black
10
143.271
20
-165.78
11
143.414
21
-165.923
0
LINE
8
Black
10
143.414
20
-165.923
11
143.557
21
-166.209
0
LINE
8
Black
10
143.557
20
-166.209
11
143.7
21
-166.78
0
LINE
8
Black
10
143.7
20
-166.78
11
143.7
21
-167.494
0
LINE
8
Black
10
143.7
20
-167.494
11
143.557
21
-168.066
0
LINE
8
Black
10
143.557
20
-168.066
11
143.414
21
-168.351
0
LINE
8
Black
10
143.414
20
-168.351
11
143.271
21
-168.494
0
LINE
8
Black
10
143.271
20
-168.494
11
142.986
21
-168.637
0
LINE
8
Black
10
142.986
20
-168.637
11
142.7
21
-168.637
0
LINE
8
Black
10
142.7
20
-168.637
11
142.414
21
-168.494
0
LINE
8
Black
10
142.414
20
-168.494
11
142.271
21
-168.351
0
LINE
8
Black
10
142.271
20
-168.351
11
142.129
21
-168.066
0
LINE
8
Black
10
142.129
20
-168.066
11
141.986
21
-167.494
0
LINE
8
Black
10
141.986
20
-167.494
11
141.986
21
-166.78
0
LINE
8
Black
10
141.986
20
-166.78
11
142.129
21
-166.209
0
LINE
8
Black
10
142.129
20
-166.209
11
142.271
21
-165.923
0
LINE
8
Black
10
142.271
20
-165.923
11
142.414
21
-165.78
0
LINE
8
Black
10
142.414
20
-165.78
11
142.7
21
-165.637
0
LINE
8
Black
10
144.986
20
-168.351
11
145.129
21
-168.494
0
LINE
8
Black
10
145.129
20
-168.494
11
144.986
21
-168.637
0
LINE
8
Black
10
144.986
20
-168.637
11
144.843
21
-168.494
0
LINE
8
Black
10
144.843
20
-168.494
11
144.986
21
-168.351
0
LINE
8
Black
10
144.986
20
-168.351
11
144.986
21
-168.637
0
LINE
8
Black
10
146.986
20
-165.637
11
147.271
21
-165.637
0
LINE
8
Black
10
147.271
20
-165.637
11
147.557
21
-165.78
0
LINE
8
Black
10
147.557
20
-165.78
11
147.7
21
-165.923
0
LINE
8
Black
10
147.7
20
-165.923
11
147.843
21
-166.209
0
LINE
8
Black
10
147.843
20
-166.209
11
147.986
21
-166.78
0
LINE
8
Black
10
147.986
20
-166.78
11
147.986
21
-167.494
0
LINE
8
Black
10
147.986
20
-167.494
11
147.843
21
-168.066
0
LINE
8
Black
10
147.843
20
-168.066
11
147.7
21
-168.351
0
LINE
8
Black
10
147.7
20
-168.351
11
147.557
21
-168.494
0
LINE
8
Black
10
147.557
20
-168.494
11
147.271
21
-168.637
0
LINE
8
Black
10
147.271
20
-168.637
11
146.986
21
-168.637
0
LINE
8
Black
10
146.986
20
-168.637
11
146.7
21
-168.494
0
LINE
8
Black
10
146.7
20
-168.494
11
146.557
21
-168.351
0
LINE
8
Black
10
146.557
20
-168.351
11
146.414
21
-168.066
0
LINE
8
Black
10
146.414
20
-168.066
11
146.271
21
-167.494
0
LINE
8
Black
10
146.271
20
-167.494
11
146.271
21
-166.78
0
LINE
8
Black
10
146.271
20
-166.78
11
146.414
21
-166.209
0
LINE
8
Black
10
146.414
20
-166.209
11
146.557
21
-165.923
0
LINE
8
Black
10
146.557
20
-165.923
11
146.7
21
-165.78
0
LINE
8
Black
10
146.7
20
-165.78
11
146.986
21
-165.637
0
LINE
8
Black
10
150.557
20
-166.637
11
150.557
21
-168.637
0
LINE
8
Black
10
149.843
20
-165.494
11
149.129
21
-167.637
0
LINE
8
Black
10
149.129
20
-167.637
11
150.986
21
-167.637
0
LINE
8
Black
10
152.7
20
-165.637
11
152.986
21
-165.637
0
LINE
8
Black
10
152.986
20
-165.637
11
153.271
21
-165.78
0
LINE
8
Black
10
153.271
20
-165.78
11
153.414
21
-165.923
0
LINE
8
Black
10
153.414
20
-165.923
11
153.557
21
-166.209
0
LINE
8
Black
10
153.557
20
-166.209
11
153.7
21
-166.78
0
LINE
8
Black
10
153.7
20
-166.78
11
153.7
21
-167.494
0
LINE
8
Black
10
153.7
20
-167.494
11
153.557
21
-168.066
0
LINE
8
Black
10
153.557
20
-168.066
11
153.414
21
-168.351
0
LINE
8
Black
10
153.414
20
-168.351
11
153.271
21
-168.494
0
LINE
8
Black
10
153.271
20
-168.494
11
152.986
21
-168.637
0
LINE
8
Black
10
152.986
20
-168.637
11
152.7
21
-168.637
0
LINE
8
Black
10
152.7
20
-168.637
11
152.414
21
-168.494
0
LINE
8
Black
10
152.414
20
-168.494
11
152.271
21
-168.351
0
LINE
8
Black
10
152.271
20
-168.351
11
152.129
21
-168.066
0
LINE
8
Black
10
152.129
20
-168.066
11
151.986
21
-167.494
0
LINE
8
Black
10
151.986
20
-167.494
11
151.986
21
-166.78
0
LINE
8
Black
10
151.986
20
-166.78
11
152.129
21
-166.209
0
LINE
8
Black
10
152.129
20
-166.209
11
152.271
21
-165.923
0
LINE
8
Black
10
152.271
20
-165.923
11
152.414
21
-165.78
0
LINE
8
Black
10
152.414
20
-165.78
11
152.7
21
-165.637
0
LINE
8
Black
10
154.843
20
-165.637
11
154.843
21
-166.209
0
LINE
8
Black
10
155.986
20
-165.637
11
155.986
21
-166.209
0
LINE
8
Black
10
160.414
20
-169.78
11
160.271
21
-169.637
0
LINE
8
Black
10
160.271
20
-169.637
11
159.986
21
-169.209
0
LINE
8
Black
10
159.986
20
-169.209
11
159.843
21
-168.923
0
LINE
8
Black
10
159.843
20
-168.923
11
159.7
21
-168.494
0
LINE
8
Black
10
159.7
20
-168.494
11
159.557
21
-167.78
0
LINE
8
Black
10
159.557
20
-167.78
11
159.557
21
-167.209
0
LINE
8
Black
10
159.557
20
-167.209
11
159.7
21
-166.494
0
LINE
8
Black
10
159.7
20
-166.494
11
159.843
21
-166.066
0
LINE
8
Black
10
159.843
20
-166.066
11
159.986
21
-165.78
0
LINE
8
Black
10
159.986
20
-165.78
11
160.271
21
-165.351
0
LINE
8
Black
10
160.271
20
-165.351
11
160.414
21
-165.209
0
LINE
8
Black
10
163.129
20
-168.637
11
161.414
21
-168.637
0
LINE
8
Black
10
162.271
20
-168.637
11
162.271
21
-165.637
0
LINE
8
Black
10
162.271
20
-165.637
11
161.986
21
-166.066
0
LINE
8
Black
10
161.986
20
-166.066
11
161.7
21
-166.351
0
LINE
8
Black
10
161.7
20
-166.351
11
161.414
21
-166.494
0
LINE
8
Black
10
164.986
20
-165.637
11
165.271
21
-165.637
0
LINE
8
Black
10
165.271
20
-165.637
11
165.557
21
-165.78
0
LINE
8
Black
10
165.557
20
-165.78
11
165.7
21
-165.923
0
LINE
8
Black
10
165.7
20
-165.923
11
165.843
21
-166.209
0
LINE
8
Black
10
165.843
20
-166.209
11
165.986
21
-166.78
0
LINE
8
Black
10
165.986
20
-166.78
11
165.986
21
-167.494
0
LINE
8
Black
10
165.986
20
-167.494
11
165.843
21
-168.066
0
LINE
8
Black
10
165.843
20
-168.066
11
165.7
21
-168.351
0
LINE
8
Black
10
165.7
20
-168.351
11
165.557
21
-168.494
0
LINE
8
Black
10
165.557
20
-168.494
11
165.271
21
-168.637
0
LINE
8
Black
10
165.271
20
-168.637
11
164.986
21
-168.637
0
LINE
8
Black
10
164.986
20
-168.637
11
164.7
21
-168.494
0
LINE
8
Black
10
164.7
20
-168.494
11
164.557
21
-168.351
0
LINE
8
Black
10
164.557
20
-168.351
11
164.414
21
-168.066
0
LINE
8
Black
10
164.414
20
-168.066
11
164.271
21
-167.494
0
LINE
8
Black
10
164.271
20
-167.494
11
164.271
21
-166.78
0
LINE
8
Black
10
164.271
20
-166.78
11
164.414
21
-166.209
0
LINE
8
Black
10
164.414
20
-166.209
11
164.557
21
-165.923
0
LINE
8
Black
10
164.557
20
-165.923
11
164.7
21
-165.78
0
LINE
8
Black
10
164.7
20
-165.78
11
164.986
21
-165.637
0
LINE
8
Black
10
169.557
20
-168.637
11
169.557
21
-165.637
0
LINE
8
Black
10
170.843
20
-168.637
11
170.843
21
-167.066
0
LINE
8
Black
10
170.843
20
-167.066
11
170.7
21
-166.78
0
LINE
8
Black
10
170.7
20
-166.78
11
170.414
21
-166.637
0
LINE
8
Black
10
170.414
20
-166.637
11
169.986
21
-166.637
0
LINE
8
Black
10
169.986
20
-166.637
11
169.7
21
-166.78
0
LINE
8
Black
10
169.7
20
-166.78
11
169.557
21
-166.923
0
LINE
8
Black
10
172.7
20
-168.637
11
172.414
21
-168.494
0
LINE
8
Black
10
172.414
20
-168.494
11
172.271
21
-168.351
0
LINE
8
Black
10
172.271
20
-168.351
11
172.129
21
-168.066
0
LINE
8
Black
10
172.129
20
-168.066
11
172.129
21
-167.209
0
LINE
8
Black
10
172.129
20
-167.209
11
172.271
21
-166.923
0
LINE
8
Black
10
172.271
20
-166.923
11
172.414
21
-166.78
0
LINE
8
Black
10
172.414
20
-166.78
11
172.7
21
-166.637
0
LINE
8
Black
10
172.7
20
-166.637
11
173.129
21
-166.637
0
LINE
8
Black
10
173.129
20
-166.637
11
173.414
21
-166.78
0
LINE
8
Black
10
173.414
20
-166.78
11
173.557
21
-166.923
0
LINE
8
Black
10
173.557
20
-166.923
11
173.7
21
-167.209
0
LINE
8
Black
10
173.7
20
-167.209
11
173.7
21
-168.066
0
LINE
8
Black
10
173.7
20
-168.066
11
173.557
21
-168.351
0
LINE
8
Black
10
173.557
20
-168.351
11
173.414
21
-168.494
0
LINE
8
Black
10
173.414
20
-168.494
11
173.129
21
-168.637
0
LINE
8
Black
10
173.129
20
-168.637
11
172.7
21
-168.637
0
LINE
8
Black
10
175.414
20
-168.637
11
175.129
21
-168.494
0
LINE
8
Black
10
175.129
20
-168.494
11
174.986
21
-168.209
0
LINE
8
Black
10
174.986
20
-168.209
11
174.986
21
-165.637
0
LINE
8
Black
10
177.7
20
-168.494
11
177.414
21
-168.637
0
LINE
8
Black
10
177.414
20
-168.637
11
176.843
21
-168.637
0
LINE
8
Black
10
176.843
20
-168.637
11
176.557
21
-168.494
0
LINE
8
Black
10
176.557
20
-168.494
11
176.414
21
-168.209
0
LINE
8
Black
10
176.414
20
-168.209
11
176.414
21
-167.066
0
LINE
8
Black
10
176.414
20
-167.066
11
176.557
21
-166.78
0
LINE
8
Black
10
176.557
20
-166.78
11
176.843
21
-166.637
0
LINE
8
Black
10
176.843
20
-166.637
11
177.414
21
-166.637
0
LINE
8
Black
10
177.414
20
-166.637
11
177.7
21
-166.78
0
LINE
8
Black
10
177.7
20
-166.78
11
177.843
21
-167.066
0
LINE
8
Black
10
177.843
20
-167.066
11
177.843
21
-167.351
0
LINE
8
Black
10
177.843
20
-167.351
11
176.414
21
-167.637
0
LINE
8
Black
10
178.986
20
-168.494
11
179.271
21
-168.637
0
LINE
8
Black
10
179.271
20
-168.637
11
179.843
21
-168.637
0
LINE
8
Black
10
179.843
20
-168.637
11
180.129
21
-168.494
0
LINE
8
Black
10
180.129
20
-168.494
11
180.271
21
-168.209
0
LINE
8
Black
10
180.271
20
-168.209
11
180.271
21
-168.066
0
LINE
8
Black
10
180.271
20
-168.066
11
180.129
21
-167.78
0
LINE
8
Black
10
180.129
20
-167.78
11
179.843
21
-167.637
0
LINE
8
Black
10
179.843
20
-167.637
11
179.414
21
-167.637
0
LINE
8
Black
10
179.414
20
-167.637
11
179.129
21
-167.494
0
LINE
8
Black
10
179.129
20
-167.494
11
178.986
21
-167.209
0
LINE
8
Black
10
178.986
20
-167.209
11
178.986
21
-167.066
0
LINE
8
Black
10
178.986
20
-167.066
11
179.129
21
-166.78
0
LINE
8
Black
10
179.129
20
-166.78
11
179.414
21
-166.637
0
LINE
8
Black
10
179.414
20
-166.637
11
179.843
21
-166.637
0
LINE
8
Black
10
179.843
20
-166.637
11
180.129
21
-166.78
0
LINE
8
Black
10
181.271
20
-169.78
11
181.414
21
-169.637
0
LINE
8
Black
10
181.414
20
-169.637
11
181.7
21
-169.209
0
LINE
8
Black
10
181.7
20
-169.209
11
181.843
21
-168.923
0
LINE
8
Black
10
181.843
20
-168.923
11
181.986
21
-168.494
0
LINE
8
Black
10
181.986
20
-168.494
11
182.129
21
-167.78
0
LINE
8
Black
10
182.129
20
-167.78
11
182.129
21
-167.209
0
LINE
8
Black
10
182.129
20
-167.209
11
181.986
21
-166.494
0
LINE
8
Black
10
181.986
20
-166.494
11
181.843
21
-166.066
0
LINE
8
Black
10
181.843
20
-166.066
11
181.7
21
-165.78
0
LINE
8
Black
10
181.7
20
-165.78
11
181.414
21
-165.351
0
LINE
8
Black
10
181.414
20
-165.351
11
181.271
21
-165.209
  0
ENDSEC
  0
EOF
