  0
SECTION
  2
HEADER
  9
$ANGBASE
  50
0.0
  9
$ANGDIR
  70
  1
  9
$MEASUREMENT
  70
0
  0
ENDSEC
  0
SECTION
  2
TABLES
  0
TABLE
  2
LTYPE
  70
1
  0
LTYPE
  2
CONTINUOUS
  70
0
  3
Solid line
  72
65
  73
0
  40
0.0
  0
ENDTAB
  0
TABLE
  2
STYLE
  70
4
  0
STYLE
  2
KICAD
  70
0
  40
0
  41
1
  42
1
  50
0
  71
0
  3
isocp.shx
  0
STYLE
  2
KICADB
  70
0
  40
0
  41
1
  42
1
  50
0
  71
0
  3
isocp.shx
  0
STYLE
  2
KICADI
  70
0
  40
0
  41
1
  42
1
  50
15
  71
0
  3
isocp.shx
  0
STYLE
  2
KICADBI
  70
0
  40
0
  41
1
  42
1
  50
15
  71
0
  3
isocp.shx
  0
ENDTAB
  0
TABLE
  2
LAYER
  70
30
  0
LAYER
  2
BLACK
  70
0
  62
7
  6
CONTINUOUS
  0
LAYER
  2
GRAY1
  70
0
  62
251
  6
CONTINUOUS
  0
LAYER
  2
GRAY2
  70
0
  62
8
  6
CONTINUOUS
  0
LAYER
  2
GRAY3
  70
0
  62
9
  6
CONTINUOUS
  0
LAYER
  2
WHITE
  70
0
  62
7
  6
CONTINUOUS
  0
LAYER
  2
LYELLOW
  70
0
  62
51
  6
CONTINUOUS
  0
LAYER
  2
BLUE1
  70
0
  62
178
  6
CONTINUOUS
  0
LAYER
  2
GREEN1
  70
0
  62
98
  6
CONTINUOUS
  0
LAYER
  2
CYAN1
  70
0
  62
138
  6
CONTINUOUS
  0
LAYER
  2
RED1
  70
0
  62
18
  6
CONTINUOUS
  0
LAYER
  2
MAGENTA1
  70
0
  62
228
  6
CONTINUOUS
  0
LAYER
  2
BROWN1
  70
0
  62
58
  6
CONTINUOUS
  0
LAYER
  2
BLUE2
  70
0
  62
5
  6
CONTINUOUS
  0
LAYER
  2
GREEN2
  70
0
  62
3
  6
CONTINUOUS
  0
LAYER
  2
CYAN2
  70
0
  62
4
  6
CONTINUOUS
  0
LAYER
  2
RED2
  70
0
  62
1
  6
CONTINUOUS
  0
LAYER
  2
MAGENTA2
  70
0
  62
6
  6
CONTINUOUS
  0
LAYER
  2
BROWN2
  70
0
  62
54
  6
CONTINUOUS
  0
LAYER
  2
BLUE3
  70
0
  62
171
  6
CONTINUOUS
  0
LAYER
  2
GREEN3
  70
0
  62
91
  6
CONTINUOUS
  0
LAYER
  2
CYAN3
  70
0
  62
131
  6
CONTINUOUS
  0
LAYER
  2
RED3
  70
0
  62
11
  6
CONTINUOUS
  0
LAYER
  2
MAGENTA3
  70
0
  62
221
  6
CONTINUOUS
  0
LAYER
  2
YELLOW3
  70
0
  62
2
  6
CONTINUOUS
  0
LAYER
  2
BLUE4
  70
0
  62
5
  6
CONTINUOUS
  0
LAYER
  2
GREEN4
  70
0
  62
3
  6
CONTINUOUS
  0
LAYER
  2
CYAN4
  70
0
  62
4
  6
CONTINUOUS
  0
LAYER
  2
RED4
  70
0
  62
1
  6
CONTINUOUS
  0
LAYER
  2
MAGENTA4
  70
0
  62
6
  6
CONTINUOUS
  0
LAYER
  2
YELLOW4
  70
0
  62
2
  6
CONTINUOUS
  0
ENDTAB
  0
ENDSEC
  0
SECTION
  2
ENTITIES
0
LINE
8
Black
10
116
20
-91.8
11
126.75
21
-91.8
0
LINE
8
Black
10
116
20
-91.7
11
126.75
21
-91.7
0
ARC
8
Black
10
126.75
20
-91.75
40
0.05
50
270
51
450
0
ARC
8
Black
10
116
20
-91.75
40
0.05
50
90
51
270
0
LINE
8
Black
10
126.8
20
-139.75
11
126.8
21
-91.75
0
LINE
8
Black
10
126.7
20
-139.75
11
126.7
21
-91.75
0
ARC
8
Black
10
126.75
20
-91.75
40
0.05
50
360
51
540
0
ARC
8
Black
10
126.75
20
-139.75
40
0.05
50
180
51
360
0
LINE
8
Black
10
126.75
20
-139.8
11
128.5
21
-139.8
0
LINE
8
Black
10
126.75
20
-139.7
11
128.5
21
-139.7
0
ARC
8
Black
10
128.5
20
-139.75
40
0.05
50
270
51
450
0
ARC
8
Black
10
126.75
20
-139.75
40
0.05
50
90
51
270
0
LINE
8
Black
10
128.55
20
-148
11
128.55
21
-139.75
0
LINE
8
Black
10
128.45
20
-148
11
128.45
21
-139.75
0
ARC
8
Black
10
128.5
20
-139.75
40
0.05
50
360
51
540
0
ARC
8
Black
10
128.5
20
-148
40
0.05
50
180
51
360
0
LINE
8
Black
10
113.75
20
-148.05
11
128.5
21
-148.05
0
LINE
8
Black
10
113.75
20
-147.95
11
128.5
21
-147.95
0
ARC
8
Black
10
128.5
20
-148
40
0.05
50
270
51
450
0
ARC
8
Black
10
113.75
20
-148
40
0.05
50
90
51
270
0
LINE
8
Black
10
113.8
20
-148
11
113.8
21
-139.75
0
LINE
8
Black
10
113.7
20
-148
11
113.7
21
-139.75
0
ARC
8
Black
10
113.75
20
-139.75
40
0.05
50
360
51
540
0
ARC
8
Black
10
113.75
20
-148
40
0.05
50
180
51
360
0
LINE
8
Black
10
113.75
20
-139.8
11
116
21
-139.8
0
LINE
8
Black
10
113.75
20
-139.7
11
116
21
-139.7
0
ARC
8
Black
10
116
20
-139.75
40
0.05
50
270
51
450
0
ARC
8
Black
10
113.75
20
-139.75
40
0.05
50
90
51
270
0
LINE
8
Black
10
116.05
20
-139.75
11
116.05
21
-91.75
0
LINE
8
Black
10
115.95
20
-139.75
11
115.95
21
-91.75
0
ARC
8
Black
10
116
20
-91.75
40
0.05
50
360
51
540
0
ARC
8
Black
10
116
20
-139.75
40
0.05
50
180
51
360
0
LINE
8
Black
10
116.55
20
-126.55
11
116.95
21
-126.95
0
LINE
8
Black
10
116.95
20
-126.55
11
116.55
21
-126.95
0
LINE
8
Black
10
120.05
20
-125.3
11
120.45
21
-125.7
0
LINE
8
Black
10
120.45
20
-125.3
11
120.05
21
-125.7
0
LINE
8
Black
10
121.3
20
-114.8
11
121.7
21
-115.2
0
LINE
8
Black
10
121.7
20
-114.8
11
121.3
21
-115.2
0
CIRCLE
8
Black
10
118.15
20
-94.15
40
0.5
0
CIRCLE
8
Black
10
124.65
20
-94.15
40
0.5
0
LINE
8
Black
10
119.35
20
-137.55
11
119.35
21
-138.55
0
LINE
8
Black
10
118.85
20
-138.05
11
119.85
21
-138.05
0
LINE
8
Black
10
123.15
20
-137.7
11
123.15
21
-138.7
0
LINE
8
Black
10
122.65
20
-138.2
11
123.65
21
-138.2
0
LINE
8
Black
10
116.474
20
-143.134
11
116.474
21
-142.416
0
LINE
8
Black
10
116.474
20
-142.416
11
115.756
21
-142.416
0
LINE
8
Black
10
115.756
20
-142.416
11
115.756
21
-143.134
0
LINE
8
Black
10
115.756
20
-143.134
11
116.474
21
-143.134
0
LINE
8
Black
10
116.474
20
-145.674
11
116.474
21
-144.956
0
LINE
8
Black
10
116.474
20
-144.956
11
115.756
21
-144.956
0
LINE
8
Black
10
115.756
20
-144.956
11
115.756
21
-145.674
0
LINE
8
Black
10
115.756
20
-145.674
11
116.474
21
-145.674
0
LINE
8
Black
10
119.014
20
-143.134
11
119.014
21
-142.416
0
LINE
8
Black
10
119.014
20
-142.416
11
118.296
21
-142.416
0
LINE
8
Black
10
118.296
20
-142.416
11
118.296
21
-143.134
0
LINE
8
Black
10
118.296
20
-143.134
11
119.014
21
-143.134
0
LINE
8
Black
10
119.014
20
-145.674
11
119.014
21
-144.956
0
LINE
8
Black
10
119.014
20
-144.956
11
118.296
21
-144.956
0
LINE
8
Black
10
118.296
20
-144.956
11
118.296
21
-145.674
0
LINE
8
Black
10
118.296
20
-145.674
11
119.014
21
-145.674
0
LINE
8
Black
10
121.554
20
-143.134
11
121.554
21
-142.416
0
LINE
8
Black
10
121.554
20
-142.416
11
120.836
21
-142.416
0
LINE
8
Black
10
120.836
20
-142.416
11
120.836
21
-143.134
0
LINE
8
Black
10
120.836
20
-143.134
11
121.554
21
-143.134
0
LINE
8
Black
10
121.554
20
-145.674
11
121.554
21
-144.956
0
LINE
8
Black
10
121.554
20
-144.956
11
120.836
21
-144.956
0
LINE
8
Black
10
120.836
20
-144.956
11
120.836
21
-145.674
0
LINE
8
Black
10
120.836
20
-145.674
11
121.554
21
-145.674
0
LINE
8
Black
10
124.094
20
-143.134
11
124.094
21
-142.416
0
LINE
8
Black
10
124.094
20
-142.416
11
123.376
21
-142.416
0
LINE
8
Black
10
123.376
20
-142.416
11
123.376
21
-143.134
0
LINE
8
Black
10
123.376
20
-143.134
11
124.094
21
-143.134
0
LINE
8
Black
10
124.094
20
-145.674
11
124.094
21
-144.956
0
LINE
8
Black
10
124.094
20
-144.956
11
123.376
21
-144.956
0
LINE
8
Black
10
123.376
20
-144.956
11
123.376
21
-145.674
0
LINE
8
Black
10
123.376
20
-145.674
11
124.094
21
-145.674
0
LINE
8
Black
10
126.634
20
-143.134
11
126.634
21
-142.416
0
LINE
8
Black
10
126.634
20
-142.416
11
125.916
21
-142.416
0
LINE
8
Black
10
125.916
20
-142.416
11
125.916
21
-143.134
0
LINE
8
Black
10
125.916
20
-143.134
11
126.634
21
-143.134
0
LINE
8
Black
10
126.634
20
-145.674
11
126.634
21
-144.956
0
LINE
8
Black
10
126.634
20
-144.956
11
125.916
21
-144.956
0
LINE
8
Black
10
125.916
20
-144.956
11
125.916
21
-145.674
0
LINE
8
Black
10
125.916
20
-145.674
11
126.634
21
-145.674
0
LINE
8
Black
10
116.414
20
-152.707
11
116.414
21
-149.707
0
LINE
8
Black
10
116.414
20
-149.707
11
117.129
21
-149.707
0
LINE
8
Black
10
117.129
20
-149.707
11
117.557
21
-149.85
0
LINE
8
Black
10
117.557
20
-149.85
11
117.843
21
-150.136
0
LINE
8
Black
10
117.843
20
-150.136
11
117.986
21
-150.421
0
LINE
8
Black
10
117.986
20
-150.421
11
118.129
21
-150.993
0
LINE
8
Black
10
118.129
20
-150.993
11
118.129
21
-151.421
0
LINE
8
Black
10
118.129
20
-151.421
11
117.986
21
-151.993
0
LINE
8
Black
10
117.986
20
-151.993
11
117.843
21
-152.279
0
LINE
8
Black
10
117.843
20
-152.279
11
117.557
21
-152.564
0
LINE
8
Black
10
117.557
20
-152.564
11
117.129
21
-152.707
0
LINE
8
Black
10
117.129
20
-152.707
11
116.414
21
-152.707
0
LINE
8
Black
10
119.414
20
-152.707
11
119.414
21
-150.707
0
LINE
8
Black
10
119.414
20
-151.279
11
119.557
21
-150.993
0
LINE
8
Black
10
119.557
20
-150.993
11
119.7
21
-150.85
0
LINE
8
Black
10
119.7
20
-150.85
11
119.986
21
-150.707
0
LINE
8
Black
10
119.986
20
-150.707
11
120.271
21
-150.707
0
LINE
8
Black
10
121.271
20
-152.707
11
121.271
21
-150.707
0
LINE
8
Black
10
121.271
20
-149.707
11
121.129
21
-149.85
0
LINE
8
Black
10
121.129
20
-149.85
11
121.271
21
-149.993
0
LINE
8
Black
10
121.271
20
-149.993
11
121.414
21
-149.85
0
LINE
8
Black
10
121.414
20
-149.85
11
121.271
21
-149.707
0
LINE
8
Black
10
121.271
20
-149.707
11
121.271
21
-149.993
0
LINE
8
Black
10
123.129
20
-152.707
11
122.843
21
-152.564
0
LINE
8
Black
10
122.843
20
-152.564
11
122.7
21
-152.279
0
LINE
8
Black
10
122.7
20
-152.279
11
122.7
21
-149.707
0
LINE
8
Black
10
124.7
20
-152.707
11
124.414
21
-152.564
0
LINE
8
Black
10
124.414
20
-152.564
11
124.271
21
-152.279
0
LINE
8
Black
10
124.271
20
-152.279
11
124.271
21
-149.707
0
LINE
8
Black
10
128.129
20
-152.707
11
128.129
21
-149.707
0
LINE
8
Black
10
128.129
20
-149.707
11
129.129
21
-151.85
0
LINE
8
Black
10
129.129
20
-151.85
11
130.129
21
-149.707
0
LINE
8
Black
10
130.129
20
-149.707
11
130.129
21
-152.707
0
LINE
8
Black
10
132.843
20
-152.707
11
132.843
21
-151.136
0
LINE
8
Black
10
132.843
20
-151.136
11
132.7
21
-150.85
0
LINE
8
Black
10
132.7
20
-150.85
11
132.414
21
-150.707
0
LINE
8
Black
10
132.414
20
-150.707
11
131.843
21
-150.707
0
LINE
8
Black
10
131.843
20
-150.707
11
131.557
21
-150.85
0
LINE
8
Black
10
132.843
20
-152.564
11
132.557
21
-152.707
0
LINE
8
Black
10
132.557
20
-152.707
11
131.843
21
-152.707
0
LINE
8
Black
10
131.843
20
-152.707
11
131.557
21
-152.564
0
LINE
8
Black
10
131.557
20
-152.564
11
131.414
21
-152.279
0
LINE
8
Black
10
131.414
20
-152.279
11
131.414
21
-151.993
0
LINE
8
Black
10
131.414
20
-151.993
11
131.557
21
-151.707
0
LINE
8
Black
10
131.557
20
-151.707
11
131.843
21
-151.564
0
LINE
8
Black
10
131.843
20
-151.564
11
132.557
21
-151.564
0
LINE
8
Black
10
132.557
20
-151.564
11
132.843
21
-151.421
0
LINE
8
Black
10
134.271
20
-150.707
11
134.271
21
-153.707
0
LINE
8
Black
10
134.271
20
-150.85
11
134.557
21
-150.707
0
LINE
8
Black
10
134.557
20
-150.707
11
135.129
21
-150.707
0
LINE
8
Black
10
135.129
20
-150.707
11
135.414
21
-150.85
0
LINE
8
Black
10
135.414
20
-150.85
11
135.557
21
-150.993
0
LINE
8
Black
10
135.557
20
-150.993
11
135.7
21
-151.279
0
LINE
8
Black
10
135.7
20
-151.279
11
135.7
21
-152.136
0
LINE
8
Black
10
135.7
20
-152.136
11
135.557
21
-152.421
0
LINE
8
Black
10
135.557
20
-152.421
11
135.414
21
-152.564
0
LINE
8
Black
10
135.414
20
-152.564
11
135.129
21
-152.707
0
LINE
8
Black
10
135.129
20
-152.707
11
134.557
21
-152.707
0
LINE
8
Black
10
134.557
20
-152.707
11
134.271
21
-152.564
0
LINE
8
Black
10
136.986
20
-152.421
11
137.129
21
-152.564
0
LINE
8
Black
10
137.129
20
-152.564
11
136.986
21
-152.707
0
LINE
8
Black
10
136.986
20
-152.707
11
136.843
21
-152.564
0
LINE
8
Black
10
136.843
20
-152.564
11
136.986
21
-152.421
0
LINE
8
Black
10
136.986
20
-152.421
11
136.986
21
-152.707
0
LINE
8
Black
10
136.986
20
-150.85
11
137.129
21
-150.993
0
LINE
8
Black
10
137.129
20
-150.993
11
136.986
21
-151.136
0
LINE
8
Black
10
136.986
20
-151.136
11
136.843
21
-150.993
0
LINE
8
Black
10
136.843
20
-150.993
11
136.986
21
-150.85
0
LINE
8
Black
10
136.986
20
-150.85
11
136.986
21
-151.136
0
LINE
8
Black
10
113.3
20
-157.45
11
113.7
21
-157.85
0
LINE
8
Black
10
113.7
20
-157.45
11
113.3
21
-157.85
0
LINE
8
Black
10
116.986
20
-156.007
11
117.271
21
-156.007
0
LINE
8
Black
10
117.271
20
-156.007
11
117.557
21
-156.15
0
LINE
8
Black
10
117.557
20
-156.15
11
117.7
21
-156.293
0
LINE
8
Black
10
117.7
20
-156.293
11
117.843
21
-156.579
0
LINE
8
Black
10
117.843
20
-156.579
11
117.986
21
-157.15
0
LINE
8
Black
10
117.986
20
-157.15
11
117.986
21
-157.864
0
LINE
8
Black
10
117.986
20
-157.864
11
117.843
21
-158.436
0
LINE
8
Black
10
117.843
20
-158.436
11
117.7
21
-158.721
0
LINE
8
Black
10
117.7
20
-158.721
11
117.557
21
-158.864
0
LINE
8
Black
10
117.557
20
-158.864
11
117.271
21
-159.007
0
LINE
8
Black
10
117.271
20
-159.007
11
116.986
21
-159.007
0
LINE
8
Black
10
116.986
20
-159.007
11
116.7
21
-158.864
0
LINE
8
Black
10
116.7
20
-158.864
11
116.557
21
-158.721
0
LINE
8
Black
10
116.557
20
-158.721
11
116.414
21
-158.436
0
LINE
8
Black
10
116.414
20
-158.436
11
116.271
21
-157.864
0
LINE
8
Black
10
116.271
20
-157.864
11
116.271
21
-157.15
0
LINE
8
Black
10
116.271
20
-157.15
11
116.414
21
-156.579
0
LINE
8
Black
10
116.414
20
-156.579
11
116.557
21
-156.293
0
LINE
8
Black
10
116.557
20
-156.293
11
116.7
21
-156.15
0
LINE
8
Black
10
116.7
20
-156.15
11
116.986
21
-156.007
0
LINE
8
Black
10
119.271
20
-158.721
11
119.414
21
-158.864
0
LINE
8
Black
10
119.414
20
-158.864
11
119.271
21
-159.007
0
LINE
8
Black
10
119.271
20
-159.007
11
119.129
21
-158.864
0
LINE
8
Black
10
119.129
20
-158.864
11
119.271
21
-158.721
0
LINE
8
Black
10
119.271
20
-158.721
11
119.271
21
-159.007
0
LINE
8
Black
10
121.986
20
-157.007
11
121.986
21
-159.007
0
LINE
8
Black
10
121.271
20
-155.864
11
120.557
21
-158.007
0
LINE
8
Black
10
120.557
20
-158.007
11
122.414
21
-158.007
0
LINE
8
Black
10
124.129
20
-156.007
11
124.414
21
-156.007
0
LINE
8
Black
10
124.414
20
-156.007
11
124.7
21
-156.15
0
LINE
8
Black
10
124.7
20
-156.15
11
124.843
21
-156.293
0
LINE
8
Black
10
124.843
20
-156.293
11
124.986
21
-156.579
0
LINE
8
Black
10
124.986
20
-156.579
11
125.129
21
-157.15
0
LINE
8
Black
10
125.129
20
-157.15
11
125.129
21
-157.864
0
LINE
8
Black
10
125.129
20
-157.864
11
124.986
21
-158.436
0
LINE
8
Black
10
124.986
20
-158.436
11
124.843
21
-158.721
0
LINE
8
Black
10
124.843
20
-158.721
11
124.7
21
-158.864
0
LINE
8
Black
10
124.7
20
-158.864
11
124.414
21
-159.007
0
LINE
8
Black
10
124.414
20
-159.007
11
124.129
21
-159.007
0
LINE
8
Black
10
124.129
20
-159.007
11
123.843
21
-158.864
0
LINE
8
Black
10
123.843
20
-158.864
11
123.7
21
-158.721
0
LINE
8
Black
10
123.7
20
-158.721
11
123.557
21
-158.436
0
LINE
8
Black
10
123.557
20
-158.436
11
123.414
21
-157.864
0
LINE
8
Black
10
123.414
20
-157.864
11
123.414
21
-157.15
0
LINE
8
Black
10
123.414
20
-157.15
11
123.557
21
-156.579
0
LINE
8
Black
10
123.557
20
-156.579
11
123.7
21
-156.293
0
LINE
8
Black
10
123.7
20
-156.293
11
123.843
21
-156.15
0
LINE
8
Black
10
123.843
20
-156.15
11
124.129
21
-156.007
0
LINE
8
Black
10
126.414
20
-159.007
11
126.414
21
-157.007
0
LINE
8
Black
10
126.414
20
-157.293
11
126.557
21
-157.15
0
LINE
8
Black
10
126.557
20
-157.15
11
126.843
21
-157.007
0
LINE
8
Black
10
126.843
20
-157.007
11
127.271
21
-157.007
0
LINE
8
Black
10
127.271
20
-157.007
11
127.557
21
-157.15
0
LINE
8
Black
10
127.557
20
-157.15
11
127.7
21
-157.436
0
LINE
8
Black
10
127.7
20
-157.436
11
127.7
21
-159.007
0
LINE
8
Black
10
127.7
20
-157.436
11
127.843
21
-157.15
0
LINE
8
Black
10
127.843
20
-157.15
11
128.129
21
-157.007
0
LINE
8
Black
10
128.129
20
-157.007
11
128.557
21
-157.007
0
LINE
8
Black
10
128.557
20
-157.007
11
128.843
21
-157.15
0
LINE
8
Black
10
128.843
20
-157.15
11
128.986
21
-157.436
0
LINE
8
Black
10
128.986
20
-157.436
11
128.986
21
-159.007
0
LINE
8
Black
10
130.414
20
-159.007
11
130.414
21
-157.007
0
LINE
8
Black
10
130.414
20
-157.293
11
130.557
21
-157.15
0
LINE
8
Black
10
130.557
20
-157.15
11
130.843
21
-157.007
0
LINE
8
Black
10
130.843
20
-157.007
11
131.271
21
-157.007
0
LINE
8
Black
10
131.271
20
-157.007
11
131.557
21
-157.15
0
LINE
8
Black
10
131.557
20
-157.15
11
131.7
21
-157.436
0
LINE
8
Black
10
131.7
20
-157.436
11
131.7
21
-159.007
0
LINE
8
Black
10
131.7
20
-157.436
11
131.843
21
-157.15
0
LINE
8
Black
10
131.843
20
-157.15
11
132.129
21
-157.007
0
LINE
8
Black
10
132.129
20
-157.007
11
132.557
21
-157.007
0
LINE
8
Black
10
132.557
20
-157.007
11
132.843
21
-157.15
0
LINE
8
Black
10
132.843
20
-157.15
11
132.986
21
-157.436
0
LINE
8
Black
10
132.986
20
-157.436
11
132.986
21
-159.007
0
LINE
8
Black
10
138.843
20
-155.864
11
136.271
21
-159.721
0
LINE
8
Black
10
142.7
20
-156.007
11
142.986
21
-156.007
0
LINE
8
Black
10
142.986
20
-156.007
11
143.271
21
-156.15
0
LINE
8
Black
10
143.271
20
-156.15
11
143.414
21
-156.293
0
LINE
8
Black
10
143.414
20
-156.293
11
143.557
21
-156.579
0
LINE
8
Black
10
143.557
20
-156.579
11
143.7
21
-157.15
0
LINE
8
Black
10
143.7
20
-157.15
11
143.7
21
-157.864
0
LINE
8
Black
10
143.7
20
-157.864
11
143.557
21
-158.436
0
LINE
8
Black
10
143.557
20
-158.436
11
143.414
21
-158.721
0
LINE
8
Black
10
143.414
20
-158.721
11
143.271
21
-158.864
0
LINE
8
Black
10
143.271
20
-158.864
11
142.986
21
-159.007
0
LINE
8
Black
10
142.986
20
-159.007
11
142.7
21
-159.007
0
LINE
8
Black
10
142.7
20
-159.007
11
142.414
21
-158.864
0
LINE
8
Black
10
142.414
20
-158.864
11
142.271
21
-158.721
0
LINE
8
Black
10
142.271
20
-158.721
11
142.129
21
-158.436
0
LINE
8
Black
10
142.129
20
-158.436
11
141.986
21
-157.864
0
LINE
8
Black
10
141.986
20
-157.864
11
141.986
21
-157.15
0
LINE
8
Black
10
141.986
20
-157.15
11
142.129
21
-156.579
0
LINE
8
Black
10
142.129
20
-156.579
11
142.271
21
-156.293
0
LINE
8
Black
10
142.271
20
-156.293
11
142.414
21
-156.15
0
LINE
8
Black
10
142.414
20
-156.15
11
142.7
21
-156.007
0
LINE
8
Black
10
144.986
20
-158.721
11
145.129
21
-158.864
0
LINE
8
Black
10
145.129
20
-158.864
11
144.986
21
-159.007
0
LINE
8
Black
10
144.986
20
-159.007
11
144.843
21
-158.864
0
LINE
8
Black
10
144.843
20
-158.864
11
144.986
21
-158.721
0
LINE
8
Black
10
144.986
20
-158.721
11
144.986
21
-159.007
0
LINE
8
Black
10
146.986
20
-156.007
11
147.271
21
-156.007
0
LINE
8
Black
10
147.271
20
-156.007
11
147.557
21
-156.15
0
LINE
8
Black
10
147.557
20
-156.15
11
147.7
21
-156.293
0
LINE
8
Black
10
147.7
20
-156.293
11
147.843
21
-156.579
0
LINE
8
Black
10
147.843
20
-156.579
11
147.986
21
-157.15
0
LINE
8
Black
10
147.986
20
-157.15
11
147.986
21
-157.864
0
LINE
8
Black
10
147.986
20
-157.864
11
147.843
21
-158.436
0
LINE
8
Black
10
147.843
20
-158.436
11
147.7
21
-158.721
0
LINE
8
Black
10
147.7
20
-158.721
11
147.557
21
-158.864
0
LINE
8
Black
10
147.557
20
-158.864
11
147.271
21
-159.007
0
LINE
8
Black
10
147.271
20
-159.007
11
146.986
21
-159.007
0
LINE
8
Black
10
146.986
20
-159.007
11
146.7
21
-158.864
0
LINE
8
Black
10
146.7
20
-158.864
11
146.557
21
-158.721
0
LINE
8
Black
10
146.557
20
-158.721
11
146.414
21
-158.436
0
LINE
8
Black
10
146.414
20
-158.436
11
146.271
21
-157.864
0
LINE
8
Black
10
146.271
20
-157.864
11
146.271
21
-157.15
0
LINE
8
Black
10
146.271
20
-157.15
11
146.414
21
-156.579
0
LINE
8
Black
10
146.414
20
-156.579
11
146.557
21
-156.293
0
LINE
8
Black
10
146.557
20
-156.293
11
146.7
21
-156.15
0
LINE
8
Black
10
146.7
20
-156.15
11
146.986
21
-156.007
0
LINE
8
Black
10
150.843
20
-159.007
11
149.129
21
-159.007
0
LINE
8
Black
10
149.986
20
-159.007
11
149.986
21
-156.007
0
LINE
8
Black
10
149.986
20
-156.007
11
149.7
21
-156.436
0
LINE
8
Black
10
149.7
20
-156.436
11
149.414
21
-156.721
0
LINE
8
Black
10
149.414
20
-156.721
11
149.129
21
-156.864
0
LINE
8
Black
10
153.414
20
-156.007
11
152.843
21
-156.007
0
LINE
8
Black
10
152.843
20
-156.007
11
152.557
21
-156.15
0
LINE
8
Black
10
152.557
20
-156.15
11
152.414
21
-156.293
0
LINE
8
Black
10
152.414
20
-156.293
11
152.129
21
-156.721
0
LINE
8
Black
10
152.129
20
-156.721
11
151.986
21
-157.293
0
LINE
8
Black
10
151.986
20
-157.293
11
151.986
21
-158.436
0
LINE
8
Black
10
151.986
20
-158.436
11
152.129
21
-158.721
0
LINE
8
Black
10
152.129
20
-158.721
11
152.271
21
-158.864
0
LINE
8
Black
10
152.271
20
-158.864
11
152.557
21
-159.007
0
LINE
8
Black
10
152.557
20
-159.007
11
153.129
21
-159.007
0
LINE
8
Black
10
153.129
20
-159.007
11
153.414
21
-158.864
0
LINE
8
Black
10
153.414
20
-158.864
11
153.557
21
-158.721
0
LINE
8
Black
10
153.557
20
-158.721
11
153.7
21
-158.436
0
LINE
8
Black
10
153.7
20
-158.436
11
153.7
21
-157.721
0
LINE
8
Black
10
153.7
20
-157.721
11
153.557
21
-157.436
0
LINE
8
Black
10
153.557
20
-157.436
11
153.414
21
-157.293
0
LINE
8
Black
10
153.414
20
-157.293
11
153.129
21
-157.15
0
LINE
8
Black
10
153.129
20
-157.15
11
152.557
21
-157.15
0
LINE
8
Black
10
152.557
20
-157.15
11
152.271
21
-157.293
0
LINE
8
Black
10
152.271
20
-157.293
11
152.129
21
-157.436
0
LINE
8
Black
10
152.129
20
-157.436
11
151.986
21
-157.721
0
LINE
8
Black
10
154.843
20
-156.007
11
154.843
21
-156.579
0
LINE
8
Black
10
155.986
20
-156.007
11
155.986
21
-156.579
0
LINE
8
Black
10
160.414
20
-160.15
11
160.271
21
-160.007
0
LINE
8
Black
10
160.271
20
-160.007
11
159.986
21
-159.579
0
LINE
8
Black
10
159.986
20
-159.579
11
159.843
21
-159.293
0
LINE
8
Black
10
159.843
20
-159.293
11
159.7
21
-158.864
0
LINE
8
Black
10
159.7
20
-158.864
11
159.557
21
-158.15
0
LINE
8
Black
10
159.557
20
-158.15
11
159.557
21
-157.579
0
LINE
8
Black
10
159.557
20
-157.579
11
159.7
21
-156.864
0
LINE
8
Black
10
159.7
20
-156.864
11
159.843
21
-156.436
0
LINE
8
Black
10
159.843
20
-156.436
11
159.986
21
-156.15
0
LINE
8
Black
10
159.986
20
-156.15
11
160.271
21
-155.721
0
LINE
8
Black
10
160.271
20
-155.721
11
160.414
21
-155.579
0
LINE
8
Black
10
161.271
20
-156.007
11
163.129
21
-156.007
0
LINE
8
Black
10
163.129
20
-156.007
11
162.129
21
-157.15
0
LINE
8
Black
10
162.129
20
-157.15
11
162.557
21
-157.15
0
LINE
8
Black
10
162.557
20
-157.15
11
162.843
21
-157.293
0
LINE
8
Black
10
162.843
20
-157.293
11
162.986
21
-157.436
0
LINE
8
Black
10
162.986
20
-157.436
11
163.129
21
-157.721
0
LINE
8
Black
10
163.129
20
-157.721
11
163.129
21
-158.436
0
LINE
8
Black
10
163.129
20
-158.436
11
162.986
21
-158.721
0
LINE
8
Black
10
162.986
20
-158.721
11
162.843
21
-158.864
0
LINE
8
Black
10
162.843
20
-158.864
11
162.557
21
-159.007
0
LINE
8
Black
10
162.557
20
-159.007
11
161.7
21
-159.007
0
LINE
8
Black
10
161.7
20
-159.007
11
161.414
21
-158.864
0
LINE
8
Black
10
161.414
20
-158.864
11
161.271
21
-158.721
0
LINE
8
Black
10
166.7
20
-159.007
11
166.7
21
-156.007
0
LINE
8
Black
10
167.986
20
-159.007
11
167.986
21
-157.436
0
LINE
8
Black
10
167.986
20
-157.436
11
167.843
21
-157.15
0
LINE
8
Black
10
167.843
20
-157.15
11
167.557
21
-157.007
0
LINE
8
Black
10
167.557
20
-157.007
11
167.129
21
-157.007
0
LINE
8
Black
10
167.129
20
-157.007
11
166.843
21
-157.15
0
LINE
8
Black
10
166.843
20
-157.15
11
166.7
21
-157.293
0
LINE
8
Black
10
169.843
20
-159.007
11
169.557
21
-158.864
0
LINE
8
Black
10
169.557
20
-158.864
11
169.414
21
-158.721
0
LINE
8
Black
10
169.414
20
-158.721
11
169.271
21
-158.436
0
LINE
8
Black
10
169.271
20
-158.436
11
169.271
21
-157.579
0
LINE
8
Black
10
169.271
20
-157.579
11
169.414
21
-157.293
0
LINE
8
Black
10
169.414
20
-157.293
11
169.557
21
-157.15
0
LINE
8
Black
10
169.557
20
-157.15
11
169.843
21
-157.007
0
LINE
8
Black
10
169.843
20
-157.007
11
170.271
21
-157.007
0
LINE
8
Black
10
170.271
20
-157.007
11
170.557
21
-157.15
0
LINE
8
Black
10
170.557
20
-157.15
11
170.7
21
-157.293
0
LINE
8
Black
10
170.7
20
-157.293
11
170.843
21
-157.579
0
LINE
8
Black
10
170.843
20
-157.579
11
170.843
21
-158.436
0
LINE
8
Black
10
170.843
20
-158.436
11
170.7
21
-158.721
0
LINE
8
Black
10
170.7
20
-158.721
11
170.557
21
-158.864
0
LINE
8
Black
10
170.557
20
-158.864
11
170.271
21
-159.007
0
LINE
8
Black
10
170.271
20
-159.007
11
169.843
21
-159.007
0
LINE
8
Black
10
172.557
20
-159.007
11
172.271
21
-158.864
0
LINE
8
Black
10
172.271
20
-158.864
11
172.129
21
-158.579
0
LINE
8
Black
10
172.129
20
-158.579
11
172.129
21
-156.007
0
LINE
8
Black
10
174.843
20
-158.864
11
174.557
21
-159.007
0
LINE
8
Black
10
174.557
20
-159.007
11
173.986
21
-159.007
0
LINE
8
Black
10
173.986
20
-159.007
11
173.7
21
-158.864
0
LINE
8
Black
10
173.7
20
-158.864
11
173.557
21
-158.579
0
LINE
8
Black
10
173.557
20
-158.579
11
173.557
21
-157.436
0
LINE
8
Black
10
173.557
20
-157.436
11
173.7
21
-157.15
0
LINE
8
Black
10
173.7
20
-157.15
11
173.986
21
-157.007
0
LINE
8
Black
10
173.986
20
-157.007
11
174.557
21
-157.007
0
LINE
8
Black
10
174.557
20
-157.007
11
174.843
21
-157.15
0
LINE
8
Black
10
174.843
20
-157.15
11
174.986
21
-157.436
0
LINE
8
Black
10
174.986
20
-157.436
11
174.986
21
-157.721
0
LINE
8
Black
10
174.986
20
-157.721
11
173.557
21
-158.007
0
LINE
8
Black
10
176.129
20
-158.864
11
176.414
21
-159.007
0
LINE
8
Black
10
176.414
20
-159.007
11
176.986
21
-159.007
0
LINE
8
Black
10
176.986
20
-159.007
11
177.271
21
-158.864
0
LINE
8
Black
10
177.271
20
-158.864
11
177.414
21
-158.579
0
LINE
8
Black
10
177.414
20
-158.579
11
177.414
21
-158.436
0
LINE
8
Black
10
177.414
20
-158.436
11
177.271
21
-158.15
0
LINE
8
Black
10
177.271
20
-158.15
11
176.986
21
-158.007
0
LINE
8
Black
10
176.986
20
-158.007
11
176.557
21
-158.007
0
LINE
8
Black
10
176.557
20
-158.007
11
176.271
21
-157.864
0
LINE
8
Black
10
176.271
20
-157.864
11
176.129
21
-157.579
0
LINE
8
Black
10
176.129
20
-157.579
11
176.129
21
-157.436
0
LINE
8
Black
10
176.129
20
-157.436
11
176.271
21
-157.15
0
LINE
8
Black
10
176.271
20
-157.15
11
176.557
21
-157.007
0
LINE
8
Black
10
176.557
20
-157.007
11
176.986
21
-157.007
0
LINE
8
Black
10
176.986
20
-157.007
11
177.271
21
-157.15
0
LINE
8
Black
10
178.414
20
-160.15
11
178.557
21
-160.007
0
LINE
8
Black
10
178.557
20
-160.007
11
178.843
21
-159.579
0
LINE
8
Black
10
178.843
20
-159.579
11
178.986
21
-159.293
0
LINE
8
Black
10
178.986
20
-159.293
11
179.129
21
-158.864
0
LINE
8
Black
10
179.129
20
-158.864
11
179.271
21
-158.15
0
LINE
8
Black
10
179.271
20
-158.15
11
179.271
21
-157.579
0
LINE
8
Black
10
179.271
20
-157.579
11
179.129
21
-156.864
0
LINE
8
Black
10
179.129
20
-156.864
11
178.986
21
-156.436
0
LINE
8
Black
10
178.986
20
-156.436
11
178.843
21
-156.15
0
LINE
8
Black
10
178.843
20
-156.15
11
178.557
21
-155.721
0
LINE
8
Black
10
178.557
20
-155.721
11
178.414
21
-155.579
0
CIRCLE
8
Black
10
113.2
20
-161.61
40
0.5
0
LINE
8
Black
10
117.986
20
-162.967
11
116.271
21
-162.967
0
LINE
8
Black
10
117.129
20
-162.967
11
117.129
21
-159.967
0
LINE
8
Black
10
117.129
20
-159.967
11
116.843
21
-160.396
0
LINE
8
Black
10
116.843
20
-160.396
11
116.557
21
-160.681
0
LINE
8
Black
10
116.557
20
-160.681
11
116.271
21
-160.824
0
LINE
8
Black
10
119.271
20
-162.681
11
119.414
21
-162.824
0
LINE
8
Black
10
119.414
20
-162.824
11
119.271
21
-162.967
0
LINE
8
Black
10
119.271
20
-162.967
11
119.129
21
-162.824
0
LINE
8
Black
10
119.129
20
-162.824
11
119.271
21
-162.681
0
LINE
8
Black
10
119.271
20
-162.681
11
119.271
21
-162.967
0
LINE
8
Black
10
121.271
20
-159.967
11
121.557
21
-159.967
0
LINE
8
Black
10
121.557
20
-159.967
11
121.843
21
-160.11
0
LINE
8
Black
10
121.843
20
-160.11
11
121.986
21
-160.253
0
LINE
8
Black
10
121.986
20
-160.253
11
122.129
21
-160.539
0
LINE
8
Black
10
122.129
20
-160.539
11
122.271
21
-161.11
0
LINE
8
Black
10
122.271
20
-161.11
11
122.271
21
-161.824
0
LINE
8
Black
10
122.271
20
-161.824
11
122.129
21
-162.396
0
LINE
8
Black
10
122.129
20
-162.396
11
121.986
21
-162.681
0
LINE
8
Black
10
121.986
20
-162.681
11
121.843
21
-162.824
0
LINE
8
Black
10
121.843
20
-162.824
11
121.557
21
-162.967
0
LINE
8
Black
10
121.557
20
-162.967
11
121.271
21
-162.967
0
LINE
8
Black
10
121.271
20
-162.967
11
120.986
21
-162.824
0
LINE
8
Black
10
120.986
20
-162.824
11
120.843
21
-162.681
0
LINE
8
Black
10
120.843
20
-162.681
11
120.7
21
-162.396
0
LINE
8
Black
10
120.7
20
-162.396
11
120.557
21
-161.824
0
LINE
8
Black
10
120.557
20
-161.824
11
120.557
21
-161.11
0
LINE
8
Black
10
120.557
20
-161.11
11
120.7
21
-160.539
0
LINE
8
Black
10
120.7
20
-160.539
11
120.843
21
-160.253
0
LINE
8
Black
10
120.843
20
-160.253
11
120.986
21
-160.11
0
LINE
8
Black
10
120.986
20
-160.11
11
121.271
21
-159.967
0
LINE
8
Black
10
124.129
20
-159.967
11
124.414
21
-159.967
0
LINE
8
Black
10
124.414
20
-159.967
11
124.7
21
-160.11
0
LINE
8
Black
10
124.7
20
-160.11
11
124.843
21
-160.253
0
LINE
8
Black
10
124.843
20
-160.253
11
124.986
21
-160.539
0
LINE
8
Black
10
124.986
20
-160.539
11
125.129
21
-161.11
0
LINE
8
Black
10
125.129
20
-161.11
11
125.129
21
-161.824
0
LINE
8
Black
10
125.129
20
-161.824
11
124.986
21
-162.396
0
LINE
8
Black
10
124.986
20
-162.396
11
124.843
21
-162.681
0
LINE
8
Black
10
124.843
20
-162.681
11
124.7
21
-162.824
0
LINE
8
Black
10
124.7
20
-162.824
11
124.414
21
-162.967
0
LINE
8
Black
10
124.414
20
-162.967
11
124.129
21
-162.967
0
LINE
8
Black
10
124.129
20
-162.967
11
123.843
21
-162.824
0
LINE
8
Black
10
123.843
20
-162.824
11
123.7
21
-162.681
0
LINE
8
Black
10
123.7
20
-162.681
11
123.557
21
-162.396
0
LINE
8
Black
10
123.557
20
-162.396
11
123.414
21
-161.824
0
LINE
8
Black
10
123.414
20
-161.824
11
123.414
21
-161.11
0
LINE
8
Black
10
123.414
20
-161.11
11
123.557
21
-160.539
0
LINE
8
Black
10
123.557
20
-160.539
11
123.7
21
-160.253
0
LINE
8
Black
10
123.7
20
-160.253
11
123.843
21
-160.11
0
LINE
8
Black
10
123.843
20
-160.11
11
124.129
21
-159.967
0
LINE
8
Black
10
126.414
20
-162.967
11
126.414
21
-160.967
0
LINE
8
Black
10
126.414
20
-161.253
11
126.557
21
-161.11
0
LINE
8
Black
10
126.557
20
-161.11
11
126.843
21
-160.967
0
LINE
8
Black
10
126.843
20
-160.967
11
127.271
21
-160.967
0
LINE
8
Black
10
127.271
20
-160.967
11
127.557
21
-161.11
0
LINE
8
Black
10
127.557
20
-161.11
11
127.7
21
-161.396
0
LINE
8
Black
10
127.7
20
-161.396
11
127.7
21
-162.967
0
LINE
8
Black
10
127.7
20
-161.396
11
127.843
21
-161.11
0
LINE
8
Black
10
127.843
20
-161.11
11
128.129
21
-160.967
0
LINE
8
Black
10
128.129
20
-160.967
11
128.557
21
-160.967
0
LINE
8
Black
10
128.557
20
-160.967
11
128.843
21
-161.11
0
LINE
8
Black
10
128.843
20
-161.11
11
128.986
21
-161.396
0
LINE
8
Black
10
128.986
20
-161.396
11
128.986
21
-162.967
0
LINE
8
Black
10
130.414
20
-162.967
11
130.414
21
-160.967
0
LINE
8
Black
10
130.414
20
-161.253
11
130.557
21
-161.11
0
LINE
8
Black
10
130.557
20
-161.11
11
130.843
21
-160.967
0
LINE
8
Black
10
130.843
20
-160.967
11
131.271
21
-160.967
0
LINE
8
Black
10
131.271
20
-160.967
11
131.557
21
-161.11
0
LINE
8
Black
10
131.557
20
-161.11
11
131.7
21
-161.396
0
LINE
8
Black
10
131.7
20
-161.396
11
131.7
21
-162.967
0
LINE
8
Black
10
131.7
20
-161.396
11
131.843
21
-161.11
0
LINE
8
Black
10
131.843
20
-161.11
11
132.129
21
-160.967
0
LINE
8
Black
10
132.129
20
-160.967
11
132.557
21
-160.967
0
LINE
8
Black
10
132.557
20
-160.967
11
132.843
21
-161.11
0
LINE
8
Black
10
132.843
20
-161.11
11
132.986
21
-161.396
0
LINE
8
Black
10
132.986
20
-161.396
11
132.986
21
-162.967
0
LINE
8
Black
10
138.843
20
-159.824
11
136.271
21
-163.681
0
LINE
8
Black
10
142.7
20
-159.967
11
142.986
21
-159.967
0
LINE
8
Black
10
142.986
20
-159.967
11
143.271
21
-160.11
0
LINE
8
Black
10
143.271
20
-160.11
11
143.414
21
-160.253
0
LINE
8
Black
10
143.414
20
-160.253
11
143.557
21
-160.539
0
LINE
8
Black
10
143.557
20
-160.539
11
143.7
21
-161.11
0
LINE
8
Black
10
143.7
20
-161.11
11
143.7
21
-161.824
0
LINE
8
Black
10
143.7
20
-161.824
11
143.557
21
-162.396
0
LINE
8
Black
10
143.557
20
-162.396
11
143.414
21
-162.681
0
LINE
8
Black
10
143.414
20
-162.681
11
143.271
21
-162.824
0
LINE
8
Black
10
143.271
20
-162.824
11
142.986
21
-162.967
0
LINE
8
Black
10
142.986
20
-162.967
11
142.7
21
-162.967
0
LINE
8
Black
10
142.7
20
-162.967
11
142.414
21
-162.824
0
LINE
8
Black
10
142.414
20
-162.824
11
142.271
21
-162.681
0
LINE
8
Black
10
142.271
20
-162.681
11
142.129
21
-162.396
0
LINE
8
Black
10
142.129
20
-162.396
11
141.986
21
-161.824
0
LINE
8
Black
10
141.986
20
-161.824
11
141.986
21
-161.11
0
LINE
8
Black
10
141.986
20
-161.11
11
142.129
21
-160.539
0
LINE
8
Black
10
142.129
20
-160.539
11
142.271
21
-160.253
0
LINE
8
Black
10
142.271
20
-160.253
11
142.414
21
-160.11
0
LINE
8
Black
10
142.414
20
-160.11
11
142.7
21
-159.967
0
LINE
8
Black
10
144.986
20
-162.681
11
145.129
21
-162.824
0
LINE
8
Black
10
145.129
20
-162.824
11
144.986
21
-162.967
0
LINE
8
Black
10
144.986
20
-162.967
11
144.843
21
-162.824
0
LINE
8
Black
10
144.843
20
-162.824
11
144.986
21
-162.681
0
LINE
8
Black
10
144.986
20
-162.681
11
144.986
21
-162.967
0
LINE
8
Black
10
146.986
20
-159.967
11
147.271
21
-159.967
0
LINE
8
Black
10
147.271
20
-159.967
11
147.557
21
-160.11
0
LINE
8
Black
10
147.557
20
-160.11
11
147.7
21
-160.253
0
LINE
8
Black
10
147.7
20
-160.253
11
147.843
21
-160.539
0
LINE
8
Black
10
147.843
20
-160.539
11
147.986
21
-161.11
0
LINE
8
Black
10
147.986
20
-161.11
11
147.986
21
-161.824
0
LINE
8
Black
10
147.986
20
-161.824
11
147.843
21
-162.396
0
LINE
8
Black
10
147.843
20
-162.396
11
147.7
21
-162.681
0
LINE
8
Black
10
147.7
20
-162.681
11
147.557
21
-162.824
0
LINE
8
Black
10
147.557
20
-162.824
11
147.271
21
-162.967
0
LINE
8
Black
10
147.271
20
-162.967
11
146.986
21
-162.967
0
LINE
8
Black
10
146.986
20
-162.967
11
146.7
21
-162.824
0
LINE
8
Black
10
146.7
20
-162.824
11
146.557
21
-162.681
0
LINE
8
Black
10
146.557
20
-162.681
11
146.414
21
-162.396
0
LINE
8
Black
10
146.414
20
-162.396
11
146.271
21
-161.824
0
LINE
8
Black
10
146.271
20
-161.824
11
146.271
21
-161.11
0
LINE
8
Black
10
146.271
20
-161.11
11
146.414
21
-160.539
0
LINE
8
Black
10
146.414
20
-160.539
11
146.557
21
-160.253
0
LINE
8
Black
10
146.557
20
-160.253
11
146.7
21
-160.11
0
LINE
8
Black
10
146.7
20
-160.11
11
146.986
21
-159.967
0
LINE
8
Black
10
148.986
20
-159.967
11
150.843
21
-159.967
0
LINE
8
Black
10
150.843
20
-159.967
11
149.843
21
-161.11
0
LINE
8
Black
10
149.843
20
-161.11
11
150.271
21
-161.11
0
LINE
8
Black
10
150.271
20
-161.11
11
150.557
21
-161.253
0
LINE
8
Black
10
150.557
20
-161.253
11
150.7
21
-161.396
0
LINE
8
Black
10
150.7
20
-161.396
11
150.843
21
-161.681
0
LINE
8
Black
10
150.843
20
-161.681
11
150.843
21
-162.396
0
LINE
8
Black
10
150.843
20
-162.396
11
150.7
21
-162.681
0
LINE
8
Black
10
150.7
20
-162.681
11
150.557
21
-162.824
0
LINE
8
Black
10
150.557
20
-162.824
11
150.271
21
-162.967
0
LINE
8
Black
10
150.271
20
-162.967
11
149.414
21
-162.967
0
LINE
8
Black
10
149.414
20
-162.967
11
149.129
21
-162.824
0
LINE
8
Black
10
149.129
20
-162.824
11
148.986
21
-162.681
0
LINE
8
Black
10
152.271
20
-162.967
11
152.843
21
-162.967
0
LINE
8
Black
10
152.843
20
-162.967
11
153.129
21
-162.824
0
LINE
8
Black
10
153.129
20
-162.824
11
153.271
21
-162.681
0
LINE
8
Black
10
153.271
20
-162.681
11
153.557
21
-162.253
0
LINE
8
Black
10
153.557
20
-162.253
11
153.7
21
-161.681
0
LINE
8
Black
10
153.7
20
-161.681
11
153.7
21
-160.539
0
LINE
8
Black
10
153.7
20
-160.539
11
153.557
21
-160.253
0
LINE
8
Black
10
153.557
20
-160.253
11
153.414
21
-160.11
0
LINE
8
Black
10
153.414
20
-160.11
11
153.129
21
-159.967
0
LINE
8
Black
10
153.129
20
-159.967
11
152.557
21
-159.967
0
LINE
8
Black
10
152.557
20
-159.967
11
152.271
21
-160.11
0
LINE
8
Black
10
152.271
20
-160.11
11
152.129
21
-160.253
0
LINE
8
Black
10
152.129
20
-160.253
11
151.986
21
-160.539
0
LINE
8
Black
10
151.986
20
-160.539
11
151.986
21
-161.253
0
LINE
8
Black
10
151.986
20
-161.253
11
152.129
21
-161.539
0
LINE
8
Black
10
152.129
20
-161.539
11
152.271
21
-161.681
0
LINE
8
Black
10
152.271
20
-161.681
11
152.557
21
-161.824
0
LINE
8
Black
10
152.557
20
-161.824
11
153.129
21
-161.824
0
LINE
8
Black
10
153.129
20
-161.824
11
153.414
21
-161.681
0
LINE
8
Black
10
153.414
20
-161.681
11
153.557
21
-161.539
0
LINE
8
Black
10
153.557
20
-161.539
11
153.7
21
-161.253
0
LINE
8
Black
10
154.843
20
-159.967
11
154.843
21
-160.539
0
LINE
8
Black
10
155.986
20
-159.967
11
155.986
21
-160.539
0
LINE
8
Black
10
160.414
20
-164.11
11
160.271
21
-163.967
0
LINE
8
Black
10
160.271
20
-163.967
11
159.986
21
-163.539
0
LINE
8
Black
10
159.986
20
-163.539
11
159.843
21
-163.253
0
LINE
8
Black
10
159.843
20
-163.253
11
159.7
21
-162.824
0
LINE
8
Black
10
159.7
20
-162.824
11
159.557
21
-162.11
0
LINE
8
Black
10
159.557
20
-162.11
11
159.557
21
-161.539
0
LINE
8
Black
10
159.557
20
-161.539
11
159.7
21
-160.824
0
LINE
8
Black
10
159.7
20
-160.824
11
159.843
21
-160.396
0
LINE
8
Black
10
159.843
20
-160.396
11
159.986
21
-160.11
0
LINE
8
Black
10
159.986
20
-160.11
11
160.271
21
-159.681
0
LINE
8
Black
10
160.271
20
-159.681
11
160.414
21
-159.539
0
LINE
8
Black
10
161.414
20
-160.253
11
161.557
21
-160.11
0
LINE
8
Black
10
161.557
20
-160.11
11
161.843
21
-159.967
0
LINE
8
Black
10
161.843
20
-159.967
11
162.557
21
-159.967
0
LINE
8
Black
10
162.557
20
-159.967
11
162.843
21
-160.11
0
LINE
8
Black
10
162.843
20
-160.11
11
162.986
21
-160.253
0
LINE
8
Black
10
162.986
20
-160.253
11
163.129
21
-160.539
0
LINE
8
Black
10
163.129
20
-160.539
11
163.129
21
-160.824
0
LINE
8
Black
10
163.129
20
-160.824
11
162.986
21
-161.253
0
LINE
8
Black
10
162.986
20
-161.253
11
161.271
21
-162.967
0
LINE
8
Black
10
161.271
20
-162.967
11
163.129
21
-162.967
0
LINE
8
Black
10
166.7
20
-162.967
11
166.7
21
-159.967
0
LINE
8
Black
10
167.986
20
-162.967
11
167.986
21
-161.396
0
LINE
8
Black
10
167.986
20
-161.396
11
167.843
21
-161.11
0
LINE
8
Black
10
167.843
20
-161.11
11
167.557
21
-160.967
0
LINE
8
Black
10
167.557
20
-160.967
11
167.129
21
-160.967
0
LINE
8
Black
10
167.129
20
-160.967
11
166.843
21
-161.11
0
LINE
8
Black
10
166.843
20
-161.11
11
166.7
21
-161.253
0
LINE
8
Black
10
169.843
20
-162.967
11
169.557
21
-162.824
0
LINE
8
Black
10
169.557
20
-162.824
11
169.414
21
-162.681
0
LINE
8
Black
10
169.414
20
-162.681
11
169.271
21
-162.396
0
LINE
8
Black
10
169.271
20
-162.396
11
169.271
21
-161.539
0
LINE
8
Black
10
169.271
20
-161.539
11
169.414
21
-161.253
0
LINE
8
Black
10
169.414
20
-161.253
11
169.557
21
-161.11
0
LINE
8
Black
10
169.557
20
-161.11
11
169.843
21
-160.967
0
LINE
8
Black
10
169.843
20
-160.967
11
170.271
21
-160.967
0
LINE
8
Black
10
170.271
20
-160.967
11
170.557
21
-161.11
0
LINE
8
Black
10
170.557
20
-161.11
11
170.7
21
-161.253
0
LINE
8
Black
10
170.7
20
-161.253
11
170.843
21
-161.539
0
LINE
8
Black
10
170.843
20
-161.539
11
170.843
21
-162.396
0
LINE
8
Black
10
170.843
20
-162.396
11
170.7
21
-162.681
0
LINE
8
Black
10
170.7
20
-162.681
11
170.557
21
-162.824
0
LINE
8
Black
10
170.557
20
-162.824
11
170.271
21
-162.967
0
LINE
8
Black
10
170.271
20
-162.967
11
169.843
21
-162.967
0
LINE
8
Black
10
172.557
20
-162.967
11
172.271
21
-162.824
0
LINE
8
Black
10
172.271
20
-162.824
11
172.129
21
-162.539
0
LINE
8
Black
10
172.129
20
-162.539
11
172.129
21
-159.967
0
LINE
8
Black
10
174.843
20
-162.824
11
174.557
21
-162.967
0
LINE
8
Black
10
174.557
20
-162.967
11
173.986
21
-162.967
0
LINE
8
Black
10
173.986
20
-162.967
11
173.7
21
-162.824
0
LINE
8
Black
10
173.7
20
-162.824
11
173.557
21
-162.539
0
LINE
8
Black
10
173.557
20
-162.539
11
173.557
21
-161.396
0
LINE
8
Black
10
173.557
20
-161.396
11
173.7
21
-161.11
0
LINE
8
Black
10
173.7
20
-161.11
11
173.986
21
-160.967
0
LINE
8
Black
10
173.986
20
-160.967
11
174.557
21
-160.967
0
LINE
8
Black
10
174.557
20
-160.967
11
174.843
21
-161.11
0
LINE
8
Black
10
174.843
20
-161.11
11
174.986
21
-161.396
0
LINE
8
Black
10
174.986
20
-161.396
11
174.986
21
-161.681
0
LINE
8
Black
10
174.986
20
-161.681
11
173.557
21
-161.967
0
LINE
8
Black
10
176.129
20
-162.824
11
176.414
21
-162.967
0
LINE
8
Black
10
176.414
20
-162.967
11
176.986
21
-162.967
0
LINE
8
Black
10
176.986
20
-162.967
11
177.271
21
-162.824
0
LINE
8
Black
10
177.271
20
-162.824
11
177.414
21
-162.539
0
LINE
8
Black
10
177.414
20
-162.539
11
177.414
21
-162.396
0
LINE
8
Black
10
177.414
20
-162.396
11
177.271
21
-162.11
0
LINE
8
Black
10
177.271
20
-162.11
11
176.986
21
-161.967
0
LINE
8
Black
10
176.986
20
-161.967
11
176.557
21
-161.967
0
LINE
8
Black
10
176.557
20
-161.967
11
176.271
21
-161.824
0
LINE
8
Black
10
176.271
20
-161.824
11
176.129
21
-161.539
0
LINE
8
Black
10
176.129
20
-161.539
11
176.129
21
-161.396
0
LINE
8
Black
10
176.129
20
-161.396
11
176.271
21
-161.11
0
LINE
8
Black
10
176.271
20
-161.11
11
176.557
21
-160.967
0
LINE
8
Black
10
176.557
20
-160.967
11
176.986
21
-160.967
0
LINE
8
Black
10
176.986
20
-160.967
11
177.271
21
-161.11
0
LINE
8
Black
10
178.414
20
-164.11
11
178.557
21
-163.967
0
LINE
8
Black
10
178.557
20
-163.967
11
178.843
21
-163.539
0
LINE
8
Black
10
178.843
20
-163.539
11
178.986
21
-163.253
0
LINE
8
Black
10
178.986
20
-163.253
11
179.129
21
-162.824
0
LINE
8
Black
10
179.129
20
-162.824
11
179.271
21
-162.11
0
LINE
8
Black
10
179.271
20
-162.11
11
179.271
21
-161.539
0
LINE
8
Black
10
179.271
20
-161.539
11
179.129
21
-160.824
0
LINE
8
Black
10
179.129
20
-160.824
11
178.986
21
-160.396
0
LINE
8
Black
10
178.986
20
-160.396
11
178.843
21
-160.11
0
LINE
8
Black
10
178.843
20
-160.11
11
178.557
21
-159.681
0
LINE
8
Black
10
178.557
20
-159.681
11
178.414
21
-159.539
0
LINE
8
Black
10
113.2
20
-165.07
11
113.2
21
-166.07
0
LINE
8
Black
10
112.699
20
-165.57
11
113.7
21
-165.57
0
LINE
8
Black
10
117.986
20
-166.927
11
116.271
21
-166.927
0
LINE
8
Black
10
117.129
20
-166.927
11
117.129
21
-163.927
0
LINE
8
Black
10
117.129
20
-163.927
11
116.843
21
-164.356
0
LINE
8
Black
10
116.843
20
-164.356
11
116.557
21
-164.641
0
LINE
8
Black
10
116.557
20
-164.641
11
116.271
21
-164.784
0
LINE
8
Black
10
119.271
20
-166.641
11
119.414
21
-166.784
0
LINE
8
Black
10
119.414
20
-166.784
11
119.271
21
-166.927
0
LINE
8
Black
10
119.271
20
-166.927
11
119.129
21
-166.784
0
LINE
8
Black
10
119.129
20
-166.784
11
119.271
21
-166.641
0
LINE
8
Black
10
119.271
20
-166.641
11
119.271
21
-166.927
0
LINE
8
Black
10
121.271
20
-163.927
11
121.557
21
-163.927
0
LINE
8
Black
10
121.557
20
-163.927
11
121.843
21
-164.07
0
LINE
8
Black
10
121.843
20
-164.07
11
121.986
21
-164.213
0
LINE
8
Black
10
121.986
20
-164.213
11
122.129
21
-164.499
0
LINE
8
Black
10
122.129
20
-164.499
11
122.271
21
-165.07
0
LINE
8
Black
10
122.271
20
-165.07
11
122.271
21
-165.784
0
LINE
8
Black
10
122.271
20
-165.784
11
122.129
21
-166.356
0
LINE
8
Black
10
122.129
20
-166.356
11
121.986
21
-166.641
0
LINE
8
Black
10
121.986
20
-166.641
11
121.843
21
-166.784
0
LINE
8
Black
10
121.843
20
-166.784
11
121.557
21
-166.927
0
LINE
8
Black
10
121.557
20
-166.927
11
121.271
21
-166.927
0
LINE
8
Black
10
121.271
20
-166.927
11
120.986
21
-166.784
0
LINE
8
Black
10
120.986
20
-166.784
11
120.843
21
-166.641
0
LINE
8
Black
10
120.843
20
-166.641
11
120.7
21
-166.356
0
LINE
8
Black
10
120.7
20
-166.356
11
120.557
21
-165.784
0
LINE
8
Black
10
120.557
20
-165.784
11
120.557
21
-165.07
0
LINE
8
Black
10
120.557
20
-165.07
11
120.7
21
-164.499
0
LINE
8
Black
10
120.7
20
-164.499
11
120.843
21
-164.213
0
LINE
8
Black
10
120.843
20
-164.213
11
120.986
21
-164.07
0
LINE
8
Black
10
120.986
20
-164.07
11
121.271
21
-163.927
0
LINE
8
Black
10
124.129
20
-163.927
11
124.414
21
-163.927
0
LINE
8
Black
10
124.414
20
-163.927
11
124.7
21
-164.07
0
LINE
8
Black
10
124.7
20
-164.07
11
124.843
21
-164.213
0
LINE
8
Black
10
124.843
20
-164.213
11
124.986
21
-164.499
0
LINE
8
Black
10
124.986
20
-164.499
11
125.129
21
-165.07
0
LINE
8
Black
10
125.129
20
-165.07
11
125.129
21
-165.784
0
LINE
8
Black
10
125.129
20
-165.784
11
124.986
21
-166.356
0
LINE
8
Black
10
124.986
20
-166.356
11
124.843
21
-166.641
0
LINE
8
Black
10
124.843
20
-166.641
11
124.7
21
-166.784
0
LINE
8
Black
10
124.7
20
-166.784
11
124.414
21
-166.927
0
LINE
8
Black
10
124.414
20
-166.927
11
124.129
21
-166.927
0
LINE
8
Black
10
124.129
20
-166.927
11
123.843
21
-166.784
0
LINE
8
Black
10
123.843
20
-166.784
11
123.7
21
-166.641
0
LINE
8
Black
10
123.7
20
-166.641
11
123.557
21
-166.356
0
LINE
8
Black
10
123.557
20
-166.356
11
123.414
21
-165.784
0
LINE
8
Black
10
123.414
20
-165.784
11
123.414
21
-165.07
0
LINE
8
Black
10
123.414
20
-165.07
11
123.557
21
-164.499
0
LINE
8
Black
10
123.557
20
-164.499
11
123.7
21
-164.213
0
LINE
8
Black
10
123.7
20
-164.213
11
123.843
21
-164.07
0
LINE
8
Black
10
123.843
20
-164.07
11
124.129
21
-163.927
0
LINE
8
Black
10
126.414
20
-166.927
11
126.414
21
-164.927
0
LINE
8
Black
10
126.414
20
-165.213
11
126.557
21
-165.07
0
LINE
8
Black
10
126.557
20
-165.07
11
126.843
21
-164.927
0
LINE
8
Black
10
126.843
20
-164.927
11
127.271
21
-164.927
0
LINE
8
Black
10
127.271
20
-164.927
11
127.557
21
-165.07
0
LINE
8
Black
10
127.557
20
-165.07
11
127.7
21
-165.356
0
LINE
8
Black
10
127.7
20
-165.356
11
127.7
21
-166.927
0
LINE
8
Black
10
127.7
20
-165.356
11
127.843
21
-165.07
0
LINE
8
Black
10
127.843
20
-165.07
11
128.129
21
-164.927
0
LINE
8
Black
10
128.129
20
-164.927
11
128.557
21
-164.927
0
LINE
8
Black
10
128.557
20
-164.927
11
128.843
21
-165.07
0
LINE
8
Black
10
128.843
20
-165.07
11
128.986
21
-165.356
0
LINE
8
Black
10
128.986
20
-165.356
11
128.986
21
-166.927
0
LINE
8
Black
10
130.414
20
-166.927
11
130.414
21
-164.927
0
LINE
8
Black
10
130.414
20
-165.213
11
130.557
21
-165.07
0
LINE
8
Black
10
130.557
20
-165.07
11
130.843
21
-164.927
0
LINE
8
Black
10
130.843
20
-164.927
11
131.271
21
-164.927
0
LINE
8
Black
10
131.271
20
-164.927
11
131.557
21
-165.07
0
LINE
8
Black
10
131.557
20
-165.07
11
131.7
21
-165.356
0
LINE
8
Black
10
131.7
20
-165.356
11
131.7
21
-166.927
0
LINE
8
Black
10
131.7
20
-165.356
11
131.843
21
-165.07
0
LINE
8
Black
10
131.843
20
-165.07
11
132.129
21
-164.927
0
LINE
8
Black
10
132.129
20
-164.927
11
132.557
21
-164.927
0
LINE
8
Black
10
132.557
20
-164.927
11
132.843
21
-165.07
0
LINE
8
Black
10
132.843
20
-165.07
11
132.986
21
-165.356
0
LINE
8
Black
10
132.986
20
-165.356
11
132.986
21
-166.927
0
LINE
8
Black
10
138.843
20
-163.784
11
136.271
21
-167.641
0
LINE
8
Black
10
142.7
20
-163.927
11
142.986
21
-163.927
0
LINE
8
Black
10
142.986
20
-163.927
11
143.271
21
-164.07
0
LINE
8
Black
10
143.271
20
-164.07
11
143.414
21
-164.213
0
LINE
8
Black
10
143.414
20
-164.213
11
143.557
21
-164.499
0
LINE
8
Black
10
143.557
20
-164.499
11
143.7
21
-165.07
0
LINE
8
Black
10
143.7
20
-165.07
11
143.7
21
-165.784
0
LINE
8
Black
10
143.7
20
-165.784
11
143.557
21
-166.356
0
LINE
8
Black
10
143.557
20
-166.356
11
143.414
21
-166.641
0
LINE
8
Black
10
143.414
20
-166.641
11
143.271
21
-166.784
0
LINE
8
Black
10
143.271
20
-166.784
11
142.986
21
-166.927
0
LINE
8
Black
10
142.986
20
-166.927
11
142.7
21
-166.927
0
LINE
8
Black
10
142.7
20
-166.927
11
142.414
21
-166.784
0
LINE
8
Black
10
142.414
20
-166.784
11
142.271
21
-166.641
0
LINE
8
Black
10
142.271
20
-166.641
11
142.129
21
-166.356
0
LINE
8
Black
10
142.129
20
-166.356
11
141.986
21
-165.784
0
LINE
8
Black
10
141.986
20
-165.784
11
141.986
21
-165.07
0
LINE
8
Black
10
141.986
20
-165.07
11
142.129
21
-164.499
0
LINE
8
Black
10
142.129
20
-164.499
11
142.271
21
-164.213
0
LINE
8
Black
10
142.271
20
-164.213
11
142.414
21
-164.07
0
LINE
8
Black
10
142.414
20
-164.07
11
142.7
21
-163.927
0
LINE
8
Black
10
144.986
20
-166.641
11
145.129
21
-166.784
0
LINE
8
Black
10
145.129
20
-166.784
11
144.986
21
-166.927
0
LINE
8
Black
10
144.986
20
-166.927
11
144.843
21
-166.784
0
LINE
8
Black
10
144.843
20
-166.784
11
144.986
21
-166.641
0
LINE
8
Black
10
144.986
20
-166.641
11
144.986
21
-166.927
0
LINE
8
Black
10
146.986
20
-163.927
11
147.271
21
-163.927
0
LINE
8
Black
10
147.271
20
-163.927
11
147.557
21
-164.07
0
LINE
8
Black
10
147.557
20
-164.07
11
147.7
21
-164.213
0
LINE
8
Black
10
147.7
20
-164.213
11
147.843
21
-164.499
0
LINE
8
Black
10
147.843
20
-164.499
11
147.986
21
-165.07
0
LINE
8
Black
10
147.986
20
-165.07
11
147.986
21
-165.784
0
LINE
8
Black
10
147.986
20
-165.784
11
147.843
21
-166.356
0
LINE
8
Black
10
147.843
20
-166.356
11
147.7
21
-166.641
0
LINE
8
Black
10
147.7
20
-166.641
11
147.557
21
-166.784
0
LINE
8
Black
10
147.557
20
-166.784
11
147.271
21
-166.927
0
LINE
8
Black
10
147.271
20
-166.927
11
146.986
21
-166.927
0
LINE
8
Black
10
146.986
20
-166.927
11
146.7
21
-166.784
0
LINE
8
Black
10
146.7
20
-166.784
11
146.557
21
-166.641
0
LINE
8
Black
10
146.557
20
-166.641
11
146.414
21
-166.356
0
LINE
8
Black
10
146.414
20
-166.356
11
146.271
21
-165.784
0
LINE
8
Black
10
146.271
20
-165.784
11
146.271
21
-165.07
0
LINE
8
Black
10
146.271
20
-165.07
11
146.414
21
-164.499
0
LINE
8
Black
10
146.414
20
-164.499
11
146.557
21
-164.213
0
LINE
8
Black
10
146.557
20
-164.213
11
146.7
21
-164.07
0
LINE
8
Black
10
146.7
20
-164.07
11
146.986
21
-163.927
0
LINE
8
Black
10
148.986
20
-163.927
11
150.843
21
-163.927
0
LINE
8
Black
10
150.843
20
-163.927
11
149.843
21
-165.07
0
LINE
8
Black
10
149.843
20
-165.07
11
150.271
21
-165.07
0
LINE
8
Black
10
150.271
20
-165.07
11
150.557
21
-165.213
0
LINE
8
Black
10
150.557
20
-165.213
11
150.7
21
-165.356
0
LINE
8
Black
10
150.7
20
-165.356
11
150.843
21
-165.641
0
LINE
8
Black
10
150.843
20
-165.641
11
150.843
21
-166.356
0
LINE
8
Black
10
150.843
20
-166.356
11
150.7
21
-166.641
0
LINE
8
Black
10
150.7
20
-166.641
11
150.557
21
-166.784
0
LINE
8
Black
10
150.557
20
-166.784
11
150.271
21
-166.927
0
LINE
8
Black
10
150.271
20
-166.927
11
149.414
21
-166.927
0
LINE
8
Black
10
149.414
20
-166.927
11
149.129
21
-166.784
0
LINE
8
Black
10
149.129
20
-166.784
11
148.986
21
-166.641
0
LINE
8
Black
10
152.271
20
-166.927
11
152.843
21
-166.927
0
LINE
8
Black
10
152.843
20
-166.927
11
153.129
21
-166.784
0
LINE
8
Black
10
153.129
20
-166.784
11
153.271
21
-166.641
0
LINE
8
Black
10
153.271
20
-166.641
11
153.557
21
-166.213
0
LINE
8
Black
10
153.557
20
-166.213
11
153.7
21
-165.641
0
LINE
8
Black
10
153.7
20
-165.641
11
153.7
21
-164.499
0
LINE
8
Black
10
153.7
20
-164.499
11
153.557
21
-164.213
0
LINE
8
Black
10
153.557
20
-164.213
11
153.414
21
-164.07
0
LINE
8
Black
10
153.414
20
-164.07
11
153.129
21
-163.927
0
LINE
8
Black
10
153.129
20
-163.927
11
152.557
21
-163.927
0
LINE
8
Black
10
152.557
20
-163.927
11
152.271
21
-164.07
0
LINE
8
Black
10
152.271
20
-164.07
11
152.129
21
-164.213
0
LINE
8
Black
10
152.129
20
-164.213
11
151.986
21
-164.499
0
LINE
8
Black
10
151.986
20
-164.499
11
151.986
21
-165.213
0
LINE
8
Black
10
151.986
20
-165.213
11
152.129
21
-165.499
0
LINE
8
Black
10
152.129
20
-165.499
11
152.271
21
-165.641
0
LINE
8
Black
10
152.271
20
-165.641
11
152.557
21
-165.784
0
LINE
8
Black
10
152.557
20
-165.784
11
153.129
21
-165.784
0
LINE
8
Black
10
153.129
20
-165.784
11
153.414
21
-165.641
0
LINE
8
Black
10
153.414
20
-165.641
11
153.557
21
-165.499
0
LINE
8
Black
10
153.557
20
-165.499
11
153.7
21
-165.213
0
LINE
8
Black
10
154.843
20
-163.927
11
154.843
21
-164.499
0
LINE
8
Black
10
155.986
20
-163.927
11
155.986
21
-164.499
0
LINE
8
Black
10
160.414
20
-168.07
11
160.271
21
-167.927
0
LINE
8
Black
10
160.271
20
-167.927
11
159.986
21
-167.499
0
LINE
8
Black
10
159.986
20
-167.499
11
159.843
21
-167.213
0
LINE
8
Black
10
159.843
20
-167.213
11
159.7
21
-166.784
0
LINE
8
Black
10
159.7
20
-166.784
11
159.557
21
-166.07
0
LINE
8
Black
10
159.557
20
-166.07
11
159.557
21
-165.499
0
LINE
8
Black
10
159.557
20
-165.499
11
159.7
21
-164.784
0
LINE
8
Black
10
159.7
20
-164.784
11
159.843
21
-164.356
0
LINE
8
Black
10
159.843
20
-164.356
11
159.986
21
-164.07
0
LINE
8
Black
10
159.986
20
-164.07
11
160.271
21
-163.641
0
LINE
8
Black
10
160.271
20
-163.641
11
160.414
21
-163.499
0
LINE
8
Black
10
161.414
20
-164.213
11
161.557
21
-164.07
0
LINE
8
Black
10
161.557
20
-164.07
11
161.843
21
-163.927
0
LINE
8
Black
10
161.843
20
-163.927
11
162.557
21
-163.927
0
LINE
8
Black
10
162.557
20
-163.927
11
162.843
21
-164.07
0
LINE
8
Black
10
162.843
20
-164.07
11
162.986
21
-164.213
0
LINE
8
Black
10
162.986
20
-164.213
11
163.129
21
-164.499
0
LINE
8
Black
10
163.129
20
-164.499
11
163.129
21
-164.784
0
LINE
8
Black
10
163.129
20
-164.784
11
162.986
21
-165.213
0
LINE
8
Black
10
162.986
20
-165.213
11
161.271
21
-166.927
0
LINE
8
Black
10
161.271
20
-166.927
11
163.129
21
-166.927
0
LINE
8
Black
10
166.7
20
-166.927
11
166.7
21
-163.927
0
LINE
8
Black
10
167.986
20
-166.927
11
167.986
21
-165.356
0
LINE
8
Black
10
167.986
20
-165.356
11
167.843
21
-165.07
0
LINE
8
Black
10
167.843
20
-165.07
11
167.557
21
-164.927
0
LINE
8
Black
10
167.557
20
-164.927
11
167.129
21
-164.927
0
LINE
8
Black
10
167.129
20
-164.927
11
166.843
21
-165.07
0
LINE
8
Black
10
166.843
20
-165.07
11
166.7
21
-165.213
0
LINE
8
Black
10
169.843
20
-166.927
11
169.557
21
-166.784
0
LINE
8
Black
10
169.557
20
-166.784
11
169.414
21
-166.641
0
LINE
8
Black
10
169.414
20
-166.641
11
169.271
21
-166.356
0
LINE
8
Black
10
169.271
20
-166.356
11
169.271
21
-165.499
0
LINE
8
Black
10
169.271
20
-165.499
11
169.414
21
-165.213
0
LINE
8
Black
10
169.414
20
-165.213
11
169.557
21
-165.07
0
LINE
8
Black
10
169.557
20
-165.07
11
169.843
21
-164.927
0
LINE
8
Black
10
169.843
20
-164.927
11
170.271
21
-164.927
0
LINE
8
Black
10
170.271
20
-164.927
11
170.557
21
-165.07
0
LINE
8
Black
10
170.557
20
-165.07
11
170.7
21
-165.213
0
LINE
8
Black
10
170.7
20
-165.213
11
170.843
21
-165.499
0
LINE
8
Black
10
170.843
20
-165.499
11
170.843
21
-166.356
0
LINE
8
Black
10
170.843
20
-166.356
11
170.7
21
-166.641
0
LINE
8
Black
10
170.7
20
-166.641
11
170.557
21
-166.784
0
LINE
8
Black
10
170.557
20
-166.784
11
170.271
21
-166.927
0
LINE
8
Black
10
170.271
20
-166.927
11
169.843
21
-166.927
0
LINE
8
Black
10
172.557
20
-166.927
11
172.271
21
-166.784
0
LINE
8
Black
10
172.271
20
-166.784
11
172.129
21
-166.499
0
LINE
8
Black
10
172.129
20
-166.499
11
172.129
21
-163.927
0
LINE
8
Black
10
174.843
20
-166.784
11
174.557
21
-166.927
0
LINE
8
Black
10
174.557
20
-166.927
11
173.986
21
-166.927
0
LINE
8
Black
10
173.986
20
-166.927
11
173.7
21
-166.784
0
LINE
8
Black
10
173.7
20
-166.784
11
173.557
21
-166.499
0
LINE
8
Black
10
173.557
20
-166.499
11
173.557
21
-165.356
0
LINE
8
Black
10
173.557
20
-165.356
11
173.7
21
-165.07
0
LINE
8
Black
10
173.7
20
-165.07
11
173.986
21
-164.927
0
LINE
8
Black
10
173.986
20
-164.927
11
174.557
21
-164.927
0
LINE
8
Black
10
174.557
20
-164.927
11
174.843
21
-165.07
0
LINE
8
Black
10
174.843
20
-165.07
11
174.986
21
-165.356
0
LINE
8
Black
10
174.986
20
-165.356
11
174.986
21
-165.641
0
LINE
8
Black
10
174.986
20
-165.641
11
173.557
21
-165.927
0
LINE
8
Black
10
176.129
20
-166.784
11
176.414
21
-166.927
0
LINE
8
Black
10
176.414
20
-166.927
11
176.986
21
-166.927
0
LINE
8
Black
10
176.986
20
-166.927
11
177.271
21
-166.784
0
LINE
8
Black
10
177.271
20
-166.784
11
177.414
21
-166.499
0
LINE
8
Black
10
177.414
20
-166.499
11
177.414
21
-166.356
0
LINE
8
Black
10
177.414
20
-166.356
11
177.271
21
-166.07
0
LINE
8
Black
10
177.271
20
-166.07
11
176.986
21
-165.927
0
LINE
8
Black
10
176.986
20
-165.927
11
176.557
21
-165.927
0
LINE
8
Black
10
176.557
20
-165.927
11
176.271
21
-165.784
0
LINE
8
Black
10
176.271
20
-165.784
11
176.129
21
-165.499
0
LINE
8
Black
10
176.129
20
-165.499
11
176.129
21
-165.356
0
LINE
8
Black
10
176.129
20
-165.356
11
176.271
21
-165.07
0
LINE
8
Black
10
176.271
20
-165.07
11
176.557
21
-164.927
0
LINE
8
Black
10
176.557
20
-164.927
11
176.986
21
-164.927
0
LINE
8
Black
10
176.986
20
-164.927
11
177.271
21
-165.07
0
LINE
8
Black
10
178.414
20
-168.07
11
178.557
21
-167.927
0
LINE
8
Black
10
178.557
20
-167.927
11
178.843
21
-167.499
0
LINE
8
Black
10
178.843
20
-167.499
11
178.986
21
-167.213
0
LINE
8
Black
10
178.986
20
-167.213
11
179.129
21
-166.784
0
LINE
8
Black
10
179.129
20
-166.784
11
179.271
21
-166.07
0
LINE
8
Black
10
179.271
20
-166.07
11
179.271
21
-165.499
0
LINE
8
Black
10
179.271
20
-165.499
11
179.129
21
-164.784
0
LINE
8
Black
10
179.129
20
-164.784
11
178.986
21
-164.356
0
LINE
8
Black
10
178.986
20
-164.356
11
178.843
21
-164.07
0
LINE
8
Black
10
178.843
20
-164.07
11
178.557
21
-163.641
0
LINE
8
Black
10
178.557
20
-163.641
11
178.414
21
-163.499
0
LINE
8
Black
10
113.551
20
-169.889
11
113.551
21
-169.171
0
LINE
8
Black
10
113.551
20
-169.171
11
112.833
21
-169.171
0
LINE
8
Black
10
112.833
20
-169.171
11
112.833
21
-169.889
0
LINE
8
Black
10
112.833
20
-169.889
11
113.551
21
-169.889
0
LINE
8
Black
10
117.986
20
-170.887
11
116.271
21
-170.887
0
LINE
8
Black
10
117.129
20
-170.887
11
117.129
21
-167.887
0
LINE
8
Black
10
117.129
20
-167.887
11
116.843
21
-168.316
0
LINE
8
Black
10
116.843
20
-168.316
11
116.557
21
-168.601
0
LINE
8
Black
10
116.557
20
-168.601
11
116.271
21
-168.744
0
LINE
8
Black
10
119.271
20
-170.601
11
119.414
21
-170.744
0
LINE
8
Black
10
119.414
20
-170.744
11
119.271
21
-170.887
0
LINE
8
Black
10
119.271
20
-170.887
11
119.129
21
-170.744
0
LINE
8
Black
10
119.129
20
-170.744
11
119.271
21
-170.601
0
LINE
8
Black
10
119.271
20
-170.601
11
119.271
21
-170.887
0
LINE
8
Black
10
121.271
20
-167.887
11
121.557
21
-167.887
0
LINE
8
Black
10
121.557
20
-167.887
11
121.843
21
-168.03
0
LINE
8
Black
10
121.843
20
-168.03
11
121.986
21
-168.173
0
LINE
8
Black
10
121.986
20
-168.173
11
122.129
21
-168.459
0
LINE
8
Black
10
122.129
20
-168.459
11
122.271
21
-169.03
0
LINE
8
Black
10
122.271
20
-169.03
11
122.271
21
-169.744
0
LINE
8
Black
10
122.271
20
-169.744
11
122.129
21
-170.316
0
LINE
8
Black
10
122.129
20
-170.316
11
121.986
21
-170.601
0
LINE
8
Black
10
121.986
20
-170.601
11
121.843
21
-170.744
0
LINE
8
Black
10
121.843
20
-170.744
11
121.557
21
-170.887
0
LINE
8
Black
10
121.557
20
-170.887
11
121.271
21
-170.887
0
LINE
8
Black
10
121.271
20
-170.887
11
120.986
21
-170.744
0
LINE
8
Black
10
120.986
20
-170.744
11
120.843
21
-170.601
0
LINE
8
Black
10
120.843
20
-170.601
11
120.7
21
-170.316
0
LINE
8
Black
10
120.7
20
-170.316
11
120.557
21
-169.744
0
LINE
8
Black
10
120.557
20
-169.744
11
120.557
21
-169.03
0
LINE
8
Black
10
120.557
20
-169.03
11
120.7
21
-168.459
0
LINE
8
Black
10
120.7
20
-168.459
11
120.843
21
-168.173
0
LINE
8
Black
10
120.843
20
-168.173
11
120.986
21
-168.03
0
LINE
8
Black
10
120.986
20
-168.03
11
121.271
21
-167.887
0
LINE
8
Black
10
123.414
20
-168.173
11
123.557
21
-168.03
0
LINE
8
Black
10
123.557
20
-168.03
11
123.843
21
-167.887
0
LINE
8
Black
10
123.843
20
-167.887
11
124.557
21
-167.887
0
LINE
8
Black
10
124.557
20
-167.887
11
124.843
21
-168.03
0
LINE
8
Black
10
124.843
20
-168.03
11
124.986
21
-168.173
0
LINE
8
Black
10
124.986
20
-168.173
11
125.129
21
-168.459
0
LINE
8
Black
10
125.129
20
-168.459
11
125.129
21
-168.744
0
LINE
8
Black
10
125.129
20
-168.744
11
124.986
21
-169.173
0
LINE
8
Black
10
124.986
20
-169.173
11
123.271
21
-170.887
0
LINE
8
Black
10
123.271
20
-170.887
11
125.129
21
-170.887
0
LINE
8
Black
10
126.414
20
-170.887
11
126.414
21
-168.887
0
LINE
8
Black
10
126.414
20
-169.173
11
126.557
21
-169.03
0
LINE
8
Black
10
126.557
20
-169.03
11
126.843
21
-168.887
0
LINE
8
Black
10
126.843
20
-168.887
11
127.271
21
-168.887
0
LINE
8
Black
10
127.271
20
-168.887
11
127.557
21
-169.03
0
LINE
8
Black
10
127.557
20
-169.03
11
127.7
21
-169.316
0
LINE
8
Black
10
127.7
20
-169.316
11
127.7
21
-170.887
0
LINE
8
Black
10
127.7
20
-169.316
11
127.843
21
-169.03
0
LINE
8
Black
10
127.843
20
-169.03
11
128.129
21
-168.887
0
LINE
8
Black
10
128.129
20
-168.887
11
128.557
21
-168.887
0
LINE
8
Black
10
128.557
20
-168.887
11
128.843
21
-169.03
0
LINE
8
Black
10
128.843
20
-169.03
11
128.986
21
-169.316
0
LINE
8
Black
10
128.986
20
-169.316
11
128.986
21
-170.887
0
LINE
8
Black
10
130.414
20
-170.887
11
130.414
21
-168.887
0
LINE
8
Black
10
130.414
20
-169.173
11
130.557
21
-169.03
0
LINE
8
Black
10
130.557
20
-169.03
11
130.843
21
-168.887
0
LINE
8
Black
10
130.843
20
-168.887
11
131.271
21
-168.887
0
LINE
8
Black
10
131.271
20
-168.887
11
131.557
21
-169.03
0
LINE
8
Black
10
131.557
20
-169.03
11
131.7
21
-169.316
0
LINE
8
Black
10
131.7
20
-169.316
11
131.7
21
-170.887
0
LINE
8
Black
10
131.7
20
-169.316
11
131.843
21
-169.03
0
LINE
8
Black
10
131.843
20
-169.03
11
132.129
21
-168.887
0
LINE
8
Black
10
132.129
20
-168.887
11
132.557
21
-168.887
0
LINE
8
Black
10
132.557
20
-168.887
11
132.843
21
-169.03
0
LINE
8
Black
10
132.843
20
-169.03
11
132.986
21
-169.316
0
LINE
8
Black
10
132.986
20
-169.316
11
132.986
21
-170.887
0
LINE
8
Black
10
138.843
20
-167.744
11
136.271
21
-171.601
0
LINE
8
Black
10
142.7
20
-167.887
11
142.986
21
-167.887
0
LINE
8
Black
10
142.986
20
-167.887
11
143.271
21
-168.03
0
LINE
8
Black
10
143.271
20
-168.03
11
143.414
21
-168.173
0
LINE
8
Black
10
143.414
20
-168.173
11
143.557
21
-168.459
0
LINE
8
Black
10
143.557
20
-168.459
11
143.7
21
-169.03
0
LINE
8
Black
10
143.7
20
-169.03
11
143.7
21
-169.744
0
LINE
8
Black
10
143.7
20
-169.744
11
143.557
21
-170.316
0
LINE
8
Black
10
143.557
20
-170.316
11
143.414
21
-170.601
0
LINE
8
Black
10
143.414
20
-170.601
11
143.271
21
-170.744
0
LINE
8
Black
10
143.271
20
-170.744
11
142.986
21
-170.887
0
LINE
8
Black
10
142.986
20
-170.887
11
142.7
21
-170.887
0
LINE
8
Black
10
142.7
20
-170.887
11
142.414
21
-170.744
0
LINE
8
Black
10
142.414
20
-170.744
11
142.271
21
-170.601
0
LINE
8
Black
10
142.271
20
-170.601
11
142.129
21
-170.316
0
LINE
8
Black
10
142.129
20
-170.316
11
141.986
21
-169.744
0
LINE
8
Black
10
141.986
20
-169.744
11
141.986
21
-169.03
0
LINE
8
Black
10
141.986
20
-169.03
11
142.129
21
-168.459
0
LINE
8
Black
10
142.129
20
-168.459
11
142.271
21
-168.173
0
LINE
8
Black
10
142.271
20
-168.173
11
142.414
21
-168.03
0
LINE
8
Black
10
142.414
20
-168.03
11
142.7
21
-167.887
0
LINE
8
Black
10
144.986
20
-170.601
11
145.129
21
-170.744
0
LINE
8
Black
10
145.129
20
-170.744
11
144.986
21
-170.887
0
LINE
8
Black
10
144.986
20
-170.887
11
144.843
21
-170.744
0
LINE
8
Black
10
144.843
20
-170.744
11
144.986
21
-170.601
0
LINE
8
Black
10
144.986
20
-170.601
11
144.986
21
-170.887
0
LINE
8
Black
10
146.986
20
-167.887
11
147.271
21
-167.887
0
LINE
8
Black
10
147.271
20
-167.887
11
147.557
21
-168.03
0
LINE
8
Black
10
147.557
20
-168.03
11
147.7
21
-168.173
0
LINE
8
Black
10
147.7
20
-168.173
11
147.843
21
-168.459
0
LINE
8
Black
10
147.843
20
-168.459
11
147.986
21
-169.03
0
LINE
8
Black
10
147.986
20
-169.03
11
147.986
21
-169.744
0
LINE
8
Black
10
147.986
20
-169.744
11
147.843
21
-170.316
0
LINE
8
Black
10
147.843
20
-170.316
11
147.7
21
-170.601
0
LINE
8
Black
10
147.7
20
-170.601
11
147.557
21
-170.744
0
LINE
8
Black
10
147.557
20
-170.744
11
147.271
21
-170.887
0
LINE
8
Black
10
147.271
20
-170.887
11
146.986
21
-170.887
0
LINE
8
Black
10
146.986
20
-170.887
11
146.7
21
-170.744
0
LINE
8
Black
10
146.7
20
-170.744
11
146.557
21
-170.601
0
LINE
8
Black
10
146.557
20
-170.601
11
146.414
21
-170.316
0
LINE
8
Black
10
146.414
20
-170.316
11
146.271
21
-169.744
0
LINE
8
Black
10
146.271
20
-169.744
11
146.271
21
-169.03
0
LINE
8
Black
10
146.271
20
-169.03
11
146.414
21
-168.459
0
LINE
8
Black
10
146.414
20
-168.459
11
146.557
21
-168.173
0
LINE
8
Black
10
146.557
20
-168.173
11
146.7
21
-168.03
0
LINE
8
Black
10
146.7
20
-168.03
11
146.986
21
-167.887
0
LINE
8
Black
10
150.557
20
-168.887
11
150.557
21
-170.887
0
LINE
8
Black
10
149.843
20
-167.744
11
149.129
21
-169.887
0
LINE
8
Black
10
149.129
20
-169.887
11
150.986
21
-169.887
0
LINE
8
Black
10
152.7
20
-167.887
11
152.986
21
-167.887
0
LINE
8
Black
10
152.986
20
-167.887
11
153.271
21
-168.03
0
LINE
8
Black
10
153.271
20
-168.03
11
153.414
21
-168.173
0
LINE
8
Black
10
153.414
20
-168.173
11
153.557
21
-168.459
0
LINE
8
Black
10
153.557
20
-168.459
11
153.7
21
-169.03
0
LINE
8
Black
10
153.7
20
-169.03
11
153.7
21
-169.744
0
LINE
8
Black
10
153.7
20
-169.744
11
153.557
21
-170.316
0
LINE
8
Black
10
153.557
20
-170.316
11
153.414
21
-170.601
0
LINE
8
Black
10
153.414
20
-170.601
11
153.271
21
-170.744
0
LINE
8
Black
10
153.271
20
-170.744
11
152.986
21
-170.887
0
LINE
8
Black
10
152.986
20
-170.887
11
152.7
21
-170.887
0
LINE
8
Black
10
152.7
20
-170.887
11
152.414
21
-170.744
0
LINE
8
Black
10
152.414
20
-170.744
11
152.271
21
-170.601
0
LINE
8
Black
10
152.271
20
-170.601
11
152.129
21
-170.316
0
LINE
8
Black
10
152.129
20
-170.316
11
151.986
21
-169.744
0
LINE
8
Black
10
151.986
20
-169.744
11
151.986
21
-169.03
0
LINE
8
Black
10
151.986
20
-169.03
11
152.129
21
-168.459
0
LINE
8
Black
10
152.129
20
-168.459
11
152.271
21
-168.173
0
LINE
8
Black
10
152.271
20
-168.173
11
152.414
21
-168.03
0
LINE
8
Black
10
152.414
20
-168.03
11
152.7
21
-167.887
0
LINE
8
Black
10
154.843
20
-167.887
11
154.843
21
-168.459
0
LINE
8
Black
10
155.986
20
-167.887
11
155.986
21
-168.459
0
LINE
8
Black
10
160.414
20
-172.03
11
160.271
21
-171.887
0
LINE
8
Black
10
160.271
20
-171.887
11
159.986
21
-171.459
0
LINE
8
Black
10
159.986
20
-171.459
11
159.843
21
-171.173
0
LINE
8
Black
10
159.843
20
-171.173
11
159.7
21
-170.744
0
LINE
8
Black
10
159.7
20
-170.744
11
159.557
21
-170.03
0
LINE
8
Black
10
159.557
20
-170.03
11
159.557
21
-169.459
0
LINE
8
Black
10
159.557
20
-169.459
11
159.7
21
-168.744
0
LINE
8
Black
10
159.7
20
-168.744
11
159.843
21
-168.316
0
LINE
8
Black
10
159.843
20
-168.316
11
159.986
21
-168.03
0
LINE
8
Black
10
159.986
20
-168.03
11
160.271
21
-167.601
0
LINE
8
Black
10
160.271
20
-167.601
11
160.414
21
-167.459
0
LINE
8
Black
10
163.129
20
-170.887
11
161.414
21
-170.887
0
LINE
8
Black
10
162.271
20
-170.887
11
162.271
21
-167.887
0
LINE
8
Black
10
162.271
20
-167.887
11
161.986
21
-168.316
0
LINE
8
Black
10
161.986
20
-168.316
11
161.7
21
-168.601
0
LINE
8
Black
10
161.7
20
-168.601
11
161.414
21
-168.744
0
LINE
8
Black
10
164.986
20
-167.887
11
165.271
21
-167.887
0
LINE
8
Black
10
165.271
20
-167.887
11
165.557
21
-168.03
0
LINE
8
Black
10
165.557
20
-168.03
11
165.7
21
-168.173
0
LINE
8
Black
10
165.7
20
-168.173
11
165.843
21
-168.459
0
LINE
8
Black
10
165.843
20
-168.459
11
165.986
21
-169.03
0
LINE
8
Black
10
165.986
20
-169.03
11
165.986
21
-169.744
0
LINE
8
Black
10
165.986
20
-169.744
11
165.843
21
-170.316
0
LINE
8
Black
10
165.843
20
-170.316
11
165.7
21
-170.601
0
LINE
8
Black
10
165.7
20
-170.601
11
165.557
21
-170.744
0
LINE
8
Black
10
165.557
20
-170.744
11
165.271
21
-170.887
0
LINE
8
Black
10
165.271
20
-170.887
11
164.986
21
-170.887
0
LINE
8
Black
10
164.986
20
-170.887
11
164.7
21
-170.744
0
LINE
8
Black
10
164.7
20
-170.744
11
164.557
21
-170.601
0
LINE
8
Black
10
164.557
20
-170.601
11
164.414
21
-170.316
0
LINE
8
Black
10
164.414
20
-170.316
11
164.271
21
-169.744
0
LINE
8
Black
10
164.271
20
-169.744
11
164.271
21
-169.03
0
LINE
8
Black
10
164.271
20
-169.03
11
164.414
21
-168.459
0
LINE
8
Black
10
164.414
20
-168.459
11
164.557
21
-168.173
0
LINE
8
Black
10
164.557
20
-168.173
11
164.7
21
-168.03
0
LINE
8
Black
10
164.7
20
-168.03
11
164.986
21
-167.887
0
LINE
8
Black
10
169.557
20
-170.887
11
169.557
21
-167.887
0
LINE
8
Black
10
170.843
20
-170.887
11
170.843
21
-169.316
0
LINE
8
Black
10
170.843
20
-169.316
11
170.7
21
-169.03
0
LINE
8
Black
10
170.7
20
-169.03
11
170.414
21
-168.887
0
LINE
8
Black
10
170.414
20
-168.887
11
169.986
21
-168.887
0
LINE
8
Black
10
169.986
20
-168.887
11
169.7
21
-169.03
0
LINE
8
Black
10
169.7
20
-169.03
11
169.557
21
-169.173
0
LINE
8
Black
10
172.7
20
-170.887
11
172.414
21
-170.744
0
LINE
8
Black
10
172.414
20
-170.744
11
172.271
21
-170.601
0
LINE
8
Black
10
172.271
20
-170.601
11
172.129
21
-170.316
0
LINE
8
Black
10
172.129
20
-170.316
11
172.129
21
-169.459
0
LINE
8
Black
10
172.129
20
-169.459
11
172.271
21
-169.173
0
LINE
8
Black
10
172.271
20
-169.173
11
172.414
21
-169.03
0
LINE
8
Black
10
172.414
20
-169.03
11
172.7
21
-168.887
0
LINE
8
Black
10
172.7
20
-168.887
11
173.129
21
-168.887
0
LINE
8
Black
10
173.129
20
-168.887
11
173.414
21
-169.03
0
LINE
8
Black
10
173.414
20
-169.03
11
173.557
21
-169.173
0
LINE
8
Black
10
173.557
20
-169.173
11
173.7
21
-169.459
0
LINE
8
Black
10
173.7
20
-169.459
11
173.7
21
-170.316
0
LINE
8
Black
10
173.7
20
-170.316
11
173.557
21
-170.601
0
LINE
8
Black
10
173.557
20
-170.601
11
173.414
21
-170.744
0
LINE
8
Black
10
173.414
20
-170.744
11
173.129
21
-170.887
0
LINE
8
Black
10
173.129
20
-170.887
11
172.7
21
-170.887
0
LINE
8
Black
10
175.414
20
-170.887
11
175.129
21
-170.744
0
LINE
8
Black
10
175.129
20
-170.744
11
174.986
21
-170.459
0
LINE
8
Black
10
174.986
20
-170.459
11
174.986
21
-167.887
0
LINE
8
Black
10
177.7
20
-170.744
11
177.414
21
-170.887
0
LINE
8
Black
10
177.414
20
-170.887
11
176.843
21
-170.887
0
LINE
8
Black
10
176.843
20
-170.887
11
176.557
21
-170.744
0
LINE
8
Black
10
176.557
20
-170.744
11
176.414
21
-170.459
0
LINE
8
Black
10
176.414
20
-170.459
11
176.414
21
-169.316
0
LINE
8
Black
10
176.414
20
-169.316
11
176.557
21
-169.03
0
LINE
8
Black
10
176.557
20
-169.03
11
176.843
21
-168.887
0
LINE
8
Black
10
176.843
20
-168.887
11
177.414
21
-168.887
0
LINE
8
Black
10
177.414
20
-168.887
11
177.7
21
-169.03
0
LINE
8
Black
10
177.7
20
-169.03
11
177.843
21
-169.316
0
LINE
8
Black
10
177.843
20
-169.316
11
177.843
21
-169.601
0
LINE
8
Black
10
177.843
20
-169.601
11
176.414
21
-169.887
0
LINE
8
Black
10
178.986
20
-170.744
11
179.271
21
-170.887
0
LINE
8
Black
10
179.271
20
-170.887
11
179.843
21
-170.887
0
LINE
8
Black
10
179.843
20
-170.887
11
180.129
21
-170.744
0
LINE
8
Black
10
180.129
20
-170.744
11
180.271
21
-170.459
0
LINE
8
Black
10
180.271
20
-170.459
11
180.271
21
-170.316
0
LINE
8
Black
10
180.271
20
-170.316
11
180.129
21
-170.03
0
LINE
8
Black
10
180.129
20
-170.03
11
179.843
21
-169.887
0
LINE
8
Black
10
179.843
20
-169.887
11
179.414
21
-169.887
0
LINE
8
Black
10
179.414
20
-169.887
11
179.129
21
-169.744
0
LINE
8
Black
10
179.129
20
-169.744
11
178.986
21
-169.459
0
LINE
8
Black
10
178.986
20
-169.459
11
178.986
21
-169.316
0
LINE
8
Black
10
178.986
20
-169.316
11
179.129
21
-169.03
0
LINE
8
Black
10
179.129
20
-169.03
11
179.414
21
-168.887
0
LINE
8
Black
10
179.414
20
-168.887
11
179.843
21
-168.887
0
LINE
8
Black
10
179.843
20
-168.887
11
180.129
21
-169.03
0
LINE
8
Black
10
181.271
20
-172.03
11
181.414
21
-171.887
0
LINE
8
Black
10
181.414
20
-171.887
11
181.7
21
-171.459
0
LINE
8
Black
10
181.7
20
-171.459
11
181.843
21
-171.173
0
LINE
8
Black
10
181.843
20
-171.173
11
181.986
21
-170.744
0
LINE
8
Black
10
181.986
20
-170.744
11
182.129
21
-170.03
0
LINE
8
Black
10
182.129
20
-170.03
11
182.129
21
-169.459
0
LINE
8
Black
10
182.129
20
-169.459
11
181.986
21
-168.744
0
LINE
8
Black
10
181.986
20
-168.744
11
181.843
21
-168.316
0
LINE
8
Black
10
181.843
20
-168.316
11
181.7
21
-168.03
0
LINE
8
Black
10
181.7
20
-168.03
11
181.414
21
-167.601
0
LINE
8
Black
10
181.414
20
-167.601
11
181.271
21
-167.459
  0
ENDSEC
  0
EOF
