G04 #@! TF.FileFunction,Legend,Top*
%FSLAX46Y46*%
G04 Gerber Fmt 4.6, Leading zero omitted, Abs format (unit mm)*
G04 Created by KiCad (PCBNEW (2015-06-09 BZR 5726)-product) date Thu 11 Jun 2015 11:31:05 PM PDT*
%MOMM*%
G01*
G04 APERTURE LIST*
%ADD10C,0.100000*%
%ADD11C,0.150000*%
%ADD12C,0.203200*%
%ADD13C,0.125000*%
%ADD14C,0.062500*%
%ADD15C,0.152400*%
%ADD16C,2.499360*%
%ADD17R,1.000000X0.800000*%
%ADD18R,1.550000X0.600000*%
%ADD19R,4.200000X3.200000*%
%ADD20R,1.000000X1.600000*%
%ADD21R,1.700000X0.900000*%
%ADD22R,2.032000X1.727200*%
%ADD23O,2.032000X1.727200*%
%ADD24R,0.900000X1.700000*%
G04 APERTURE END LIST*
D10*
D11*
X144600000Y-142000000D02*
X145000000Y-142400000D01*
X143700000Y-144100000D02*
X143700000Y-142000000D01*
X143700000Y-142000000D02*
X145000000Y-142000000D01*
X145000000Y-142000000D02*
X145000000Y-144100000D01*
X145000000Y-144100000D02*
X143700000Y-144100000D01*
X150300000Y-141900000D02*
X150700000Y-142300000D01*
X149400000Y-144000000D02*
X149400000Y-141900000D01*
X149400000Y-141900000D02*
X150700000Y-141900000D01*
X150700000Y-141900000D02*
X150700000Y-144000000D01*
X150700000Y-144000000D02*
X149400000Y-144000000D01*
X153000000Y-102000000D02*
G75*
G03X153000000Y-102000000I-6000000J0D01*
G01*
D12*
X146500000Y-120000000D02*
X146500000Y-130000000D01*
X145353553Y-119500000D02*
G75*
G03X145353553Y-119500000I-353553J0D01*
G01*
X149500000Y-120000000D02*
X145500000Y-120000000D01*
X145500000Y-120000000D02*
X145500000Y-130000000D01*
X145500000Y-130000000D02*
X149500000Y-130000000D01*
X149500000Y-130000000D02*
X149500000Y-120000000D01*
D11*
X139100000Y-73000000D02*
X142100000Y-76000000D01*
X142100000Y-76000000D02*
X142100000Y-80000000D01*
X142100000Y-80000000D02*
X139100000Y-83000000D01*
X143600000Y-67250000D02*
X143600000Y-62000000D01*
X150600000Y-67250000D02*
X150600000Y-62000000D01*
X150600000Y-62000000D02*
X143600000Y-62000000D01*
X150600000Y-94000000D02*
X143600000Y-94000000D01*
X143600000Y-94000000D02*
X143600000Y-88750000D01*
X150600000Y-88750000D02*
X150600000Y-94000000D01*
X139100000Y-86000000D02*
X139100000Y-70000000D01*
X155100000Y-70000000D02*
X155100000Y-85750000D01*
X158350000Y-78000000D02*
G75*
G03X158350000Y-78000000I-11250000J0D01*
G01*
X139500000Y-111525000D02*
X141500000Y-111525000D01*
X141500000Y-109475000D02*
X139500000Y-109475000D01*
X139500000Y-116025000D02*
X141500000Y-116025000D01*
X141500000Y-113975000D02*
X139500000Y-113975000D01*
X148500000Y-113875000D02*
X146500000Y-113875000D01*
X146500000Y-115925000D02*
X148500000Y-115925000D01*
X153575000Y-133500000D02*
X153575000Y-135500000D01*
X151425000Y-135500000D02*
X151425000Y-133500000D01*
X141575000Y-133500000D02*
X141575000Y-135500000D01*
X139425000Y-135500000D02*
X139425000Y-133500000D01*
X147425000Y-135500000D02*
X147425000Y-133500000D01*
X149575000Y-133500000D02*
X149575000Y-135500000D01*
X145575000Y-133500000D02*
X145575000Y-135500000D01*
X143425000Y-135500000D02*
X143425000Y-133500000D01*
X154975000Y-110600000D02*
X154975000Y-112600000D01*
X152825000Y-112600000D02*
X152825000Y-110600000D01*
X141770000Y-127230000D02*
X141770000Y-119610000D01*
X139230000Y-127230000D02*
X139230000Y-119610000D01*
X138950000Y-130050000D02*
X138950000Y-128500000D01*
X141770000Y-119610000D02*
X139230000Y-119610000D01*
X139230000Y-127230000D02*
X141770000Y-127230000D01*
X142050000Y-128500000D02*
X142050000Y-130050000D01*
X142050000Y-130050000D02*
X138950000Y-130050000D01*
X146500000Y-109425000D02*
X148500000Y-109425000D01*
X148500000Y-111575000D02*
X146500000Y-111575000D01*
X155075000Y-117200000D02*
X155075000Y-119200000D01*
X152925000Y-119200000D02*
X152925000Y-117200000D01*
D13*
X143226190Y-143469047D02*
X142726190Y-143469047D01*
X142726190Y-143350000D01*
X142750000Y-143278571D01*
X142797619Y-143230952D01*
X142845238Y-143207143D01*
X142940476Y-143183333D01*
X143011905Y-143183333D01*
X143107143Y-143207143D01*
X143154762Y-143230952D01*
X143202381Y-143278571D01*
X143226190Y-143350000D01*
X143226190Y-143469047D01*
X143226190Y-142707143D02*
X143226190Y-142992857D01*
X143226190Y-142850000D02*
X142726190Y-142850000D01*
X142797619Y-142897619D01*
X142845238Y-142945238D01*
X142869048Y-142992857D01*
X145976190Y-144188095D02*
X145976190Y-144426190D01*
X145476190Y-144426190D01*
X145714286Y-144021428D02*
X145714286Y-143854762D01*
X145976190Y-143783333D02*
X145976190Y-144021428D01*
X145476190Y-144021428D01*
X145476190Y-143783333D01*
X145976190Y-143569047D02*
X145476190Y-143569047D01*
X145476190Y-143450000D01*
X145500000Y-143378571D01*
X145547619Y-143330952D01*
X145595238Y-143307143D01*
X145690476Y-143283333D01*
X145761905Y-143283333D01*
X145857143Y-143307143D01*
X145904762Y-143330952D01*
X145952381Y-143378571D01*
X145976190Y-143450000D01*
X145976190Y-143569047D01*
X145976190Y-142402381D02*
X145738095Y-142569048D01*
X145976190Y-142688095D02*
X145476190Y-142688095D01*
X145476190Y-142497619D01*
X145500000Y-142450000D01*
X145523810Y-142426191D01*
X145571429Y-142402381D01*
X145642857Y-142402381D01*
X145690476Y-142426191D01*
X145714286Y-142450000D01*
X145738095Y-142497619D01*
X145738095Y-142688095D01*
X145714286Y-142188095D02*
X145714286Y-142021429D01*
X145976190Y-141950000D02*
X145976190Y-142188095D01*
X145476190Y-142188095D01*
X145476190Y-141950000D01*
X145976190Y-141735714D02*
X145476190Y-141735714D01*
X145476190Y-141616667D01*
X145500000Y-141545238D01*
X145547619Y-141497619D01*
X145595238Y-141473810D01*
X145690476Y-141450000D01*
X145761905Y-141450000D01*
X145857143Y-141473810D01*
X145904762Y-141497619D01*
X145952381Y-141545238D01*
X145976190Y-141616667D01*
X145976190Y-141735714D01*
D14*
X145289286Y-141672619D02*
X145301190Y-141684524D01*
X145313095Y-141720238D01*
X145313095Y-141744048D01*
X145301190Y-141779762D01*
X145277381Y-141803571D01*
X145253571Y-141815476D01*
X145205952Y-141827381D01*
X145170238Y-141827381D01*
X145122619Y-141815476D01*
X145098810Y-141803571D01*
X145075000Y-141779762D01*
X145063095Y-141744048D01*
X145063095Y-141720238D01*
X145075000Y-141684524D01*
X145086905Y-141672619D01*
D13*
X149026190Y-143369047D02*
X148526190Y-143369047D01*
X148526190Y-143250000D01*
X148550000Y-143178571D01*
X148597619Y-143130952D01*
X148645238Y-143107143D01*
X148740476Y-143083333D01*
X148811905Y-143083333D01*
X148907143Y-143107143D01*
X148954762Y-143130952D01*
X149002381Y-143178571D01*
X149026190Y-143250000D01*
X149026190Y-143369047D01*
X148573810Y-142892857D02*
X148550000Y-142869047D01*
X148526190Y-142821428D01*
X148526190Y-142702381D01*
X148550000Y-142654762D01*
X148573810Y-142630952D01*
X148621429Y-142607143D01*
X148669048Y-142607143D01*
X148740476Y-142630952D01*
X149026190Y-142916666D01*
X149026190Y-142607143D01*
X151676190Y-144123809D02*
X151676190Y-144361904D01*
X151176190Y-144361904D01*
X151414286Y-143957142D02*
X151414286Y-143790476D01*
X151676190Y-143719047D02*
X151676190Y-143957142D01*
X151176190Y-143957142D01*
X151176190Y-143719047D01*
X151676190Y-143504761D02*
X151176190Y-143504761D01*
X151176190Y-143385714D01*
X151200000Y-143314285D01*
X151247619Y-143266666D01*
X151295238Y-143242857D01*
X151390476Y-143219047D01*
X151461905Y-143219047D01*
X151557143Y-143242857D01*
X151604762Y-143266666D01*
X151652381Y-143314285D01*
X151676190Y-143385714D01*
X151676190Y-143504761D01*
X151200000Y-142361905D02*
X151176190Y-142409524D01*
X151176190Y-142480952D01*
X151200000Y-142552381D01*
X151247619Y-142600000D01*
X151295238Y-142623809D01*
X151390476Y-142647619D01*
X151461905Y-142647619D01*
X151557143Y-142623809D01*
X151604762Y-142600000D01*
X151652381Y-142552381D01*
X151676190Y-142480952D01*
X151676190Y-142433333D01*
X151652381Y-142361905D01*
X151628571Y-142338095D01*
X151461905Y-142338095D01*
X151461905Y-142433333D01*
X151676190Y-141838095D02*
X151438095Y-142004762D01*
X151676190Y-142123809D02*
X151176190Y-142123809D01*
X151176190Y-141933333D01*
X151200000Y-141885714D01*
X151223810Y-141861905D01*
X151271429Y-141838095D01*
X151342857Y-141838095D01*
X151390476Y-141861905D01*
X151414286Y-141885714D01*
X151438095Y-141933333D01*
X151438095Y-142123809D01*
X151676190Y-141623809D02*
X151176190Y-141623809D01*
X151676190Y-141338095D01*
X151176190Y-141338095D01*
D14*
X150989286Y-141572619D02*
X151001190Y-141584524D01*
X151013095Y-141620238D01*
X151013095Y-141644048D01*
X151001190Y-141679762D01*
X150977381Y-141703571D01*
X150953571Y-141715476D01*
X150905952Y-141727381D01*
X150870238Y-141727381D01*
X150822619Y-141715476D01*
X150798810Y-141703571D01*
X150775000Y-141679762D01*
X150763095Y-141644048D01*
X150763095Y-141620238D01*
X150775000Y-141584524D01*
X150786905Y-141572619D01*
D13*
X148702381Y-102630952D02*
X148726190Y-102559523D01*
X148726190Y-102440476D01*
X148702381Y-102392857D01*
X148678571Y-102369047D01*
X148630952Y-102345238D01*
X148583333Y-102345238D01*
X148535714Y-102369047D01*
X148511905Y-102392857D01*
X148488095Y-102440476D01*
X148464286Y-102535714D01*
X148440476Y-102583333D01*
X148416667Y-102607142D01*
X148369048Y-102630952D01*
X148321429Y-102630952D01*
X148273810Y-102607142D01*
X148250000Y-102583333D01*
X148226190Y-102535714D01*
X148226190Y-102416666D01*
X148250000Y-102345238D01*
X148726190Y-102130952D02*
X148226190Y-102130952D01*
X148226190Y-101940476D01*
X148250000Y-101892857D01*
X148273810Y-101869048D01*
X148321429Y-101845238D01*
X148392857Y-101845238D01*
X148440476Y-101869048D01*
X148464286Y-101892857D01*
X148488095Y-101940476D01*
X148488095Y-102130952D01*
X148726190Y-101369048D02*
X148726190Y-101654762D01*
X148726190Y-101511905D02*
X148226190Y-101511905D01*
X148297619Y-101559524D01*
X148345238Y-101607143D01*
X148369048Y-101654762D01*
D15*
X147019429Y-118882714D02*
X147019429Y-119499571D01*
X147055714Y-119572143D01*
X147092000Y-119608429D01*
X147164571Y-119644714D01*
X147309714Y-119644714D01*
X147382286Y-119608429D01*
X147418571Y-119572143D01*
X147454857Y-119499571D01*
X147454857Y-118882714D01*
X148216857Y-119644714D02*
X147781429Y-119644714D01*
X147999143Y-119644714D02*
X147999143Y-118882714D01*
X147926572Y-118991571D01*
X147854000Y-119064143D01*
X147781429Y-119100429D01*
D13*
X148528571Y-79035714D02*
X148576190Y-78892857D01*
X148623810Y-78845238D01*
X148719048Y-78797619D01*
X148861905Y-78797619D01*
X148957143Y-78845238D01*
X149004762Y-78892857D01*
X149052381Y-78988095D01*
X149052381Y-79369048D01*
X148052381Y-79369048D01*
X148052381Y-79035714D01*
X148100000Y-78940476D01*
X148147619Y-78892857D01*
X148242857Y-78845238D01*
X148338095Y-78845238D01*
X148433333Y-78892857D01*
X148480952Y-78940476D01*
X148528571Y-79035714D01*
X148528571Y-79369048D01*
X148052381Y-78511905D02*
X148052381Y-77940476D01*
X149052381Y-78226191D02*
X148052381Y-78226191D01*
X149052381Y-77083333D02*
X149052381Y-77654762D01*
X149052381Y-77369048D02*
X148052381Y-77369048D01*
X148195238Y-77464286D01*
X148290476Y-77559524D01*
X148338095Y-77654762D01*
D11*
X144528571Y-80500000D02*
X144576190Y-80357143D01*
X144623810Y-80309524D01*
X144719048Y-80261905D01*
X144861905Y-80261905D01*
X144957143Y-80309524D01*
X145004762Y-80357143D01*
X145052381Y-80452381D01*
X145052381Y-80833334D01*
X144052381Y-80833334D01*
X144052381Y-80500000D01*
X144100000Y-80404762D01*
X144147619Y-80357143D01*
X144242857Y-80309524D01*
X144338095Y-80309524D01*
X144433333Y-80357143D01*
X144480952Y-80404762D01*
X144528571Y-80500000D01*
X144528571Y-80833334D01*
X144766667Y-79880953D02*
X144766667Y-79404762D01*
X145052381Y-79976191D02*
X144052381Y-79642858D01*
X145052381Y-79309524D01*
X144052381Y-79119048D02*
X144052381Y-78547619D01*
X145052381Y-78833334D02*
X144052381Y-78833334D01*
X144052381Y-78357143D02*
X144052381Y-77785714D01*
X145052381Y-78071429D02*
X144052381Y-78071429D01*
X144528571Y-77452381D02*
X144528571Y-77119047D01*
X145052381Y-76976190D02*
X145052381Y-77452381D01*
X144052381Y-77452381D01*
X144052381Y-76976190D01*
X145052381Y-75976190D02*
X144576190Y-76309524D01*
X145052381Y-76547619D02*
X144052381Y-76547619D01*
X144052381Y-76166666D01*
X144100000Y-76071428D01*
X144147619Y-76023809D01*
X144242857Y-75976190D01*
X144385714Y-75976190D01*
X144480952Y-76023809D01*
X144528571Y-76071428D01*
X144576190Y-76166666D01*
X144576190Y-76547619D01*
X144576190Y-75357143D02*
X145052381Y-75357143D01*
X144052381Y-75690476D02*
X144576190Y-75357143D01*
X144052381Y-75023809D01*
X152564286Y-64392857D02*
X152564286Y-62107143D01*
X153707143Y-63250000D02*
X151421429Y-63250000D01*
X138633334Y-108657143D02*
X138585715Y-108704762D01*
X138442858Y-108752381D01*
X138347620Y-108752381D01*
X138204762Y-108704762D01*
X138109524Y-108609524D01*
X138061905Y-108514286D01*
X138014286Y-108323810D01*
X138014286Y-108180952D01*
X138061905Y-107990476D01*
X138109524Y-107895238D01*
X138204762Y-107800000D01*
X138347620Y-107752381D01*
X138442858Y-107752381D01*
X138585715Y-107800000D01*
X138633334Y-107847619D01*
X139585715Y-108752381D02*
X139014286Y-108752381D01*
X139300000Y-108752381D02*
X139300000Y-107752381D01*
X139204762Y-107895238D01*
X139109524Y-107990476D01*
X139014286Y-108038095D01*
X138633334Y-113357143D02*
X138585715Y-113404762D01*
X138442858Y-113452381D01*
X138347620Y-113452381D01*
X138204762Y-113404762D01*
X138109524Y-113309524D01*
X138061905Y-113214286D01*
X138014286Y-113023810D01*
X138014286Y-112880952D01*
X138061905Y-112690476D01*
X138109524Y-112595238D01*
X138204762Y-112500000D01*
X138347620Y-112452381D01*
X138442858Y-112452381D01*
X138585715Y-112500000D01*
X138633334Y-112547619D01*
X139014286Y-112547619D02*
X139061905Y-112500000D01*
X139157143Y-112452381D01*
X139395239Y-112452381D01*
X139490477Y-112500000D01*
X139538096Y-112547619D01*
X139585715Y-112642857D01*
X139585715Y-112738095D01*
X139538096Y-112880952D01*
X138966667Y-113452381D01*
X139585715Y-113452381D01*
X145833334Y-117357143D02*
X145785715Y-117404762D01*
X145642858Y-117452381D01*
X145547620Y-117452381D01*
X145404762Y-117404762D01*
X145309524Y-117309524D01*
X145261905Y-117214286D01*
X145214286Y-117023810D01*
X145214286Y-116880952D01*
X145261905Y-116690476D01*
X145309524Y-116595238D01*
X145404762Y-116500000D01*
X145547620Y-116452381D01*
X145642858Y-116452381D01*
X145785715Y-116500000D01*
X145833334Y-116547619D01*
X146166667Y-116452381D02*
X146785715Y-116452381D01*
X146452381Y-116833333D01*
X146595239Y-116833333D01*
X146690477Y-116880952D01*
X146738096Y-116928571D01*
X146785715Y-117023810D01*
X146785715Y-117261905D01*
X146738096Y-117357143D01*
X146690477Y-117404762D01*
X146595239Y-117452381D01*
X146309524Y-117452381D01*
X146214286Y-117404762D01*
X146166667Y-117357143D01*
X151052381Y-136766666D02*
X150576190Y-137100000D01*
X151052381Y-137338095D02*
X150052381Y-137338095D01*
X150052381Y-136957142D01*
X150100000Y-136861904D01*
X150147619Y-136814285D01*
X150242857Y-136766666D01*
X150385714Y-136766666D01*
X150480952Y-136814285D01*
X150528571Y-136861904D01*
X150576190Y-136957142D01*
X150576190Y-137338095D01*
X151052381Y-135814285D02*
X151052381Y-136385714D01*
X151052381Y-136100000D02*
X150052381Y-136100000D01*
X150195238Y-136195238D01*
X150290476Y-136290476D01*
X150338095Y-136385714D01*
X138952381Y-136766666D02*
X138476190Y-137100000D01*
X138952381Y-137338095D02*
X137952381Y-137338095D01*
X137952381Y-136957142D01*
X138000000Y-136861904D01*
X138047619Y-136814285D01*
X138142857Y-136766666D01*
X138285714Y-136766666D01*
X138380952Y-136814285D01*
X138428571Y-136861904D01*
X138476190Y-136957142D01*
X138476190Y-137338095D01*
X138047619Y-136385714D02*
X138000000Y-136338095D01*
X137952381Y-136242857D01*
X137952381Y-136004761D01*
X138000000Y-135909523D01*
X138047619Y-135861904D01*
X138142857Y-135814285D01*
X138238095Y-135814285D01*
X138380952Y-135861904D01*
X138952381Y-136433333D01*
X138952381Y-135814285D01*
X147052381Y-136566666D02*
X146576190Y-136900000D01*
X147052381Y-137138095D02*
X146052381Y-137138095D01*
X146052381Y-136757142D01*
X146100000Y-136661904D01*
X146147619Y-136614285D01*
X146242857Y-136566666D01*
X146385714Y-136566666D01*
X146480952Y-136614285D01*
X146528571Y-136661904D01*
X146576190Y-136757142D01*
X146576190Y-137138095D01*
X146052381Y-136233333D02*
X146052381Y-135614285D01*
X146433333Y-135947619D01*
X146433333Y-135804761D01*
X146480952Y-135709523D01*
X146528571Y-135661904D01*
X146623810Y-135614285D01*
X146861905Y-135614285D01*
X146957143Y-135661904D01*
X147004762Y-135709523D01*
X147052381Y-135804761D01*
X147052381Y-136090476D01*
X147004762Y-136185714D01*
X146957143Y-136233333D01*
X143052381Y-136666666D02*
X142576190Y-137000000D01*
X143052381Y-137238095D02*
X142052381Y-137238095D01*
X142052381Y-136857142D01*
X142100000Y-136761904D01*
X142147619Y-136714285D01*
X142242857Y-136666666D01*
X142385714Y-136666666D01*
X142480952Y-136714285D01*
X142528571Y-136761904D01*
X142576190Y-136857142D01*
X142576190Y-137238095D01*
X142385714Y-135809523D02*
X143052381Y-135809523D01*
X142004762Y-136047619D02*
X142719048Y-136285714D01*
X142719048Y-135666666D01*
X156652381Y-113666666D02*
X156176190Y-114000000D01*
X156652381Y-114238095D02*
X155652381Y-114238095D01*
X155652381Y-113857142D01*
X155700000Y-113761904D01*
X155747619Y-113714285D01*
X155842857Y-113666666D01*
X155985714Y-113666666D01*
X156080952Y-113714285D01*
X156128571Y-113761904D01*
X156176190Y-113857142D01*
X156176190Y-114238095D01*
X155652381Y-112761904D02*
X155652381Y-113238095D01*
X156128571Y-113285714D01*
X156080952Y-113238095D01*
X156033333Y-113142857D01*
X156033333Y-112904761D01*
X156080952Y-112809523D01*
X156128571Y-112761904D01*
X156223810Y-112714285D01*
X156461905Y-112714285D01*
X156557143Y-112761904D01*
X156604762Y-112809523D01*
X156652381Y-112904761D01*
X156652381Y-113142857D01*
X156604762Y-113238095D01*
X156557143Y-113285714D01*
X139861905Y-131752381D02*
X139861905Y-130752381D01*
X140242858Y-130752381D01*
X140338096Y-130800000D01*
X140385715Y-130847619D01*
X140433334Y-130942857D01*
X140433334Y-131085714D01*
X140385715Y-131180952D01*
X140338096Y-131228571D01*
X140242858Y-131276190D01*
X139861905Y-131276190D01*
X141385715Y-131752381D02*
X140814286Y-131752381D01*
X141100000Y-131752381D02*
X141100000Y-130752381D01*
X141004762Y-130895238D01*
X140909524Y-130990476D01*
X140814286Y-131038095D01*
X145052381Y-110466666D02*
X144576190Y-110800000D01*
X145052381Y-111038095D02*
X144052381Y-111038095D01*
X144052381Y-110657142D01*
X144100000Y-110561904D01*
X144147619Y-110514285D01*
X144242857Y-110466666D01*
X144385714Y-110466666D01*
X144480952Y-110514285D01*
X144528571Y-110561904D01*
X144576190Y-110657142D01*
X144576190Y-111038095D01*
X144052381Y-109609523D02*
X144052381Y-109800000D01*
X144100000Y-109895238D01*
X144147619Y-109942857D01*
X144290476Y-110038095D01*
X144480952Y-110085714D01*
X144861905Y-110085714D01*
X144957143Y-110038095D01*
X145004762Y-109990476D01*
X145052381Y-109895238D01*
X145052381Y-109704761D01*
X145004762Y-109609523D01*
X144957143Y-109561904D01*
X144861905Y-109514285D01*
X144623810Y-109514285D01*
X144528571Y-109561904D01*
X144480952Y-109609523D01*
X144433333Y-109704761D01*
X144433333Y-109895238D01*
X144480952Y-109990476D01*
X144528571Y-110038095D01*
X144623810Y-110085714D01*
X156852381Y-120666666D02*
X156376190Y-121000000D01*
X156852381Y-121238095D02*
X155852381Y-121238095D01*
X155852381Y-120857142D01*
X155900000Y-120761904D01*
X155947619Y-120714285D01*
X156042857Y-120666666D01*
X156185714Y-120666666D01*
X156280952Y-120714285D01*
X156328571Y-120761904D01*
X156376190Y-120857142D01*
X156376190Y-121238095D01*
X155852381Y-120333333D02*
X155852381Y-119666666D01*
X156852381Y-120095238D01*
%LPC*%
D16*
X153500000Y-124500000D03*
D17*
X144350000Y-144050000D03*
X144350000Y-142050000D03*
X150050000Y-143950000D03*
X150050000Y-141950000D03*
D18*
X144800000Y-120555000D03*
X144800000Y-121825000D03*
X144800000Y-123095000D03*
X144800000Y-124365000D03*
X144800000Y-125635000D03*
X144800000Y-126905000D03*
X144800000Y-128175000D03*
X144800000Y-129445000D03*
X150200000Y-129445000D03*
X150200000Y-128175000D03*
X150200000Y-126905000D03*
X150200000Y-125635000D03*
X150200000Y-124365000D03*
X150200000Y-123095000D03*
X150200000Y-121825000D03*
X150200000Y-120555000D03*
D19*
X147100000Y-63350000D03*
X147100000Y-92650000D03*
D20*
X142000000Y-110500000D03*
X139000000Y-110500000D03*
X142000000Y-115000000D03*
X139000000Y-115000000D03*
X146000000Y-114900000D03*
X149000000Y-114900000D03*
D21*
X152500000Y-135950000D03*
X152500000Y-133050000D03*
X140500000Y-135950000D03*
X140500000Y-133050000D03*
X148500000Y-133050000D03*
X148500000Y-135950000D03*
X144500000Y-135950000D03*
X144500000Y-133050000D03*
X153900000Y-113050000D03*
X153900000Y-110150000D03*
D16*
X153500000Y-129000000D03*
D22*
X140500000Y-128500000D03*
D23*
X140500000Y-125960000D03*
X140500000Y-123420000D03*
X140500000Y-120880000D03*
D24*
X148950000Y-110500000D03*
X146050000Y-110500000D03*
D21*
X154000000Y-119650000D03*
X154000000Y-116750000D03*
M02*
