M48
;DRILL file {KiCad (2015-06-09 BZR 5726)-product} date Sun 21 Jun 2015 01:22:53 AM PDT
;FORMAT={-:-/ absolute / metric / decimal}
FMAT,2
METRIC,TZ
T1C0.400
T2C0.600
T3C1.001
T4C1.016
T5C2.500
%
G90
G05
M71
T1
X140.5Y-121.
X143.1Y-132.4
X144.3Y-153.1
X144.5Y-139.8
X144.8Y-116.5
X144.8Y-127.6
X146.2Y-133.6
X147.1Y-96.2
X148.5Y-139.6
X150.1Y-153.1
X153.9Y-117.
X154.Y-123.6
T2
X147.Y-106.75
X147.Y-113.25
T3
X153.5Y-132.5
X153.5Y-137.
T4
X140.5Y-128.88
X140.5Y-131.42
X140.5Y-133.96
X140.5Y-136.5
T5
X139.Y-70.5
X139.Y-154.5
X155.Y-70.5
X155.Y-154.5
T0
M30
