M48
;DRILL file {KiCad (2015-06-09 BZR 5726)-product} date Thu 11 Jun 2015 11:14:20 PM PDT
;FORMAT={-:-/ absolute / metric / decimal}
FMAT,2
METRIC,TZ
T1C0.400
T2C0.600
T3C1.001
T4C1.016
%
G90
G05
M71
T1
X140.5Y-113.
X143.1Y-124.4
X144.3Y-145.1
X144.5Y-131.8
X144.8Y-108.5
X144.8Y-119.6
X146.2Y-125.6
X147.1Y-88.2
X148.5Y-131.6
X150.1Y-145.1
X153.9Y-109.
X154.Y-115.6
T2
X147.Y-98.75
X147.Y-105.25
T3
X153.5Y-124.5
X153.5Y-129.
T4
X140.5Y-120.88
X140.5Y-123.42
X140.5Y-125.96
X140.5Y-128.5
T0
M30
