G04 #@! TF.FileFunction,Legend,Top*
%FSLAX46Y46*%
G04 Gerber Fmt 4.6, Leading zero omitted, Abs format (unit mm)*
G04 Created by KiCad (PCBNEW (2015-08-06 BZR 6058)-product) date Wed 12 Aug 2015 10:19:41 AM PDT*
%MOMM*%
G01*
G04 APERTURE LIST*
%ADD10C,0.100000*%
%ADD11C,0.300000*%
%ADD12C,0.150000*%
%ADD13C,0.203200*%
%ADD14C,0.125000*%
%ADD15C,0.152400*%
G04 APERTURE END LIST*
D10*
D11*
X121464286Y-110535714D02*
X121392857Y-110607143D01*
X121178571Y-110678571D01*
X121035714Y-110678571D01*
X120821429Y-110607143D01*
X120678571Y-110464286D01*
X120607143Y-110321429D01*
X120535714Y-110035714D01*
X120535714Y-109821429D01*
X120607143Y-109535714D01*
X120678571Y-109392857D01*
X120821429Y-109250000D01*
X121035714Y-109178571D01*
X121178571Y-109178571D01*
X121392857Y-109250000D01*
X121464286Y-109321429D01*
X120428572Y-113107143D02*
X121571429Y-113107143D01*
X121000000Y-113678571D02*
X121000000Y-112535714D01*
D12*
X122075000Y-118175000D02*
X122075000Y-116175000D01*
X124225000Y-116175000D02*
X124225000Y-118175000D01*
X126900000Y-101650000D02*
G75*
G03X126900000Y-101650000I-6000000J0D01*
G01*
X117800000Y-109200000D02*
X117800000Y-112800000D01*
X119900000Y-109200000D02*
X119900000Y-112800000D01*
X119150000Y-111250000D02*
X118550000Y-111250000D01*
X118550000Y-111250000D02*
X118850000Y-110950000D01*
X118850000Y-110950000D02*
X119050000Y-111150000D01*
X119050000Y-111150000D02*
X118800000Y-111150000D01*
X118800000Y-111150000D02*
X118850000Y-111100000D01*
X119350000Y-110850000D02*
X118350000Y-110850000D01*
X118850000Y-111350000D02*
X118850000Y-111850000D01*
X118850000Y-110850000D02*
X119350000Y-111350000D01*
X119350000Y-111350000D02*
X118350000Y-111350000D01*
X118350000Y-111350000D02*
X118850000Y-110850000D01*
X122100000Y-109200000D02*
X122100000Y-112800000D01*
X124200000Y-109200000D02*
X124200000Y-112800000D01*
X123450000Y-111250000D02*
X122850000Y-111250000D01*
X122850000Y-111250000D02*
X123150000Y-110950000D01*
X123150000Y-110950000D02*
X123350000Y-111150000D01*
X123350000Y-111150000D02*
X123100000Y-111150000D01*
X123100000Y-111150000D02*
X123150000Y-111100000D01*
X123650000Y-110850000D02*
X122650000Y-110850000D01*
X123150000Y-111350000D02*
X123150000Y-111850000D01*
X123150000Y-110850000D02*
X123650000Y-111350000D01*
X123650000Y-111350000D02*
X122650000Y-111350000D01*
X122650000Y-111350000D02*
X123150000Y-110850000D01*
X117825000Y-118150000D02*
X117825000Y-116150000D01*
X119975000Y-116150000D02*
X119975000Y-118150000D01*
X127545000Y-144335000D02*
X114845000Y-144335000D01*
X114845000Y-144335000D02*
X114845000Y-139255000D01*
X114845000Y-139255000D02*
X125005000Y-139255000D01*
X127545000Y-144335000D02*
X127545000Y-141795000D01*
X127825000Y-140525000D02*
X127825000Y-138975000D01*
X127545000Y-141795000D02*
X125005000Y-141795000D01*
X125005000Y-141795000D02*
X125005000Y-139255000D01*
X127825000Y-138975000D02*
X126275000Y-138975000D01*
X120500000Y-132425000D02*
X122500000Y-132425000D01*
X122500000Y-134575000D02*
X120500000Y-134575000D01*
D13*
X120150000Y-121200000D02*
X120150000Y-131200000D01*
X119003553Y-120700000D02*
G75*
G03X119003553Y-120700000I-353553J0D01*
G01*
X123150000Y-121200000D02*
X119150000Y-121200000D01*
X119150000Y-121200000D02*
X119150000Y-131200000D01*
X119150000Y-131200000D02*
X123150000Y-131200000D01*
X123150000Y-131200000D02*
X123150000Y-121200000D01*
D12*
X123083334Y-120452381D02*
X122750000Y-119976190D01*
X122511905Y-120452381D02*
X122511905Y-119452381D01*
X122892858Y-119452381D01*
X122988096Y-119500000D01*
X123035715Y-119547619D01*
X123083334Y-119642857D01*
X123083334Y-119785714D01*
X123035715Y-119880952D01*
X122988096Y-119928571D01*
X122892858Y-119976190D01*
X122511905Y-119976190D01*
X124035715Y-120452381D02*
X123464286Y-120452381D01*
X123750000Y-120452381D02*
X123750000Y-119452381D01*
X123654762Y-119595238D01*
X123559524Y-119690476D01*
X123464286Y-119738095D01*
X124702381Y-117238095D02*
X124702381Y-117714286D01*
X125178571Y-117761905D01*
X125130952Y-117714286D01*
X125083333Y-117619048D01*
X125083333Y-117380952D01*
X125130952Y-117285714D01*
X125178571Y-117238095D01*
X125273810Y-117190476D01*
X125511905Y-117190476D01*
X125607143Y-117238095D01*
X125654762Y-117285714D01*
X125702381Y-117380952D01*
X125702381Y-117619048D01*
X125654762Y-117714286D01*
X125607143Y-117761905D01*
X125702381Y-116238095D02*
X125702381Y-116809524D01*
X125702381Y-116523810D02*
X124702381Y-116523810D01*
X124845238Y-116619048D01*
X124940476Y-116714286D01*
X124988095Y-116809524D01*
D14*
X120269048Y-103552381D02*
X120340477Y-103576190D01*
X120459524Y-103576190D01*
X120507143Y-103552381D01*
X120530953Y-103528571D01*
X120554762Y-103480952D01*
X120554762Y-103433333D01*
X120530953Y-103385714D01*
X120507143Y-103361905D01*
X120459524Y-103338095D01*
X120364286Y-103314286D01*
X120316667Y-103290476D01*
X120292858Y-103266667D01*
X120269048Y-103219048D01*
X120269048Y-103171429D01*
X120292858Y-103123810D01*
X120316667Y-103100000D01*
X120364286Y-103076190D01*
X120483334Y-103076190D01*
X120554762Y-103100000D01*
X120769048Y-103576190D02*
X120769048Y-103076190D01*
X120959524Y-103076190D01*
X121007143Y-103100000D01*
X121030952Y-103123810D01*
X121054762Y-103171429D01*
X121054762Y-103242857D01*
X121030952Y-103290476D01*
X121007143Y-103314286D01*
X120959524Y-103338095D01*
X120769048Y-103338095D01*
X121530952Y-103576190D02*
X121245238Y-103576190D01*
X121388095Y-103576190D02*
X121388095Y-103076190D01*
X121340476Y-103147619D01*
X121292857Y-103195238D01*
X121245238Y-103219048D01*
D12*
X118011905Y-108652381D02*
X118011905Y-107652381D01*
X118250000Y-107652381D01*
X118392858Y-107700000D01*
X118488096Y-107795238D01*
X118535715Y-107890476D01*
X118583334Y-108080952D01*
X118583334Y-108223810D01*
X118535715Y-108414286D01*
X118488096Y-108509524D01*
X118392858Y-108604762D01*
X118250000Y-108652381D01*
X118011905Y-108652381D01*
X119535715Y-108652381D02*
X118964286Y-108652381D01*
X119250000Y-108652381D02*
X119250000Y-107652381D01*
X119154762Y-107795238D01*
X119059524Y-107890476D01*
X118964286Y-107938095D01*
X117102381Y-113201190D02*
X117102381Y-113677381D01*
X116102381Y-113677381D01*
X116578571Y-112867857D02*
X116578571Y-112534523D01*
X117102381Y-112391666D02*
X117102381Y-112867857D01*
X116102381Y-112867857D01*
X116102381Y-112391666D01*
X117102381Y-111963095D02*
X116102381Y-111963095D01*
X116102381Y-111725000D01*
X116150000Y-111582142D01*
X116245238Y-111486904D01*
X116340476Y-111439285D01*
X116530952Y-111391666D01*
X116673810Y-111391666D01*
X116864286Y-111439285D01*
X116959524Y-111486904D01*
X117054762Y-111582142D01*
X117102381Y-111725000D01*
X117102381Y-111963095D01*
X117102381Y-109629761D02*
X116626190Y-109963095D01*
X117102381Y-110201190D02*
X116102381Y-110201190D01*
X116102381Y-109820237D01*
X116150000Y-109724999D01*
X116197619Y-109677380D01*
X116292857Y-109629761D01*
X116435714Y-109629761D01*
X116530952Y-109677380D01*
X116578571Y-109724999D01*
X116626190Y-109820237D01*
X116626190Y-110201190D01*
X116578571Y-109201190D02*
X116578571Y-108867856D01*
X117102381Y-108724999D02*
X117102381Y-109201190D01*
X116102381Y-109201190D01*
X116102381Y-108724999D01*
X117102381Y-108296428D02*
X116102381Y-108296428D01*
X116102381Y-108058333D01*
X116150000Y-107915475D01*
X116245238Y-107820237D01*
X116340476Y-107772618D01*
X116530952Y-107724999D01*
X116673810Y-107724999D01*
X116864286Y-107772618D01*
X116959524Y-107820237D01*
X117054762Y-107915475D01*
X117102381Y-108058333D01*
X117102381Y-108296428D01*
X122486905Y-108677381D02*
X122486905Y-107677381D01*
X122725000Y-107677381D01*
X122867858Y-107725000D01*
X122963096Y-107820238D01*
X123010715Y-107915476D01*
X123058334Y-108105952D01*
X123058334Y-108248810D01*
X123010715Y-108439286D01*
X122963096Y-108534524D01*
X122867858Y-108629762D01*
X122725000Y-108677381D01*
X122486905Y-108677381D01*
X123439286Y-107772619D02*
X123486905Y-107725000D01*
X123582143Y-107677381D01*
X123820239Y-107677381D01*
X123915477Y-107725000D01*
X123963096Y-107772619D01*
X124010715Y-107867857D01*
X124010715Y-107963095D01*
X123963096Y-108105952D01*
X123391667Y-108677381D01*
X124010715Y-108677381D01*
X125727381Y-112997619D02*
X125727381Y-113473810D01*
X124727381Y-113473810D01*
X125203571Y-112664286D02*
X125203571Y-112330952D01*
X125727381Y-112188095D02*
X125727381Y-112664286D01*
X124727381Y-112664286D01*
X124727381Y-112188095D01*
X125727381Y-111759524D02*
X124727381Y-111759524D01*
X124727381Y-111521429D01*
X124775000Y-111378571D01*
X124870238Y-111283333D01*
X124965476Y-111235714D01*
X125155952Y-111188095D01*
X125298810Y-111188095D01*
X125489286Y-111235714D01*
X125584524Y-111283333D01*
X125679762Y-111378571D01*
X125727381Y-111521429D01*
X125727381Y-111759524D01*
X124775000Y-109473809D02*
X124727381Y-109569047D01*
X124727381Y-109711904D01*
X124775000Y-109854762D01*
X124870238Y-109950000D01*
X124965476Y-109997619D01*
X125155952Y-110045238D01*
X125298810Y-110045238D01*
X125489286Y-109997619D01*
X125584524Y-109950000D01*
X125679762Y-109854762D01*
X125727381Y-109711904D01*
X125727381Y-109616666D01*
X125679762Y-109473809D01*
X125632143Y-109426190D01*
X125298810Y-109426190D01*
X125298810Y-109616666D01*
X125727381Y-108426190D02*
X125251190Y-108759524D01*
X125727381Y-108997619D02*
X124727381Y-108997619D01*
X124727381Y-108616666D01*
X124775000Y-108521428D01*
X124822619Y-108473809D01*
X124917857Y-108426190D01*
X125060714Y-108426190D01*
X125155952Y-108473809D01*
X125203571Y-108521428D01*
X125251190Y-108616666D01*
X125251190Y-108997619D01*
X125727381Y-107997619D02*
X124727381Y-107997619D01*
X125727381Y-107426190D01*
X124727381Y-107426190D01*
X118833334Y-120452381D02*
X118500000Y-119976190D01*
X118261905Y-120452381D02*
X118261905Y-119452381D01*
X118642858Y-119452381D01*
X118738096Y-119500000D01*
X118785715Y-119547619D01*
X118833334Y-119642857D01*
X118833334Y-119785714D01*
X118785715Y-119880952D01*
X118738096Y-119928571D01*
X118642858Y-119976190D01*
X118261905Y-119976190D01*
X119214286Y-119547619D02*
X119261905Y-119500000D01*
X119357143Y-119452381D01*
X119595239Y-119452381D01*
X119690477Y-119500000D01*
X119738096Y-119547619D01*
X119785715Y-119642857D01*
X119785715Y-119738095D01*
X119738096Y-119880952D01*
X119166667Y-120452381D01*
X119785715Y-120452381D01*
X116452381Y-117488095D02*
X116452381Y-117964286D01*
X116928571Y-118011905D01*
X116880952Y-117964286D01*
X116833333Y-117869048D01*
X116833333Y-117630952D01*
X116880952Y-117535714D01*
X116928571Y-117488095D01*
X117023810Y-117440476D01*
X117261905Y-117440476D01*
X117357143Y-117488095D01*
X117404762Y-117535714D01*
X117452381Y-117630952D01*
X117452381Y-117869048D01*
X117404762Y-117964286D01*
X117357143Y-118011905D01*
X117452381Y-116488095D02*
X117452381Y-117059524D01*
X117452381Y-116773810D02*
X116452381Y-116773810D01*
X116595238Y-116869048D01*
X116690476Y-116964286D01*
X116738095Y-117059524D01*
X124338095Y-137752381D02*
X124909524Y-137752381D01*
X124623809Y-138752381D02*
X124623809Y-137752381D01*
X125814286Y-138657143D02*
X125766667Y-138704762D01*
X125623810Y-138752381D01*
X125528572Y-138752381D01*
X125385714Y-138704762D01*
X125290476Y-138609524D01*
X125242857Y-138514286D01*
X125195238Y-138323810D01*
X125195238Y-138180952D01*
X125242857Y-137990476D01*
X125290476Y-137895238D01*
X125385714Y-137800000D01*
X125528572Y-137752381D01*
X125623810Y-137752381D01*
X125766667Y-137800000D01*
X125814286Y-137847619D01*
X126766667Y-138752381D02*
X126195238Y-138752381D01*
X126480952Y-138752381D02*
X126480952Y-137752381D01*
X126385714Y-137895238D01*
X126290476Y-137990476D01*
X126195238Y-138038095D01*
X115938095Y-137752381D02*
X116509524Y-137752381D01*
X116223809Y-138752381D02*
X116223809Y-137752381D01*
X117414286Y-138657143D02*
X117366667Y-138704762D01*
X117223810Y-138752381D01*
X117128572Y-138752381D01*
X116985714Y-138704762D01*
X116890476Y-138609524D01*
X116842857Y-138514286D01*
X116795238Y-138323810D01*
X116795238Y-138180952D01*
X116842857Y-137990476D01*
X116890476Y-137895238D01*
X116985714Y-137800000D01*
X117128572Y-137752381D01*
X117223810Y-137752381D01*
X117366667Y-137800000D01*
X117414286Y-137847619D01*
X117795238Y-137847619D02*
X117842857Y-137800000D01*
X117938095Y-137752381D01*
X118176191Y-137752381D01*
X118271429Y-137800000D01*
X118319048Y-137847619D01*
X118366667Y-137942857D01*
X118366667Y-138038095D01*
X118319048Y-138180952D01*
X117747619Y-138752381D01*
X118366667Y-138752381D01*
X118202381Y-133166666D02*
X117726190Y-133500000D01*
X118202381Y-133738095D02*
X117202381Y-133738095D01*
X117202381Y-133357142D01*
X117250000Y-133261904D01*
X117297619Y-133214285D01*
X117392857Y-133166666D01*
X117535714Y-133166666D01*
X117630952Y-133214285D01*
X117678571Y-133261904D01*
X117726190Y-133357142D01*
X117726190Y-133738095D01*
X117202381Y-132833333D02*
X117202381Y-132166666D01*
X118202381Y-132595238D01*
X124785714Y-134595237D02*
X125452381Y-134595237D01*
X124404762Y-134833333D02*
X125119048Y-135071428D01*
X125119048Y-134452380D01*
X125357143Y-134071428D02*
X125404762Y-134023809D01*
X125452381Y-134071428D01*
X125404762Y-134119047D01*
X125357143Y-134071428D01*
X125452381Y-134071428D01*
X124452381Y-133690476D02*
X124452381Y-133023809D01*
X125452381Y-133452381D01*
X125452381Y-132642857D02*
X124452381Y-132642857D01*
X125166667Y-132309523D01*
X124452381Y-131976190D01*
X125452381Y-131976190D01*
D15*
X120419429Y-120082714D02*
X120419429Y-120699571D01*
X120455714Y-120772143D01*
X120492000Y-120808429D01*
X120564571Y-120844714D01*
X120709714Y-120844714D01*
X120782286Y-120808429D01*
X120818571Y-120772143D01*
X120854857Y-120699571D01*
X120854857Y-120082714D01*
X121616857Y-120844714D02*
X121181429Y-120844714D01*
X121399143Y-120844714D02*
X121399143Y-120082714D01*
X121326572Y-120191571D01*
X121254000Y-120264143D01*
X121181429Y-120300429D01*
M02*
